<?xml version="1.0" encoding="UTF-8"?>
<svg xmlns="http://www.w3.org/2000/svg" xmlns:xlink="http://www.w3.org/1999/xlink" width="604.875" height="76.574997" viewBox="0 0 604.875 76.574997">
<defs>
<clipPath id="clip-0">
<path clip-rule="nonzero" d="M 591 2 L 604.875 2 L 604.875 32 L 591 32 Z M 591 2 "/>
</clipPath>
<clipPath id="clip-1">
<path clip-rule="nonzero" d="M 0 46 L 29 46 L 29 76.574219 L 0 76.574219 Z M 0 46 "/>
</clipPath>
<clipPath id="clip-2">
<path clip-rule="nonzero" d="M 34 54 L 54 54 L 54 76.574219 L 34 76.574219 Z M 34 54 "/>
</clipPath>
<clipPath id="clip-3">
<path clip-rule="nonzero" d="M 57 45 L 78 45 L 78 76.574219 L 57 76.574219 Z M 57 45 "/>
</clipPath>
<clipPath id="clip-4">
<path clip-rule="nonzero" d="M 126 54 L 145 54 L 145 76.574219 L 126 76.574219 Z M 126 54 "/>
</clipPath>
<clipPath id="clip-5">
<path clip-rule="nonzero" d="M 160 54 L 177 54 L 177 76.574219 L 160 76.574219 Z M 160 54 "/>
</clipPath>
<clipPath id="clip-6">
<path clip-rule="nonzero" d="M 180 54 L 198 54 L 198 76.574219 L 180 76.574219 Z M 180 54 "/>
</clipPath>
<clipPath id="clip-7">
<path clip-rule="nonzero" d="M 202 45 L 221 45 L 221 76.574219 L 202 76.574219 Z M 202 45 "/>
</clipPath>
<clipPath id="clip-8">
<path clip-rule="nonzero" d="M 225 54 L 245 54 L 245 76.574219 L 225 76.574219 Z M 225 54 "/>
</clipPath>
<clipPath id="clip-9">
<path clip-rule="nonzero" d="M 262 47 L 281 47 L 281 76.574219 L 262 76.574219 Z M 262 47 "/>
</clipPath>
<clipPath id="clip-10">
<path clip-rule="nonzero" d="M 281 54 L 300 54 L 300 76.574219 L 281 76.574219 Z M 281 54 "/>
</clipPath>
<clipPath id="clip-11">
<path clip-rule="nonzero" d="M 305 45 L 324 45 L 324 76.574219 L 305 76.574219 Z M 305 45 "/>
</clipPath>
<clipPath id="clip-12">
<path clip-rule="nonzero" d="M 327 55 L 346 55 L 346 76.574219 L 327 76.574219 Z M 327 55 "/>
</clipPath>
<clipPath id="clip-13">
<path clip-rule="nonzero" d="M 361 48 L 375 48 L 375 76.574219 L 361 76.574219 Z M 361 48 "/>
</clipPath>
<clipPath id="clip-14">
<path clip-rule="nonzero" d="M 378 46 L 396 46 L 396 76.574219 L 378 76.574219 Z M 378 46 "/>
</clipPath>
<clipPath id="clip-15">
<path clip-rule="nonzero" d="M 399 48 L 413 48 L 413 76.574219 L 399 76.574219 Z M 399 48 "/>
</clipPath>
</defs>
<path fill-rule="nonzero" fill="rgb(100%, 100%, 100%)" fill-opacity="1" d="M 18.300781 6.375 L 5.175781 6.375 L 5.175781 13.574219 L 14.925781 13.574219 L 14.925781 18.300781 L 5.175781 18.300781 L 5.175781 30.675781 L 0 30.675781 L 0 1.574219 L 18.226562 1.574219 L 18.226562 6.375 Z M 18.300781 6.375 "/>
<path fill-rule="nonzero" fill="rgb(100%, 100%, 100%)" fill-opacity="1" d="M 33.75 9.523438 L 33 14.550781 C 32.25 14.175781 31.351562 13.875 30.300781 13.875 C 26.925781 13.875 26.023438 16.574219 26.023438 19.800781 L 26.023438 30.601562 L 21.148438 30.601562 L 21.148438 9.601562 L 25.949219 9.601562 L 25.949219 12.300781 L 26.023438 12.300781 C 27.148438 10.351562 29.101562 9.148438 31.5 9.148438 C 32.175781 9.074219 33 9.226562 33.75 9.523438 Z M 33.75 9.523438 "/>
<path fill-rule="nonzero" fill="rgb(100%, 100%, 100%)" fill-opacity="1" d="M 43.5 3.300781 C 43.5 5.023438 42.074219 6.300781 40.351562 6.300781 C 38.625 6.300781 37.273438 5.023438 37.273438 3.300781 C 37.273438 1.574219 38.699219 0.300781 40.351562 0.300781 C 42.074219 0.300781 43.5 1.574219 43.5 3.300781 Z M 42.824219 30.601562 L 37.949219 30.601562 L 37.949219 9.601562 L 42.824219 9.601562 Z M 42.824219 30.601562 "/>
<path fill-rule="nonzero" fill="rgb(100%, 100%, 100%)" fill-opacity="1" d="M 58.425781 31.125 C 52.199219 31.125 48 26.699219 48 20.101562 C 48 13.574219 51.976562 9.148438 57.824219 9.148438 C 63.449219 9.148438 67.125 13.351562 67.125 19.800781 C 67.125 20.476562 67.050781 21.226562 67.050781 21.824219 L 52.949219 21.824219 C 53.476562 25.050781 55.425781 26.925781 58.425781 26.925781 C 60.375 26.925781 61.949219 26.175781 63.601562 24.449219 L 66.675781 27.675781 C 64.273438 30 61.574219 31.125 58.425781 31.125 Z M 52.875 18.226562 L 62.398438 18.226562 C 62.175781 15 60.523438 13.125 57.75 13.125 C 55.050781 13.125 53.324219 15 52.875 18.226562 Z M 52.875 18.226562 "/>
<path fill-rule="nonzero" fill="rgb(100%, 100%, 100%)" fill-opacity="1" d="M 71.476562 20.101562 C 71.476562 13.351562 74.925781 9.148438 80.023438 9.148438 C 82.648438 9.148438 84.75 10.273438 86.101562 12 L 86.175781 12 L 86.175781 1.199219 L 91.050781 0 L 91.050781 30.675781 L 86.25 30.675781 L 86.25 28.199219 L 86.175781 28.199219 C 84.675781 30.074219 82.5 31.199219 79.875 31.199219 C 74.925781 31.125 71.476562 26.851562 71.476562 20.101562 Z M 76.273438 20.101562 C 76.273438 24.375 78.074219 26.851562 81.148438 26.851562 C 83.023438 26.851562 84.601562 25.949219 86.175781 24.074219 L 86.175781 16.351562 C 84.75 14.476562 83.175781 13.574219 81.148438 13.574219 C 78 13.574219 76.273438 15.898438 76.273438 20.101562 Z M 76.273438 20.101562 "/>
<path fill-rule="nonzero" fill="rgb(100%, 100%, 100%)" fill-opacity="1" d="M 110.175781 9.523438 L 109.425781 14.550781 C 108.675781 14.175781 107.773438 13.875 106.726562 13.875 C 103.351562 13.875 102.449219 16.574219 102.449219 19.800781 L 102.449219 30.601562 L 97.574219 30.601562 L 97.574219 9.601562 L 102.375 9.601562 L 102.375 12.300781 L 102.449219 12.300781 C 103.574219 10.351562 105.523438 9.148438 107.925781 9.148438 C 108.601562 9.074219 109.425781 9.226562 110.175781 9.523438 Z M 110.175781 9.523438 "/>
<path fill-rule="nonzero" fill="rgb(100%, 100%, 100%)" fill-opacity="1" d="M 119.851562 3.300781 C 119.851562 5.023438 118.425781 6.300781 116.699219 6.300781 C 114.976562 6.300781 113.625 5.023438 113.625 3.300781 C 113.625 1.574219 115.050781 0.300781 116.699219 0.300781 C 118.5 0.300781 119.851562 1.574219 119.851562 3.300781 Z M 119.25 30.601562 L 114.375 30.601562 L 114.375 9.601562 L 119.25 9.601562 Z M 119.25 30.601562 "/>
<path fill-rule="nonzero" fill="rgb(100%, 100%, 100%)" fill-opacity="1" d="M 142.050781 27.75 C 139.949219 30.074219 137.550781 31.125 134.550781 31.125 C 128.550781 31.125 124.5 26.773438 124.5 20.175781 C 124.5 13.574219 128.550781 9.074219 134.625 9.074219 C 137.773438 9.074219 140.324219 10.273438 142.199219 12.675781 L 138.824219 15.898438 C 137.625 14.324219 136.273438 13.574219 134.625 13.574219 C 131.550781 13.574219 129.449219 16.125 129.449219 20.101562 C 129.449219 24 131.550781 26.625 134.625 26.625 C 136.273438 26.625 137.625 25.875 138.976562 24.300781 Z M 142.050781 27.75 "/>
<path fill-rule="nonzero" fill="rgb(100%, 100%, 100%)" fill-opacity="1" d="M 164.476562 30.601562 L 159.601562 30.601562 L 159.601562 18.601562 C 159.601562 15.523438 158.625 13.5 155.699219 13.5 C 152.324219 13.5 151.351562 16.199219 151.351562 18.601562 L 151.351562 30.675781 L 146.398438 30.675781 L 146.398438 1.199219 L 151.273438 0 L 151.273438 12.226562 L 151.351562 12.226562 C 152.550781 10.351562 154.726562 9.148438 157.5 9.148438 C 162.375 9.148438 164.398438 12.75 164.398438 17.625 L 164.398438 30.601562 Z M 164.476562 30.601562 "/>
<path fill-rule="nonzero" fill="rgb(100%, 100%, 100%)" fill-opacity="1" d="M 170.101562 15.449219 L 180.375 15.449219 L 180.375 20.101562 L 170.101562 20.101562 Z M 170.101562 15.449219 "/>
<path fill-rule="nonzero" fill="rgb(100%, 100%, 100%)" fill-opacity="1" d="M 193.726562 1.574219 L 199.199219 1.574219 L 210 30.601562 L 204.375 30.601562 L 202.273438 24.449219 L 190.574219 24.449219 L 188.476562 30.601562 L 183 30.601562 Z M 192.148438 19.800781 L 200.625 19.800781 L 196.425781 7.5 L 196.351562 7.5 Z M 192.148438 19.800781 "/>
<path fill-rule="nonzero" fill="rgb(100%, 100%, 100%)" fill-opacity="1" d="M 219.226562 30.601562 L 214.351562 30.601562 L 214.351562 1.125 L 219.226562 0 Z M 219.226562 30.601562 "/>
<path fill-rule="nonzero" fill="rgb(100%, 100%, 100%)" fill-opacity="1" d="M 234.898438 31.125 C 228.675781 31.125 224.476562 26.699219 224.476562 20.101562 C 224.476562 13.574219 228.449219 9.148438 234.300781 9.148438 C 239.925781 9.148438 243.601562 13.351562 243.601562 19.800781 C 243.601562 20.476562 243.523438 21.226562 243.523438 21.824219 L 229.425781 21.824219 C 229.949219 25.050781 231.898438 26.925781 234.898438 26.925781 C 236.851562 26.925781 238.425781 26.175781 240.074219 24.449219 L 243.148438 27.675781 C 240.75 30 238.125 31.125 234.898438 31.125 Z M 229.425781 18.226562 L 238.949219 18.226562 C 238.726562 15 237.074219 13.125 234.300781 13.125 C 231.601562 13.125 229.875 15 229.425781 18.226562 Z M 229.425781 18.226562 "/>
<path fill-rule="nonzero" fill="rgb(100%, 100%, 100%)" fill-opacity="1" d="M 266.398438 30.601562 L 260.773438 30.601562 L 256.273438 23.324219 L 256.199219 23.324219 L 251.851562 30.601562 L 246.300781 30.601562 L 253.5 19.726562 L 246.824219 9.601562 L 252.375 9.601562 L 256.351562 16.050781 L 256.425781 16.050781 L 260.324219 9.601562 L 265.800781 9.601562 L 259.199219 19.648438 Z M 266.398438 30.601562 "/>
<path fill-rule="nonzero" fill="rgb(100%, 100%, 100%)" fill-opacity="1" d="M 278.023438 17.625 C 279.375 17.625 280.648438 17.699219 282 18.074219 L 282 17.324219 C 282 14.625 280.425781 13.273438 277.351562 13.273438 C 275.625 13.273438 273.75 13.726562 272.023438 14.476562 L 270.976562 10.351562 C 272.925781 9.601562 275.476562 9.148438 277.875 9.148438 C 283.800781 9.148438 286.800781 11.925781 286.800781 17.25 L 286.800781 30.675781 L 282.148438 30.675781 L 282.148438 28.425781 L 282.074219 28.425781 C 280.273438 30.300781 278.398438 31.125 275.925781 31.125 C 271.726562 31.125 269.023438 28.5 269.023438 24.449219 C 268.949219 20.023438 272.101562 17.625 278.023438 17.625 Z M 277.199219 27.449219 C 279 27.449219 280.648438 26.550781 282 24.898438 L 282 21.300781 C 280.875 21 279.675781 20.925781 278.550781 20.925781 C 275.476562 20.925781 273.675781 22.125 273.675781 24.375 C 273.675781 26.25 275.023438 27.449219 277.199219 27.449219 Z M 277.199219 27.449219 "/>
<path fill-rule="nonzero" fill="rgb(100%, 100%, 100%)" fill-opacity="1" d="M 311.101562 30.601562 L 306.148438 30.601562 L 306.148438 18.601562 C 306.148438 15.523438 305.25 13.5 302.25 13.5 C 298.800781 13.5 297.898438 16.273438 297.898438 18.601562 L 297.898438 30.675781 L 293.023438 30.675781 L 293.023438 9.675781 L 297.898438 9.675781 L 297.898438 12.226562 L 297.976562 12.226562 C 299.25 10.351562 301.425781 9.148438 304.125 9.148438 C 308.925781 9.148438 311.023438 12.675781 311.023438 17.625 L 311.023438 30.601562 Z M 311.101562 30.601562 "/>
<path fill-rule="nonzero" fill="rgb(100%, 100%, 100%)" fill-opacity="1" d="M 316.273438 20.101562 C 316.273438 13.351562 319.726562 9.148438 324.824219 9.148438 C 327.449219 9.148438 329.550781 10.273438 330.898438 12 L 330.976562 12 L 330.976562 1.199219 L 335.851562 0 L 335.851562 30.675781 L 331.050781 30.675781 L 331.050781 28.199219 L 330.976562 28.199219 C 329.476562 30.074219 327.300781 31.199219 324.675781 31.199219 C 319.726562 31.125 316.273438 26.851562 316.273438 20.101562 Z M 321.148438 20.101562 C 321.148438 24.375 322.949219 26.851562 326.023438 26.851562 C 327.898438 26.851562 329.476562 25.949219 331.050781 24.074219 L 331.050781 16.351562 C 329.625 14.476562 328.050781 13.574219 326.023438 13.574219 C 322.800781 13.574219 321.148438 15.898438 321.148438 20.101562 Z M 321.148438 20.101562 "/>
<path fill-rule="nonzero" fill="rgb(100%, 100%, 100%)" fill-opacity="1" d="M 351.601562 31.125 C 345.375 31.125 341.175781 26.699219 341.175781 20.101562 C 341.175781 13.574219 345.148438 9.148438 351 9.148438 C 356.625 9.148438 360.300781 13.351562 360.300781 19.800781 C 360.300781 20.476562 360.226562 21.226562 360.226562 21.824219 L 346.125 21.824219 C 346.648438 25.050781 348.601562 26.925781 351.601562 26.925781 C 353.550781 26.925781 355.125 26.175781 356.773438 24.449219 L 359.851562 27.675781 C 357.449219 30 354.75 31.125 351.601562 31.125 Z M 346.125 18.226562 L 355.648438 18.226562 C 355.425781 15 353.773438 13.125 351 13.125 C 348.300781 13.125 346.5 15 346.125 18.226562 Z M 346.125 18.226562 "/>
<path fill-rule="nonzero" fill="rgb(100%, 100%, 100%)" fill-opacity="1" d="M 378.449219 9.523438 L 377.699219 14.550781 C 376.949219 14.175781 376.050781 13.875 375 13.875 C 371.625 13.875 370.726562 16.574219 370.726562 19.800781 L 370.726562 30.601562 L 365.851562 30.601562 L 365.851562 9.601562 L 370.648438 9.601562 L 370.648438 12.300781 L 370.726562 12.300781 C 371.851562 10.351562 373.800781 9.148438 376.199219 9.148438 C 376.875 9.074219 377.699219 9.226562 378.449219 9.523438 Z M 378.449219 9.523438 "/>
<path fill-rule="nonzero" fill="rgb(100%, 100%, 100%)" fill-opacity="1" d="M 381.523438 15.449219 L 391.800781 15.449219 L 391.800781 20.101562 L 381.523438 20.101562 Z M 381.523438 15.449219 "/>
<path fill-rule="nonzero" fill="rgb(100%, 100%, 100%)" fill-opacity="1" d="M 420.75 19.125 C 420.75 26.101562 417.148438 31.125 409.351562 31.125 C 401.625 31.125 398.023438 26.175781 398.023438 19.125 L 398.023438 1.574219 L 403.273438 1.574219 L 403.273438 18.824219 C 403.273438 23.175781 405.148438 26.175781 409.425781 26.175781 C 413.699219 26.175781 415.425781 23.25 415.425781 18.824219 L 415.425781 1.574219 L 420.675781 1.574219 L 420.675781 19.125 Z M 420.75 19.125 "/>
<path fill-rule="nonzero" fill="rgb(100%, 100%, 100%)" fill-opacity="1" d="M 445.351562 30.601562 L 440.476562 30.601562 L 440.476562 18.601562 C 440.476562 15.523438 439.574219 13.5 436.574219 13.5 C 433.125 13.5 432.226562 16.273438 432.226562 18.601562 L 432.226562 30.675781 L 427.351562 30.675781 L 427.351562 9.675781 L 432.226562 9.675781 L 432.226562 12.226562 L 432.300781 12.226562 C 433.574219 10.351562 435.75 9.148438 438.449219 9.148438 C 443.25 9.148438 445.351562 12.675781 445.351562 17.625 Z M 445.351562 30.601562 "/>
<path fill-rule="nonzero" fill="rgb(100%, 100%, 100%)" fill-opacity="1" d="M 457.125 3.300781 C 457.125 5.023438 455.699219 6.300781 453.976562 6.300781 C 452.25 6.300781 450.898438 5.023438 450.898438 3.300781 C 450.898438 1.574219 452.324219 0.300781 453.976562 0.300781 C 455.699219 0.300781 457.125 1.574219 457.125 3.300781 Z M 456.449219 30.601562 L 451.574219 30.601562 L 451.574219 9.601562 L 456.449219 9.601562 Z M 456.449219 30.601562 "/>
<path fill-rule="nonzero" fill="rgb(100%, 100%, 100%)" fill-opacity="1" d="M 480.976562 9.675781 L 473.324219 30.675781 L 468.226562 30.675781 L 460.574219 9.675781 L 465.976562 9.675781 L 470.773438 24.898438 L 470.851562 24.898438 L 475.648438 9.675781 Z M 480.976562 9.675781 "/>
<path fill-rule="nonzero" fill="rgb(100%, 100%, 100%)" fill-opacity="1" d="M 493.648438 31.125 C 487.425781 31.125 483.226562 26.699219 483.226562 20.101562 C 483.226562 13.574219 487.199219 9.148438 493.050781 9.148438 C 498.675781 9.148438 502.351562 13.351562 502.351562 19.800781 C 502.351562 20.476562 502.273438 21.226562 502.273438 21.824219 L 488.175781 21.824219 C 488.699219 25.050781 490.648438 26.925781 493.648438 26.925781 C 495.601562 26.925781 497.175781 26.175781 498.824219 24.449219 L 501.898438 27.675781 C 499.5 30 496.875 31.125 493.648438 31.125 Z M 488.175781 18.226562 L 497.699219 18.226562 C 497.476562 15 495.824219 13.125 493.050781 13.125 C 490.351562 13.125 488.625 15 488.175781 18.226562 Z M 488.175781 18.226562 "/>
<path fill-rule="nonzero" fill="rgb(100%, 100%, 100%)" fill-opacity="1" d="M 520.5 9.523438 L 519.75 14.550781 C 519 14.175781 518.101562 13.875 517.050781 13.875 C 513.675781 13.875 512.773438 16.574219 512.773438 19.800781 L 512.773438 30.601562 L 507.898438 30.601562 L 507.898438 9.601562 L 512.699219 9.601562 L 512.699219 12.300781 L 512.773438 12.300781 C 513.898438 10.351562 515.851562 9.148438 518.25 9.148438 C 518.925781 9.074219 519.75 9.226562 520.5 9.523438 Z M 520.5 9.523438 "/>
<path fill-rule="nonzero" fill="rgb(100%, 100%, 100%)" fill-opacity="1" d="M 525.148438 24.675781 C 527.25 26.25 529.199219 27 531.074219 27 C 532.875 27 534.148438 26.175781 534.148438 24.898438 C 534.148438 21.300781 523.648438 22.574219 523.648438 15.601562 C 523.648438 11.699219 526.875 9.074219 531.601562 9.074219 C 534.148438 9.074219 536.625 9.824219 538.875 11.25 L 536.550781 15.074219 C 534.75 13.875 533.101562 13.199219 531.523438 13.199219 C 529.726562 13.199219 528.523438 13.949219 528.523438 15.148438 C 528.523438 18.601562 539.023438 17.398438 539.023438 24.449219 C 539.023438 28.425781 535.800781 31.125 530.925781 31.125 C 528.148438 31.125 525.300781 30.226562 522.824219 28.574219 Z M 525.148438 24.675781 "/>
<path fill-rule="nonzero" fill="rgb(100%, 100%, 100%)" fill-opacity="1" d="M 549.824219 3.300781 C 549.824219 5.023438 548.398438 6.300781 546.675781 6.300781 C 544.949219 6.300781 543.601562 5.023438 543.601562 3.300781 C 543.601562 1.574219 545.023438 0.300781 546.675781 0.300781 C 548.398438 0.300781 549.824219 1.574219 549.824219 3.300781 Z M 549.148438 30.601562 L 544.273438 30.601562 L 544.273438 9.601562 L 549.148438 9.601562 Z M 549.148438 30.601562 "/>
<path fill-rule="nonzero" fill="rgb(100%, 100%, 100%)" fill-opacity="1" d="M 566.398438 26.175781 L 566.398438 30.375 C 565.351562 30.898438 563.699219 31.125 562.273438 31.125 C 558.601562 31.125 556.574219 29.101562 556.574219 25.199219 L 556.574219 13.726562 L 553.351562 13.726562 L 553.351562 9.675781 L 556.5 9.675781 L 556.5 3.976562 L 561.375 2.925781 L 561.375 9.75 L 566.398438 9.75 L 566.398438 13.800781 L 561.375 13.800781 L 561.375 24.148438 C 561.375 26.101562 562.050781 26.925781 563.625 26.925781 C 564.523438 26.851562 565.574219 26.550781 566.398438 26.175781 Z M 566.398438 26.175781 "/>
<path fill-rule="nonzero" fill="rgb(100%, 100%, 100%)" fill-opacity="1" d="M 579.226562 17.625 C 580.574219 17.625 581.851562 17.699219 583.199219 18.074219 L 583.199219 17.324219 C 583.199219 14.625 581.625 13.273438 578.550781 13.273438 C 576.824219 13.273438 574.949219 13.726562 573.226562 14.476562 L 572.175781 10.351562 C 574.125 9.601562 576.675781 9.148438 579.074219 9.148438 C 585 9.148438 588 11.925781 588 17.25 L 588 30.675781 L 583.351562 30.675781 L 583.351562 28.425781 L 583.273438 28.425781 C 581.476562 30.300781 579.601562 31.125 577.125 31.125 C 572.925781 31.125 570.226562 28.5 570.226562 24.449219 C 570.226562 20.023438 573.375 17.625 579.226562 17.625 Z M 575.25 6.375 C 573.675781 6.375 572.324219 5.023438 572.324219 3.523438 C 572.324219 2.023438 573.675781 0.675781 575.25 0.675781 C 576.824219 0.675781 578.175781 2.023438 578.175781 3.523438 C 578.175781 5.101562 576.824219 6.375 575.25 6.375 Z M 578.398438 27.449219 C 580.199219 27.449219 581.851562 26.550781 583.199219 24.898438 L 583.199219 21.300781 C 582.074219 21 580.875 20.925781 579.75 20.925781 C 576.675781 20.925781 574.875 22.125 574.875 24.375 C 574.875 26.25 576.226562 27.449219 578.398438 27.449219 Z M 583.800781 6.375 C 582.226562 6.375 580.875 5.023438 580.875 3.523438 C 580.875 2.023438 582.226562 0.675781 583.800781 0.675781 C 585.375 0.675781 586.726562 2.023438 586.726562 3.523438 C 586.726562 5.101562 585.375 6.375 583.800781 6.375 Z M 583.800781 6.375 "/>
<g clip-path="url(#clip-0)">
<path fill-rule="nonzero" fill="rgb(100%, 100%, 100%)" fill-opacity="1" d="M 604.875 26.175781 L 604.875 30.375 C 603.824219 30.898438 602.175781 31.125 600.75 31.125 C 597.074219 31.125 595.050781 29.101562 595.050781 25.199219 L 595.050781 13.726562 L 591.824219 13.726562 L 591.824219 9.675781 L 594.976562 9.675781 L 594.976562 3.976562 L 599.851562 2.925781 L 599.851562 9.75 L 604.875 9.75 L 604.875 13.800781 L 599.851562 13.800781 L 599.851562 24.148438 C 599.851562 26.101562 600.523438 26.925781 602.101562 26.925781 C 603.074219 26.851562 604.050781 26.550781 604.875 26.175781 Z M 604.875 26.175781 "/>
</g>
<g clip-path="url(#clip-1)">
<path fill-rule="nonzero" fill="rgb(100%, 100%, 100%)" fill-opacity="1" d="M 0 46.949219 L 6.226562 46.949219 L 14.175781 65.023438 L 14.25 65.023438 L 21.976562 46.949219 L 28.273438 46.949219 L 28.273438 75.976562 L 23.25 75.976562 L 23.25 55.949219 L 23.175781 55.949219 L 14.25 76.351562 L 14.101562 76.351562 L 5.101562 55.949219 L 5.023438 55.949219 L 5.023438 75.976562 L 0.0742188 75.976562 L 0.0742188 46.949219 Z M 0 46.949219 "/>
</g>
<g clip-path="url(#clip-2)">
<path fill-rule="nonzero" fill="rgb(100%, 100%, 100%)" fill-opacity="1" d="M 44.476562 76.5 C 38.25 76.5 34.050781 72.074219 34.050781 65.476562 C 34.050781 58.949219 38.023438 54.523438 43.875 54.523438 C 49.5 54.523438 53.175781 58.726562 53.175781 65.175781 C 53.175781 65.851562 53.101562 66.601562 53.101562 67.199219 L 39 67.199219 C 39.523438 70.425781 41.476562 72.300781 44.476562 72.300781 C 46.425781 72.300781 48 71.550781 49.648438 69.824219 L 52.726562 73.050781 C 50.324219 75.375 47.625 76.5 44.476562 76.5 Z M 39 63.601562 L 48.523438 63.601562 C 48.300781 60.375 46.648438 58.5 43.875 58.5 C 41.101562 58.5 39.375 60.375 39 63.601562 Z M 39 63.601562 "/>
</g>
<g clip-path="url(#clip-3)">
<path fill-rule="nonzero" fill="rgb(100%, 100%, 100%)" fill-opacity="1" d="M 57.523438 65.476562 C 57.523438 58.726562 60.976562 54.523438 66.074219 54.523438 C 68.699219 54.523438 70.800781 55.648438 72.148438 57.375 L 72.226562 57.375 L 72.226562 46.574219 L 77.101562 45.375 L 77.101562 76.050781 L 72.300781 76.050781 L 72.300781 73.574219 L 72.226562 73.574219 C 70.726562 75.449219 68.550781 76.574219 65.925781 76.574219 C 60.976562 76.5 57.523438 72.226562 57.523438 65.476562 Z M 62.398438 65.476562 C 62.398438 69.75 64.199219 72.226562 67.273438 72.226562 C 69.148438 72.226562 70.726562 71.324219 72.300781 69.449219 L 72.300781 61.800781 C 70.875 59.925781 69.300781 59.023438 67.273438 59.023438 C 64.050781 58.949219 62.398438 61.273438 62.398438 65.476562 Z M 62.398438 65.476562 "/>
</g>
<path fill-rule="nonzero" fill="rgb(100%, 100%, 100%)" fill-opacity="1" d="M 89.175781 48.675781 C 89.175781 50.398438 87.75 51.675781 86.023438 51.675781 C 84.300781 51.675781 82.949219 50.398438 82.949219 48.675781 C 82.949219 46.949219 84.375 45.675781 86.023438 45.675781 C 87.75 45.675781 89.175781 46.949219 89.175781 48.675781 Z M 88.5 75.976562 L 83.625 75.976562 L 83.625 54.976562 L 88.5 54.976562 Z M 88.5 75.976562 "/>
<path fill-rule="nonzero" fill="rgb(100%, 100%, 100%)" fill-opacity="1" d="M 109.949219 75.976562 L 93.375 75.976562 L 93.375 71.773438 L 103.875 59.175781 L 94.050781 59.175781 L 94.050781 55.050781 L 109.875 55.050781 L 109.875 59.25 L 99.375 71.851562 L 110.023438 71.851562 L 110.023438 75.976562 Z M 109.949219 75.976562 "/>
<path fill-rule="nonzero" fill="rgb(100%, 100%, 100%)" fill-opacity="1" d="M 120.601562 48.675781 C 120.601562 50.398438 119.175781 51.675781 117.449219 51.675781 C 115.726562 51.675781 114.375 50.398438 114.375 48.675781 C 114.375 46.949219 115.800781 45.675781 117.449219 45.675781 C 119.175781 45.675781 120.601562 46.949219 120.601562 48.675781 Z M 119.925781 75.976562 L 115.050781 75.976562 L 115.050781 54.976562 L 119.925781 54.976562 Z M 119.925781 75.976562 "/>
<g clip-path="url(#clip-4)">
<path fill-rule="nonzero" fill="rgb(100%, 100%, 100%)" fill-opacity="1" d="M 144.449219 75.976562 L 139.574219 75.976562 L 139.574219 63.976562 C 139.574219 60.898438 138.675781 58.875 135.675781 58.875 C 132.226562 58.875 131.324219 61.648438 131.324219 63.976562 L 131.324219 76.050781 L 126.449219 76.050781 L 126.449219 55.050781 L 131.324219 55.050781 L 131.324219 57.601562 L 131.398438 57.601562 C 132.601562 55.726562 134.851562 54.523438 137.550781 54.523438 C 142.351562 54.523438 144.449219 58.050781 144.449219 63 Z M 144.449219 75.976562 "/>
</g>
<path fill-rule="nonzero" fill="rgb(100%, 100%, 100%)" fill-opacity="1" d="M 156.148438 48.675781 C 156.148438 50.398438 154.726562 51.675781 153 51.675781 C 151.273438 51.675781 149.925781 50.398438 149.925781 48.675781 C 149.925781 46.949219 151.351562 45.675781 153 45.675781 C 154.800781 45.675781 156.148438 46.949219 156.148438 48.675781 Z M 155.550781 75.976562 L 150.675781 75.976562 L 150.675781 54.976562 L 155.550781 54.976562 Z M 155.550781 75.976562 "/>
<g clip-path="url(#clip-5)">
<path fill-rule="nonzero" fill="rgb(100%, 100%, 100%)" fill-opacity="1" d="M 162.375 70.050781 C 164.476562 71.625 166.425781 72.375 168.300781 72.375 C 170.101562 72.375 171.375 71.550781 171.375 70.273438 C 171.375 66.675781 160.875 67.949219 160.875 60.976562 C 160.875 57.074219 164.101562 54.449219 168.824219 54.449219 C 171.375 54.449219 173.851562 55.199219 176.101562 56.625 L 173.773438 60.449219 C 171.976562 59.25 170.324219 58.574219 168.75 58.574219 C 166.949219 58.574219 165.75 59.324219 165.75 60.523438 C 165.75 63.976562 176.25 62.773438 176.25 69.824219 C 176.25 73.800781 173.023438 76.5 168.148438 76.5 C 165.375 76.5 162.523438 75.601562 160.050781 73.949219 Z M 162.375 70.050781 "/>
</g>
<g clip-path="url(#clip-6)">
<path fill-rule="nonzero" fill="rgb(100%, 100%, 100%)" fill-opacity="1" d="M 197.773438 73.125 C 195.675781 75.449219 193.273438 76.5 190.273438 76.5 C 184.273438 76.5 180.226562 72.148438 180.226562 65.550781 C 180.226562 58.949219 184.273438 54.449219 190.351562 54.449219 C 193.5 54.449219 196.050781 55.648438 197.925781 58.050781 L 194.550781 61.273438 C 193.351562 59.699219 192 58.949219 190.351562 58.949219 C 187.273438 58.949219 185.175781 61.5 185.175781 65.476562 C 185.175781 69.375 187.273438 72 190.351562 72 C 192 72 193.351562 71.25 194.699219 69.675781 Z M 197.773438 73.125 "/>
</g>
<g clip-path="url(#clip-7)">
<path fill-rule="nonzero" fill="rgb(100%, 100%, 100%)" fill-opacity="1" d="M 220.199219 75.976562 L 215.324219 75.976562 L 215.324219 63.976562 C 215.324219 60.898438 214.351562 58.875 211.425781 58.875 C 208.050781 58.875 207.074219 61.574219 207.074219 63.976562 L 207.074219 76.050781 L 202.199219 76.050781 L 202.199219 46.574219 L 207.074219 45.375 L 207.074219 57.601562 L 207.148438 57.601562 C 208.351562 55.726562 210.523438 54.523438 213.300781 54.523438 C 218.175781 54.523438 220.199219 58.125 220.199219 63 Z M 220.199219 75.976562 "/>
</g>
<g clip-path="url(#clip-8)">
<path fill-rule="nonzero" fill="rgb(100%, 100%, 100%)" fill-opacity="1" d="M 235.726562 76.5 C 229.5 76.5 225.300781 72.074219 225.300781 65.476562 C 225.300781 58.949219 229.273438 54.523438 235.125 54.523438 C 240.75 54.523438 244.425781 58.726562 244.425781 65.175781 C 244.425781 65.851562 244.351562 66.601562 244.351562 67.199219 L 230.25 67.199219 C 230.773438 70.425781 232.726562 72.300781 235.726562 72.300781 C 237.675781 72.300781 239.25 71.550781 240.898438 69.824219 L 243.976562 73.050781 C 241.574219 75.375 238.875 76.5 235.726562 76.5 Z M 230.25 63.601562 L 239.773438 63.601562 C 239.550781 60.375 237.898438 58.5 235.125 58.5 C 232.351562 58.5 230.625 60.375 230.25 63.601562 Z M 230.25 63.601562 "/>
</g>
<g clip-path="url(#clip-9)">
<path fill-rule="nonzero" fill="rgb(100%, 100%, 100%)" fill-opacity="1" d="M 280.574219 51.75 L 267.523438 51.75 L 267.523438 58.949219 L 277.273438 58.949219 L 277.273438 63.675781 L 267.523438 63.675781 L 267.523438 76.050781 L 262.351562 76.050781 L 262.351562 47.023438 L 280.574219 47.023438 Z M 280.574219 51.75 "/>
</g>
<g clip-path="url(#clip-10)">
<path fill-rule="nonzero" fill="rgb(100%, 100%, 100%)" fill-opacity="1" d="M 290.476562 63 C 291.824219 63 293.101562 63.074219 294.449219 63.449219 L 294.449219 62.699219 C 294.449219 60 292.875 58.648438 289.800781 58.648438 C 288.074219 58.648438 286.199219 59.101562 284.476562 59.851562 L 283.425781 55.726562 C 285.375 54.976562 287.925781 54.523438 290.324219 54.523438 C 296.25 54.523438 299.25 57.300781 299.25 62.625 L 299.25 76.050781 L 294.601562 76.050781 L 294.601562 73.800781 L 294.523438 73.800781 C 292.726562 75.675781 290.851562 76.5 288.375 76.5 C 284.175781 76.5 281.476562 73.875 281.476562 69.824219 C 281.476562 65.398438 284.625 63 290.476562 63 Z M 289.648438 72.824219 C 291.449219 72.824219 293.101562 71.925781 294.449219 70.273438 L 294.449219 66.601562 C 293.324219 66.300781 292.125 66.226562 291 66.226562 C 287.925781 66.226562 286.125 67.425781 286.125 69.675781 C 286.199219 71.625 287.550781 72.824219 289.648438 72.824219 Z M 289.648438 72.824219 "/>
</g>
<g clip-path="url(#clip-11)">
<path fill-rule="nonzero" fill="rgb(100%, 100%, 100%)" fill-opacity="1" d="M 305.550781 46.574219 L 310.425781 45.375 L 310.425781 63.824219 L 310.5 63.824219 L 317.398438 55.050781 L 323.25 55.050781 L 316.351562 63.300781 L 324 76.050781 L 318.148438 76.050781 L 312.898438 66.976562 L 310.5 69.675781 L 310.5 76.050781 L 305.625 76.050781 L 305.625 46.574219 Z M 305.550781 46.574219 "/>
</g>
<g clip-path="url(#clip-12)">
<path fill-rule="nonzero" fill="rgb(100%, 100%, 100%)" fill-opacity="1" d="M 332.550781 67.648438 C 332.550781 70.5 333.976562 72.074219 336.75 72.074219 C 339.449219 72.074219 340.800781 70.574219 340.800781 67.648438 L 340.800781 55.050781 L 345.675781 55.050781 L 345.675781 67.800781 C 345.675781 73.351562 342.601562 76.574219 336.824219 76.574219 C 331.125 76.574219 327.601562 73.351562 327.601562 67.875 L 327.601562 55.125 L 332.476562 55.125 L 332.476562 67.648438 Z M 332.550781 67.648438 "/>
</g>
<path fill-rule="nonzero" fill="rgb(100%, 100%, 100%)" fill-opacity="1" d="M 356.851562 75.976562 L 351.976562 75.976562 L 351.976562 46.425781 L 356.851562 45.300781 Z M 356.851562 75.976562 "/>
<g clip-path="url(#clip-13)">
<path fill-rule="nonzero" fill="rgb(100%, 100%, 100%)" fill-opacity="1" d="M 374.175781 71.550781 L 374.175781 75.75 C 373.125 76.273438 371.476562 76.5 370.050781 76.5 C 366.375 76.5 364.351562 74.476562 364.351562 70.574219 L 364.351562 59.101562 L 361.125 59.101562 L 361.125 55.050781 L 364.273438 55.050781 L 364.273438 49.351562 L 369.148438 48.300781 L 369.148438 55.125 L 374.175781 55.125 L 374.175781 59.175781 L 369.148438 59.175781 L 369.148438 69.523438 C 369.148438 71.476562 369.824219 72.300781 371.398438 72.300781 C 372.375 72.226562 373.351562 71.925781 374.175781 71.550781 Z M 374.175781 71.550781 "/>
</g>
<g clip-path="url(#clip-14)">
<path fill-rule="nonzero" fill="rgb(100%, 100%, 100%)" fill-opacity="1" d="M 387.074219 63 C 388.425781 63 389.699219 63.074219 391.050781 63.449219 L 391.050781 62.699219 C 391.050781 60 389.476562 58.648438 386.398438 58.648438 C 384.675781 58.648438 382.800781 59.101562 381.074219 59.851562 L 380.023438 55.726562 C 381.976562 54.976562 384.523438 54.523438 386.925781 54.523438 C 392.851562 54.523438 395.851562 57.300781 395.851562 62.625 L 395.851562 76.050781 L 391.199219 76.050781 L 391.199219 73.800781 L 391.125 73.800781 C 389.324219 75.675781 387.449219 76.5 384.976562 76.5 C 380.773438 76.5 378.074219 73.875 378.074219 69.824219 C 378.074219 65.398438 381.226562 63 387.074219 63 Z M 383.101562 51.75 C 381.523438 51.75 380.175781 50.398438 380.175781 48.898438 C 380.175781 47.398438 381.523438 46.050781 383.101562 46.050781 C 384.675781 46.050781 386.023438 47.398438 386.023438 48.898438 C 386.023438 50.476562 384.675781 51.75 383.101562 51.75 Z M 386.25 72.824219 C 388.050781 72.824219 389.699219 71.925781 391.050781 70.273438 L 391.050781 66.601562 C 389.925781 66.300781 388.726562 66.226562 387.601562 66.226562 C 384.523438 66.226562 382.726562 67.425781 382.726562 69.675781 C 382.726562 71.625 384.074219 72.824219 386.25 72.824219 Z M 391.648438 51.75 C 390.074219 51.75 388.726562 50.398438 388.726562 48.898438 C 388.726562 47.398438 390.074219 46.050781 391.648438 46.050781 C 393.226562 46.050781 394.574219 47.398438 394.574219 48.898438 C 394.574219 50.476562 393.226562 51.75 391.648438 51.75 Z M 391.648438 51.75 "/>
</g>
<g clip-path="url(#clip-15)">
<path fill-rule="nonzero" fill="rgb(100%, 100%, 100%)" fill-opacity="1" d="M 412.726562 71.550781 L 412.726562 75.75 C 411.675781 76.273438 410.023438 76.5 408.601562 76.5 C 404.925781 76.5 402.898438 74.476562 402.898438 70.574219 L 402.898438 59.101562 L 399.675781 59.101562 L 399.675781 55.050781 L 402.824219 55.050781 L 402.824219 49.351562 L 407.699219 48.300781 L 407.699219 55.125 L 412.726562 55.125 L 412.726562 59.175781 L 407.699219 59.175781 L 407.699219 69.523438 C 407.699219 71.476562 408.375 72.300781 409.949219 72.300781 C 410.925781 72.226562 411.898438 71.925781 412.726562 71.550781 Z M 412.726562 71.550781 "/>
</g>
</svg>
