<?xml version="1.0" encoding="UTF-8"?>
<svg xmlns="http://www.w3.org/2000/svg" xmlns:xlink="http://www.w3.org/1999/xlink" width="810" height="116" viewBox="0 0 810 116">
<path fill-rule="nonzero" fill="rgb(6.944275%, 19.386292%, 39.657593%)" fill-opacity="1" d="M 27.367188 9.488281 L 9.933594 9.488281 L 9.933594 19.113281 L 22.96875 19.113281 L 22.96875 25.382812 L 9.933594 25.382812 L 9.933594 41.878906 L 3.058594 41.878906 L 3.058594 3.164062 L 27.367188 3.164062 Z M 27.367188 9.488281 "/>
<path fill-rule="nonzero" fill="rgb(6.944275%, 19.386292%, 39.657593%)" fill-opacity="1" d="M 48.042969 13.78125 L 46.996094 20.488281 C 46.007812 19.9375 44.796875 19.609375 43.367188 19.609375 C 38.859375 19.609375 37.648438 23.238281 37.648438 27.527344 L 37.648438 41.878906 L 31.105469 41.878906 L 31.105469 13.886719 L 37.539062 13.886719 L 37.539062 17.410156 L 37.648438 17.410156 C 39.132812 14.769531 41.773438 13.175781 44.960938 13.175781 C 45.898438 13.175781 47.050781 13.339844 48.042969 13.78125 "/>
<path fill-rule="nonzero" fill="rgb(6.944275%, 19.386292%, 39.657593%)" fill-opacity="1" d="M 60.117188 41.878906 L 53.570312 41.878906 L 53.570312 13.890625 L 60.117188 13.890625 Z M 60.996094 5.421875 C 60.996094 7.730469 59.125 9.378906 56.816406 9.378906 C 54.5625 9.378906 52.691406 7.730469 52.691406 5.421875 C 52.691406 3.164062 54.5625 1.460938 56.816406 1.460938 C 59.125 1.460938 60.996094 3.164062 60.996094 5.421875 "/>
<path fill-rule="nonzero" fill="rgb(6.944275%, 19.386292%, 39.657593%)" fill-opacity="1" d="M 73.550781 25.328125 L 86.253906 25.328125 C 85.980469 21.039062 83.726562 18.5625 80.042969 18.5625 C 76.410156 18.5625 74.101562 20.984375 73.550781 25.328125 M 80.867188 42.539062 C 72.5625 42.539062 67.007812 36.65625 67.007812 27.800781 C 67.007812 19.113281 72.34375 13.175781 80.152344 13.175781 C 87.683594 13.175781 92.578125 18.785156 92.578125 27.417969 C 92.578125 28.351562 92.523438 29.34375 92.46875 30.109375 L 73.664062 30.109375 C 74.378906 34.457031 76.960938 36.929688 80.921875 36.929688 C 83.507812 36.929688 85.597656 35.941406 87.796875 33.632812 L 91.863281 37.921875 C 88.675781 41.054688 85.101562 42.539062 80.867188 42.539062 "/>
<path fill-rule="nonzero" fill="rgb(6.944275%, 19.386292%, 39.657593%)" fill-opacity="1" d="M 104.757812 27.800781 C 104.757812 33.523438 107.125 36.765625 111.246094 36.765625 C 113.777344 36.765625 115.867188 35.554688 117.902344 33.082031 L 117.902344 22.851562 C 116.03125 20.324219 113.886719 19.113281 111.246094 19.113281 C 107.015625 19.113281 104.757812 22.191406 104.757812 27.800781 M 98.269531 27.800781 C 98.269531 18.78125 102.835938 13.175781 109.652344 13.175781 C 113.171875 13.175781 115.921875 14.660156 117.792969 16.96875 L 117.902344 16.96875 L 117.902344 2.617188 L 124.445312 0.964844 L 124.445312 41.878906 L 118.066406 41.878906 L 118.066406 38.582031 L 117.957031 38.582031 C 115.921875 41.054688 113.007812 42.539062 109.542969 42.539062 C 102.890625 42.539062 98.269531 36.875 98.269531 27.800781 "/>
<path fill-rule="nonzero" fill="rgb(6.944275%, 19.386292%, 39.657593%)" fill-opacity="1" d="M 149.90625 13.78125 L 148.863281 20.488281 C 147.871094 19.9375 146.660156 19.609375 145.234375 19.609375 C 140.722656 19.609375 139.515625 23.238281 139.515625 27.527344 L 139.515625 41.878906 L 132.96875 41.878906 L 132.96875 13.886719 L 139.402344 13.886719 L 139.402344 17.410156 L 139.515625 17.410156 C 140.996094 14.769531 143.636719 13.175781 146.828125 13.175781 C 147.761719 13.175781 148.917969 13.339844 149.90625 13.78125 "/>
<path fill-rule="nonzero" fill="rgb(6.944275%, 19.386292%, 39.657593%)" fill-opacity="1" d="M 161.980469 41.878906 L 155.4375 41.878906 L 155.4375 13.890625 L 161.980469 13.890625 Z M 162.859375 5.421875 C 162.859375 7.730469 160.988281 9.378906 158.679688 9.378906 C 156.425781 9.378906 154.554688 7.730469 154.554688 5.421875 C 154.554688 3.164062 156.425781 1.460938 158.679688 1.460938 C 160.988281 1.460938 162.859375 3.164062 162.859375 5.421875 "/>
<path fill-rule="nonzero" fill="rgb(6.944275%, 19.386292%, 39.657593%)" fill-opacity="1" d="M 192.425781 38.03125 C 189.621094 41.109375 186.433594 42.539062 182.417969 42.539062 C 174.386719 42.539062 169 36.765625 169 27.96875 C 169 19.167969 174.441406 13.175781 182.527344 13.175781 C 186.707031 13.175781 190.171875 14.824219 192.589844 17.957031 L 188.082031 22.25 C 186.433594 20.101562 184.671875 19.167969 182.472656 19.167969 C 178.347656 19.167969 175.542969 22.578125 175.542969 27.855469 C 175.542969 33.082031 178.347656 36.601562 182.417969 36.601562 C 184.617188 36.601562 186.375 35.613281 188.191406 33.519531 Z M 192.425781 38.03125 "/>
<path fill-rule="nonzero" fill="rgb(6.944275%, 19.386292%, 39.657593%)" fill-opacity="1" d="M 222.289062 41.878906 L 215.746094 41.878906 L 215.746094 25.878906 C 215.746094 21.753906 214.480469 19.058594 210.578125 19.058594 C 206.066406 19.058594 204.746094 22.632812 204.746094 25.820312 L 204.746094 41.878906 L 198.203125 41.878906 L 198.203125 2.613281 L 204.746094 0.964844 L 204.746094 17.242188 L 204.855469 17.242188 C 206.453125 14.769531 209.367188 13.175781 213.050781 13.175781 C 219.539062 13.175781 222.289062 18.015625 222.289062 24.503906 Z M 222.289062 41.878906 "/>
<path fill-rule="nonzero" fill="rgb(6.944275%, 19.386292%, 39.657593%)" fill-opacity="1" d="M 243.546875 27.800781 L 229.800781 27.800781 L 229.800781 21.589844 L 243.546875 21.589844 Z M 243.546875 27.800781 "/>
<path fill-rule="nonzero" fill="rgb(6.944275%, 19.386292%, 39.657593%)" fill-opacity="1" d="M 259.179688 27.472656 L 270.507812 27.472656 L 264.898438 11.03125 L 264.789062 11.03125 Z M 261.324219 3.164062 L 268.582031 3.164062 L 282.992188 41.878906 L 275.457031 41.878906 L 272.652344 33.628906 L 257.035156 33.628906 L 254.230469 41.878906 L 246.914062 41.878906 Z M 261.324219 3.164062 "/>
<path fill-rule="nonzero" fill="rgb(6.944275%, 19.386292%, 39.657593%)" fill-opacity="1" d="M 295.277344 41.878906 L 288.730469 41.878906 L 288.730469 2.507812 L 295.277344 1.019531 Z M 295.277344 41.878906 "/>
<path fill-rule="nonzero" fill="rgb(6.944275%, 19.386292%, 39.657593%)" fill-opacity="1" d="M 308.914062 25.328125 L 321.617188 25.328125 C 321.34375 21.039062 319.089844 18.5625 315.40625 18.5625 C 311.773438 18.5625 309.464844 20.984375 308.914062 25.328125 M 316.230469 42.539062 C 307.925781 42.539062 302.371094 36.65625 302.371094 27.800781 C 302.371094 19.113281 307.707031 13.175781 315.515625 13.175781 C 323.050781 13.175781 327.941406 18.785156 327.941406 27.417969 C 327.941406 28.351562 327.890625 29.34375 327.832031 30.109375 L 309.027344 30.109375 C 309.742188 34.457031 312.324219 36.929688 316.285156 36.929688 C 318.867188 36.929688 320.960938 35.941406 323.160156 33.632812 L 327.226562 37.921875 C 324.039062 41.054688 320.464844 42.539062 316.230469 42.539062 "/>
<path fill-rule="nonzero" fill="rgb(6.944275%, 19.386292%, 39.657593%)" fill-opacity="1" d="M 358.199219 41.878906 L 350.71875 41.878906 L 344.722656 32.199219 L 344.613281 32.199219 L 338.785156 41.878906 L 331.417969 41.878906 L 340.984375 27.363281 L 332.132812 13.890625 L 339.5 13.890625 L 344.78125 22.46875 L 344.890625 22.46875 L 350.113281 13.890625 L 357.375 13.890625 L 348.574219 27.253906 Z M 358.199219 41.878906 "/>
<path fill-rule="nonzero" fill="rgb(6.944275%, 19.386292%, 39.657593%)" fill-opacity="1" d="M 372.566406 37.644531 C 374.929688 37.644531 377.128906 36.492188 378.945312 34.292969 L 378.945312 29.398438 C 377.40625 29.011719 375.808594 28.847656 374.378906 28.847656 C 370.253906 28.847656 367.890625 30.496094 367.890625 33.464844 C 367.890625 36.050781 369.707031 37.644531 372.566406 37.644531 M 373.664062 24.503906 C 375.480469 24.503906 377.128906 24.613281 378.945312 25.109375 L 378.945312 24.117188 C 378.945312 20.542969 376.855469 18.671875 372.785156 18.671875 C 370.53125 18.671875 368 19.222656 365.691406 20.269531 L 364.261719 14.769531 C 366.84375 13.78125 370.253906 13.171875 373.445312 13.171875 C 381.308594 13.171875 385.378906 16.859375 385.378906 24.007812 L 385.378906 41.878906 L 379.164062 41.878906 L 379.164062 38.910156 L 379.054688 38.910156 C 376.632812 41.382812 374.105469 42.539062 370.859375 42.539062 C 365.25 42.539062 361.621094 39.074219 361.621094 33.628906 C 361.621094 27.691406 365.855469 24.503906 373.664062 24.503906 "/>
<path fill-rule="nonzero" fill="rgb(6.944275%, 19.386292%, 39.657593%)" fill-opacity="1" d="M 417.761719 41.878906 L 411.21875 41.878906 L 411.21875 25.878906 C 411.21875 21.808594 410.007812 19.058594 406.046875 19.058594 C 401.484375 19.058594 400.21875 22.796875 400.21875 25.820312 L 400.21875 41.878906 L 393.675781 41.878906 L 393.675781 13.890625 L 400.164062 13.890625 L 400.164062 17.242188 L 400.273438 17.242188 C 401.925781 14.769531 404.894531 13.175781 408.523438 13.175781 C 414.902344 13.175781 417.761719 17.847656 417.761719 24.503906 Z M 417.761719 41.878906 "/>
<path fill-rule="nonzero" fill="rgb(6.944275%, 19.386292%, 39.657593%)" fill-opacity="1" d="M 431.171875 27.800781 C 431.171875 33.523438 433.539062 36.765625 437.664062 36.765625 C 440.191406 36.765625 442.28125 35.554688 444.316406 33.082031 L 444.316406 22.851562 C 442.445312 20.324219 440.304688 19.113281 437.664062 19.113281 C 433.429688 19.113281 431.171875 22.191406 431.171875 27.800781 M 424.683594 27.800781 C 424.683594 18.78125 429.25 13.175781 436.070312 13.175781 C 439.585938 13.175781 442.335938 14.660156 444.207031 16.96875 L 444.316406 16.96875 L 444.316406 2.617188 L 450.859375 0.964844 L 450.859375 41.878906 L 444.484375 41.878906 L 444.484375 38.582031 L 444.371094 38.582031 C 442.335938 41.054688 439.421875 42.539062 435.957031 42.539062 C 429.304688 42.539062 424.683594 36.875 424.683594 27.800781 "/>
<path fill-rule="nonzero" fill="rgb(6.944275%, 19.386292%, 39.657593%)" fill-opacity="1" d="M 464.507812 25.328125 L 477.210938 25.328125 C 476.9375 21.039062 474.683594 18.5625 470.996094 18.5625 C 467.367188 18.5625 465.058594 20.984375 464.507812 25.328125 M 471.820312 42.539062 C 463.519531 42.539062 457.964844 36.65625 457.964844 27.800781 C 457.964844 19.113281 463.296875 13.175781 471.109375 13.175781 C 478.640625 13.175781 483.535156 18.785156 483.535156 27.417969 C 483.535156 28.351562 483.480469 29.34375 483.425781 30.109375 L 464.617188 30.109375 C 465.332031 34.457031 467.917969 36.929688 471.878906 36.929688 C 474.460938 36.929688 476.550781 35.941406 478.75 33.632812 L 482.820312 37.921875 C 479.632812 41.054688 476.058594 42.539062 471.820312 42.539062 "/>
<path fill-rule="nonzero" fill="rgb(6.944275%, 19.386292%, 39.657593%)" fill-opacity="1" d="M 507.621094 13.78125 L 506.574219 20.488281 C 505.585938 19.9375 504.378906 19.609375 502.945312 19.609375 C 498.4375 19.609375 497.226562 23.238281 497.226562 27.527344 L 497.226562 41.878906 L 490.683594 41.878906 L 490.683594 13.886719 L 497.117188 13.886719 L 497.117188 17.410156 L 497.226562 17.410156 C 498.710938 14.769531 501.351562 13.175781 504.542969 13.175781 C 505.476562 13.175781 506.632812 13.339844 507.621094 13.78125 "/>
<path fill-rule="nonzero" fill="rgb(6.944275%, 19.386292%, 39.657593%)" fill-opacity="1" d="M 525.441406 27.800781 L 511.691406 27.800781 L 511.691406 21.589844 L 525.441406 21.589844 Z M 525.441406 27.800781 "/>
<path fill-rule="nonzero" fill="rgb(6.944275%, 19.386292%, 39.657593%)" fill-opacity="1" d="M 564.035156 26.539062 C 564.035156 35.886719 559.253906 42.539062 548.859375 42.539062 C 538.519531 42.539062 533.789062 35.941406 533.789062 26.539062 L 533.789062 3.164062 L 540.828125 3.164062 L 540.828125 26.152344 C 540.828125 31.980469 543.359375 35.941406 549.078125 35.941406 C 554.796875 35.941406 557.054688 32.035156 557.054688 26.152344 L 557.054688 3.164062 L 564.035156 3.164062 Z M 564.035156 26.539062 "/>
<path fill-rule="nonzero" fill="rgb(6.944275%, 19.386292%, 39.657593%)" fill-opacity="1" d="M 596.8125 41.878906 L 590.269531 41.878906 L 590.269531 25.878906 C 590.269531 21.808594 589.058594 19.058594 585.097656 19.058594 C 580.535156 19.058594 579.269531 22.796875 579.269531 25.820312 L 579.269531 41.878906 L 572.726562 41.878906 L 572.726562 13.890625 L 579.214844 13.890625 L 579.214844 17.242188 L 579.324219 17.242188 C 580.972656 14.769531 583.945312 13.175781 587.574219 13.175781 C 593.953125 13.175781 596.8125 17.847656 596.8125 24.503906 Z M 596.8125 41.878906 "/>
<path fill-rule="nonzero" fill="rgb(6.944275%, 19.386292%, 39.657593%)" fill-opacity="1" d="M 611.609375 41.878906 L 605.066406 41.878906 L 605.066406 13.890625 L 611.609375 13.890625 Z M 612.488281 5.421875 C 612.488281 7.730469 610.617188 9.378906 608.308594 9.378906 C 606.054688 9.378906 604.1875 7.730469 604.1875 5.421875 C 604.1875 3.164062 606.054688 1.460938 608.308594 1.460938 C 610.617188 1.460938 612.488281 3.164062 612.488281 5.421875 "/>
<path fill-rule="nonzero" fill="rgb(6.944275%, 19.386292%, 39.657593%)" fill-opacity="1" d="M 644.324219 13.890625 L 634.152344 41.878906 L 627.332031 41.878906 L 617.160156 13.890625 L 624.363281 13.890625 L 630.796875 34.238281 L 630.90625 34.238281 L 637.34375 13.890625 Z M 644.324219 13.890625 "/>
<path fill-rule="nonzero" fill="rgb(6.944275%, 19.386292%, 39.657593%)" fill-opacity="1" d="M 653.914062 25.328125 L 666.617188 25.328125 C 666.34375 21.039062 664.089844 18.5625 660.40625 18.5625 C 656.773438 18.5625 654.464844 20.984375 653.914062 25.328125 M 661.230469 42.539062 C 652.925781 42.539062 647.371094 36.65625 647.371094 27.800781 C 647.371094 19.113281 652.707031 13.175781 660.515625 13.175781 C 668.050781 13.175781 672.941406 18.785156 672.941406 27.417969 C 672.941406 28.351562 672.890625 29.34375 672.832031 30.109375 L 654.027344 30.109375 C 654.742188 34.457031 657.324219 36.929688 661.285156 36.929688 C 663.867188 36.929688 665.960938 35.941406 668.160156 33.632812 L 672.226562 37.921875 C 669.039062 41.054688 665.464844 42.539062 661.230469 42.539062 "/>
<path fill-rule="nonzero" fill="rgb(6.944275%, 19.386292%, 39.657593%)" fill-opacity="1" d="M 697.027344 13.78125 L 695.984375 20.488281 C 694.992188 19.9375 693.785156 19.609375 692.355469 19.609375 C 687.84375 19.609375 686.632812 23.238281 686.632812 27.527344 L 686.632812 41.878906 L 680.089844 41.878906 L 680.089844 13.886719 L 686.523438 13.886719 L 686.523438 17.410156 L 686.632812 17.410156 C 688.121094 14.769531 690.757812 13.175781 693.949219 13.175781 C 694.882812 13.175781 696.039062 13.339844 697.027344 13.78125 "/>
<path fill-rule="nonzero" fill="rgb(6.944275%, 19.386292%, 39.657593%)" fill-opacity="1" d="M 703.21875 33.960938 C 705.96875 36.050781 708.660156 37.097656 711.136719 37.097656 C 713.554688 37.097656 715.261719 35.996094 715.261719 34.292969 C 715.261719 29.507812 701.238281 31.210938 701.238281 21.863281 C 701.238281 16.691406 705.527344 13.175781 711.796875 13.175781 C 715.152344 13.175781 718.503906 14.164062 721.476562 16.089844 L 718.394531 21.203125 C 715.976562 19.554688 713.828125 18.730469 711.6875 18.730469 C 709.265625 18.730469 707.671875 19.773438 707.671875 21.3125 C 707.671875 25.878906 721.640625 24.28125 721.640625 33.6875 C 721.640625 38.964844 717.292969 42.539062 710.859375 42.539062 C 707.121094 42.539062 703.328125 41.386719 700.082031 39.132812 Z M 703.21875 33.960938 "/>
<path fill-rule="nonzero" fill="rgb(6.944275%, 19.386292%, 39.657593%)" fill-opacity="1" d="M 735.183594 41.878906 L 728.636719 41.878906 L 728.636719 13.890625 L 735.183594 13.890625 Z M 736.0625 5.421875 C 736.0625 7.730469 734.191406 9.378906 731.882812 9.378906 C 729.628906 9.378906 727.757812 7.730469 727.757812 5.421875 C 727.757812 3.164062 729.628906 1.460938 731.882812 1.460938 C 734.191406 1.460938 736.0625 3.164062 736.0625 5.421875 "/>
<path fill-rule="nonzero" fill="rgb(6.944275%, 19.386292%, 39.657593%)" fill-opacity="1" d="M 758.164062 35.886719 L 758.164062 41.496094 C 756.734375 42.15625 754.589844 42.539062 752.664062 42.539062 C 747.71875 42.539062 745.023438 39.789062 745.023438 34.675781 L 745.023438 19.332031 L 740.734375 19.332031 L 740.734375 13.890625 L 744.96875 13.890625 L 744.96875 6.246094 L 751.511719 4.816406 L 751.511719 13.890625 L 758.164062 13.890625 L 758.164062 19.332031 L 751.511719 19.332031 L 751.511719 33.136719 C 751.511719 35.722656 752.390625 36.820312 754.535156 36.820312 C 755.746094 36.820312 757.066406 36.4375 758.164062 35.886719 "/>
<path fill-rule="nonzero" fill="rgb(6.944275%, 19.386292%, 39.657593%)" fill-opacity="1" d="M 781.421875 9.546875 C 779.332031 9.546875 777.519531 7.785156 777.519531 5.75 C 777.519531 3.714844 779.332031 1.898438 781.421875 1.898438 C 783.515625 1.898438 785.328125 3.714844 785.328125 5.75 C 785.328125 7.785156 783.515625 9.546875 781.421875 9.546875 M 774.21875 37.644531 C 776.582031 37.644531 778.785156 36.492188 780.597656 34.289062 L 780.597656 29.398438 C 779.058594 29.011719 777.464844 28.847656 776.035156 28.847656 C 771.910156 28.847656 769.542969 30.496094 769.542969 33.464844 C 769.542969 36.050781 771.359375 37.644531 774.21875 37.644531 M 769.984375 9.546875 C 767.894531 9.546875 766.082031 7.785156 766.082031 5.75 C 766.082031 3.714844 767.894531 1.898438 769.984375 1.898438 C 772.074219 1.898438 773.890625 3.714844 773.890625 5.75 C 773.890625 7.785156 772.074219 9.546875 769.984375 9.546875 M 775.320312 24.503906 C 777.132812 24.503906 778.785156 24.613281 780.597656 25.109375 L 780.597656 24.117188 C 780.597656 20.542969 778.507812 18.671875 774.441406 18.671875 C 772.183594 18.671875 769.65625 19.222656 767.347656 20.269531 L 765.914062 14.769531 C 768.5 13.777344 771.910156 13.175781 775.101562 13.175781 C 782.964844 13.175781 787.03125 16.859375 787.03125 24.007812 L 787.03125 41.878906 L 780.820312 41.878906 L 780.820312 38.910156 L 780.707031 38.910156 C 778.289062 41.386719 775.761719 42.539062 772.515625 42.539062 C 766.90625 42.539062 763.277344 39.074219 763.277344 33.632812 C 763.277344 27.691406 767.511719 24.503906 775.320312 24.503906 "/>
<path fill-rule="nonzero" fill="rgb(6.944275%, 19.386292%, 39.657593%)" fill-opacity="1" d="M 809.550781 35.886719 L 809.550781 41.496094 C 808.121094 42.15625 805.976562 42.539062 804.050781 42.539062 C 799.101562 42.539062 796.40625 39.789062 796.40625 34.675781 L 796.40625 19.332031 L 792.117188 19.332031 L 792.117188 13.890625 L 796.355469 13.890625 L 796.355469 6.246094 L 802.898438 4.816406 L 802.898438 13.890625 L 809.550781 13.890625 L 809.550781 19.332031 L 802.898438 19.332031 L 802.898438 33.136719 C 802.898438 35.722656 803.777344 36.820312 805.921875 36.820312 C 807.132812 36.820312 808.449219 36.4375 809.550781 35.886719 "/>
<path fill-rule="nonzero" fill="rgb(6.944275%, 19.386292%, 39.657593%)" fill-opacity="1" d="M 28.355469 102.378906 L 3.0625 102.378906 L 3.0625 63.664062 L 27.640625 63.664062 L 27.640625 69.933594 L 9.878906 69.933594 L 9.878906 79.171875 L 23.40625 79.171875 L 23.40625 85.386719 L 9.878906 85.386719 L 9.878906 96.109375 L 28.355469 96.109375 Z M 28.355469 102.378906 "/>
<path fill-rule="nonzero" fill="rgb(6.944275%, 19.386292%, 39.657593%)" fill-opacity="1" d="M 52.046875 74.28125 L 51 80.988281 C 50.011719 80.4375 48.800781 80.109375 47.371094 80.109375 C 42.863281 80.109375 41.652344 83.738281 41.652344 88.027344 L 41.652344 102.378906 L 35.109375 102.378906 L 35.109375 74.386719 L 41.542969 74.386719 L 41.542969 77.910156 L 41.652344 77.910156 C 43.136719 75.269531 45.777344 73.675781 48.964844 73.675781 C 49.902344 73.675781 51.054688 73.839844 52.046875 74.28125 "/>
<path fill-rule="nonzero" fill="rgb(6.944275%, 19.386292%, 39.657593%)" fill-opacity="1" d="M 64.121094 102.378906 L 57.574219 102.378906 L 57.574219 63.007812 L 64.121094 61.519531 Z M 64.121094 102.378906 "/>
<path fill-rule="nonzero" fill="rgb(6.944275%, 19.386292%, 39.657593%)" fill-opacity="1" d="M 81.882812 98.144531 C 84.25 98.144531 86.449219 96.992188 88.261719 94.792969 L 88.261719 89.898438 C 86.722656 89.511719 85.128906 89.347656 83.699219 89.347656 C 79.574219 89.347656 77.210938 90.996094 77.210938 93.964844 C 77.210938 96.550781 79.023438 98.144531 81.882812 98.144531 M 82.984375 85.003906 C 84.800781 85.003906 86.449219 85.113281 88.261719 85.609375 L 88.261719 84.617188 C 88.261719 81.042969 86.175781 79.171875 82.105469 79.171875 C 79.847656 79.171875 77.320312 79.722656 75.011719 80.769531 L 73.582031 75.269531 C 76.164062 74.28125 79.574219 73.671875 82.765625 73.671875 C 90.628906 73.671875 94.695312 77.359375 94.695312 84.507812 L 94.695312 102.378906 L 88.484375 102.378906 L 88.484375 99.410156 L 88.375 99.410156 C 85.953125 101.882812 83.425781 103.039062 80.179688 103.039062 C 74.570312 103.039062 70.941406 99.574219 70.941406 94.128906 C 70.941406 88.191406 75.175781 85.003906 82.984375 85.003906 "/>
<path fill-rule="nonzero" fill="rgb(6.944275%, 19.386292%, 39.657593%)" fill-opacity="1" d="M 127.082031 102.378906 L 120.535156 102.378906 L 120.535156 86.378906 C 120.535156 82.308594 119.328125 79.558594 115.367188 79.558594 C 110.804688 79.558594 109.539062 83.296875 109.539062 86.320312 L 109.539062 102.378906 L 102.996094 102.378906 L 102.996094 74.390625 L 109.484375 74.390625 L 109.484375 77.742188 L 109.59375 77.742188 C 111.242188 75.269531 114.214844 73.675781 117.84375 73.675781 C 124.222656 73.675781 127.082031 78.347656 127.082031 85.003906 Z M 127.082031 102.378906 "/>
<path fill-rule="nonzero" fill="rgb(6.944275%, 19.386292%, 39.657593%)" fill-opacity="1" d="M 140.519531 88.191406 C 140.519531 93.691406 142.941406 96.933594 147.0625 96.933594 C 149.539062 96.933594 151.628906 95.726562 153.664062 93.25 L 153.664062 83.242188 C 151.738281 80.824219 149.539062 79.558594 147.007812 79.558594 C 142.941406 79.558594 140.519531 82.691406 140.519531 88.191406 M 141.398438 108.484375 L 142.828125 108.429688 C 151.1875 108.097656 153.664062 105.734375 153.664062 100.457031 L 153.664062 98.640625 L 153.609375 98.640625 C 151.628906 101.167969 148.492188 102.542969 145.140625 102.542969 C 138.375 102.542969 134.03125 96.992188 134.03125 88.359375 C 134.03125 79.503906 138.59375 73.671875 145.414062 73.671875 C 148.769531 73.671875 151.792969 75.101562 153.664062 77.578125 L 153.773438 77.578125 L 153.773438 74.386719 L 160.207031 74.386719 L 160.207031 99.519531 C 160.207031 108.59375 155.585938 113.101562 143.433594 113.597656 L 142.058594 113.652344 Z M 141.398438 108.484375 "/>
<path fill-rule="nonzero" fill="rgb(6.944275%, 19.386292%, 39.657593%)" fill-opacity="1" d="M 173.804688 85.828125 L 186.507812 85.828125 C 186.234375 81.539062 183.976562 79.0625 180.292969 79.0625 C 176.664062 79.0625 174.355469 81.484375 173.804688 85.828125 M 181.117188 103.039062 C 172.816406 103.039062 167.261719 97.15625 167.261719 88.300781 C 167.261719 79.613281 172.59375 73.675781 180.402344 73.675781 C 187.9375 73.675781 192.832031 79.285156 192.832031 87.917969 C 192.832031 88.851562 192.777344 89.84375 192.722656 90.609375 L 173.914062 90.609375 C 174.628906 94.957031 177.214844 97.429688 181.175781 97.429688 C 183.757812 97.429688 185.847656 96.441406 188.046875 94.132812 L 192.117188 98.421875 C 188.929688 101.554688 185.351562 103.039062 181.117188 103.039062 "/>
<path fill-rule="nonzero" fill="rgb(6.944275%, 19.386292%, 39.657593%)" fill-opacity="1" d="M 224.066406 102.378906 L 217.523438 102.378906 L 217.523438 86.378906 C 217.523438 82.308594 216.3125 79.558594 212.355469 79.558594 C 207.789062 79.558594 206.523438 83.296875 206.523438 86.320312 L 206.523438 102.378906 L 199.980469 102.378906 L 199.980469 74.390625 L 206.46875 74.390625 L 206.46875 77.742188 L 206.578125 77.742188 C 208.230469 75.269531 211.199219 73.675781 214.828125 73.675781 C 221.207031 73.675781 224.066406 78.347656 224.066406 85.003906 Z M 224.066406 102.378906 "/>
<path fill-rule="nonzero" fill="rgb(6.944275%, 19.386292%, 39.657593%)" fill-opacity="1" d="M 245.324219 88.300781 L 231.578125 88.300781 L 231.578125 82.089844 L 245.324219 82.089844 Z M 245.324219 88.300781 "/>
<path fill-rule="nonzero" fill="rgb(6.944275%, 19.386292%, 39.657593%)" fill-opacity="1" d="M 253.824219 63.664062 L 260.808594 63.664062 L 278.023438 90.667969 L 278.128906 90.667969 L 277.964844 63.664062 L 284.621094 63.664062 L 284.621094 102.378906 L 277.800781 102.378906 L 260.53125 75.214844 L 260.421875 75.214844 L 260.53125 102.378906 L 253.824219 102.378906 Z M 253.824219 63.664062 "/>
<path fill-rule="nonzero" fill="rgb(6.944275%, 19.386292%, 39.657593%)" fill-opacity="1" d="M 311.3125 70.046875 C 309.222656 70.046875 307.410156 68.285156 307.410156 66.25 C 307.410156 64.214844 309.222656 62.398438 311.3125 62.398438 C 313.402344 62.398438 315.21875 64.214844 315.21875 66.25 C 315.21875 68.285156 313.402344 70.046875 311.3125 70.046875 M 299.875 70.046875 C 297.785156 70.046875 295.96875 68.285156 295.96875 66.25 C 295.96875 64.214844 297.785156 62.398438 299.875 62.398438 C 301.964844 62.398438 303.78125 64.214844 303.78125 66.25 C 303.78125 68.285156 301.964844 70.046875 299.875 70.046875 M 300.09375 91.21875 C 300.09375 95.066406 302.019531 97.101562 305.648438 97.101562 C 309.222656 97.101562 311.09375 95.121094 311.09375 91.160156 L 311.09375 74.390625 L 317.636719 74.390625 L 317.636719 91.382812 C 317.636719 98.75 313.511719 103.039062 305.8125 103.039062 C 298.171875 103.039062 293.550781 98.75 293.550781 91.4375 L 293.550781 74.390625 L 300.09375 74.390625 Z M 300.09375 91.21875 "/>
<path fill-rule="nonzero" fill="rgb(6.944275%, 19.386292%, 39.657593%)" fill-opacity="1" d="M 342.871094 74.28125 L 341.828125 80.988281 C 340.835938 80.4375 339.628906 80.109375 338.199219 80.109375 C 333.6875 80.109375 332.480469 83.738281 332.480469 88.027344 L 332.480469 102.378906 L 325.933594 102.378906 L 325.933594 74.386719 L 332.367188 74.386719 L 332.367188 77.910156 L 332.480469 77.910156 C 333.964844 75.269531 336.601562 73.675781 339.792969 73.675781 C 340.726562 73.675781 341.882812 73.839844 342.871094 74.28125 "/>
<path fill-rule="nonzero" fill="rgb(6.944275%, 19.386292%, 39.657593%)" fill-opacity="1" d="M 372.410156 102.378906 L 365.867188 102.378906 L 365.867188 86.378906 C 365.867188 82.308594 364.65625 79.558594 360.695312 79.558594 C 356.132812 79.558594 354.867188 83.296875 354.867188 86.320312 L 354.867188 102.378906 L 348.324219 102.378906 L 348.324219 74.390625 L 354.8125 74.390625 L 354.8125 77.742188 L 354.921875 77.742188 C 356.574219 75.269531 359.542969 73.675781 363.171875 73.675781 C 369.550781 73.675781 372.410156 78.347656 372.410156 85.003906 Z M 372.410156 102.378906 "/>
<path fill-rule="nonzero" fill="rgb(6.944275%, 19.386292%, 39.657593%)" fill-opacity="1" d="M 400.445312 88.359375 C 400.445312 82.582031 398.082031 79.558594 393.898438 79.558594 C 391.371094 79.558594 389.335938 80.660156 387.300781 83.1875 L 387.300781 93.417969 C 389.171875 95.890625 391.261719 97.210938 393.957031 97.210938 C 398.1875 97.210938 400.445312 93.964844 400.445312 88.359375 M 406.878906 88.191406 C 406.878906 97.210938 402.3125 103.039062 395.441406 103.039062 C 391.921875 103.039062 389.007812 101.554688 387.136719 99.136719 L 387.027344 99.136719 L 387.027344 102.378906 L 380.757812 102.378906 L 380.757812 63.117188 L 387.300781 61.464844 L 387.300781 77.632812 L 387.410156 77.632812 C 389.28125 75.160156 392.140625 73.671875 395.605469 73.671875 C 402.3125 73.671875 406.878906 79.117188 406.878906 88.191406 "/>
<path fill-rule="nonzero" fill="rgb(6.944275%, 19.386292%, 39.657593%)" fill-opacity="1" d="M 419.167969 85.828125 L 431.871094 85.828125 C 431.597656 81.539062 429.34375 79.0625 425.65625 79.0625 C 422.027344 79.0625 419.71875 81.484375 419.167969 85.828125 M 426.480469 103.039062 C 418.179688 103.039062 412.625 97.15625 412.625 88.300781 C 412.625 79.613281 417.957031 73.675781 425.765625 73.675781 C 433.300781 73.675781 438.195312 79.285156 438.195312 87.917969 C 438.195312 88.851562 438.140625 89.84375 438.085938 90.609375 L 419.277344 90.609375 C 419.992188 94.957031 422.578125 97.429688 426.535156 97.429688 C 429.121094 97.429688 431.210938 96.441406 433.410156 94.132812 L 437.480469 98.421875 C 434.289062 101.554688 430.714844 103.039062 426.480469 103.039062 "/>
<path fill-rule="nonzero" fill="rgb(6.944275%, 19.386292%, 39.657593%)" fill-opacity="1" d="M 462.28125 74.28125 L 461.234375 80.988281 C 460.246094 80.4375 459.035156 80.109375 457.605469 80.109375 C 453.097656 80.109375 451.886719 83.738281 451.886719 88.027344 L 451.886719 102.378906 L 445.34375 102.378906 L 445.34375 74.386719 L 451.777344 74.386719 L 451.777344 77.910156 L 451.886719 77.910156 C 453.371094 75.269531 456.011719 73.675781 459.203125 73.675781 C 460.136719 73.675781 461.289062 73.839844 462.28125 74.28125 "/>
<path fill-rule="nonzero" fill="rgb(6.944275%, 19.386292%, 39.657593%)" fill-opacity="1" d="M 472.46875 88.191406 C 472.46875 93.691406 474.886719 96.933594 479.011719 96.933594 C 481.484375 96.933594 483.574219 95.726562 485.609375 93.25 L 485.609375 83.242188 C 483.683594 80.824219 481.484375 79.558594 478.953125 79.558594 C 474.886719 79.558594 472.46875 82.691406 472.46875 88.191406 M 473.347656 108.484375 L 474.777344 108.429688 C 483.136719 108.097656 485.609375 105.734375 485.609375 100.457031 L 485.609375 98.640625 L 485.554688 98.640625 C 483.574219 101.167969 480.441406 102.542969 477.085938 102.542969 C 470.320312 102.542969 465.976562 96.992188 465.976562 88.359375 C 465.976562 79.503906 470.542969 73.671875 477.359375 73.671875 C 480.714844 73.671875 483.738281 75.101562 485.609375 77.578125 L 485.71875 77.578125 L 485.71875 74.386719 L 492.152344 74.386719 L 492.152344 99.519531 C 492.152344 108.59375 487.535156 113.101562 475.378906 113.597656 L 474.003906 113.652344 Z M 473.347656 108.484375 "/>
</svg>
