<?xml version="1.0" encoding="UTF-8"?>
<svg xmlns="http://www.w3.org/2000/svg" xmlns:xlink="http://www.w3.org/1999/xlink" width="604.875" height="84.525002" viewBox="0 0 604.875 84.525002">
<defs>
<clipPath id="clip-0">
<path clip-rule="nonzero" d="M 591 2 L 604.875 2 L 604.875 32 L 591 32 Z M 591 2 "/>
</clipPath>
<clipPath id="clip-1">
<path clip-rule="nonzero" d="M 98 54 L 118 54 L 118 84.523438 L 98 84.523438 Z M 98 54 "/>
</clipPath>
<clipPath id="clip-2">
<path clip-rule="nonzero" d="M 347 54 L 367 54 L 367 84.523438 L 347 84.523438 Z M 347 54 "/>
</clipPath>
</defs>
<path fill-rule="nonzero" fill="rgb(100%, 100%, 100%)" fill-opacity="1" d="M 18.300781 6.375 L 5.175781 6.375 L 5.175781 13.574219 L 14.925781 13.574219 L 14.925781 18.300781 L 5.175781 18.300781 L 5.175781 30.675781 L 0 30.675781 L 0 1.574219 L 18.226562 1.574219 L 18.226562 6.375 Z M 18.300781 6.375 "/>
<path fill-rule="nonzero" fill="rgb(100%, 100%, 100%)" fill-opacity="1" d="M 33.75 9.523438 L 33 14.550781 C 32.25 14.175781 31.351562 13.875 30.300781 13.875 C 26.925781 13.875 26.023438 16.574219 26.023438 19.800781 L 26.023438 30.601562 L 21.148438 30.601562 L 21.148438 9.601562 L 25.949219 9.601562 L 25.949219 12.300781 L 26.023438 12.300781 C 27.148438 10.351562 29.101562 9.148438 31.5 9.148438 C 32.175781 9.074219 33 9.226562 33.75 9.523438 Z M 33.75 9.523438 "/>
<path fill-rule="nonzero" fill="rgb(100%, 100%, 100%)" fill-opacity="1" d="M 43.5 3.300781 C 43.5 5.023438 42.074219 6.300781 40.351562 6.300781 C 38.625 6.300781 37.273438 5.101562 37.273438 3.300781 C 37.273438 1.574219 38.699219 0.300781 40.351562 0.300781 C 42.074219 0.300781 43.5 1.574219 43.5 3.300781 Z M 42.824219 30.675781 L 37.949219 30.675781 L 37.949219 9.675781 L 42.824219 9.675781 Z M 42.824219 30.675781 "/>
<path fill-rule="nonzero" fill="rgb(100%, 100%, 100%)" fill-opacity="1" d="M 58.425781 31.125 C 52.199219 31.125 48 26.699219 48 20.101562 C 48 13.574219 51.976562 9.148438 57.824219 9.148438 C 63.449219 9.148438 67.125 13.351562 67.125 19.800781 C 67.125 20.476562 67.050781 21.226562 67.050781 21.824219 L 52.949219 21.824219 C 53.476562 25.050781 55.425781 26.925781 58.425781 26.925781 C 60.375 26.925781 61.949219 26.175781 63.601562 24.449219 L 66.675781 27.675781 C 64.273438 30 61.574219 31.125 58.425781 31.125 Z M 52.875 18.226562 L 62.398438 18.226562 C 62.175781 15 60.523438 13.125 57.75 13.125 C 55.050781 13.125 53.324219 15 52.875 18.226562 Z M 52.875 18.226562 "/>
<path fill-rule="nonzero" fill="rgb(100%, 100%, 100%)" fill-opacity="1" d="M 71.476562 20.101562 C 71.476562 13.351562 74.925781 9.148438 80.023438 9.148438 C 82.648438 9.148438 84.75 10.273438 86.101562 12 L 86.175781 12 L 86.175781 1.199219 L 91.050781 0 L 91.050781 30.675781 L 86.25 30.675781 L 86.25 28.199219 L 86.175781 28.199219 C 84.675781 30.074219 82.5 31.199219 79.875 31.199219 C 74.925781 31.125 71.476562 26.851562 71.476562 20.101562 Z M 76.273438 20.101562 C 76.273438 24.375 78.074219 26.851562 81.148438 26.851562 C 83.023438 26.851562 84.601562 25.949219 86.175781 24.074219 L 86.175781 16.351562 C 84.75 14.476562 83.175781 13.574219 81.148438 13.574219 C 78 13.574219 76.273438 15.898438 76.273438 20.101562 Z M 76.273438 20.101562 "/>
<path fill-rule="nonzero" fill="rgb(100%, 100%, 100%)" fill-opacity="1" d="M 110.175781 9.523438 L 109.425781 14.550781 C 108.675781 14.175781 107.773438 13.875 106.726562 13.875 C 103.351562 13.875 102.449219 16.574219 102.449219 19.800781 L 102.449219 30.601562 L 97.574219 30.601562 L 97.574219 9.601562 L 102.375 9.601562 L 102.375 12.300781 L 102.449219 12.300781 C 103.574219 10.351562 105.523438 9.148438 107.925781 9.148438 C 108.601562 9.074219 109.425781 9.226562 110.175781 9.523438 Z M 110.175781 9.523438 "/>
<path fill-rule="nonzero" fill="rgb(100%, 100%, 100%)" fill-opacity="1" d="M 119.851562 3.300781 C 119.851562 5.023438 118.425781 6.300781 116.699219 6.300781 C 114.976562 6.300781 113.625 5.101562 113.625 3.300781 C 113.625 1.574219 115.050781 0.300781 116.699219 0.300781 C 118.5 0.300781 119.851562 1.574219 119.851562 3.300781 Z M 119.25 30.675781 L 114.375 30.675781 L 114.375 9.675781 L 119.25 9.675781 Z M 119.25 30.675781 "/>
<path fill-rule="nonzero" fill="rgb(100%, 100%, 100%)" fill-opacity="1" d="M 142.050781 27.75 C 139.949219 30.074219 137.550781 31.125 134.550781 31.125 C 128.550781 31.125 124.5 26.773438 124.5 20.175781 C 124.5 13.574219 128.550781 9.074219 134.625 9.074219 C 137.773438 9.074219 140.324219 10.273438 142.199219 12.675781 L 138.824219 15.898438 C 137.625 14.324219 136.273438 13.574219 134.625 13.574219 C 131.550781 13.574219 129.449219 16.125 129.449219 20.101562 C 129.449219 24 131.550781 26.625 134.625 26.625 C 136.273438 26.625 137.625 25.875 138.976562 24.300781 Z M 142.050781 27.75 "/>
<path fill-rule="nonzero" fill="rgb(100%, 100%, 100%)" fill-opacity="1" d="M 164.476562 30.675781 L 159.601562 30.675781 L 159.601562 18.675781 C 159.601562 15.601562 158.625 13.574219 155.699219 13.574219 C 152.324219 13.574219 151.351562 16.273438 151.351562 18.675781 L 151.351562 30.75 L 146.398438 30.75 L 146.398438 1.199219 L 151.273438 0 L 151.273438 12.226562 L 151.351562 12.226562 C 152.550781 10.351562 154.726562 9.148438 157.5 9.148438 C 162.375 9.148438 164.398438 12.75 164.398438 17.625 L 164.398438 30.675781 Z M 164.476562 30.675781 "/>
<path fill-rule="nonzero" fill="rgb(100%, 100%, 100%)" fill-opacity="1" d="M 170.101562 15.449219 L 180.375 15.449219 L 180.375 20.101562 L 170.101562 20.101562 Z M 170.101562 15.449219 "/>
<path fill-rule="nonzero" fill="rgb(100%, 100%, 100%)" fill-opacity="1" d="M 193.726562 1.574219 L 199.199219 1.574219 L 210 30.601562 L 204.375 30.601562 L 202.273438 24.449219 L 190.574219 24.449219 L 188.476562 30.601562 L 183 30.601562 Z M 192.148438 19.800781 L 200.625 19.800781 L 196.425781 7.5 L 196.351562 7.5 Z M 192.148438 19.800781 "/>
<path fill-rule="nonzero" fill="rgb(100%, 100%, 100%)" fill-opacity="1" d="M 219.226562 30.675781 L 214.351562 30.675781 L 214.351562 1.125 L 219.226562 0 Z M 219.226562 30.675781 "/>
<path fill-rule="nonzero" fill="rgb(100%, 100%, 100%)" fill-opacity="1" d="M 234.898438 31.125 C 228.675781 31.125 224.476562 26.699219 224.476562 20.101562 C 224.476562 13.574219 228.449219 9.148438 234.300781 9.148438 C 239.925781 9.148438 243.601562 13.351562 243.601562 19.800781 C 243.601562 20.476562 243.523438 21.226562 243.523438 21.824219 L 229.425781 21.824219 C 229.949219 25.050781 231.898438 26.925781 234.898438 26.925781 C 236.851562 26.925781 238.425781 26.175781 240.074219 24.449219 L 243.148438 27.675781 C 240.75 30 238.125 31.125 234.898438 31.125 Z M 229.425781 18.226562 L 238.949219 18.226562 C 238.726562 15 237.074219 13.125 234.300781 13.125 C 231.601562 13.125 229.875 15 229.425781 18.226562 Z M 229.425781 18.226562 "/>
<path fill-rule="nonzero" fill="rgb(100%, 100%, 100%)" fill-opacity="1" d="M 266.398438 30.675781 L 260.773438 30.675781 L 256.273438 23.398438 L 256.199219 23.398438 L 251.851562 30.675781 L 246.300781 30.675781 L 253.5 19.800781 L 246.824219 9.675781 L 252.375 9.675781 L 256.351562 16.125 L 256.425781 16.125 L 260.324219 9.675781 L 265.800781 9.675781 L 259.199219 19.726562 Z M 266.398438 30.675781 "/>
<path fill-rule="nonzero" fill="rgb(100%, 100%, 100%)" fill-opacity="1" d="M 278.023438 17.625 C 279.375 17.625 280.648438 17.699219 282 18.074219 L 282 17.324219 C 282 14.625 280.425781 13.273438 277.351562 13.273438 C 275.625 13.273438 273.75 13.726562 272.023438 14.476562 L 270.976562 10.351562 C 272.925781 9.601562 275.476562 9.148438 277.875 9.148438 C 283.800781 9.148438 286.800781 11.925781 286.800781 17.25 L 286.800781 30.675781 L 282.148438 30.675781 L 282.148438 28.425781 L 282.074219 28.425781 C 280.273438 30.300781 278.398438 31.125 275.925781 31.125 C 271.726562 31.125 269.023438 28.5 269.023438 24.449219 C 268.949219 20.023438 272.101562 17.625 278.023438 17.625 Z M 277.199219 27.449219 C 279 27.449219 280.648438 26.550781 282 24.898438 L 282 21.300781 C 280.875 21 279.675781 20.851562 278.550781 20.851562 C 275.476562 20.851562 273.675781 22.050781 273.675781 24.300781 C 273.675781 26.25 275.023438 27.449219 277.199219 27.449219 Z M 277.199219 27.449219 "/>
<path fill-rule="nonzero" fill="rgb(100%, 100%, 100%)" fill-opacity="1" d="M 311.101562 30.675781 L 306.148438 30.675781 L 306.148438 18.675781 C 306.148438 15.601562 305.25 13.574219 302.25 13.574219 C 298.800781 13.574219 297.898438 16.351562 297.898438 18.675781 L 297.898438 30.75 L 293.023438 30.75 L 293.023438 9.75 L 297.898438 9.75 L 297.898438 12.300781 L 297.976562 12.300781 C 299.25 10.425781 301.425781 9.226562 304.125 9.226562 C 308.925781 9.226562 311.023438 12.75 311.023438 17.699219 L 311.023438 30.675781 Z M 311.101562 30.675781 "/>
<path fill-rule="nonzero" fill="rgb(100%, 100%, 100%)" fill-opacity="1" d="M 316.273438 20.101562 C 316.273438 13.351562 319.726562 9.148438 324.824219 9.148438 C 327.449219 9.148438 329.550781 10.273438 330.898438 12 L 330.976562 12 L 330.976562 1.199219 L 335.851562 0 L 335.851562 30.675781 L 331.050781 30.675781 L 331.050781 28.199219 L 330.976562 28.199219 C 329.476562 30.074219 327.300781 31.199219 324.675781 31.199219 C 319.726562 31.125 316.273438 26.851562 316.273438 20.101562 Z M 321.148438 20.101562 C 321.148438 24.375 322.949219 26.851562 326.023438 26.851562 C 327.898438 26.851562 329.476562 25.949219 331.050781 24.074219 L 331.050781 16.351562 C 329.625 14.476562 328.050781 13.574219 326.023438 13.574219 C 322.800781 13.574219 321.148438 15.898438 321.148438 20.101562 Z M 321.148438 20.101562 "/>
<path fill-rule="nonzero" fill="rgb(100%, 100%, 100%)" fill-opacity="1" d="M 351.601562 31.125 C 345.375 31.125 341.175781 26.699219 341.175781 20.101562 C 341.175781 13.574219 345.148438 9.148438 351 9.148438 C 356.625 9.148438 360.300781 13.351562 360.300781 19.800781 C 360.300781 20.476562 360.226562 21.226562 360.226562 21.824219 L 346.125 21.824219 C 346.648438 25.050781 348.601562 26.925781 351.601562 26.925781 C 353.550781 26.925781 355.125 26.175781 356.773438 24.449219 L 359.851562 27.675781 C 357.449219 30 354.75 31.125 351.601562 31.125 Z M 346.125 18.226562 L 355.648438 18.226562 C 355.425781 15 353.773438 13.125 351 13.125 C 348.300781 13.125 346.5 15 346.125 18.226562 Z M 346.125 18.226562 "/>
<path fill-rule="nonzero" fill="rgb(100%, 100%, 100%)" fill-opacity="1" d="M 378.449219 9.523438 L 377.699219 14.550781 C 376.949219 14.175781 376.050781 13.875 375 13.875 C 371.625 13.875 370.726562 16.574219 370.726562 19.800781 L 370.726562 30.601562 L 365.851562 30.601562 L 365.851562 9.601562 L 370.648438 9.601562 L 370.648438 12.300781 L 370.726562 12.300781 C 371.851562 10.351562 373.800781 9.148438 376.199219 9.148438 C 376.875 9.074219 377.699219 9.226562 378.449219 9.523438 Z M 378.449219 9.523438 "/>
<path fill-rule="nonzero" fill="rgb(100%, 100%, 100%)" fill-opacity="1" d="M 381.523438 15.449219 L 391.800781 15.449219 L 391.800781 20.101562 L 381.523438 20.101562 Z M 381.523438 15.449219 "/>
<path fill-rule="nonzero" fill="rgb(100%, 100%, 100%)" fill-opacity="1" d="M 420.75 19.125 C 420.75 26.101562 417.148438 31.125 409.351562 31.125 C 401.625 31.125 398.023438 26.175781 398.023438 19.125 L 398.023438 1.574219 L 403.273438 1.574219 L 403.273438 18.824219 C 403.273438 23.175781 405.148438 26.175781 409.425781 26.175781 C 413.699219 26.175781 415.425781 23.25 415.425781 18.824219 L 415.425781 1.574219 L 420.675781 1.574219 L 420.675781 19.125 Z M 420.75 19.125 "/>
<path fill-rule="nonzero" fill="rgb(100%, 100%, 100%)" fill-opacity="1" d="M 445.351562 30.675781 L 440.476562 30.675781 L 440.476562 18.675781 C 440.476562 15.601562 439.574219 13.574219 436.574219 13.574219 C 433.125 13.574219 432.226562 16.351562 432.226562 18.675781 L 432.226562 30.75 L 427.351562 30.75 L 427.351562 9.75 L 432.226562 9.75 L 432.226562 12.300781 L 432.300781 12.300781 C 433.574219 10.425781 435.75 9.226562 438.449219 9.226562 C 443.25 9.226562 445.351562 12.75 445.351562 17.699219 Z M 445.351562 30.675781 "/>
<path fill-rule="nonzero" fill="rgb(100%, 100%, 100%)" fill-opacity="1" d="M 457.125 3.300781 C 457.125 5.023438 455.699219 6.300781 453.976562 6.300781 C 452.25 6.300781 450.898438 5.101562 450.898438 3.300781 C 450.898438 1.574219 452.324219 0.300781 453.976562 0.300781 C 455.699219 0.300781 457.125 1.574219 457.125 3.300781 Z M 456.449219 30.675781 L 451.574219 30.675781 L 451.574219 9.675781 L 456.449219 9.675781 Z M 456.449219 30.675781 "/>
<path fill-rule="nonzero" fill="rgb(100%, 100%, 100%)" fill-opacity="1" d="M 480.976562 9.675781 L 473.324219 30.675781 L 468.226562 30.675781 L 460.574219 9.675781 L 465.976562 9.675781 L 470.773438 24.898438 L 470.851562 24.898438 L 475.648438 9.675781 Z M 480.976562 9.675781 "/>
<path fill-rule="nonzero" fill="rgb(100%, 100%, 100%)" fill-opacity="1" d="M 493.648438 31.125 C 487.425781 31.125 483.226562 26.699219 483.226562 20.101562 C 483.226562 13.574219 487.199219 9.148438 493.050781 9.148438 C 498.675781 9.148438 502.351562 13.351562 502.351562 19.800781 C 502.351562 20.476562 502.273438 21.226562 502.273438 21.824219 L 488.175781 21.824219 C 488.699219 25.050781 490.648438 26.925781 493.648438 26.925781 C 495.601562 26.925781 497.175781 26.175781 498.824219 24.449219 L 501.898438 27.675781 C 499.5 30 496.875 31.125 493.648438 31.125 Z M 488.175781 18.226562 L 497.699219 18.226562 C 497.476562 15 495.824219 13.125 493.050781 13.125 C 490.351562 13.125 488.625 15 488.175781 18.226562 Z M 488.175781 18.226562 "/>
<path fill-rule="nonzero" fill="rgb(100%, 100%, 100%)" fill-opacity="1" d="M 520.5 9.523438 L 519.75 14.550781 C 519 14.175781 518.101562 13.875 517.050781 13.875 C 513.675781 13.875 512.773438 16.574219 512.773438 19.800781 L 512.773438 30.601562 L 507.898438 30.601562 L 507.898438 9.601562 L 512.699219 9.601562 L 512.699219 12.300781 L 512.773438 12.300781 C 513.898438 10.351562 515.851562 9.148438 518.25 9.148438 C 518.925781 9.074219 519.75 9.226562 520.5 9.523438 Z M 520.5 9.523438 "/>
<path fill-rule="nonzero" fill="rgb(100%, 100%, 100%)" fill-opacity="1" d="M 525.148438 24.675781 C 527.25 26.25 529.199219 27 531.074219 27 C 532.875 27 534.148438 26.175781 534.148438 24.898438 C 534.148438 21.300781 523.648438 22.574219 523.648438 15.601562 C 523.648438 11.699219 526.875 9.074219 531.601562 9.074219 C 534.148438 9.074219 536.625 9.824219 538.875 11.25 L 536.550781 15.074219 C 534.75 13.875 533.101562 13.199219 531.523438 13.199219 C 529.726562 13.199219 528.523438 13.949219 528.523438 15.148438 C 528.523438 18.601562 539.023438 17.398438 539.023438 24.449219 C 539.023438 28.425781 535.800781 31.125 530.925781 31.125 C 528.148438 31.125 525.300781 30.226562 522.824219 28.574219 Z M 525.148438 24.675781 "/>
<path fill-rule="nonzero" fill="rgb(100%, 100%, 100%)" fill-opacity="1" d="M 549.824219 3.300781 C 549.824219 5.023438 548.398438 6.300781 546.675781 6.300781 C 544.949219 6.300781 543.601562 5.101562 543.601562 3.300781 C 543.601562 1.574219 545.023438 0.300781 546.675781 0.300781 C 548.398438 0.300781 549.824219 1.574219 549.824219 3.300781 Z M 549.148438 30.675781 L 544.273438 30.675781 L 544.273438 9.675781 L 549.148438 9.675781 Z M 549.148438 30.675781 "/>
<path fill-rule="nonzero" fill="rgb(100%, 100%, 100%)" fill-opacity="1" d="M 566.398438 26.175781 L 566.398438 30.375 C 565.351562 30.898438 563.699219 31.125 562.273438 31.125 C 558.601562 31.125 556.574219 29.101562 556.574219 25.199219 L 556.574219 13.726562 L 553.351562 13.726562 L 553.351562 9.675781 L 556.5 9.675781 L 556.5 3.976562 L 561.375 2.925781 L 561.375 9.75 L 566.398438 9.75 L 566.398438 13.800781 L 561.375 13.800781 L 561.375 24.148438 C 561.375 26.101562 562.050781 26.925781 563.625 26.925781 C 564.523438 26.851562 565.574219 26.550781 566.398438 26.175781 Z M 566.398438 26.175781 "/>
<path fill-rule="nonzero" fill="rgb(100%, 100%, 100%)" fill-opacity="1" d="M 579.226562 17.625 C 580.574219 17.625 581.851562 17.699219 583.199219 18.074219 L 583.199219 17.324219 C 583.199219 14.625 581.625 13.273438 578.550781 13.273438 C 576.824219 13.273438 574.949219 13.726562 573.226562 14.476562 L 572.175781 10.351562 C 574.125 9.601562 576.675781 9.148438 579.074219 9.148438 C 585 9.148438 588 11.925781 588 17.25 L 588 30.675781 L 583.351562 30.675781 L 583.351562 28.425781 L 583.273438 28.425781 C 581.476562 30.300781 579.601562 31.125 577.125 31.125 C 572.925781 31.125 570.226562 28.5 570.226562 24.449219 C 570.226562 20.023438 573.375 17.625 579.226562 17.625 Z M 575.25 6.375 C 573.675781 6.375 572.324219 5.023438 572.324219 3.523438 C 572.324219 2.023438 573.675781 0.675781 575.25 0.675781 C 576.824219 0.675781 578.175781 2.023438 578.175781 3.523438 C 578.175781 5.101562 576.824219 6.375 575.25 6.375 Z M 578.398438 27.449219 C 580.199219 27.449219 581.851562 26.550781 583.199219 24.898438 L 583.199219 21.300781 C 582.074219 21 580.875 20.851562 579.75 20.851562 C 576.675781 20.851562 574.875 22.050781 574.875 24.300781 C 574.875 26.25 576.300781 27.449219 578.398438 27.449219 Z M 583.800781 6.375 C 582.226562 6.375 580.875 5.023438 580.875 3.523438 C 580.875 2.023438 582.226562 0.675781 583.800781 0.675781 C 585.375 0.675781 586.726562 2.023438 586.726562 3.523438 C 586.726562 5.101562 585.375 6.375 583.800781 6.375 Z M 583.800781 6.375 "/>
<g clip-path="url(#clip-0)">
<path fill-rule="nonzero" fill="rgb(100%, 100%, 100%)" fill-opacity="1" d="M 604.875 26.175781 L 604.875 30.375 C 603.824219 30.898438 602.175781 31.125 600.75 31.125 C 597.074219 31.125 595.050781 29.101562 595.050781 25.199219 L 595.050781 13.726562 L 591.824219 13.726562 L 591.824219 9.675781 L 594.976562 9.675781 L 594.976562 3.976562 L 599.851562 2.925781 L 599.851562 9.75 L 604.875 9.75 L 604.875 13.800781 L 599.851562 13.800781 L 599.851562 24.148438 C 599.851562 26.101562 600.523438 26.925781 602.101562 26.925781 C 603.074219 26.851562 604.050781 26.550781 604.875 26.175781 Z M 604.875 26.175781 "/>
</g>
<path fill-rule="nonzero" fill="rgb(100%, 100%, 100%)" fill-opacity="1" d="M 18.976562 76.050781 L 0 76.050781 L 0 47.023438 L 18.449219 47.023438 L 18.449219 51.75 L 5.175781 51.75 L 5.175781 58.648438 L 15.300781 58.648438 L 15.300781 63.300781 L 5.175781 63.300781 L 5.175781 71.324219 L 19.050781 71.324219 L 19.050781 76.050781 Z M 18.976562 76.050781 "/>
<path fill-rule="nonzero" fill="rgb(100%, 100%, 100%)" fill-opacity="1" d="M 36.75 54.898438 L 36 59.925781 C 35.25 59.550781 34.351562 59.25 33.300781 59.25 C 29.925781 59.25 29.023438 61.949219 29.023438 65.175781 L 29.023438 76.050781 L 24.148438 76.050781 L 24.148438 55.050781 L 28.949219 55.050781 L 28.949219 57.675781 L 29.023438 57.675781 C 30.148438 55.726562 32.101562 54.523438 34.5 54.523438 C 35.175781 54.449219 36 54.601562 36.75 54.898438 Z M 36.75 54.898438 "/>
<path fill-rule="nonzero" fill="rgb(100%, 100%, 100%)" fill-opacity="1" d="M 45.824219 76.050781 L 40.949219 76.050781 L 40.949219 46.5 L 45.824219 45.375 Z M 45.824219 76.050781 "/>
<path fill-rule="nonzero" fill="rgb(100%, 100%, 100%)" fill-opacity="1" d="M 60 63 C 61.351562 63 62.625 63.074219 63.976562 63.449219 L 63.976562 62.699219 C 63.976562 60 62.398438 58.648438 59.324219 58.648438 C 57.601562 58.648438 55.726562 59.101562 54 59.851562 L 52.949219 55.726562 C 54.898438 54.976562 57.449219 54.523438 59.851562 54.523438 C 65.773438 54.523438 68.773438 57.300781 68.773438 62.625 L 68.773438 76.050781 L 64.125 76.050781 L 64.125 73.800781 L 64.050781 73.800781 C 62.25 75.675781 60.375 76.5 57.898438 76.5 C 53.699219 76.5 51 73.875 51 69.824219 C 50.925781 65.398438 54.148438 63 60 63 Z M 59.175781 72.824219 C 60.976562 72.824219 62.625 71.925781 63.976562 70.273438 L 63.976562 66.601562 C 62.851562 66.300781 61.648438 66.148438 60.523438 66.148438 C 57.449219 66.148438 55.648438 67.351562 55.648438 69.601562 C 55.648438 71.625 57 72.824219 59.175781 72.824219 Z M 59.175781 72.824219 "/>
<path fill-rule="nonzero" fill="rgb(100%, 100%, 100%)" fill-opacity="1" d="M 93.074219 76.050781 L 88.199219 76.050781 L 88.199219 64.050781 C 88.199219 60.976562 87.300781 58.949219 84.300781 58.949219 C 80.851562 58.949219 79.949219 61.726562 79.949219 64.050781 L 79.949219 76.050781 L 75.074219 76.050781 L 75.074219 55.050781 L 79.949219 55.050781 L 79.949219 57.601562 L 80.023438 57.601562 C 81.226562 55.726562 83.476562 54.523438 86.175781 54.523438 C 90.976562 54.523438 93.074219 58.050781 93.074219 63 Z M 93.074219 76.050781 "/>
<g clip-path="url(#clip-1)">
<path fill-rule="nonzero" fill="rgb(100%, 100%, 100%)" fill-opacity="1" d="M 103.800781 80.625 L 104.851562 80.550781 C 111.148438 80.324219 112.949219 78.523438 112.949219 74.550781 L 112.949219 73.199219 L 112.875 73.199219 C 111.375 75.074219 109.050781 76.125 106.5 76.125 C 101.398438 76.125 98.175781 71.925781 98.175781 65.476562 C 98.175781 58.800781 101.625 54.449219 106.726562 54.449219 C 109.273438 54.449219 111.523438 55.5 112.875 57.375 L 112.949219 57.375 L 112.949219 55.050781 L 117.75 55.050781 L 117.75 73.875 C 117.75 80.699219 114.300781 84.074219 105.148438 84.449219 L 104.101562 84.523438 Z M 103.125 65.398438 C 103.125 69.523438 104.925781 71.925781 108 71.925781 C 109.875 71.925781 111.449219 71.023438 112.949219 69.148438 L 112.949219 61.648438 C 111.523438 59.851562 109.875 58.875 107.925781 58.875 C 104.925781 58.875 103.125 61.273438 103.125 65.398438 Z M 103.125 65.398438 "/>
</g>
<path fill-rule="nonzero" fill="rgb(100%, 100%, 100%)" fill-opacity="1" d="M 133.574219 76.5 C 127.351562 76.5 123.148438 72.074219 123.148438 65.476562 C 123.148438 58.949219 127.125 54.523438 132.976562 54.523438 C 138.601562 54.523438 142.273438 58.726562 142.273438 65.175781 C 142.273438 65.851562 142.199219 66.601562 142.199219 67.199219 L 128.101562 67.199219 C 128.625 70.425781 130.574219 72.300781 133.574219 72.300781 C 135.523438 72.300781 137.101562 71.550781 138.75 69.824219 L 141.824219 73.050781 C 139.425781 75.375 136.726562 76.5 133.574219 76.5 Z M 128.101562 63.601562 L 137.625 63.601562 C 137.398438 60.375 135.75 58.5 132.976562 58.5 C 130.273438 58.5 128.476562 60.375 128.101562 63.601562 Z M 128.101562 63.601562 "/>
<path fill-rule="nonzero" fill="rgb(100%, 100%, 100%)" fill-opacity="1" d="M 165.824219 76.050781 L 160.949219 76.050781 L 160.949219 64.050781 C 160.949219 60.976562 160.050781 58.949219 157.050781 58.949219 C 153.601562 58.949219 152.699219 61.726562 152.699219 64.050781 L 152.699219 76.050781 L 147.824219 76.050781 L 147.824219 55.050781 L 152.699219 55.050781 L 152.699219 57.601562 L 152.773438 57.601562 C 153.976562 55.726562 156.226562 54.523438 158.925781 54.523438 C 163.726562 54.523438 165.824219 58.050781 165.824219 63 Z M 165.824219 76.050781 "/>
<path fill-rule="nonzero" fill="rgb(100%, 100%, 100%)" fill-opacity="1" d="M 171.449219 60.824219 L 181.726562 60.824219 L 181.726562 65.476562 L 171.449219 65.476562 Z M 171.449219 60.824219 "/>
<path fill-rule="nonzero" fill="rgb(100%, 100%, 100%)" fill-opacity="1" d="M 188.101562 46.949219 L 193.351562 46.949219 L 206.25 67.199219 L 206.324219 67.199219 L 206.175781 46.949219 L 211.199219 46.949219 L 211.199219 76.050781 L 206.101562 76.050781 L 193.125 55.648438 L 193.050781 55.648438 L 193.125 76.050781 L 188.101562 76.050781 Z M 188.101562 46.949219 "/>
<path fill-rule="nonzero" fill="rgb(100%, 100%, 100%)" fill-opacity="1" d="M 222.824219 67.648438 C 222.824219 70.5 224.25 72.074219 227.023438 72.074219 C 229.726562 72.074219 231.074219 70.574219 231.074219 67.648438 L 231.074219 55.050781 L 235.949219 55.050781 L 235.949219 67.800781 C 235.949219 73.351562 232.875 76.574219 227.101562 76.574219 C 221.398438 76.574219 217.875 73.351562 217.875 67.875 L 217.875 55.125 L 222.75 55.125 L 222.75 67.648438 Z M 222.675781 51.75 C 221.101562 51.75 219.75 50.398438 219.75 48.898438 C 219.75 47.398438 221.101562 46.050781 222.675781 46.050781 C 224.25 46.050781 225.601562 47.398438 225.601562 48.898438 C 225.601562 50.476562 224.25 51.75 222.675781 51.75 Z M 231.226562 51.75 C 229.648438 51.75 228.300781 50.398438 228.300781 48.898438 C 228.300781 47.398438 229.648438 46.050781 231.226562 46.050781 C 232.800781 46.050781 234.148438 47.398438 234.148438 48.898438 C 234.148438 50.476562 232.800781 51.75 231.226562 51.75 Z M 231.226562 51.75 "/>
<path fill-rule="nonzero" fill="rgb(100%, 100%, 100%)" fill-opacity="1" d="M 254.925781 54.898438 L 254.175781 59.925781 C 253.425781 59.550781 252.523438 59.25 251.476562 59.25 C 248.101562 59.25 247.199219 61.949219 247.199219 65.175781 L 247.199219 76.050781 L 242.324219 76.050781 L 242.324219 55.050781 L 247.125 55.050781 L 247.125 57.675781 L 247.199219 57.675781 C 248.324219 55.726562 250.273438 54.523438 252.675781 54.523438 C 253.273438 54.449219 254.175781 54.601562 254.925781 54.898438 Z M 254.925781 54.898438 "/>
<path fill-rule="nonzero" fill="rgb(100%, 100%, 100%)" fill-opacity="1" d="M 277.050781 76.050781 L 272.175781 76.050781 L 272.175781 64.050781 C 272.175781 60.976562 271.273438 58.949219 268.273438 58.949219 C 264.824219 58.949219 263.925781 61.726562 263.925781 64.050781 L 263.925781 76.050781 L 259.050781 76.050781 L 259.050781 55.050781 L 263.925781 55.050781 L 263.925781 57.601562 L 264 57.601562 C 265.273438 55.726562 267.449219 54.523438 270.148438 54.523438 C 274.949219 54.523438 277.050781 58.050781 277.050781 63 Z M 277.050781 76.050781 "/>
<path fill-rule="nonzero" fill="rgb(100%, 100%, 100%)" fill-opacity="1" d="M 302.925781 65.398438 C 302.925781 72.148438 299.476562 76.5 294.375 76.5 C 291.75 76.5 289.574219 75.375 288.148438 73.574219 L 288.074219 73.574219 L 288.074219 75.976562 L 283.351562 75.976562 L 283.351562 46.5 L 288.226562 45.300781 L 288.226562 57.449219 L 288.300781 57.449219 C 289.726562 55.574219 291.824219 54.449219 294.449219 54.449219 C 299.476562 54.449219 302.925781 58.574219 302.925781 65.398438 Z M 298.050781 65.476562 C 298.050781 61.125 296.25 58.875 293.175781 58.875 C 291.300781 58.875 289.726562 59.699219 288.226562 61.574219 L 288.226562 69.300781 C 289.648438 71.175781 291.226562 72.148438 293.25 72.148438 C 296.398438 72.148438 298.050781 69.675781 298.050781 65.476562 Z M 298.050781 65.476562 "/>
<path fill-rule="nonzero" fill="rgb(100%, 100%, 100%)" fill-opacity="1" d="M 317.625 76.5 C 311.398438 76.5 307.199219 72.074219 307.199219 65.476562 C 307.199219 58.949219 311.175781 54.523438 317.023438 54.523438 C 322.648438 54.523438 326.324219 58.726562 326.324219 65.175781 C 326.324219 65.851562 326.25 66.601562 326.25 67.199219 L 312.148438 67.199219 C 312.675781 70.425781 314.625 72.300781 317.625 72.300781 C 319.574219 72.300781 321.148438 71.550781 322.800781 69.824219 L 325.875 73.050781 C 323.476562 75.375 320.773438 76.5 317.625 76.5 Z M 312.148438 63.601562 L 321.675781 63.601562 C 321.449219 60.375 319.800781 58.5 317.023438 58.5 C 314.25 58.5 312.523438 60.375 312.148438 63.601562 Z M 312.148438 63.601562 "/>
<path fill-rule="nonzero" fill="rgb(100%, 100%, 100%)" fill-opacity="1" d="M 344.476562 54.898438 L 343.726562 59.925781 C 342.976562 59.550781 342.074219 59.25 341.023438 59.25 C 337.648438 59.25 336.75 61.949219 336.75 65.175781 L 336.75 76.050781 L 331.875 76.050781 L 331.875 55.050781 L 336.675781 55.050781 L 336.675781 57.675781 L 336.75 57.675781 C 337.875 55.726562 339.824219 54.523438 342.226562 54.523438 C 342.824219 54.449219 343.726562 54.601562 344.476562 54.898438 Z M 344.476562 54.898438 "/>
<g clip-path="url(#clip-2)">
<path fill-rule="nonzero" fill="rgb(100%, 100%, 100%)" fill-opacity="1" d="M 352.726562 80.625 L 353.773438 80.550781 C 360.074219 80.324219 361.875 78.523438 361.875 74.550781 L 361.875 73.199219 L 361.800781 73.199219 C 360.300781 75.074219 357.976562 76.125 355.425781 76.125 C 350.324219 76.125 347.101562 71.925781 347.101562 65.476562 C 347.101562 58.800781 350.550781 54.449219 355.648438 54.449219 C 358.199219 54.449219 360.449219 55.5 361.800781 57.375 L 361.875 57.375 L 361.875 55.050781 L 366.675781 55.050781 L 366.675781 73.875 C 366.675781 80.699219 363.226562 84.074219 354.074219 84.449219 L 353.023438 84.523438 Z M 352.125 65.398438 C 352.125 69.523438 353.925781 71.925781 357 71.925781 C 358.875 71.925781 360.449219 71.023438 361.949219 69.148438 L 361.949219 61.648438 C 360.523438 59.851562 358.875 58.875 356.925781 58.875 C 353.925781 58.875 352.125 61.273438 352.125 65.398438 Z M 352.125 65.398438 "/>
</g>
</svg>
