<?xml version="1.0" encoding="UTF-8"?>
<svg xmlns="http://www.w3.org/2000/svg" xmlns:xlink="http://www.w3.org/1999/xlink" width="607.049988" height="76.574997" viewBox="0 0 607.049988 76.574997">
<defs>
<clipPath id="clip-0">
<path clip-rule="nonzero" d="M 594 2 L 607.050781 2 L 607.050781 32 L 594 32 Z M 594 2 "/>
</clipPath>
<clipPath id="clip-1">
<path clip-rule="nonzero" d="M 0 47 L 22 47 L 22 76.574219 L 0 76.574219 Z M 0 47 "/>
</clipPath>
<clipPath id="clip-2">
<path clip-rule="nonzero" d="M 21 54 L 41 54 L 41 76.574219 L 21 76.574219 Z M 21 54 "/>
</clipPath>
<clipPath id="clip-3">
<path clip-rule="nonzero" d="M 45 54 L 63 54 L 63 76.574219 L 45 76.574219 Z M 45 54 "/>
</clipPath>
<clipPath id="clip-4">
<path clip-rule="nonzero" d="M 67 45 L 86 45 L 86 76.574219 L 67 76.574219 Z M 67 45 "/>
</clipPath>
<clipPath id="clip-5">
<path clip-rule="nonzero" d="M 91 54 L 110 54 L 110 76.574219 L 91 76.574219 Z M 91 54 "/>
</clipPath>
<clipPath id="clip-6">
<path clip-rule="nonzero" d="M 125 54 L 142 54 L 142 76.574219 L 125 76.574219 Z M 125 54 "/>
</clipPath>
<clipPath id="clip-7">
<path clip-rule="nonzero" d="M 145 54 L 163 54 L 163 76.574219 L 145 76.574219 Z M 145 54 "/>
</clipPath>
<clipPath id="clip-8">
<path clip-rule="nonzero" d="M 167 45 L 186 45 L 186 76.574219 L 167 76.574219 Z M 167 45 "/>
</clipPath>
<clipPath id="clip-9">
<path clip-rule="nonzero" d="M 190 54 L 210 54 L 210 76.574219 L 190 76.574219 Z M 190 54 "/>
</clipPath>
<clipPath id="clip-10">
<path clip-rule="nonzero" d="M 227 47 L 246 47 L 246 76.574219 L 227 76.574219 Z M 227 47 "/>
</clipPath>
<clipPath id="clip-11">
<path clip-rule="nonzero" d="M 246 54 L 265 54 L 265 76.574219 L 246 76.574219 Z M 246 54 "/>
</clipPath>
<clipPath id="clip-12">
<path clip-rule="nonzero" d="M 270 45 L 290 45 L 290 76.574219 L 270 76.574219 Z M 270 45 "/>
</clipPath>
<clipPath id="clip-13">
<path clip-rule="nonzero" d="M 292 55 L 311 55 L 311 76.574219 L 292 76.574219 Z M 292 55 "/>
</clipPath>
<clipPath id="clip-14">
<path clip-rule="nonzero" d="M 326 48 L 340 48 L 340 76.574219 L 326 76.574219 Z M 326 48 "/>
</clipPath>
<clipPath id="clip-15">
<path clip-rule="nonzero" d="M 343 46 L 361 46 L 361 76.574219 L 343 76.574219 Z M 343 46 "/>
</clipPath>
<clipPath id="clip-16">
<path clip-rule="nonzero" d="M 364 48 L 378 48 L 378 76.574219 L 364 76.574219 Z M 364 48 "/>
</clipPath>
</defs>
<path fill-rule="nonzero" fill="rgb(1.568604%, 19.215393%, 41.567993%)" fill-opacity="1" d="M 20.476562 6.375 L 7.351562 6.375 L 7.351562 13.574219 L 17.101562 13.574219 L 17.101562 18.300781 L 7.351562 18.300781 L 7.351562 30.675781 L 2.175781 30.675781 L 2.175781 1.574219 L 20.398438 1.574219 L 20.398438 6.375 Z M 20.476562 6.375 "/>
<path fill-rule="nonzero" fill="rgb(1.568604%, 19.215393%, 41.567993%)" fill-opacity="1" d="M 35.925781 9.523438 L 35.175781 14.550781 C 34.425781 14.175781 33.523438 13.875 32.476562 13.875 C 29.101562 13.875 28.199219 16.574219 28.199219 19.800781 L 28.199219 30.601562 L 23.324219 30.601562 L 23.324219 9.601562 L 28.125 9.601562 L 28.125 12.300781 L 28.199219 12.300781 C 29.324219 10.351562 31.273438 9.148438 33.675781 9.148438 C 34.351562 9.074219 35.175781 9.226562 35.925781 9.523438 Z M 35.925781 9.523438 "/>
<path fill-rule="nonzero" fill="rgb(1.568604%, 19.215393%, 41.567993%)" fill-opacity="1" d="M 45.675781 3.300781 C 45.675781 5.023438 44.25 6.300781 42.523438 6.300781 C 40.800781 6.300781 39.449219 5.101562 39.449219 3.300781 C 39.449219 1.574219 40.875 0.300781 42.523438 0.300781 C 44.25 0.300781 45.675781 1.574219 45.675781 3.300781 Z M 45 30.601562 L 40.125 30.601562 L 40.125 9.601562 L 45 9.601562 Z M 45 30.601562 "/>
<path fill-rule="nonzero" fill="rgb(1.568604%, 19.215393%, 41.567993%)" fill-opacity="1" d="M 60.601562 31.125 C 54.375 31.125 50.175781 26.699219 50.175781 20.101562 C 50.175781 13.574219 54.148438 9.148438 60 9.148438 C 65.625 9.148438 69.300781 13.351562 69.300781 19.800781 C 69.300781 20.476562 69.226562 21.226562 69.226562 21.824219 L 55.125 21.824219 C 55.648438 25.050781 57.601562 26.925781 60.601562 26.925781 C 62.550781 26.925781 64.125 26.175781 65.773438 24.449219 L 68.851562 27.675781 C 66.449219 30 63.75 31.125 60.601562 31.125 Z M 55.050781 18.226562 L 64.574219 18.226562 C 64.351562 15 62.699219 13.125 59.925781 13.125 C 57.226562 13.125 55.5 15 55.050781 18.226562 Z M 55.050781 18.226562 "/>
<path fill-rule="nonzero" fill="rgb(1.568604%, 19.215393%, 41.567993%)" fill-opacity="1" d="M 73.648438 20.101562 C 73.648438 13.351562 77.101562 9.148438 82.199219 9.148438 C 84.824219 9.148438 86.925781 10.273438 88.273438 12 L 88.351562 12 L 88.351562 1.199219 L 93.226562 0 L 93.226562 30.675781 L 88.425781 30.675781 L 88.425781 28.199219 L 88.351562 28.199219 C 86.851562 30.074219 84.675781 31.199219 82.050781 31.199219 C 77.101562 31.125 73.648438 26.851562 73.648438 20.101562 Z M 78.449219 20.101562 C 78.449219 24.375 80.25 26.851562 83.324219 26.851562 C 85.199219 26.851562 86.773438 25.949219 88.351562 24.074219 L 88.351562 16.351562 C 86.925781 14.476562 85.351562 13.574219 83.324219 13.574219 C 80.175781 13.574219 78.449219 15.898438 78.449219 20.101562 Z M 78.449219 20.101562 "/>
<path fill-rule="nonzero" fill="rgb(1.568604%, 19.215393%, 41.567993%)" fill-opacity="1" d="M 112.351562 9.523438 L 111.601562 14.550781 C 110.851562 14.175781 109.949219 13.875 108.898438 13.875 C 105.523438 13.875 104.625 16.574219 104.625 19.800781 L 104.625 30.601562 L 99.75 30.601562 L 99.75 9.601562 L 104.550781 9.601562 L 104.550781 12.300781 L 104.625 12.300781 C 105.75 10.351562 107.699219 9.148438 110.101562 9.148438 C 110.773438 9.074219 111.601562 9.226562 112.351562 9.523438 Z M 112.351562 9.523438 "/>
<path fill-rule="nonzero" fill="rgb(1.568604%, 19.215393%, 41.567993%)" fill-opacity="1" d="M 122.023438 3.300781 C 122.023438 5.023438 120.601562 6.300781 118.875 6.300781 C 117.148438 6.300781 115.800781 5.101562 115.800781 3.300781 C 115.800781 1.574219 117.226562 0.300781 118.875 0.300781 C 120.675781 0.300781 122.023438 1.574219 122.023438 3.300781 Z M 121.425781 30.601562 L 116.550781 30.601562 L 116.550781 9.601562 L 121.425781 9.601562 Z M 121.425781 30.601562 "/>
<path fill-rule="nonzero" fill="rgb(1.568604%, 19.215393%, 41.567993%)" fill-opacity="1" d="M 144.226562 27.75 C 142.125 30.074219 139.726562 31.125 136.726562 31.125 C 130.726562 31.125 126.675781 26.773438 126.675781 20.175781 C 126.675781 13.574219 130.726562 9.074219 136.800781 9.074219 C 139.949219 9.074219 142.5 10.273438 144.375 12.675781 L 141 15.898438 C 139.800781 14.324219 138.449219 13.574219 136.800781 13.574219 C 133.726562 13.574219 131.625 16.125 131.625 20.101562 C 131.625 24 133.726562 26.625 136.800781 26.625 C 138.449219 26.625 139.800781 25.875 141.148438 24.300781 Z M 144.226562 27.75 "/>
<path fill-rule="nonzero" fill="rgb(1.568604%, 19.215393%, 41.567993%)" fill-opacity="1" d="M 166.648438 30.601562 L 161.773438 30.601562 L 161.773438 18.601562 C 161.773438 15.523438 160.800781 13.5 157.875 13.5 C 154.5 13.5 153.523438 16.199219 153.523438 18.601562 L 153.523438 30.675781 L 148.574219 30.675781 L 148.574219 1.199219 L 153.449219 0 L 153.449219 12.226562 L 153.523438 12.226562 C 154.726562 10.351562 156.898438 9.148438 159.675781 9.148438 C 164.550781 9.148438 166.574219 12.75 166.574219 17.625 L 166.574219 30.601562 Z M 166.648438 30.601562 "/>
<path fill-rule="nonzero" fill="rgb(1.568604%, 19.215393%, 41.567993%)" fill-opacity="1" d="M 172.273438 15.449219 L 182.550781 15.449219 L 182.550781 20.101562 L 172.273438 20.101562 Z M 172.273438 15.449219 "/>
<path fill-rule="nonzero" fill="rgb(1.568604%, 19.215393%, 41.567993%)" fill-opacity="1" d="M 195.898438 1.574219 L 201.375 1.574219 L 212.175781 30.601562 L 206.550781 30.601562 L 204.449219 24.449219 L 192.75 24.449219 L 190.648438 30.601562 L 185.175781 30.601562 Z M 194.324219 19.800781 L 202.800781 19.800781 L 198.601562 7.5 L 198.523438 7.5 Z M 194.324219 19.800781 "/>
<path fill-rule="nonzero" fill="rgb(1.568604%, 19.215393%, 41.567993%)" fill-opacity="1" d="M 221.398438 30.601562 L 216.523438 30.601562 L 216.523438 1.125 L 221.398438 0 Z M 221.398438 30.601562 "/>
<path fill-rule="nonzero" fill="rgb(1.568604%, 19.215393%, 41.567993%)" fill-opacity="1" d="M 237.074219 31.125 C 230.851562 31.125 226.648438 26.699219 226.648438 20.101562 C 226.648438 13.574219 230.625 9.148438 236.476562 9.148438 C 242.101562 9.148438 245.773438 13.351562 245.773438 19.800781 C 245.773438 20.476562 245.699219 21.226562 245.699219 21.824219 L 231.601562 21.824219 C 232.125 25.050781 234.074219 26.925781 237.074219 26.925781 C 239.023438 26.925781 240.601562 26.175781 242.25 24.449219 L 245.324219 27.675781 C 242.925781 30 240.300781 31.125 237.074219 31.125 Z M 231.601562 18.226562 L 241.125 18.226562 C 240.898438 15 239.25 13.125 236.476562 13.125 C 233.773438 13.125 232.050781 15 231.601562 18.226562 Z M 231.601562 18.226562 "/>
<path fill-rule="nonzero" fill="rgb(1.568604%, 19.215393%, 41.567993%)" fill-opacity="1" d="M 268.574219 30.601562 L 262.949219 30.601562 L 258.449219 23.324219 L 258.375 23.324219 L 254.023438 30.601562 L 248.476562 30.601562 L 255.675781 19.726562 L 249 9.601562 L 254.550781 9.601562 L 258.523438 16.050781 L 258.601562 16.050781 L 262.5 9.601562 L 267.976562 9.601562 L 261.375 19.648438 Z M 268.574219 30.601562 "/>
<path fill-rule="nonzero" fill="rgb(1.568604%, 19.215393%, 41.567993%)" fill-opacity="1" d="M 280.199219 17.625 C 281.550781 17.625 282.824219 17.699219 284.175781 18.074219 L 284.175781 17.324219 C 284.175781 14.625 282.601562 13.273438 279.523438 13.273438 C 277.800781 13.273438 275.925781 13.648438 274.199219 14.476562 L 273.148438 10.351562 C 275.101562 9.601562 277.648438 9.148438 280.050781 9.148438 C 285.976562 9.148438 288.976562 11.925781 288.976562 17.25 L 288.976562 30.675781 L 284.324219 30.675781 L 284.324219 28.425781 L 284.25 28.425781 C 282.449219 30.300781 280.574219 31.125 278.101562 31.125 C 273.898438 31.125 271.199219 28.5 271.199219 24.449219 C 271.125 20.023438 274.273438 17.625 280.199219 17.625 Z M 279.375 27.449219 C 281.175781 27.449219 282.824219 26.550781 284.175781 24.898438 L 284.175781 21.300781 C 283.050781 21 281.851562 20.925781 280.726562 20.925781 C 277.648438 20.925781 275.851562 22.125 275.851562 24.375 C 275.851562 26.25 277.199219 27.449219 279.375 27.449219 Z M 279.375 27.449219 "/>
<path fill-rule="nonzero" fill="rgb(1.568604%, 19.215393%, 41.567993%)" fill-opacity="1" d="M 313.273438 30.601562 L 308.324219 30.601562 L 308.324219 18.601562 C 308.324219 15.523438 307.425781 13.5 304.425781 13.5 C 300.976562 13.5 300.074219 16.273438 300.074219 18.601562 L 300.074219 30.675781 L 295.199219 30.675781 L 295.199219 9.675781 L 300.074219 9.675781 L 300.074219 12.226562 L 300.148438 12.226562 C 301.425781 10.351562 303.601562 9.148438 306.300781 9.148438 C 311.101562 9.148438 313.199219 12.675781 313.199219 17.625 L 313.199219 30.601562 Z M 313.273438 30.601562 "/>
<path fill-rule="nonzero" fill="rgb(1.568604%, 19.215393%, 41.567993%)" fill-opacity="1" d="M 318.449219 20.101562 C 318.449219 13.351562 321.898438 9.148438 327 9.148438 C 329.625 9.148438 331.726562 10.273438 333.074219 12 L 333.148438 12 L 333.148438 1.199219 L 338.023438 0 L 338.023438 30.675781 L 333.226562 30.675781 L 333.226562 28.199219 L 333.148438 28.199219 C 331.648438 30.074219 329.476562 31.199219 326.851562 31.199219 C 321.898438 31.125 318.449219 26.851562 318.449219 20.101562 Z M 323.324219 20.101562 C 323.324219 24.375 325.125 26.851562 328.199219 26.851562 C 330.074219 26.851562 331.648438 25.949219 333.226562 24.074219 L 333.226562 16.351562 C 331.800781 14.476562 330.226562 13.574219 328.199219 13.574219 C 324.976562 13.574219 323.324219 15.898438 323.324219 20.101562 Z M 323.324219 20.101562 "/>
<path fill-rule="nonzero" fill="rgb(1.568604%, 19.215393%, 41.567993%)" fill-opacity="1" d="M 353.773438 31.125 C 347.550781 31.125 343.351562 26.699219 343.351562 20.101562 C 343.351562 13.574219 347.324219 9.148438 353.175781 9.148438 C 358.800781 9.148438 362.476562 13.351562 362.476562 19.800781 C 362.476562 20.476562 362.398438 21.226562 362.398438 21.824219 L 348.300781 21.824219 C 348.824219 25.050781 350.773438 26.925781 353.773438 26.925781 C 355.726562 26.925781 357.300781 26.175781 358.949219 24.449219 L 362.023438 27.675781 C 359.625 30 356.925781 31.125 353.773438 31.125 Z M 348.300781 18.226562 L 357.824219 18.226562 C 357.601562 15 355.949219 13.125 353.175781 13.125 C 350.476562 13.125 348.675781 15 348.300781 18.226562 Z M 348.300781 18.226562 "/>
<path fill-rule="nonzero" fill="rgb(1.568604%, 19.215393%, 41.567993%)" fill-opacity="1" d="M 380.625 9.523438 L 379.875 14.550781 C 379.125 14.175781 378.226562 13.875 377.175781 13.875 C 373.800781 13.875 372.898438 16.574219 372.898438 19.800781 L 372.898438 30.601562 L 368.023438 30.601562 L 368.023438 9.601562 L 372.824219 9.601562 L 372.824219 12.300781 L 372.898438 12.300781 C 374.023438 10.351562 375.976562 9.148438 378.375 9.148438 C 379.050781 9.074219 379.875 9.226562 380.625 9.523438 Z M 380.625 9.523438 "/>
<path fill-rule="nonzero" fill="rgb(1.568604%, 19.215393%, 41.567993%)" fill-opacity="1" d="M 383.699219 15.449219 L 393.976562 15.449219 L 393.976562 20.101562 L 383.699219 20.101562 Z M 383.699219 15.449219 "/>
<path fill-rule="nonzero" fill="rgb(1.568604%, 19.215393%, 41.567993%)" fill-opacity="1" d="M 422.925781 19.125 C 422.925781 26.101562 419.324219 31.125 411.523438 31.125 C 403.800781 31.125 400.199219 26.175781 400.199219 19.125 L 400.199219 1.574219 L 405.449219 1.574219 L 405.449219 18.824219 C 405.449219 23.175781 407.324219 26.175781 411.601562 26.175781 C 415.875 26.175781 417.601562 23.25 417.601562 18.824219 L 417.601562 1.574219 L 422.851562 1.574219 L 422.851562 19.125 Z M 422.925781 19.125 "/>
<path fill-rule="nonzero" fill="rgb(1.568604%, 19.215393%, 41.567993%)" fill-opacity="1" d="M 447.523438 30.601562 L 442.648438 30.601562 L 442.648438 18.601562 C 442.648438 15.523438 441.75 13.5 438.75 13.5 C 435.300781 13.5 434.398438 16.273438 434.398438 18.601562 L 434.398438 30.675781 L 429.523438 30.675781 L 429.523438 9.675781 L 434.398438 9.675781 L 434.398438 12.226562 L 434.476562 12.226562 C 435.75 10.351562 437.925781 9.148438 440.625 9.148438 C 445.425781 9.148438 447.523438 12.675781 447.523438 17.625 Z M 447.523438 30.601562 "/>
<path fill-rule="nonzero" fill="rgb(1.568604%, 19.215393%, 41.567993%)" fill-opacity="1" d="M 459.300781 3.300781 C 459.300781 5.023438 457.875 6.300781 456.148438 6.300781 C 454.425781 6.300781 453.074219 5.101562 453.074219 3.300781 C 453.074219 1.574219 454.5 0.300781 456.148438 0.300781 C 457.875 0.300781 459.300781 1.574219 459.300781 3.300781 Z M 458.625 30.601562 L 453.75 30.601562 L 453.75 9.601562 L 458.625 9.601562 Z M 458.625 30.601562 "/>
<path fill-rule="nonzero" fill="rgb(1.568604%, 19.215393%, 41.567993%)" fill-opacity="1" d="M 483.148438 9.675781 L 475.5 30.675781 L 470.398438 30.675781 L 462.75 9.675781 L 468.148438 9.675781 L 472.949219 24.898438 L 473.023438 24.898438 L 477.824219 9.675781 Z M 483.148438 9.675781 "/>
<path fill-rule="nonzero" fill="rgb(1.568604%, 19.215393%, 41.567993%)" fill-opacity="1" d="M 495.824219 31.125 C 489.601562 31.125 485.398438 26.699219 485.398438 20.101562 C 485.398438 13.574219 489.375 9.148438 495.226562 9.148438 C 500.851562 9.148438 504.523438 13.351562 504.523438 19.800781 C 504.523438 20.476562 504.449219 21.226562 504.449219 21.824219 L 490.351562 21.824219 C 490.875 25.050781 492.824219 26.925781 495.824219 26.925781 C 497.773438 26.925781 499.351562 26.175781 501 24.449219 L 504.074219 27.675781 C 501.675781 30 499.050781 31.125 495.824219 31.125 Z M 490.351562 18.226562 L 499.875 18.226562 C 499.648438 15 498 13.125 495.226562 13.125 C 492.523438 13.125 490.800781 15 490.351562 18.226562 Z M 490.351562 18.226562 "/>
<path fill-rule="nonzero" fill="rgb(1.568604%, 19.215393%, 41.567993%)" fill-opacity="1" d="M 522.675781 9.523438 L 521.925781 14.550781 C 521.175781 14.175781 520.273438 13.875 519.226562 13.875 C 515.851562 13.875 514.949219 16.574219 514.949219 19.800781 L 514.949219 30.601562 L 510.074219 30.601562 L 510.074219 9.601562 L 514.875 9.601562 L 514.875 12.300781 L 514.949219 12.300781 C 516.074219 10.351562 518.023438 9.148438 520.425781 9.148438 C 521.101562 9.074219 521.925781 9.226562 522.675781 9.523438 Z M 522.675781 9.523438 "/>
<path fill-rule="nonzero" fill="rgb(1.568604%, 19.215393%, 41.567993%)" fill-opacity="1" d="M 527.324219 24.675781 C 529.425781 26.25 531.375 27 533.25 27 C 535.050781 27 536.324219 26.175781 536.324219 24.898438 C 536.324219 21.300781 525.824219 22.574219 525.824219 15.601562 C 525.824219 11.699219 529.050781 9.074219 533.773438 9.074219 C 536.324219 9.074219 538.800781 9.824219 541.050781 11.25 L 538.726562 15.074219 C 536.925781 13.875 535.273438 13.199219 533.699219 13.199219 C 531.898438 13.199219 530.699219 13.949219 530.699219 15.148438 C 530.699219 18.601562 541.199219 17.398438 541.199219 24.449219 C 541.199219 28.425781 537.976562 31.125 533.101562 31.125 C 530.324219 31.125 527.476562 30.226562 525 28.574219 Z M 527.324219 24.675781 "/>
<path fill-rule="nonzero" fill="rgb(1.568604%, 19.215393%, 41.567993%)" fill-opacity="1" d="M 552 3.300781 C 552 5.023438 550.574219 6.300781 548.851562 6.300781 C 547.125 6.300781 545.773438 5.101562 545.773438 3.300781 C 545.773438 1.574219 547.199219 0.300781 548.851562 0.300781 C 550.574219 0.300781 552 1.574219 552 3.300781 Z M 551.324219 30.601562 L 546.449219 30.601562 L 546.449219 9.601562 L 551.324219 9.601562 Z M 551.324219 30.601562 "/>
<path fill-rule="nonzero" fill="rgb(1.568604%, 19.215393%, 41.567993%)" fill-opacity="1" d="M 568.574219 26.175781 L 568.574219 30.375 C 567.523438 30.898438 565.875 31.125 564.449219 31.125 C 560.773438 31.125 558.75 29.023438 558.75 25.199219 L 558.75 13.726562 L 555.523438 13.726562 L 555.523438 9.675781 L 558.675781 9.675781 L 558.675781 3.976562 L 563.550781 2.925781 L 563.550781 9.75 L 568.574219 9.75 L 568.574219 13.800781 L 563.550781 13.800781 L 563.550781 24.148438 C 563.550781 26.101562 564.226562 26.925781 565.800781 26.925781 C 566.699219 26.851562 567.75 26.550781 568.574219 26.175781 Z M 568.574219 26.175781 "/>
<path fill-rule="nonzero" fill="rgb(1.568604%, 19.215393%, 41.567993%)" fill-opacity="1" d="M 581.398438 17.625 C 582.75 17.625 584.023438 17.699219 585.375 18.074219 L 585.375 17.324219 C 585.375 14.625 583.800781 13.273438 580.726562 13.273438 C 579 13.273438 577.125 13.648438 575.398438 14.476562 L 574.351562 10.351562 C 576.300781 9.601562 578.851562 9.148438 581.25 9.148438 C 587.175781 9.148438 590.175781 11.925781 590.175781 17.25 L 590.175781 30.675781 L 585.523438 30.675781 L 585.523438 28.425781 L 585.449219 28.425781 C 583.648438 30.300781 581.773438 31.125 579.300781 31.125 C 575.101562 31.125 572.398438 28.5 572.398438 24.449219 C 572.398438 20.023438 575.550781 17.625 581.398438 17.625 Z M 577.425781 6.375 C 575.851562 6.375 574.5 5.023438 574.5 3.523438 C 574.5 2.023438 575.851562 0.675781 577.425781 0.675781 C 579 0.675781 580.351562 2.023438 580.351562 3.523438 C 580.351562 5.101562 579 6.375 577.425781 6.375 Z M 580.574219 27.449219 C 582.375 27.449219 584.023438 26.550781 585.375 24.898438 L 585.375 21.300781 C 584.25 21 583.050781 20.925781 581.925781 20.925781 C 578.851562 20.925781 577.050781 22.125 577.050781 24.375 C 577.050781 26.25 578.398438 27.449219 580.574219 27.449219 Z M 585.976562 6.375 C 584.398438 6.375 583.050781 5.023438 583.050781 3.523438 C 583.050781 2.023438 584.398438 0.675781 585.976562 0.675781 C 587.550781 0.675781 588.898438 2.023438 588.898438 3.523438 C 588.898438 5.101562 587.550781 6.375 585.976562 6.375 Z M 585.976562 6.375 "/>
<g clip-path="url(#clip-0)">
<path fill-rule="nonzero" fill="rgb(1.568604%, 19.215393%, 41.567993%)" fill-opacity="1" d="M 607.050781 26.175781 L 607.050781 30.375 C 606 30.898438 604.351562 31.125 602.925781 31.125 C 599.25 31.125 597.226562 29.023438 597.226562 25.199219 L 597.226562 13.726562 L 594 13.726562 L 594 9.675781 L 597.148438 9.675781 L 597.148438 3.976562 L 602.023438 2.925781 L 602.023438 9.75 L 607.050781 9.75 L 607.050781 13.800781 L 602.023438 13.800781 L 602.023438 24.148438 C 602.023438 26.101562 602.699219 26.925781 604.273438 26.925781 C 605.25 26.851562 606.226562 26.550781 607.050781 26.175781 Z M 607.050781 26.175781 "/>
</g>
<g clip-path="url(#clip-1)">
<path fill-rule="nonzero" fill="rgb(46.665955%, 62.35199%, 70.979309%)" fill-opacity="1" d="M 21.675781 51.824219 L 13.425781 51.824219 L 13.425781 76.050781 L 8.25 76.050781 L 8.25 51.824219 L 0 51.824219 L 0 47.023438 L 21.675781 47.023438 Z M 21.675781 51.824219 "/>
</g>
<g clip-path="url(#clip-2)">
<path fill-rule="nonzero" fill="rgb(46.665955%, 62.35199%, 70.979309%)" fill-opacity="1" d="M 32.25 76.5 C 26.023438 76.5 21.824219 72.074219 21.824219 65.476562 C 21.824219 58.949219 25.800781 54.523438 31.648438 54.523438 C 37.273438 54.523438 40.949219 58.726562 40.949219 65.175781 C 40.949219 65.851562 40.875 66.601562 40.875 67.199219 L 26.851562 67.199219 C 27.375 70.425781 29.324219 72.300781 32.324219 72.300781 C 34.273438 72.300781 35.851562 71.550781 37.5 69.824219 L 40.574219 73.050781 C 38.101562 75.375 35.398438 76.5 32.25 76.5 Z M 26.773438 63.601562 L 36.300781 63.601562 C 36.074219 60.375 34.425781 58.5 31.648438 58.5 C 28.875 58.5 27.148438 60.375 26.773438 63.601562 Z M 26.773438 63.601562 "/>
</g>
<g clip-path="url(#clip-3)">
<path fill-rule="nonzero" fill="rgb(46.665955%, 62.35199%, 70.979309%)" fill-opacity="1" d="M 62.773438 73.125 C 60.675781 75.449219 58.273438 76.5 55.273438 76.5 C 49.273438 76.5 45.226562 72.148438 45.226562 65.550781 C 45.226562 58.949219 49.273438 54.449219 55.351562 54.449219 C 58.5 54.449219 61.050781 55.648438 62.925781 58.050781 L 59.550781 61.273438 C 58.351562 59.699219 57 58.949219 55.351562 58.949219 C 52.273438 58.949219 50.175781 61.5 50.175781 65.476562 C 50.175781 69.375 52.273438 72 55.351562 72 C 57 72 58.351562 71.25 59.699219 69.675781 Z M 62.773438 73.125 "/>
</g>
<g clip-path="url(#clip-4)">
<path fill-rule="nonzero" fill="rgb(46.665955%, 62.35199%, 70.979309%)" fill-opacity="1" d="M 85.199219 75.976562 L 80.324219 75.976562 L 80.324219 63.976562 C 80.324219 60.898438 79.351562 58.875 76.425781 58.875 C 73.050781 58.875 72.074219 61.574219 72.074219 63.976562 L 72.074219 76.050781 L 67.199219 76.050781 L 67.199219 46.574219 L 72.074219 45.375 L 72.074219 57.601562 L 72.148438 57.601562 C 73.351562 55.726562 75.523438 54.523438 78.300781 54.523438 C 83.175781 54.523438 85.199219 58.125 85.199219 63 Z M 85.199219 75.976562 "/>
</g>
<g clip-path="url(#clip-5)">
<path fill-rule="nonzero" fill="rgb(46.665955%, 62.35199%, 70.979309%)" fill-opacity="1" d="M 109.5 75.976562 L 104.625 75.976562 L 104.625 63.976562 C 104.625 60.898438 103.726562 58.875 100.726562 58.875 C 97.273438 58.875 96.375 61.648438 96.375 63.976562 L 96.375 76.050781 L 91.5 76.050781 L 91.5 55.050781 L 96.375 55.050781 L 96.375 57.601562 L 96.449219 57.601562 C 97.648438 55.726562 99.898438 54.523438 102.601562 54.523438 C 107.398438 54.523438 109.5 58.050781 109.5 63 Z M 109.5 75.976562 "/>
</g>
<path fill-rule="nonzero" fill="rgb(46.665955%, 62.35199%, 70.979309%)" fill-opacity="1" d="M 121.273438 48.675781 C 121.273438 50.398438 119.851562 51.675781 118.125 51.675781 C 116.398438 51.675781 115.050781 50.476562 115.050781 48.675781 C 115.050781 46.949219 116.476562 45.675781 118.125 45.675781 C 119.851562 45.675781 121.273438 46.949219 121.273438 48.675781 Z M 120.601562 75.976562 L 115.726562 75.976562 L 115.726562 54.976562 L 120.601562 54.976562 Z M 120.601562 75.976562 "/>
<g clip-path="url(#clip-6)">
<path fill-rule="nonzero" fill="rgb(46.665955%, 62.35199%, 70.979309%)" fill-opacity="1" d="M 127.425781 70.050781 C 129.449219 71.625 131.476562 72.375 133.351562 72.375 C 135.148438 72.375 136.425781 71.550781 136.425781 70.273438 C 136.425781 66.675781 125.925781 67.949219 125.925781 60.976562 C 125.925781 57.074219 129.148438 54.449219 133.875 54.449219 C 136.425781 54.449219 138.898438 55.199219 141.148438 56.625 L 138.824219 60.449219 C 137.023438 59.25 135.375 58.574219 133.800781 58.574219 C 132 58.574219 130.800781 59.324219 130.800781 60.523438 C 130.800781 63.976562 141.300781 62.773438 141.300781 69.824219 C 141.300781 73.800781 138.074219 76.5 133.199219 76.5 C 130.425781 76.5 127.574219 75.601562 125.101562 73.949219 Z M 127.425781 70.050781 "/>
</g>
<g clip-path="url(#clip-7)">
<path fill-rule="nonzero" fill="rgb(46.665955%, 62.35199%, 70.979309%)" fill-opacity="1" d="M 162.824219 73.125 C 160.726562 75.449219 158.324219 76.5 155.324219 76.5 C 149.324219 76.5 145.273438 72.148438 145.273438 65.550781 C 145.273438 58.949219 149.324219 54.449219 155.398438 54.449219 C 158.550781 54.449219 161.101562 55.648438 162.976562 58.050781 L 159.601562 61.273438 C 158.324219 59.699219 157.050781 58.949219 155.398438 58.949219 C 152.324219 58.949219 150.226562 61.5 150.226562 65.476562 C 150.226562 69.375 152.324219 72 155.398438 72 C 157.050781 72 158.398438 71.25 159.75 69.675781 Z M 162.824219 73.125 "/>
</g>
<g clip-path="url(#clip-8)">
<path fill-rule="nonzero" fill="rgb(46.665955%, 62.35199%, 70.979309%)" fill-opacity="1" d="M 185.25 75.976562 L 180.375 75.976562 L 180.375 63.976562 C 180.375 60.898438 179.398438 58.875 176.476562 58.875 C 173.101562 58.875 172.125 61.574219 172.125 63.976562 L 172.125 76.050781 L 167.25 76.050781 L 167.25 46.574219 L 172.125 45.375 L 172.125 57.601562 L 172.199219 57.601562 C 173.398438 55.726562 175.574219 54.523438 178.351562 54.523438 C 183.226562 54.523438 185.25 58.125 185.25 63 Z M 185.25 75.976562 "/>
</g>
<g clip-path="url(#clip-9)">
<path fill-rule="nonzero" fill="rgb(46.665955%, 62.35199%, 70.979309%)" fill-opacity="1" d="M 200.773438 76.5 C 194.550781 76.5 190.351562 72.074219 190.351562 65.476562 C 190.351562 58.949219 194.324219 54.523438 200.175781 54.523438 C 205.800781 54.523438 209.476562 58.726562 209.476562 65.175781 C 209.476562 65.851562 209.398438 66.601562 209.398438 67.199219 L 195.300781 67.199219 C 195.824219 70.425781 197.773438 72.300781 200.773438 72.300781 C 202.726562 72.300781 204.300781 71.550781 205.949219 69.824219 L 209.023438 73.050781 C 206.625 75.375 203.925781 76.5 200.773438 76.5 Z M 195.300781 63.601562 L 204.824219 63.601562 C 204.601562 60.375 202.949219 58.5 200.175781 58.5 C 197.398438 58.5 195.675781 60.375 195.300781 63.601562 Z M 195.300781 63.601562 "/>
</g>
<g clip-path="url(#clip-10)">
<path fill-rule="nonzero" fill="rgb(46.665955%, 62.35199%, 70.979309%)" fill-opacity="1" d="M 245.625 51.75 L 232.574219 51.75 L 232.574219 58.949219 L 242.324219 58.949219 L 242.324219 63.675781 L 232.574219 63.675781 L 232.574219 76.050781 L 227.398438 76.050781 L 227.398438 47.023438 L 245.625 47.023438 Z M 245.625 51.75 "/>
</g>
<g clip-path="url(#clip-11)">
<path fill-rule="nonzero" fill="rgb(46.665955%, 62.35199%, 70.979309%)" fill-opacity="1" d="M 255.601562 63 C 256.949219 63 258.226562 63.074219 259.574219 63.449219 L 259.574219 62.699219 C 259.574219 60 258 58.648438 254.925781 58.648438 C 253.199219 58.648438 251.324219 59.023438 249.601562 59.851562 L 248.550781 55.726562 C 250.5 54.976562 253.050781 54.523438 255.449219 54.523438 C 261.375 54.523438 264.375 57.300781 264.375 62.625 L 264.375 76.050781 L 259.726562 76.050781 L 259.726562 73.800781 L 259.574219 73.800781 C 257.773438 75.675781 255.898438 76.5 253.425781 76.5 C 249.226562 76.5 246.523438 73.875 246.523438 69.824219 C 246.523438 65.398438 249.675781 63 255.601562 63 Z M 254.773438 72.824219 C 256.574219 72.824219 258.226562 71.925781 259.574219 70.273438 L 259.574219 66.601562 C 258.449219 66.300781 257.25 66.226562 256.125 66.226562 C 253.050781 66.226562 251.25 67.425781 251.25 69.675781 C 251.25 71.625 252.601562 72.824219 254.773438 72.824219 Z M 254.773438 72.824219 "/>
</g>
<g clip-path="url(#clip-12)">
<path fill-rule="nonzero" fill="rgb(46.665955%, 62.35199%, 70.979309%)" fill-opacity="1" d="M 270.601562 46.574219 L 275.476562 45.375 L 275.476562 63.824219 L 275.550781 63.824219 L 282.449219 55.050781 L 288.300781 55.050781 L 281.398438 63.300781 L 289.050781 76.050781 L 283.199219 76.050781 L 277.949219 66.976562 L 275.550781 69.675781 L 275.550781 76.050781 L 270.675781 76.050781 L 270.675781 46.574219 Z M 270.601562 46.574219 "/>
</g>
<g clip-path="url(#clip-13)">
<path fill-rule="nonzero" fill="rgb(46.665955%, 62.35199%, 70.979309%)" fill-opacity="1" d="M 297.601562 67.648438 C 297.601562 70.5 299.023438 72.074219 301.800781 72.074219 C 304.5 72.074219 305.851562 70.574219 305.851562 67.648438 L 305.851562 55.050781 L 310.726562 55.050781 L 310.726562 67.800781 C 310.726562 73.351562 307.648438 76.574219 301.875 76.574219 C 296.175781 76.574219 292.648438 73.351562 292.648438 67.875 L 292.648438 55.125 L 297.523438 55.125 L 297.523438 67.648438 Z M 297.601562 67.648438 "/>
</g>
<path fill-rule="nonzero" fill="rgb(46.665955%, 62.35199%, 70.979309%)" fill-opacity="1" d="M 321.898438 75.976562 L 317.023438 75.976562 L 317.023438 46.425781 L 321.898438 45.300781 Z M 321.898438 75.976562 "/>
<g clip-path="url(#clip-14)">
<path fill-rule="nonzero" fill="rgb(46.665955%, 62.35199%, 70.979309%)" fill-opacity="1" d="M 339.300781 71.550781 L 339.300781 75.75 C 338.25 76.273438 336.601562 76.5 335.175781 76.5 C 331.5 76.5 329.476562 74.398438 329.476562 70.574219 L 329.476562 59.101562 L 326.25 59.101562 L 326.25 55.050781 L 329.398438 55.050781 L 329.398438 49.351562 L 334.273438 48.300781 L 334.273438 55.125 L 339.300781 55.125 L 339.300781 59.175781 L 334.273438 59.175781 L 334.273438 69.523438 C 334.273438 71.476562 334.949219 72.300781 336.523438 72.300781 C 337.425781 72.226562 338.476562 71.925781 339.300781 71.550781 Z M 339.300781 71.550781 "/>
</g>
<g clip-path="url(#clip-15)">
<path fill-rule="nonzero" fill="rgb(46.665955%, 62.35199%, 70.979309%)" fill-opacity="1" d="M 352.125 63 C 353.476562 63 354.75 63.074219 356.101562 63.449219 L 356.101562 62.699219 C 356.101562 60 354.523438 58.648438 351.449219 58.648438 C 349.726562 58.648438 347.851562 59.023438 346.125 59.851562 L 345.074219 55.726562 C 347.023438 54.976562 349.574219 54.523438 351.976562 54.523438 C 357.898438 54.523438 360.898438 57.300781 360.898438 62.625 L 360.898438 76.050781 L 356.25 76.050781 L 356.25 73.800781 L 356.175781 73.800781 C 354.375 75.675781 352.5 76.5 350.023438 76.5 C 345.824219 76.5 343.125 73.875 343.125 69.824219 C 343.125 65.398438 346.273438 63 352.125 63 Z M 348.148438 51.75 C 346.574219 51.75 345.226562 50.398438 345.226562 48.898438 C 345.226562 47.398438 346.574219 46.050781 348.148438 46.050781 C 349.726562 46.050781 351.074219 47.398438 351.074219 48.898438 C 351.074219 50.476562 349.726562 51.75 348.148438 51.75 Z M 351.300781 72.824219 C 353.101562 72.824219 354.75 71.925781 356.101562 70.273438 L 356.101562 66.601562 C 354.976562 66.300781 353.773438 66.226562 352.648438 66.226562 C 349.574219 66.226562 347.773438 67.425781 347.773438 69.675781 C 347.773438 71.625 349.125 72.824219 351.300781 72.824219 Z M 356.699219 51.75 C 355.125 51.75 353.773438 50.398438 353.773438 48.898438 C 353.773438 47.398438 355.125 46.050781 356.699219 46.050781 C 358.273438 46.050781 359.625 47.398438 359.625 48.898438 C 359.625 50.476562 358.273438 51.75 356.699219 51.75 Z M 356.699219 51.75 "/>
</g>
<g clip-path="url(#clip-16)">
<path fill-rule="nonzero" fill="rgb(46.665955%, 62.35199%, 70.979309%)" fill-opacity="1" d="M 377.773438 71.550781 L 377.773438 75.75 C 376.726562 76.273438 375.074219 76.5 373.648438 76.5 C 369.976562 76.5 367.949219 74.398438 367.949219 70.574219 L 367.949219 59.101562 L 364.726562 59.101562 L 364.726562 55.050781 L 367.875 55.050781 L 367.875 49.351562 L 372.75 48.300781 L 372.75 55.125 L 377.773438 55.125 L 377.773438 59.175781 L 372.824219 59.175781 L 372.824219 69.523438 C 372.824219 71.476562 373.5 72.300781 375.074219 72.300781 C 375.976562 72.226562 376.949219 71.925781 377.773438 71.550781 Z M 377.773438 71.550781 "/>
</g>
</svg>
