<?xml version="1.0" encoding="UTF-8"?>
<svg xmlns="http://www.w3.org/2000/svg" xmlns:xlink="http://www.w3.org/1999/xlink" width="618.974976" height="76.574997" viewBox="0 0 618.974976 76.574997">
<defs>
<clipPath id="clip-0">
<path clip-rule="nonzero" d="M 0 47 L 19 47 L 19 76.574219 L 0 76.574219 Z M 0 47 "/>
</clipPath>
<clipPath id="clip-1">
<path clip-rule="nonzero" d="M 19 54 L 37 54 L 37 76.574219 L 19 76.574219 Z M 19 54 "/>
</clipPath>
<clipPath id="clip-2">
<path clip-rule="nonzero" d="M 42 54 L 60 54 L 60 76.574219 L 42 76.574219 Z M 42 54 "/>
</clipPath>
<clipPath id="clip-3">
<path clip-rule="nonzero" d="M 64 45 L 83 45 L 83 76.574219 L 64 76.574219 Z M 64 45 "/>
</clipPath>
<clipPath id="clip-4">
<path clip-rule="nonzero" d="M 88 45 L 108 45 L 108 76.574219 L 88 76.574219 Z M 88 45 "/>
</clipPath>
<clipPath id="clip-5">
<path clip-rule="nonzero" d="M 112 54 L 132 54 L 132 76.574219 L 112 76.574219 Z M 112 54 "/>
</clipPath>
<clipPath id="clip-6">
<path clip-rule="nonzero" d="M 136 54 L 150 54 L 150 76.574219 L 136 76.574219 Z M 136 54 "/>
</clipPath>
<clipPath id="clip-7">
<path clip-rule="nonzero" d="M 152 54 L 172 54 L 172 76.574219 L 152 76.574219 Z M 152 54 "/>
</clipPath>
<clipPath id="clip-8">
<path clip-rule="nonzero" d="M 175 45 L 183 45 L 183 76.574219 L 175 76.574219 Z M 175 45 "/>
</clipPath>
<clipPath id="clip-9">
<path clip-rule="nonzero" d="M 186 54 L 205 54 L 205 76.574219 L 186 76.574219 Z M 186 54 "/>
</clipPath>
<clipPath id="clip-10">
<path clip-rule="nonzero" d="M 208 45 L 227 45 L 227 76.574219 L 208 76.574219 Z M 208 45 "/>
</clipPath>
<clipPath id="clip-11">
<path clip-rule="nonzero" d="M 245 47 L 268 47 L 268 76.574219 L 245 76.574219 Z M 245 47 "/>
</clipPath>
<clipPath id="clip-12">
<path clip-rule="nonzero" d="M 270 54 L 290 54 L 290 76.574219 L 270 76.574219 Z M 270 54 "/>
</clipPath>
<clipPath id="clip-13">
<path clip-rule="nonzero" d="M 293 54 L 312 54 L 312 76.574219 L 293 76.574219 Z M 293 54 "/>
</clipPath>
<clipPath id="clip-14">
<path clip-rule="nonzero" d="M 315 45 L 334 45 L 334 76.574219 L 315 76.574219 Z M 315 45 "/>
</clipPath>
<clipPath id="clip-15">
<path clip-rule="nonzero" d="M 337 48 L 351 48 L 351 76.574219 L 337 76.574219 Z M 337 48 "/>
</clipPath>
<clipPath id="clip-16">
<path clip-rule="nonzero" d="M 354 54 L 371 54 L 371 76.574219 L 354 76.574219 Z M 354 54 "/>
</clipPath>
<clipPath id="clip-17">
<path clip-rule="nonzero" d="M 373 55 L 404 55 L 404 76.574219 L 373 76.574219 Z M 373 55 "/>
</clipPath>
<clipPath id="clip-18">
<path clip-rule="nonzero" d="M 407 45 L 414 45 L 414 76.574219 L 407 76.574219 Z M 407 45 "/>
</clipPath>
<clipPath id="clip-19">
<path clip-rule="nonzero" d="M 417 54 L 434 54 L 434 76.574219 L 417 76.574219 Z M 417 54 "/>
</clipPath>
<clipPath id="clip-20">
<path clip-rule="nonzero" d="M 436 54 L 453 54 L 453 76.574219 L 436 76.574219 Z M 436 54 "/>
</clipPath>
<clipPath id="clip-21">
<path clip-rule="nonzero" d="M 456 54 L 476 54 L 476 76.574219 L 456 76.574219 Z M 456 54 "/>
</clipPath>
<clipPath id="clip-22">
<path clip-rule="nonzero" d="M 481 54 L 500 54 L 500 76.574219 L 481 76.574219 Z M 481 54 "/>
</clipPath>
<clipPath id="clip-23">
<path clip-rule="nonzero" d="M 503 54 L 520 54 L 520 76.574219 L 503 76.574219 Z M 503 54 "/>
</clipPath>
<clipPath id="clip-24">
<path clip-rule="nonzero" d="M 523 54 L 542 54 L 542 76.574219 L 523 76.574219 Z M 523 54 "/>
</clipPath>
<clipPath id="clip-25">
<path clip-rule="nonzero" d="M 545 45 L 564 45 L 564 76.574219 L 545 76.574219 Z M 545 45 "/>
</clipPath>
<clipPath id="clip-26">
<path clip-rule="nonzero" d="M 568 54 L 587 54 L 587 76.574219 L 568 76.574219 Z M 568 54 "/>
</clipPath>
<clipPath id="clip-27">
<path clip-rule="nonzero" d="M 590 45 L 604 45 L 604 76.574219 L 590 76.574219 Z M 590 45 "/>
</clipPath>
<clipPath id="clip-28">
<path clip-rule="nonzero" d="M 605 48 L 618.976562 48 L 618.976562 76.574219 L 605 76.574219 Z M 605 48 "/>
</clipPath>
</defs>
<path fill-rule="nonzero" fill="rgb(1.568604%, 19.215393%, 41.567993%)" fill-opacity="1" d="M 18.226562 6.449219 L 5.175781 6.449219 L 5.175781 13.648438 L 14.925781 13.648438 L 14.925781 18.375 L 5.175781 18.375 L 5.175781 30.75 L 0 30.75 L 0 1.648438 L 18.226562 1.648438 Z M 18.226562 6.449219 "/>
<path fill-rule="nonzero" fill="rgb(1.568604%, 19.215393%, 41.567993%)" fill-opacity="1" d="M 33.75 9.601562 L 33 14.625 C 32.25 14.25 31.351562 13.949219 30.300781 13.949219 C 26.925781 13.949219 26.023438 16.648438 26.023438 19.875 L 26.023438 30.675781 L 21 30.675781 L 21 9.675781 L 25.800781 9.675781 L 25.800781 12.375 L 25.875 12.375 C 27 10.425781 28.949219 9.226562 31.351562 9.226562 C 32.101562 9.148438 33 9.300781 33.75 9.601562 Z M 33.75 9.601562 "/>
<path fill-rule="nonzero" fill="rgb(1.568604%, 19.215393%, 41.567993%)" fill-opacity="1" d="M 43.425781 3.375 C 43.425781 5.101562 42 6.375 40.273438 6.375 C 38.550781 6.375 37.199219 5.175781 37.199219 3.375 C 37.199219 1.648438 38.625 0.375 40.273438 0.375 C 42.074219 0.375 43.425781 1.648438 43.425781 3.375 Z M 42.75 30.75 L 37.875 30.75 L 37.875 9.75 L 42.75 9.75 Z M 42.75 30.75 "/>
<path fill-rule="nonzero" fill="rgb(1.568604%, 19.215393%, 41.567993%)" fill-opacity="1" d="M 58.351562 31.199219 C 52.125 31.199219 47.925781 26.773438 47.925781 20.175781 C 47.925781 13.648438 51.898438 9.226562 57.75 9.226562 C 63.375 9.226562 67.050781 13.425781 67.050781 19.875 C 67.050781 20.550781 66.976562 21.300781 66.976562 21.898438 L 52.875 21.898438 C 53.398438 25.125 55.351562 27 58.351562 27 C 60.300781 27 61.875 26.25 63.523438 24.523438 L 66.601562 27.75 C 64.199219 30.074219 61.5 31.199219 58.351562 31.199219 Z M 52.875 18.300781 L 62.398438 18.300781 C 62.175781 15.074219 60.523438 13.199219 57.75 13.199219 C 54.976562 13.199219 53.25 15.074219 52.875 18.300781 Z M 52.875 18.300781 "/>
<path fill-rule="nonzero" fill="rgb(1.568604%, 19.215393%, 41.567993%)" fill-opacity="1" d="M 71.398438 20.175781 C 71.398438 13.425781 74.851562 9.226562 79.949219 9.226562 C 82.574219 9.226562 84.675781 10.351562 86.023438 12.074219 L 86.101562 12.074219 L 86.101562 1.273438 L 90.976562 0 L 90.976562 30.675781 L 86.25 30.675781 L 86.25 28.199219 L 86.175781 28.199219 C 84.675781 30.074219 82.5 31.199219 79.875 31.199219 C 74.851562 31.199219 71.398438 26.925781 71.398438 20.175781 Z M 76.273438 20.175781 C 76.273438 24.449219 78.074219 26.925781 81.148438 26.925781 C 83.023438 26.925781 84.601562 26.023438 86.175781 24.148438 L 86.175781 16.425781 C 84.75 14.550781 83.175781 13.648438 81.148438 13.648438 C 77.925781 13.648438 76.273438 15.976562 76.273438 20.175781 Z M 76.273438 20.175781 "/>
<path fill-rule="nonzero" fill="rgb(1.568604%, 19.215393%, 41.567993%)" fill-opacity="1" d="M 110.101562 9.601562 L 109.351562 14.625 C 108.601562 14.25 107.699219 13.949219 106.648438 13.949219 C 103.273438 13.949219 102.375 16.648438 102.375 19.875 L 102.375 30.675781 L 97.5 30.675781 L 97.5 9.675781 L 102.300781 9.675781 L 102.300781 12.375 L 102.375 12.375 C 103.5 10.425781 105.449219 9.226562 107.851562 9.226562 C 108.523438 9.148438 109.351562 9.300781 110.101562 9.601562 Z M 110.101562 9.601562 "/>
<path fill-rule="nonzero" fill="rgb(1.568604%, 19.215393%, 41.567993%)" fill-opacity="1" d="M 119.851562 3.375 C 119.851562 5.101562 118.425781 6.375 116.699219 6.375 C 114.976562 6.375 113.625 5.175781 113.625 3.375 C 113.625 1.648438 115.050781 0.375 116.699219 0.375 C 118.425781 0.375 119.851562 1.648438 119.851562 3.375 Z M 119.175781 30.75 L 114.300781 30.75 L 114.300781 9.75 L 119.175781 9.75 Z M 119.175781 30.75 "/>
<path fill-rule="nonzero" fill="rgb(1.568604%, 19.215393%, 41.567993%)" fill-opacity="1" d="M 142.050781 27.824219 C 139.949219 30.148438 137.550781 31.199219 134.550781 31.199219 C 128.550781 31.199219 124.5 26.851562 124.5 20.25 C 124.5 13.648438 128.550781 9.148438 134.625 9.148438 C 137.773438 9.148438 140.324219 10.351562 142.199219 12.75 L 138.824219 15.976562 C 137.625 14.398438 136.273438 13.648438 134.625 13.648438 C 131.550781 13.648438 129.449219 16.199219 129.449219 20.175781 C 129.449219 24.074219 131.550781 26.699219 134.625 26.699219 C 136.273438 26.699219 137.625 25.949219 138.976562 24.375 Z M 142.050781 27.824219 "/>
<path fill-rule="nonzero" fill="rgb(1.568604%, 19.215393%, 41.567993%)" fill-opacity="1" d="M 164.398438 30.75 L 159.523438 30.75 L 159.523438 18.75 C 159.523438 15.675781 158.550781 13.648438 155.625 13.648438 C 152.25 13.648438 151.273438 16.351562 151.273438 18.75 L 151.273438 30.824219 L 146.398438 30.824219 L 146.398438 1.273438 L 151.273438 0 L 151.273438 12.226562 L 151.351562 12.226562 C 152.550781 10.351562 154.726562 9.148438 157.5 9.148438 C 162.375 9.148438 164.398438 12.75 164.398438 17.625 Z M 164.398438 30.75 "/>
<path fill-rule="nonzero" fill="rgb(1.568604%, 19.215393%, 41.567993%)" fill-opacity="1" d="M 170.101562 15.523438 L 180.375 15.523438 L 180.375 20.175781 L 170.101562 20.175781 Z M 170.101562 15.523438 "/>
<path fill-rule="nonzero" fill="rgb(1.568604%, 19.215393%, 41.567993%)" fill-opacity="1" d="M 193.726562 1.648438 L 199.199219 1.648438 L 210 30.675781 L 204.375 30.675781 L 202.273438 24.523438 L 190.5 24.523438 L 188.398438 30.675781 L 182.925781 30.675781 Z M 192.074219 19.875 L 200.550781 19.875 L 196.351562 7.574219 L 196.273438 7.574219 Z M 192.074219 19.875 "/>
<path fill-rule="nonzero" fill="rgb(1.568604%, 19.215393%, 41.567993%)" fill-opacity="1" d="M 219.148438 30.75 L 214.273438 30.75 L 214.273438 1.199219 L 219.148438 0.0742188 Z M 219.148438 30.75 "/>
<path fill-rule="nonzero" fill="rgb(1.568604%, 19.215393%, 41.567993%)" fill-opacity="1" d="M 234.898438 31.199219 C 228.675781 31.199219 224.476562 26.773438 224.476562 20.175781 C 224.476562 13.648438 228.449219 9.226562 234.300781 9.226562 C 239.925781 9.226562 243.601562 13.425781 243.601562 19.875 C 243.601562 20.550781 243.523438 21.300781 243.523438 21.898438 L 229.5 21.898438 C 230.023438 25.125 231.976562 27 234.976562 27 C 236.925781 27 238.5 26.25 240.148438 24.523438 L 243.226562 27.75 C 240.75 30.074219 238.050781 31.199219 234.898438 31.199219 Z M 229.351562 18.300781 L 238.875 18.300781 C 238.648438 15.074219 237 13.199219 234.226562 13.199219 C 231.523438 13.199219 229.800781 15.074219 229.351562 18.300781 Z M 229.351562 18.300781 "/>
<path fill-rule="nonzero" fill="rgb(1.568604%, 19.215393%, 41.567993%)" fill-opacity="1" d="M 266.324219 30.75 L 260.699219 30.75 L 256.199219 23.476562 L 256.125 23.476562 L 251.773438 30.75 L 246.226562 30.75 L 253.425781 19.875 L 246.75 9.75 L 252.300781 9.75 L 256.273438 16.199219 L 256.351562 16.199219 L 260.25 9.75 L 265.726562 9.75 L 259.125 19.800781 Z M 266.324219 30.75 "/>
<path fill-rule="nonzero" fill="rgb(1.568604%, 19.215393%, 41.567993%)" fill-opacity="1" d="M 277.949219 17.699219 C 279.300781 17.699219 280.574219 17.773438 281.925781 18.148438 L 281.925781 17.398438 C 281.925781 14.699219 280.351562 13.351562 277.273438 13.351562 C 275.550781 13.351562 273.675781 13.726562 271.949219 14.550781 L 270.898438 10.425781 C 272.851562 9.675781 275.398438 9.226562 277.800781 9.226562 C 283.726562 9.226562 286.726562 12 286.726562 17.324219 L 286.726562 30.75 L 282.074219 30.75 L 282.074219 28.5 L 282 28.5 C 280.199219 30.375 278.324219 31.199219 275.851562 31.199219 C 271.648438 31.199219 268.949219 28.574219 268.949219 24.523438 C 268.949219 20.101562 272.101562 17.699219 277.949219 17.699219 Z M 277.125 27.523438 C 278.925781 27.523438 280.574219 26.625 281.925781 24.976562 L 281.925781 21.375 C 280.800781 21.074219 279.601562 21 278.476562 21 C 275.398438 21 273.601562 22.199219 273.601562 24.449219 C 273.601562 26.324219 274.949219 27.523438 277.125 27.523438 Z M 277.125 27.523438 "/>
<path fill-rule="nonzero" fill="rgb(1.568604%, 19.215393%, 41.567993%)" fill-opacity="1" d="M 311.023438 30.75 L 306.148438 30.75 L 306.148438 18.75 C 306.148438 15.675781 305.25 13.648438 302.25 13.648438 C 298.800781 13.648438 297.898438 16.425781 297.898438 18.75 L 297.898438 30.824219 L 293.023438 30.824219 L 293.023438 9.824219 L 297.898438 9.824219 L 297.898438 12.375 L 297.976562 12.375 C 299.25 10.5 301.425781 9.300781 304.125 9.300781 C 308.925781 9.300781 311.023438 12.824219 311.023438 17.773438 Z M 311.023438 30.75 "/>
<path fill-rule="nonzero" fill="rgb(1.568604%, 19.215393%, 41.567993%)" fill-opacity="1" d="M 316.199219 20.175781 C 316.199219 13.425781 319.648438 9.226562 324.75 9.226562 C 327.375 9.226562 329.476562 10.351562 330.824219 12.074219 L 330.898438 12.074219 L 330.898438 1.273438 L 335.773438 0 L 335.773438 30.675781 L 330.976562 30.675781 L 330.976562 28.199219 L 330.898438 28.199219 C 329.398438 30.074219 327.226562 31.199219 324.601562 31.199219 C 319.648438 31.199219 316.199219 26.925781 316.199219 20.175781 Z M 321.074219 20.175781 C 321.074219 24.449219 322.875 26.925781 325.949219 26.925781 C 327.824219 26.925781 329.398438 26.023438 330.976562 24.148438 L 330.976562 16.425781 C 329.550781 14.550781 327.976562 13.648438 325.949219 13.648438 C 322.800781 13.648438 321.074219 15.976562 321.074219 20.175781 Z M 321.074219 20.175781 "/>
<path fill-rule="nonzero" fill="rgb(1.568604%, 19.215393%, 41.567993%)" fill-opacity="1" d="M 351.601562 31.199219 C 345.375 31.199219 341.175781 26.773438 341.175781 20.175781 C 341.175781 13.648438 345.148438 9.226562 351 9.226562 C 356.625 9.226562 360.300781 13.425781 360.300781 19.875 C 360.300781 20.550781 360.226562 21.300781 360.226562 21.898438 L 346.125 21.898438 C 346.648438 25.125 348.601562 27 351.601562 27 C 353.550781 27 355.125 26.25 356.773438 24.523438 L 359.851562 27.75 C 357.449219 30.074219 354.75 31.199219 351.601562 31.199219 Z M 346.050781 18.300781 L 355.574219 18.300781 C 355.351562 15.074219 353.699219 13.199219 350.925781 13.199219 C 348.226562 13.199219 346.5 15.074219 346.050781 18.300781 Z M 346.050781 18.300781 "/>
<path fill-rule="nonzero" fill="rgb(1.568604%, 19.215393%, 41.567993%)" fill-opacity="1" d="M 378.449219 9.601562 L 377.699219 14.625 C 376.949219 14.25 376.050781 13.949219 375 13.949219 C 371.625 13.949219 370.726562 16.648438 370.726562 19.875 L 370.726562 30.675781 L 365.851562 30.675781 L 365.851562 9.675781 L 370.648438 9.675781 L 370.648438 12.375 L 370.726562 12.375 C 371.851562 10.425781 373.800781 9.226562 376.199219 9.226562 C 376.800781 9.148438 377.699219 9.300781 378.449219 9.601562 Z M 378.449219 9.601562 "/>
<path fill-rule="nonzero" fill="rgb(1.568604%, 19.215393%, 41.567993%)" fill-opacity="1" d="M 381.523438 15.523438 L 391.800781 15.523438 L 391.800781 20.175781 L 381.523438 20.175781 Z M 381.523438 15.523438 "/>
<path fill-rule="nonzero" fill="rgb(1.568604%, 19.215393%, 41.567993%)" fill-opacity="1" d="M 420.75 19.199219 C 420.75 26.175781 417.148438 31.199219 409.351562 31.199219 C 401.625 31.199219 398.023438 26.25 398.023438 19.199219 L 398.023438 1.648438 L 403.273438 1.648438 L 403.273438 18.898438 C 403.273438 23.25 405.148438 26.25 409.425781 26.25 C 413.699219 26.25 415.425781 23.324219 415.425781 18.898438 L 415.425781 1.648438 L 420.675781 1.648438 L 420.675781 19.199219 Z M 420.75 19.199219 "/>
<path fill-rule="nonzero" fill="rgb(1.568604%, 19.215393%, 41.567993%)" fill-opacity="1" d="M 445.273438 30.75 L 440.398438 30.75 L 440.398438 18.75 C 440.398438 15.675781 439.5 13.648438 436.5 13.648438 C 433.050781 13.648438 432.148438 16.425781 432.148438 18.75 L 432.148438 30.824219 L 427.273438 30.824219 L 427.273438 9.824219 L 432.148438 9.824219 L 432.148438 12.375 L 432.226562 12.375 C 433.5 10.5 435.675781 9.300781 438.375 9.300781 C 443.175781 9.300781 445.273438 12.824219 445.273438 17.773438 Z M 445.273438 30.75 "/>
<path fill-rule="nonzero" fill="rgb(1.568604%, 19.215393%, 41.567993%)" fill-opacity="1" d="M 457.050781 3.375 C 457.050781 5.101562 455.625 6.375 453.898438 6.375 C 452.175781 6.375 450.824219 5.175781 450.824219 3.375 C 450.824219 1.648438 452.25 0.375 453.898438 0.375 C 455.625 0.375 457.050781 1.648438 457.050781 3.375 Z M 456.375 30.75 L 451.5 30.75 L 451.5 9.75 L 456.375 9.75 Z M 456.375 30.75 "/>
<path fill-rule="nonzero" fill="rgb(1.568604%, 19.215393%, 41.567993%)" fill-opacity="1" d="M 480.976562 9.75 L 473.324219 30.75 L 468.226562 30.75 L 460.574219 9.75 L 465.976562 9.75 L 470.773438 24.976562 L 470.851562 24.976562 L 475.648438 9.75 Z M 480.976562 9.75 "/>
<path fill-rule="nonzero" fill="rgb(1.568604%, 19.215393%, 41.567993%)" fill-opacity="1" d="M 493.648438 31.199219 C 487.425781 31.199219 483.226562 26.773438 483.226562 20.175781 C 483.226562 13.648438 487.199219 9.226562 493.050781 9.226562 C 498.675781 9.226562 502.351562 13.425781 502.351562 19.875 C 502.351562 20.550781 502.273438 21.300781 502.273438 21.898438 L 488.25 21.898438 C 488.773438 25.125 490.726562 27 493.726562 27 C 495.675781 27 497.25 26.25 498.898438 24.523438 L 501.976562 27.75 C 499.5 30.074219 496.800781 31.199219 493.648438 31.199219 Z M 488.101562 18.300781 L 497.625 18.300781 C 497.398438 15.074219 495.75 13.199219 492.976562 13.199219 C 490.273438 13.199219 488.550781 15.074219 488.101562 18.300781 Z M 488.101562 18.300781 "/>
<path fill-rule="nonzero" fill="rgb(1.568604%, 19.215393%, 41.567993%)" fill-opacity="1" d="M 520.5 9.601562 L 519.75 14.625 C 519 14.25 518.101562 13.949219 517.050781 13.949219 C 513.675781 13.949219 512.773438 16.648438 512.773438 19.875 L 512.773438 30.675781 L 507.75 30.675781 L 507.75 9.675781 L 512.550781 9.675781 L 512.550781 12.375 L 512.625 12.375 C 513.75 10.425781 515.699219 9.226562 518.101562 9.226562 C 518.851562 9.148438 519.75 9.300781 520.5 9.601562 Z M 520.5 9.601562 "/>
<path fill-rule="nonzero" fill="rgb(1.568604%, 19.215393%, 41.567993%)" fill-opacity="1" d="M 525.074219 24.75 C 527.175781 26.324219 529.125 27.074219 531 27.074219 C 532.800781 27.074219 534.074219 26.25 534.074219 24.976562 C 534.074219 21.375 523.574219 22.648438 523.574219 15.675781 C 523.574219 11.773438 526.800781 9.148438 531.523438 9.148438 C 534.074219 9.148438 536.550781 9.898438 538.800781 11.324219 L 536.476562 15.148438 C 534.675781 13.875 533.023438 13.273438 531.449219 13.273438 C 529.648438 13.273438 528.449219 14.023438 528.449219 15.226562 C 528.449219 18.675781 538.949219 17.476562 538.949219 24.523438 C 538.949219 28.5 535.726562 31.199219 530.851562 31.199219 C 528.074219 31.199219 525.226562 30.300781 522.75 28.648438 Z M 525.074219 24.75 "/>
<path fill-rule="nonzero" fill="rgb(1.568604%, 19.215393%, 41.567993%)" fill-opacity="1" d="M 549.75 3.375 C 549.75 5.101562 548.324219 6.375 546.601562 6.375 C 544.875 6.375 543.523438 5.175781 543.523438 3.375 C 543.523438 1.648438 544.949219 0.375 546.601562 0.375 C 548.324219 0.375 549.75 1.648438 549.75 3.375 Z M 549.074219 30.75 L 544.199219 30.75 L 544.199219 9.75 L 549.074219 9.75 Z M 549.074219 30.75 "/>
<path fill-rule="nonzero" fill="rgb(1.568604%, 19.215393%, 41.567993%)" fill-opacity="1" d="M 566.324219 26.25 L 566.324219 30.449219 C 565.273438 30.976562 563.625 31.199219 562.199219 31.199219 C 558.523438 31.199219 556.5 29.101562 556.5 25.273438 L 556.5 13.800781 L 553.273438 13.800781 L 553.273438 9.75 L 556.425781 9.75 L 556.425781 4.050781 L 561.300781 3 L 561.300781 9.824219 L 566.324219 9.824219 L 566.324219 13.875 L 561.300781 13.875 L 561.300781 24.226562 C 561.300781 26.175781 561.976562 27 563.550781 27 C 564.523438 26.925781 565.5 26.625 566.324219 26.25 Z M 566.324219 26.25 "/>
<path fill-rule="nonzero" fill="rgb(1.568604%, 19.215393%, 41.567993%)" fill-opacity="1" d="M 579.148438 17.699219 C 580.5 17.699219 581.773438 17.773438 583.125 18.148438 L 583.125 17.398438 C 583.125 14.699219 581.550781 13.351562 578.476562 13.351562 C 576.75 13.351562 574.875 13.726562 573.148438 14.550781 L 572.101562 10.425781 C 574.050781 9.675781 576.601562 9.226562 579 9.226562 C 584.925781 9.226562 587.925781 12 587.925781 17.324219 L 587.925781 30.75 L 583.273438 30.75 L 583.273438 28.5 L 583.199219 28.5 C 581.398438 30.375 579.523438 31.199219 577.050781 31.199219 C 572.851562 31.199219 570.148438 28.574219 570.148438 24.523438 C 570.148438 20.101562 573.300781 17.699219 579.148438 17.699219 Z M 575.175781 6.449219 C 573.601562 6.449219 572.25 5.101562 572.25 3.601562 C 572.25 2.101562 573.601562 0.75 575.175781 0.75 C 576.75 0.75 578.101562 2.101562 578.101562 3.601562 C 578.101562 5.175781 576.75 6.449219 575.175781 6.449219 Z M 578.398438 27.523438 C 580.199219 27.523438 581.851562 26.625 583.199219 24.976562 L 583.199219 21.375 C 582.074219 21.074219 580.875 21 579.75 21 C 576.675781 21 574.875 22.199219 574.875 24.449219 C 574.875 26.324219 576.226562 27.523438 578.398438 27.523438 Z M 583.800781 6.449219 C 582.226562 6.449219 580.875 5.101562 580.875 3.601562 C 580.875 2.101562 582.226562 0.75 583.800781 0.75 C 585.375 0.75 586.726562 2.101562 586.726562 3.601562 C 586.726562 5.175781 585.300781 6.449219 583.800781 6.449219 Z M 583.800781 6.449219 "/>
<path fill-rule="nonzero" fill="rgb(1.568604%, 19.215393%, 41.567993%)" fill-opacity="1" d="M 604.875 26.25 L 604.875 30.449219 C 603.824219 30.976562 602.175781 31.199219 600.75 31.199219 C 597.074219 31.199219 595.050781 29.101562 595.050781 25.273438 L 595.050781 13.800781 L 591.75 13.800781 L 591.75 9.75 L 594.898438 9.75 L 594.898438 4.050781 L 599.773438 3 L 599.773438 9.824219 L 604.800781 9.824219 L 604.800781 13.875 L 599.773438 13.875 L 599.773438 24.226562 C 599.773438 26.175781 600.449219 27 602.023438 27 C 603.074219 26.925781 604.050781 26.625 604.875 26.25 Z M 604.875 26.25 "/>
<g clip-path="url(#clip-0)">
<path fill-rule="nonzero" fill="rgb(78.430176%, 6.274414%, 18.03894%)" fill-opacity="1" d="M 18.226562 51.824219 L 5.175781 51.824219 L 5.175781 59.023438 L 14.925781 59.023438 L 14.925781 63.75 L 5.175781 63.75 L 5.175781 76.125 L 0 76.125 L 0 47.101562 L 18.226562 47.101562 Z M 18.226562 51.824219 "/>
</g>
<g clip-path="url(#clip-1)">
<path fill-rule="nonzero" fill="rgb(78.430176%, 6.274414%, 18.03894%)" fill-opacity="1" d="M 28.199219 63.074219 C 29.550781 63.074219 30.824219 63.148438 32.175781 63.523438 L 32.175781 62.773438 C 32.175781 60.074219 30.601562 58.726562 27.523438 58.726562 C 25.800781 58.726562 23.925781 59.101562 22.199219 59.925781 L 21.148438 55.800781 C 23.101562 55.050781 25.648438 54.601562 28.050781 54.601562 C 33.976562 54.601562 36.976562 57.375 36.976562 62.699219 L 36.976562 76.125 L 32.324219 76.125 L 32.324219 73.875 L 32.25 73.875 C 30.449219 75.75 28.574219 76.574219 26.101562 76.574219 C 21.898438 76.574219 19.199219 73.949219 19.199219 69.898438 C 19.125 65.476562 22.351562 63.074219 28.199219 63.074219 Z M 27.375 72.898438 C 29.175781 72.898438 30.824219 72 32.175781 70.351562 L 32.175781 66.675781 C 31.050781 66.375 29.851562 66.300781 28.726562 66.300781 C 25.648438 66.300781 23.851562 67.5 23.851562 69.75 C 23.851562 71.699219 25.199219 72.898438 27.375 72.898438 Z M 27.375 72.898438 "/>
</g>
<g clip-path="url(#clip-2)">
<path fill-rule="nonzero" fill="rgb(78.430176%, 6.274414%, 18.03894%)" fill-opacity="1" d="M 59.625 73.199219 C 57.523438 75.523438 55.125 76.574219 52.125 76.574219 C 46.125 76.574219 42.074219 72.226562 42.074219 65.625 C 42.074219 59.023438 46.125 54.523438 52.199219 54.523438 C 55.351562 54.523438 57.898438 55.726562 59.773438 58.125 L 56.398438 61.351562 C 55.199219 59.773438 53.851562 59.023438 52.199219 59.023438 C 49.125 59.023438 47.023438 61.574219 47.023438 65.550781 C 47.023438 69.449219 49.125 72.074219 52.199219 72.074219 C 53.851562 72.074219 55.199219 71.324219 56.550781 69.75 Z M 59.625 73.199219 "/>
</g>
<g clip-path="url(#clip-3)">
<path fill-rule="nonzero" fill="rgb(78.430176%, 6.274414%, 18.03894%)" fill-opacity="1" d="M 82.050781 76.125 L 77.175781 76.125 L 77.175781 64.125 C 77.175781 61.050781 76.199219 59.023438 73.273438 59.023438 C 69.898438 59.023438 68.925781 61.726562 68.925781 64.125 L 68.925781 76.125 L 64.050781 76.125 L 64.050781 46.648438 L 68.925781 45.375 L 68.925781 57.601562 L 69 57.601562 C 70.199219 55.726562 72.375 54.523438 75.148438 54.523438 C 80.023438 54.523438 82.050781 58.125 82.050781 63 Z M 82.050781 76.125 "/>
</g>
<g clip-path="url(#clip-4)">
<path fill-rule="nonzero" fill="rgb(78.430176%, 6.274414%, 18.03894%)" fill-opacity="1" d="M 107.925781 65.476562 C 107.925781 72.226562 104.476562 76.574219 99.375 76.574219 C 96.75 76.574219 94.574219 75.449219 93.148438 73.648438 L 93 73.648438 L 93 76.050781 L 88.273438 76.050781 L 88.273438 46.574219 L 93.148438 45.300781 L 93.148438 57.449219 L 93.226562 57.449219 C 94.648438 55.574219 96.75 54.449219 99.375 54.449219 C 104.476562 54.523438 107.925781 58.648438 107.925781 65.476562 Z M 103.050781 65.550781 C 103.050781 61.199219 101.25 58.949219 98.175781 58.949219 C 96.300781 58.949219 94.726562 59.773438 93.226562 61.648438 L 93.226562 69.375 C 94.648438 71.25 96.226562 72.226562 98.25 72.226562 C 101.398438 72.226562 103.050781 69.75 103.050781 65.550781 Z M 103.050781 65.550781 "/>
</g>
<g clip-path="url(#clip-5)">
<path fill-rule="nonzero" fill="rgb(78.430176%, 6.274414%, 18.03894%)" fill-opacity="1" d="M 122.625 76.574219 C 116.398438 76.574219 112.199219 72.148438 112.199219 65.550781 C 112.199219 59.023438 116.175781 54.601562 122.023438 54.601562 C 127.648438 54.601562 131.324219 58.800781 131.324219 65.25 C 131.324219 65.925781 131.25 66.675781 131.25 67.273438 L 117.148438 67.273438 C 117.675781 70.5 119.625 72.375 122.625 72.375 C 124.574219 72.375 126.148438 71.625 127.800781 69.898438 L 130.875 73.125 C 128.476562 75.449219 125.773438 76.574219 122.625 76.574219 Z M 117.148438 63.675781 L 126.675781 63.675781 C 126.449219 60.449219 124.800781 58.574219 122.023438 58.574219 C 119.25 58.574219 117.523438 60.449219 117.148438 63.675781 Z M 117.148438 63.675781 "/>
</g>
<g clip-path="url(#clip-6)">
<path fill-rule="nonzero" fill="rgb(78.430176%, 6.274414%, 18.03894%)" fill-opacity="1" d="M 149.476562 54.976562 L 148.726562 60 C 147.976562 59.625 147.074219 59.324219 146.023438 59.324219 C 142.648438 59.324219 141.75 62.023438 141.75 65.25 L 141.75 76.125 L 136.875 76.125 L 136.875 55.125 L 141.675781 55.125 L 141.675781 57.75 L 141.75 57.75 C 142.875 55.800781 144.824219 54.601562 147.226562 54.601562 C 147.824219 54.523438 148.726562 54.675781 149.476562 54.976562 Z M 149.476562 54.976562 "/>
</g>
<g clip-path="url(#clip-7)">
<path fill-rule="nonzero" fill="rgb(78.430176%, 6.274414%, 18.03894%)" fill-opacity="1" d="M 162.523438 76.574219 C 156.300781 76.574219 152.101562 72.148438 152.101562 65.550781 C 152.101562 59.023438 156.074219 54.601562 161.925781 54.601562 C 167.550781 54.601562 171.226562 58.800781 171.226562 65.25 C 171.226562 65.925781 171.148438 66.675781 171.148438 67.273438 L 157.050781 67.273438 C 157.574219 70.5 159.523438 72.375 162.523438 72.375 C 164.476562 72.375 166.050781 71.625 167.699219 69.898438 L 170.773438 73.125 C 168.449219 75.449219 165.75 76.574219 162.523438 76.574219 Z M 157.050781 63.675781 L 166.574219 63.675781 C 166.351562 60.449219 164.699219 58.574219 161.925781 58.574219 C 159.226562 58.574219 157.5 60.449219 157.050781 63.675781 Z M 157.050781 63.675781 "/>
</g>
<g clip-path="url(#clip-8)">
<path fill-rule="nonzero" fill="rgb(78.430176%, 6.274414%, 18.03894%)" fill-opacity="1" d="M 182.175781 48.75 C 182.175781 50.476562 180.75 51.75 179.023438 51.75 C 177.300781 51.75 175.949219 50.550781 175.949219 48.75 C 175.949219 47.023438 177.375 45.75 179.023438 45.75 C 180.824219 45.75 182.175781 47.023438 182.175781 48.75 Z M 181.574219 76.125 L 176.699219 76.125 L 176.699219 55.125 L 181.574219 55.125 Z M 181.574219 76.125 "/>
</g>
<g clip-path="url(#clip-9)">
<path fill-rule="nonzero" fill="rgb(78.430176%, 6.274414%, 18.03894%)" fill-opacity="1" d="M 204.375 73.199219 C 202.273438 75.523438 199.875 76.574219 196.875 76.574219 C 190.875 76.574219 186.824219 72.226562 186.824219 65.625 C 186.824219 59.023438 190.875 54.523438 196.949219 54.523438 C 200.101562 54.523438 202.648438 55.726562 204.523438 58.125 L 201.148438 61.351562 C 199.949219 59.773438 198.601562 59.023438 196.949219 59.023438 C 193.875 59.023438 191.773438 61.574219 191.773438 65.550781 C 191.773438 69.449219 193.875 72.074219 196.949219 72.074219 C 198.601562 72.074219 199.949219 71.324219 201.300781 69.75 Z M 204.375 73.199219 "/>
</g>
<g clip-path="url(#clip-10)">
<path fill-rule="nonzero" fill="rgb(78.430176%, 6.274414%, 18.03894%)" fill-opacity="1" d="M 226.800781 76.125 L 221.925781 76.125 L 221.925781 64.125 C 221.925781 61.050781 220.949219 59.023438 218.023438 59.023438 C 214.648438 59.023438 213.675781 61.726562 213.675781 64.125 L 213.675781 76.125 L 208.800781 76.125 L 208.800781 46.648438 L 213.675781 45.375 L 213.675781 57.601562 L 213.75 57.601562 C 214.949219 55.726562 217.125 54.523438 219.898438 54.523438 C 224.773438 54.523438 226.800781 58.125 226.800781 63 Z M 226.800781 76.125 "/>
</g>
<g clip-path="url(#clip-11)">
<path fill-rule="nonzero" fill="rgb(78.430176%, 6.274414%, 18.03894%)" fill-opacity="1" d="M 250.648438 76.125 L 245.550781 76.125 L 245.550781 47.101562 L 256.351562 47.101562 C 262.5 47.101562 266.324219 49.949219 266.324219 55.648438 C 266.324219 60.074219 264.074219 62.851562 260.398438 63.976562 L 267.074219 76.125 L 261 76.125 L 255 64.5 L 250.574219 64.5 L 250.574219 76.125 Z M 261.074219 55.800781 C 261.074219 52.949219 259.273438 51.601562 255.898438 51.601562 L 250.648438 51.601562 L 250.648438 60.074219 L 255.675781 60.074219 C 259.199219 60.074219 261.074219 58.648438 261.074219 55.800781 Z M 261.074219 55.800781 "/>
</g>
<g clip-path="url(#clip-12)">
<path fill-rule="nonzero" fill="rgb(78.430176%, 6.274414%, 18.03894%)" fill-opacity="1" d="M 280.726562 76.574219 C 274.5 76.574219 270.300781 72.148438 270.300781 65.550781 C 270.300781 59.023438 274.273438 54.601562 280.125 54.601562 C 285.75 54.601562 289.425781 58.800781 289.425781 65.25 C 289.425781 65.925781 289.351562 66.675781 289.351562 67.273438 L 275.25 67.273438 C 275.773438 70.5 277.726562 72.375 280.726562 72.375 C 282.675781 72.375 284.25 71.625 285.898438 69.898438 L 288.976562 73.125 C 286.574219 75.449219 283.949219 76.574219 280.726562 76.574219 Z M 275.25 63.675781 L 284.773438 63.675781 C 284.550781 60.449219 282.898438 58.574219 280.125 58.574219 C 277.425781 58.574219 275.699219 60.449219 275.25 63.675781 Z M 275.25 63.675781 "/>
</g>
<g clip-path="url(#clip-13)">
<path fill-rule="nonzero" fill="rgb(78.430176%, 6.274414%, 18.03894%)" fill-opacity="1" d="M 311.324219 73.199219 C 309.226562 75.523438 306.824219 76.574219 303.824219 76.574219 C 297.824219 76.574219 293.773438 72.226562 293.773438 65.625 C 293.773438 59.023438 297.824219 54.523438 303.898438 54.523438 C 307.050781 54.523438 309.601562 55.726562 311.476562 58.125 L 308.101562 61.351562 C 306.898438 59.773438 305.550781 59.023438 303.898438 59.023438 C 300.824219 59.023438 298.726562 61.574219 298.726562 65.550781 C 298.726562 69.449219 300.824219 72.074219 303.898438 72.074219 C 305.550781 72.074219 306.898438 71.324219 308.25 69.75 Z M 311.324219 73.199219 "/>
</g>
<g clip-path="url(#clip-14)">
<path fill-rule="nonzero" fill="rgb(78.430176%, 6.274414%, 18.03894%)" fill-opacity="1" d="M 333.675781 76.125 L 328.800781 76.125 L 328.800781 64.125 C 328.800781 61.050781 327.824219 59.023438 324.898438 59.023438 C 321.523438 59.023438 320.550781 61.726562 320.550781 64.125 L 320.550781 76.125 L 315.675781 76.125 L 315.675781 46.648438 L 320.550781 45.375 L 320.550781 57.601562 L 320.625 57.601562 C 321.824219 55.726562 324 54.523438 326.773438 54.523438 C 331.648438 54.523438 333.675781 58.125 333.675781 63 Z M 333.675781 76.125 "/>
</g>
<g clip-path="url(#clip-15)">
<path fill-rule="nonzero" fill="rgb(78.430176%, 6.274414%, 18.03894%)" fill-opacity="1" d="M 350.625 71.625 L 350.625 75.824219 C 349.574219 76.351562 347.925781 76.574219 346.5 76.574219 C 342.824219 76.574219 340.800781 74.476562 340.800781 70.648438 L 340.800781 59.175781 L 337.574219 59.175781 L 337.574219 55.125 L 340.726562 55.125 L 340.726562 49.425781 L 345.601562 48.375 L 345.601562 55.199219 L 350.625 55.199219 L 350.625 59.25 L 345.601562 59.25 L 345.601562 69.601562 C 345.601562 71.550781 346.273438 72.375 347.851562 72.375 C 348.824219 72.300781 349.800781 72 350.625 71.625 Z M 350.625 71.625 "/>
</g>
<g clip-path="url(#clip-16)">
<path fill-rule="nonzero" fill="rgb(78.430176%, 6.274414%, 18.03894%)" fill-opacity="1" d="M 356.476562 70.125 C 358.574219 71.699219 360.523438 72.449219 362.398438 72.449219 C 364.199219 72.449219 365.476562 71.625 365.476562 70.351562 C 365.476562 66.75 354.976562 68.023438 354.976562 61.050781 C 354.976562 57.148438 358.199219 54.523438 362.925781 54.523438 C 365.476562 54.523438 367.949219 55.273438 370.199219 56.699219 L 367.875 60.523438 C 366.074219 59.25 364.425781 58.648438 362.851562 58.648438 C 361.050781 58.648438 359.851562 59.398438 359.851562 60.601562 C 359.851562 64.050781 370.351562 62.851562 370.351562 69.898438 C 370.351562 73.875 367.125 76.574219 362.25 76.574219 C 359.476562 76.574219 356.625 75.675781 354.148438 74.023438 Z M 356.476562 70.125 "/>
</g>
<g clip-path="url(#clip-17)">
<path fill-rule="nonzero" fill="rgb(78.430176%, 6.274414%, 18.03894%)" fill-opacity="1" d="M 403.351562 55.125 L 397.125 76.125 L 392.398438 76.125 L 388.574219 61.574219 L 388.5 61.574219 L 384.675781 76.125 L 379.949219 76.125 L 373.726562 55.125 L 378.898438 55.125 L 382.5 69.300781 L 382.574219 69.300781 L 386.25 55.125 L 390.75 55.125 L 394.574219 69.300781 L 394.648438 69.300781 L 398.25 55.125 Z M 403.351562 55.125 "/>
</g>
<g clip-path="url(#clip-18)">
<path fill-rule="nonzero" fill="rgb(78.430176%, 6.274414%, 18.03894%)" fill-opacity="1" d="M 413.25 48.75 C 413.25 50.476562 411.824219 51.75 410.101562 51.75 C 408.375 51.75 407.023438 50.550781 407.023438 48.75 C 407.023438 47.023438 408.449219 45.75 410.101562 45.75 C 411.898438 45.75 413.25 47.023438 413.25 48.75 Z M 412.574219 76.125 L 407.699219 76.125 L 407.699219 55.125 L 412.574219 55.125 Z M 412.574219 76.125 "/>
</g>
<g clip-path="url(#clip-19)">
<path fill-rule="nonzero" fill="rgb(78.430176%, 6.274414%, 18.03894%)" fill-opacity="1" d="M 419.476562 70.125 C 421.574219 71.699219 423.523438 72.449219 425.398438 72.449219 C 427.199219 72.449219 428.476562 71.625 428.476562 70.351562 C 428.476562 66.75 417.976562 68.023438 417.976562 61.050781 C 417.976562 57.148438 421.199219 54.523438 425.925781 54.523438 C 428.476562 54.523438 430.949219 55.273438 433.199219 56.699219 L 430.875 60.523438 C 429.074219 59.25 427.425781 58.648438 425.851562 58.648438 C 424.050781 58.648438 422.851562 59.398438 422.851562 60.601562 C 422.851562 64.050781 433.351562 62.851562 433.351562 69.898438 C 433.351562 73.875 430.125 76.574219 425.25 76.574219 C 422.476562 76.574219 419.625 75.675781 417.148438 74.023438 Z M 419.476562 70.125 "/>
</g>
<g clip-path="url(#clip-20)">
<path fill-rule="nonzero" fill="rgb(78.430176%, 6.274414%, 18.03894%)" fill-opacity="1" d="M 438.898438 70.125 C 441 71.699219 442.949219 72.449219 444.824219 72.449219 C 446.625 72.449219 447.898438 71.625 447.898438 70.351562 C 447.898438 66.75 437.398438 68.023438 437.398438 61.050781 C 437.398438 57.148438 440.625 54.523438 445.351562 54.523438 C 447.898438 54.523438 450.375 55.273438 452.625 56.699219 L 450.300781 60.523438 C 448.5 59.25 446.851562 58.648438 445.273438 58.648438 C 443.476562 58.648438 442.273438 59.398438 442.273438 60.601562 C 442.273438 64.050781 452.773438 62.851562 452.773438 69.898438 C 452.773438 73.875 449.550781 76.574219 444.675781 76.574219 C 441.898438 76.574219 439.050781 75.675781 436.574219 74.023438 Z M 438.898438 70.125 "/>
</g>
<g clip-path="url(#clip-21)">
<path fill-rule="nonzero" fill="rgb(78.430176%, 6.274414%, 18.03894%)" fill-opacity="1" d="M 467.101562 76.574219 C 460.875 76.574219 456.675781 72.148438 456.675781 65.550781 C 456.675781 59.023438 460.648438 54.601562 466.5 54.601562 C 472.125 54.601562 475.800781 58.800781 475.800781 65.25 C 475.800781 65.925781 475.726562 66.675781 475.726562 67.273438 L 461.625 67.273438 C 462.148438 70.5 464.101562 72.375 467.101562 72.375 C 469.050781 72.375 470.625 71.625 472.273438 69.898438 L 475.351562 73.125 C 472.949219 75.449219 470.25 76.574219 467.101562 76.574219 Z M 461.625 63.675781 L 471.148438 63.675781 C 470.925781 60.449219 469.273438 58.574219 466.5 58.574219 C 463.726562 58.574219 462 60.449219 461.625 63.675781 Z M 461.625 63.675781 "/>
</g>
<g clip-path="url(#clip-22)">
<path fill-rule="nonzero" fill="rgb(78.430176%, 6.274414%, 18.03894%)" fill-opacity="1" d="M 499.273438 76.125 L 494.398438 76.125 L 494.398438 64.125 C 494.398438 61.050781 493.5 59.023438 490.5 59.023438 C 487.050781 59.023438 486.148438 61.800781 486.148438 64.125 L 486.148438 76.125 L 481.273438 76.125 L 481.273438 55.125 L 486.148438 55.125 L 486.148438 57.675781 L 486.226562 57.675781 C 487.5 55.800781 489.675781 54.601562 492.375 54.601562 C 497.175781 54.601562 499.273438 58.125 499.273438 63.074219 Z M 499.273438 76.125 "/>
</g>
<g clip-path="url(#clip-23)">
<path fill-rule="nonzero" fill="rgb(78.430176%, 6.274414%, 18.03894%)" fill-opacity="1" d="M 506.023438 70.125 C 508.125 71.699219 510.074219 72.449219 511.949219 72.449219 C 513.75 72.449219 515.023438 71.625 515.023438 70.351562 C 515.023438 66.75 504.523438 68.023438 504.523438 61.050781 C 504.523438 57.148438 507.75 54.523438 512.476562 54.523438 C 515.023438 54.523438 517.5 55.273438 519.75 56.699219 L 517.425781 60.523438 C 515.625 59.25 513.976562 58.648438 512.398438 58.648438 C 510.601562 58.648438 509.398438 59.398438 509.398438 60.601562 C 509.398438 64.050781 519.898438 62.851562 519.898438 69.898438 C 519.898438 73.875 516.675781 76.574219 511.800781 76.574219 C 509.023438 76.574219 506.175781 75.675781 503.699219 74.023438 Z M 506.023438 70.125 "/>
</g>
<g clip-path="url(#clip-24)">
<path fill-rule="nonzero" fill="rgb(78.430176%, 6.274414%, 18.03894%)" fill-opacity="1" d="M 541.425781 73.199219 C 539.324219 75.523438 536.925781 76.574219 533.925781 76.574219 C 527.925781 76.574219 523.875 72.226562 523.875 65.625 C 523.875 59.023438 527.925781 54.523438 534 54.523438 C 537.148438 54.523438 539.699219 55.726562 541.574219 58.125 L 538.199219 61.351562 C 537 59.773438 535.648438 59.023438 534 59.023438 C 530.925781 59.023438 528.824219 61.574219 528.824219 65.550781 C 528.824219 69.449219 530.925781 72.074219 534 72.074219 C 535.648438 72.074219 537 71.324219 538.351562 69.75 Z M 541.425781 73.199219 "/>
</g>
<g clip-path="url(#clip-25)">
<path fill-rule="nonzero" fill="rgb(78.430176%, 6.274414%, 18.03894%)" fill-opacity="1" d="M 563.773438 76.125 L 558.898438 76.125 L 558.898438 64.125 C 558.898438 61.050781 557.925781 59.023438 555 59.023438 C 551.625 59.023438 550.648438 61.726562 550.648438 64.125 L 550.648438 76.125 L 545.773438 76.125 L 545.773438 46.648438 L 550.648438 45.375 L 550.648438 57.601562 L 550.726562 57.601562 C 551.925781 55.726562 554.101562 54.523438 556.875 54.523438 C 561.75 54.523438 563.773438 58.125 563.773438 63 Z M 563.773438 76.125 "/>
</g>
<g clip-path="url(#clip-26)">
<path fill-rule="nonzero" fill="rgb(78.430176%, 6.274414%, 18.03894%)" fill-opacity="1" d="M 577.648438 63.074219 C 579 63.074219 580.273438 63.148438 581.625 63.523438 L 581.625 62.773438 C 581.625 60.074219 580.050781 58.726562 576.976562 58.726562 C 575.25 58.726562 573.375 59.101562 571.648438 59.925781 L 570.601562 55.800781 C 572.550781 55.050781 575.101562 54.601562 577.5 54.601562 C 583.425781 54.601562 586.425781 57.375 586.425781 62.699219 L 586.425781 76.125 L 581.773438 76.125 L 581.773438 73.875 L 581.699219 73.875 C 579.898438 75.75 578.023438 76.574219 575.550781 76.574219 C 571.351562 76.574219 568.648438 73.949219 568.648438 69.898438 C 568.648438 65.476562 571.800781 63.074219 577.648438 63.074219 Z M 576.824219 72.898438 C 578.625 72.898438 580.273438 72 581.625 70.351562 L 581.625 66.675781 C 580.5 66.375 579.300781 66.300781 578.175781 66.300781 C 575.101562 66.300781 573.300781 67.5 573.300781 69.75 C 573.375 71.699219 574.726562 72.898438 576.824219 72.898438 Z M 576.824219 72.898438 "/>
</g>
<g clip-path="url(#clip-27)">
<path fill-rule="nonzero" fill="rgb(78.430176%, 6.274414%, 18.03894%)" fill-opacity="1" d="M 603.226562 49.726562 C 602.550781 49.425781 601.800781 49.351562 601.050781 49.351562 C 599.175781 49.351562 598.425781 50.324219 598.425781 52.273438 L 598.425781 55.125 L 602.625 55.125 L 602.625 59.175781 L 598.5 59.175781 L 598.5 76.125 L 593.625 76.125 L 593.625 59.25 L 590.398438 59.25 L 590.398438 55.125 L 593.625 55.125 L 593.625 52.125 C 593.625 47.773438 595.574219 45.148438 600.300781 45.148438 C 601.351562 45.148438 602.398438 45.300781 603.226562 45.601562 Z M 603.226562 49.726562 "/>
</g>
<g clip-path="url(#clip-28)">
<path fill-rule="nonzero" fill="rgb(78.430176%, 6.274414%, 18.03894%)" fill-opacity="1" d="M 618.976562 71.625 L 618.976562 75.824219 C 617.925781 76.351562 616.273438 76.574219 614.851562 76.574219 C 611.175781 76.574219 609.148438 74.476562 609.148438 70.648438 L 609.148438 59.175781 L 605.925781 59.175781 L 605.925781 55.125 L 609.074219 55.125 L 609.074219 49.425781 L 613.949219 48.375 L 613.949219 55.199219 L 618.976562 55.199219 L 618.976562 59.25 L 613.949219 59.25 L 613.949219 69.601562 C 613.949219 71.550781 614.625 72.375 616.199219 72.375 C 617.101562 72.300781 618.148438 72 618.976562 71.625 Z M 618.976562 71.625 "/>
</g>
</svg>
