<?xml version="1.0" encoding="UTF-8"?>
<svg xmlns="http://www.w3.org/2000/svg" xmlns:xlink="http://www.w3.org/1999/xlink" width="607.200012" height="121.949997" viewBox="0 0 607.200012 121.949997">
<defs>
<clipPath id="clip-0">
<path clip-rule="nonzero" d="M 594 2 L 607.199219 2 L 607.199219 32 L 594 32 Z M 594 2 "/>
</clipPath>
<clipPath id="clip-1">
<path clip-rule="nonzero" d="M 0 100 L 30 100 L 30 121.949219 L 0 121.949219 Z M 0 100 "/>
</clipPath>
<clipPath id="clip-2">
<path clip-rule="nonzero" d="M 33 91 L 40 91 L 40 121.949219 L 33 121.949219 Z M 33 91 "/>
</clipPath>
<clipPath id="clip-3">
<path clip-rule="nonzero" d="M 43 99 L 60 99 L 60 121.949219 L 43 121.949219 Z M 43 99 "/>
</clipPath>
<clipPath id="clip-4">
<path clip-rule="nonzero" d="M 62 99 L 79 99 L 79 121.949219 L 62 121.949219 Z M 62 99 "/>
</clipPath>
<clipPath id="clip-5">
<path clip-rule="nonzero" d="M 82 99 L 102 99 L 102 121.949219 L 82 121.949219 Z M 82 99 "/>
</clipPath>
<clipPath id="clip-6">
<path clip-rule="nonzero" d="M 107 99 L 126 99 L 126 121.949219 L 107 121.949219 Z M 107 99 "/>
</clipPath>
<clipPath id="clip-7">
<path clip-rule="nonzero" d="M 129 99 L 147 99 L 147 121.949219 L 129 121.949219 Z M 129 99 "/>
</clipPath>
<clipPath id="clip-8">
<path clip-rule="nonzero" d="M 150 99 L 168 99 L 168 121.949219 L 150 121.949219 Z M 150 99 "/>
</clipPath>
<clipPath id="clip-9">
<path clip-rule="nonzero" d="M 171 90 L 191 90 L 191 121.949219 L 171 121.949219 Z M 171 90 "/>
</clipPath>
<clipPath id="clip-10">
<path clip-rule="nonzero" d="M 194 99 L 213 99 L 213 121.949219 L 194 121.949219 Z M 194 99 "/>
</clipPath>
<clipPath id="clip-11">
<path clip-rule="nonzero" d="M 216 90 L 230 90 L 230 121.949219 L 216 121.949219 Z M 216 90 "/>
</clipPath>
<clipPath id="clip-12">
<path clip-rule="nonzero" d="M 232 93 L 246 93 L 246 121.949219 L 232 121.949219 Z M 232 93 "/>
</clipPath>
<clipPath id="clip-13">
<path clip-rule="nonzero" d="M 250 90 L 255 90 L 255 121.949219 L 250 121.949219 Z M 250 90 "/>
</clipPath>
<clipPath id="clip-14">
<path clip-rule="nonzero" d="M 260 91 L 268 91 L 268 121.949219 L 260 121.949219 Z M 260 91 "/>
</clipPath>
<clipPath id="clip-15">
<path clip-rule="nonzero" d="M 271 99 L 290 99 L 290 121.949219 L 271 121.949219 Z M 271 99 "/>
</clipPath>
<clipPath id="clip-16">
<path clip-rule="nonzero" d="M 293 90 L 312 90 L 312 121.949219 L 293 121.949219 Z M 293 90 "/>
</clipPath>
<clipPath id="clip-17">
<path clip-rule="nonzero" d="M 316 99 L 336 99 L 336 121.949219 L 316 121.949219 Z M 316 99 "/>
</clipPath>
<clipPath id="clip-18">
<path clip-rule="nonzero" d="M 353 92 L 372 92 L 372 121.949219 L 353 121.949219 Z M 353 92 "/>
</clipPath>
<clipPath id="clip-19">
<path clip-rule="nonzero" d="M 372 99 L 391 99 L 391 121.949219 L 372 121.949219 Z M 372 99 "/>
</clipPath>
<clipPath id="clip-20">
<path clip-rule="nonzero" d="M 396 90 L 416 90 L 416 121.949219 L 396 121.949219 Z M 396 90 "/>
</clipPath>
<clipPath id="clip-21">
<path clip-rule="nonzero" d="M 419 100 L 438 100 L 438 121.949219 L 419 121.949219 Z M 419 100 "/>
</clipPath>
<clipPath id="clip-22">
<path clip-rule="nonzero" d="M 443 90 L 449 90 L 449 121.949219 L 443 121.949219 Z M 443 90 "/>
</clipPath>
<clipPath id="clip-23">
<path clip-rule="nonzero" d="M 452 93 L 466 93 L 466 121.949219 L 452 121.949219 Z M 452 93 "/>
</clipPath>
<clipPath id="clip-24">
<path clip-rule="nonzero" d="M 469 91 L 488 91 L 488 121.949219 L 469 121.949219 Z M 469 91 "/>
</clipPath>
<clipPath id="clip-25">
<path clip-rule="nonzero" d="M 491 93 L 505 93 L 505 121.949219 L 491 121.949219 Z M 491 93 "/>
</clipPath>
</defs>
<path fill-rule="nonzero" fill="rgb(100%, 100%, 100%)" fill-opacity="1" d="M 20.625 6.375 L 7.5 6.375 L 7.5 13.574219 L 17.25 13.574219 L 17.25 18.300781 L 7.5 18.300781 L 7.5 30.675781 L 2.324219 30.675781 L 2.324219 1.574219 L 20.550781 1.574219 L 20.550781 6.375 Z M 20.625 6.375 "/>
<path fill-rule="nonzero" fill="rgb(100%, 100%, 100%)" fill-opacity="1" d="M 36.074219 9.523438 L 35.324219 14.550781 C 34.574219 14.175781 33.675781 13.875 32.625 13.875 C 29.25 13.875 28.351562 16.574219 28.351562 19.800781 L 28.351562 30.601562 L 23.476562 30.601562 L 23.476562 9.601562 L 28.273438 9.601562 L 28.273438 12.300781 L 28.351562 12.300781 C 29.476562 10.351562 31.425781 9.148438 33.824219 9.148438 C 34.5 9.074219 35.324219 9.226562 36.074219 9.523438 Z M 36.074219 9.523438 "/>
<path fill-rule="nonzero" fill="rgb(100%, 100%, 100%)" fill-opacity="1" d="M 45.824219 3.300781 C 45.824219 5.023438 44.398438 6.300781 42.675781 6.300781 C 40.949219 6.300781 39.601562 5.101562 39.601562 3.300781 C 39.601562 1.574219 41.023438 0.300781 42.675781 0.300781 C 44.398438 0.300781 45.824219 1.574219 45.824219 3.300781 Z M 45.148438 30.601562 L 40.273438 30.601562 L 40.273438 9.601562 L 45.148438 9.601562 Z M 45.148438 30.601562 "/>
<path fill-rule="nonzero" fill="rgb(100%, 100%, 100%)" fill-opacity="1" d="M 60.75 31.125 C 54.523438 31.125 50.324219 26.699219 50.324219 20.101562 C 50.324219 13.574219 54.300781 9.148438 60.148438 9.148438 C 65.773438 9.148438 69.449219 13.351562 69.449219 19.800781 C 69.449219 20.476562 69.375 21.226562 69.375 21.824219 L 55.273438 21.824219 C 55.800781 25.050781 57.75 26.925781 60.75 26.925781 C 62.699219 26.925781 64.273438 26.175781 65.925781 24.449219 L 69 27.675781 C 66.601562 30 63.898438 31.125 60.75 31.125 Z M 55.199219 18.226562 L 64.726562 18.226562 C 64.5 15 62.851562 13.125 60.074219 13.125 C 57.375 13.125 55.648438 15 55.199219 18.226562 Z M 55.199219 18.226562 "/>
<path fill-rule="nonzero" fill="rgb(100%, 100%, 100%)" fill-opacity="1" d="M 73.800781 20.101562 C 73.800781 13.351562 77.25 9.148438 82.351562 9.148438 C 84.976562 9.148438 87.074219 10.273438 88.425781 12 L 88.5 12 L 88.5 1.199219 L 93.375 0 L 93.375 30.675781 L 88.574219 30.675781 L 88.574219 28.199219 L 88.5 28.199219 C 87 30.074219 84.824219 31.199219 82.199219 31.199219 C 77.25 31.125 73.800781 26.851562 73.800781 20.101562 Z M 78.601562 20.101562 C 78.601562 24.375 80.398438 26.851562 83.476562 26.851562 C 85.351562 26.851562 86.925781 25.949219 88.5 24.074219 L 88.5 16.351562 C 87.074219 14.476562 85.5 13.574219 83.476562 13.574219 C 80.324219 13.574219 78.601562 15.898438 78.601562 20.101562 Z M 78.601562 20.101562 "/>
<path fill-rule="nonzero" fill="rgb(100%, 100%, 100%)" fill-opacity="1" d="M 112.5 9.523438 L 111.75 14.550781 C 111 14.175781 110.101562 13.875 109.050781 13.875 C 105.675781 13.875 104.773438 16.574219 104.773438 19.800781 L 104.773438 30.601562 L 99.898438 30.601562 L 99.898438 9.601562 L 104.699219 9.601562 L 104.699219 12.300781 L 104.773438 12.300781 C 105.898438 10.351562 107.851562 9.148438 110.25 9.148438 C 110.925781 9.074219 111.75 9.226562 112.5 9.523438 Z M 112.5 9.523438 "/>
<path fill-rule="nonzero" fill="rgb(100%, 100%, 100%)" fill-opacity="1" d="M 122.175781 3.300781 C 122.175781 5.023438 120.75 6.300781 119.023438 6.300781 C 117.300781 6.300781 115.949219 5.101562 115.949219 3.300781 C 115.949219 1.574219 117.375 0.300781 119.023438 0.300781 C 120.824219 0.300781 122.175781 1.574219 122.175781 3.300781 Z M 121.574219 30.601562 L 116.699219 30.601562 L 116.699219 9.601562 L 121.574219 9.601562 Z M 121.574219 30.601562 "/>
<path fill-rule="nonzero" fill="rgb(100%, 100%, 100%)" fill-opacity="1" d="M 144.375 27.75 C 142.273438 30.074219 139.875 31.125 136.875 31.125 C 130.875 31.125 126.824219 26.773438 126.824219 20.175781 C 126.824219 13.574219 130.875 9.074219 136.949219 9.074219 C 140.101562 9.074219 142.648438 10.273438 144.523438 12.675781 L 141.148438 15.898438 C 139.949219 14.324219 138.601562 13.574219 136.949219 13.574219 C 133.875 13.574219 131.773438 16.125 131.773438 20.101562 C 131.773438 24 133.875 26.625 136.949219 26.625 C 138.601562 26.625 139.949219 25.875 141.300781 24.300781 Z M 144.375 27.75 "/>
<path fill-rule="nonzero" fill="rgb(100%, 100%, 100%)" fill-opacity="1" d="M 166.800781 30.601562 L 161.925781 30.601562 L 161.925781 18.601562 C 161.925781 15.523438 160.949219 13.5 158.023438 13.5 C 154.648438 13.5 153.675781 16.199219 153.675781 18.601562 L 153.675781 30.675781 L 148.726562 30.675781 L 148.726562 1.199219 L 153.601562 0 L 153.601562 12.226562 L 153.675781 12.226562 C 154.875 10.351562 157.050781 9.148438 159.824219 9.148438 C 164.699219 9.148438 166.726562 12.75 166.726562 17.625 L 166.726562 30.601562 Z M 166.800781 30.601562 "/>
<path fill-rule="nonzero" fill="rgb(100%, 100%, 100%)" fill-opacity="1" d="M 172.425781 15.449219 L 182.699219 15.449219 L 182.699219 20.101562 L 172.425781 20.101562 Z M 172.425781 15.449219 "/>
<path fill-rule="nonzero" fill="rgb(100%, 100%, 100%)" fill-opacity="1" d="M 196.050781 1.574219 L 201.523438 1.574219 L 212.324219 30.601562 L 206.699219 30.601562 L 204.601562 24.449219 L 192.898438 24.449219 L 190.800781 30.601562 L 185.324219 30.601562 Z M 194.476562 19.800781 L 202.949219 19.800781 L 198.75 7.5 L 198.675781 7.5 Z M 194.476562 19.800781 "/>
<path fill-rule="nonzero" fill="rgb(100%, 100%, 100%)" fill-opacity="1" d="M 221.550781 30.601562 L 216.675781 30.601562 L 216.675781 1.125 L 221.550781 0 Z M 221.550781 30.601562 "/>
<path fill-rule="nonzero" fill="rgb(100%, 100%, 100%)" fill-opacity="1" d="M 237.226562 31.125 C 231 31.125 226.800781 26.699219 226.800781 20.101562 C 226.800781 13.574219 230.773438 9.148438 236.625 9.148438 C 242.25 9.148438 245.925781 13.351562 245.925781 19.800781 C 245.925781 20.476562 245.851562 21.226562 245.851562 21.824219 L 231.75 21.824219 C 232.273438 25.050781 234.226562 26.925781 237.226562 26.925781 C 239.175781 26.925781 240.75 26.175781 242.398438 24.449219 L 245.476562 27.675781 C 243.074219 30 240.449219 31.125 237.226562 31.125 Z M 231.75 18.226562 L 241.273438 18.226562 C 241.050781 15 239.398438 13.125 236.625 13.125 C 233.925781 13.125 232.199219 15 231.75 18.226562 Z M 231.75 18.226562 "/>
<path fill-rule="nonzero" fill="rgb(100%, 100%, 100%)" fill-opacity="1" d="M 268.726562 30.601562 L 263.101562 30.601562 L 258.601562 23.324219 L 258.523438 23.324219 L 254.175781 30.601562 L 248.625 30.601562 L 255.824219 19.726562 L 249.148438 9.601562 L 254.699219 9.601562 L 258.675781 16.050781 L 258.75 16.050781 L 262.648438 9.601562 L 268.125 9.601562 L 261.523438 19.648438 Z M 268.726562 30.601562 "/>
<path fill-rule="nonzero" fill="rgb(100%, 100%, 100%)" fill-opacity="1" d="M 280.351562 17.625 C 281.699219 17.625 282.976562 17.699219 284.324219 18.074219 L 284.324219 17.324219 C 284.324219 14.625 282.75 13.273438 279.675781 13.273438 C 277.949219 13.273438 276.074219 13.726562 274.351562 14.476562 L 273.300781 10.351562 C 275.25 9.601562 277.800781 9.148438 280.199219 9.148438 C 286.125 9.148438 289.125 11.925781 289.125 17.25 L 289.125 30.675781 L 284.476562 30.675781 L 284.476562 28.425781 L 284.398438 28.425781 C 282.601562 30.300781 280.726562 31.125 278.25 31.125 C 274.050781 31.125 271.351562 28.5 271.351562 24.449219 C 271.273438 20.023438 274.425781 17.625 280.351562 17.625 Z M 279.523438 27.449219 C 281.324219 27.449219 282.976562 26.550781 284.324219 24.898438 L 284.324219 21.300781 C 283.199219 21 282 20.925781 280.875 20.925781 C 277.800781 20.925781 276 22.125 276 24.375 C 276 26.25 277.351562 27.449219 279.523438 27.449219 Z M 279.523438 27.449219 "/>
<path fill-rule="nonzero" fill="rgb(100%, 100%, 100%)" fill-opacity="1" d="M 313.425781 30.601562 L 308.476562 30.601562 L 308.476562 18.601562 C 308.476562 15.523438 307.574219 13.5 304.574219 13.5 C 301.125 13.5 300.226562 16.273438 300.226562 18.601562 L 300.226562 30.675781 L 295.351562 30.675781 L 295.351562 9.675781 L 300.226562 9.675781 L 300.226562 12.226562 L 300.300781 12.226562 C 301.574219 10.351562 303.75 9.148438 306.449219 9.148438 C 311.25 9.148438 313.351562 12.675781 313.351562 17.625 L 313.351562 30.601562 Z M 313.425781 30.601562 "/>
<path fill-rule="nonzero" fill="rgb(100%, 100%, 100%)" fill-opacity="1" d="M 318.601562 20.101562 C 318.601562 13.351562 322.050781 9.148438 327.148438 9.148438 C 329.773438 9.148438 331.875 10.273438 333.226562 12 L 333.300781 12 L 333.300781 1.199219 L 338.175781 0 L 338.175781 30.675781 L 333.375 30.675781 L 333.375 28.199219 L 333.300781 28.199219 C 331.800781 30.074219 329.625 31.199219 327 31.199219 C 322.050781 31.125 318.601562 26.851562 318.601562 20.101562 Z M 323.476562 20.101562 C 323.476562 24.375 325.273438 26.851562 328.351562 26.851562 C 330.226562 26.851562 331.800781 25.949219 333.375 24.074219 L 333.375 16.351562 C 331.949219 14.476562 330.375 13.574219 328.351562 13.574219 C 325.125 13.574219 323.476562 15.898438 323.476562 20.101562 Z M 323.476562 20.101562 "/>
<path fill-rule="nonzero" fill="rgb(100%, 100%, 100%)" fill-opacity="1" d="M 353.925781 31.125 C 347.699219 31.125 343.5 26.699219 343.5 20.101562 C 343.5 13.574219 347.476562 9.148438 353.324219 9.148438 C 358.949219 9.148438 362.625 13.351562 362.625 19.800781 C 362.625 20.476562 362.550781 21.226562 362.550781 21.824219 L 348.449219 21.824219 C 348.976562 25.050781 350.925781 26.925781 353.925781 26.925781 C 355.875 26.925781 357.449219 26.175781 359.101562 24.449219 L 362.175781 27.675781 C 359.773438 30 357.074219 31.125 353.925781 31.125 Z M 348.449219 18.226562 L 357.976562 18.226562 C 357.75 15 356.101562 13.125 353.324219 13.125 C 350.625 13.125 348.824219 15 348.449219 18.226562 Z M 348.449219 18.226562 "/>
<path fill-rule="nonzero" fill="rgb(100%, 100%, 100%)" fill-opacity="1" d="M 380.773438 9.523438 L 380.023438 14.550781 C 379.273438 14.175781 378.375 13.875 377.324219 13.875 C 373.949219 13.875 373.050781 16.574219 373.050781 19.800781 L 373.050781 30.601562 L 368.175781 30.601562 L 368.175781 9.601562 L 372.976562 9.601562 L 372.976562 12.300781 L 373.050781 12.300781 C 374.175781 10.351562 376.125 9.148438 378.523438 9.148438 C 379.199219 9.074219 380.023438 9.226562 380.773438 9.523438 Z M 380.773438 9.523438 "/>
<path fill-rule="nonzero" fill="rgb(100%, 100%, 100%)" fill-opacity="1" d="M 383.851562 15.449219 L 394.125 15.449219 L 394.125 20.101562 L 383.851562 20.101562 Z M 383.851562 15.449219 "/>
<path fill-rule="nonzero" fill="rgb(100%, 100%, 100%)" fill-opacity="1" d="M 423.074219 19.125 C 423.074219 26.101562 419.476562 31.125 411.675781 31.125 C 403.949219 31.125 400.351562 26.175781 400.351562 19.125 L 400.351562 1.574219 L 405.601562 1.574219 L 405.601562 18.824219 C 405.601562 23.175781 407.476562 26.175781 411.75 26.175781 C 416.023438 26.175781 417.75 23.25 417.75 18.824219 L 417.75 1.574219 L 423 1.574219 L 423 19.125 Z M 423.074219 19.125 "/>
<path fill-rule="nonzero" fill="rgb(100%, 100%, 100%)" fill-opacity="1" d="M 447.675781 30.601562 L 442.800781 30.601562 L 442.800781 18.601562 C 442.800781 15.523438 441.898438 13.5 438.898438 13.5 C 435.449219 13.5 434.550781 16.273438 434.550781 18.601562 L 434.550781 30.675781 L 429.675781 30.675781 L 429.675781 9.675781 L 434.550781 9.675781 L 434.550781 12.226562 L 434.625 12.226562 C 435.898438 10.351562 438.074219 9.148438 440.773438 9.148438 C 445.574219 9.148438 447.675781 12.675781 447.675781 17.625 Z M 447.675781 30.601562 "/>
<path fill-rule="nonzero" fill="rgb(100%, 100%, 100%)" fill-opacity="1" d="M 459.449219 3.300781 C 459.449219 5.023438 458.023438 6.300781 456.300781 6.300781 C 454.574219 6.300781 453.226562 5.101562 453.226562 3.300781 C 453.226562 1.574219 454.648438 0.300781 456.300781 0.300781 C 458.023438 0.300781 459.449219 1.574219 459.449219 3.300781 Z M 458.773438 30.601562 L 453.898438 30.601562 L 453.898438 9.601562 L 458.773438 9.601562 Z M 458.773438 30.601562 "/>
<path fill-rule="nonzero" fill="rgb(100%, 100%, 100%)" fill-opacity="1" d="M 483.300781 9.675781 L 475.648438 30.675781 L 470.550781 30.675781 L 462.898438 9.675781 L 468.300781 9.675781 L 473.101562 24.898438 L 473.175781 24.898438 L 477.976562 9.675781 Z M 483.300781 9.675781 "/>
<path fill-rule="nonzero" fill="rgb(100%, 100%, 100%)" fill-opacity="1" d="M 495.976562 31.125 C 489.75 31.125 485.550781 26.699219 485.550781 20.101562 C 485.550781 13.574219 489.523438 9.148438 495.375 9.148438 C 501 9.148438 504.675781 13.351562 504.675781 19.800781 C 504.675781 20.476562 504.601562 21.226562 504.601562 21.824219 L 490.5 21.824219 C 491.023438 25.050781 492.976562 26.925781 495.976562 26.925781 C 497.925781 26.925781 499.5 26.175781 501.148438 24.449219 L 504.226562 27.675781 C 501.824219 30 499.199219 31.125 495.976562 31.125 Z M 490.5 18.226562 L 500.023438 18.226562 C 499.800781 15 498.148438 13.125 495.375 13.125 C 492.675781 13.125 490.949219 15 490.5 18.226562 Z M 490.5 18.226562 "/>
<path fill-rule="nonzero" fill="rgb(100%, 100%, 100%)" fill-opacity="1" d="M 522.824219 9.523438 L 522.074219 14.550781 C 521.324219 14.175781 520.425781 13.875 519.375 13.875 C 516 13.875 515.101562 16.574219 515.101562 19.800781 L 515.101562 30.601562 L 510.226562 30.601562 L 510.226562 9.601562 L 515.023438 9.601562 L 515.023438 12.300781 L 515.101562 12.300781 C 516.226562 10.351562 518.175781 9.148438 520.574219 9.148438 C 521.25 9.074219 522.074219 9.226562 522.824219 9.523438 Z M 522.824219 9.523438 "/>
<path fill-rule="nonzero" fill="rgb(100%, 100%, 100%)" fill-opacity="1" d="M 527.476562 24.675781 C 529.574219 26.25 531.523438 27 533.398438 27 C 535.199219 27 536.476562 26.175781 536.476562 24.898438 C 536.476562 21.300781 525.976562 22.574219 525.976562 15.601562 C 525.976562 11.699219 529.199219 9.074219 533.925781 9.074219 C 536.476562 9.074219 538.949219 9.824219 541.199219 11.25 L 538.875 15.074219 C 537.074219 13.875 535.425781 13.199219 533.851562 13.199219 C 532.050781 13.199219 530.851562 13.949219 530.851562 15.148438 C 530.851562 18.601562 541.351562 17.398438 541.351562 24.449219 C 541.351562 28.425781 538.125 31.125 533.25 31.125 C 530.476562 31.125 527.625 30.226562 525.148438 28.574219 Z M 527.476562 24.675781 "/>
<path fill-rule="nonzero" fill="rgb(100%, 100%, 100%)" fill-opacity="1" d="M 552.148438 3.300781 C 552.148438 5.023438 550.726562 6.300781 549 6.300781 C 547.273438 6.300781 545.925781 5.101562 545.925781 3.300781 C 545.925781 1.574219 547.351562 0.300781 549 0.300781 C 550.726562 0.300781 552.148438 1.574219 552.148438 3.300781 Z M 551.476562 30.601562 L 546.601562 30.601562 L 546.601562 9.601562 L 551.476562 9.601562 Z M 551.476562 30.601562 "/>
<path fill-rule="nonzero" fill="rgb(100%, 100%, 100%)" fill-opacity="1" d="M 568.726562 26.175781 L 568.726562 30.375 C 567.675781 30.898438 566.023438 31.125 564.601562 31.125 C 560.925781 31.125 558.898438 29.101562 558.898438 25.199219 L 558.898438 13.726562 L 555.675781 13.726562 L 555.675781 9.675781 L 558.824219 9.675781 L 558.824219 3.976562 L 563.699219 2.925781 L 563.699219 9.75 L 568.726562 9.75 L 568.726562 13.800781 L 563.699219 13.800781 L 563.699219 24.148438 C 563.699219 26.101562 564.375 26.925781 565.949219 26.925781 C 566.851562 26.851562 567.898438 26.550781 568.726562 26.175781 Z M 568.726562 26.175781 "/>
<path fill-rule="nonzero" fill="rgb(100%, 100%, 100%)" fill-opacity="1" d="M 581.550781 17.625 C 582.898438 17.625 584.175781 17.699219 585.523438 18.074219 L 585.523438 17.324219 C 585.523438 14.625 583.949219 13.273438 580.875 13.273438 C 579.148438 13.273438 577.273438 13.726562 575.550781 14.476562 L 574.5 10.351562 C 576.449219 9.601562 579 9.148438 581.398438 9.148438 C 587.324219 9.148438 590.324219 11.925781 590.324219 17.25 L 590.324219 30.675781 L 585.675781 30.675781 L 585.675781 28.425781 L 585.601562 28.425781 C 583.800781 30.300781 581.925781 31.125 579.449219 31.125 C 575.25 31.125 572.550781 28.5 572.550781 24.449219 C 572.550781 20.023438 575.699219 17.625 581.550781 17.625 Z M 577.574219 6.375 C 576 6.375 574.648438 5.023438 574.648438 3.523438 C 574.648438 2.023438 576 0.675781 577.574219 0.675781 C 579.148438 0.675781 580.5 2.023438 580.5 3.523438 C 580.5 5.101562 579.148438 6.375 577.574219 6.375 Z M 580.726562 27.449219 C 582.523438 27.449219 584.175781 26.550781 585.523438 24.898438 L 585.523438 21.300781 C 584.398438 21 583.199219 20.925781 582.074219 20.925781 C 579 20.925781 577.199219 22.125 577.199219 24.375 C 577.199219 26.25 578.550781 27.449219 580.726562 27.449219 Z M 586.125 6.375 C 584.550781 6.375 583.199219 5.023438 583.199219 3.523438 C 583.199219 2.023438 584.550781 0.675781 586.125 0.675781 C 587.699219 0.675781 589.050781 2.023438 589.050781 3.523438 C 589.050781 5.101562 587.699219 6.375 586.125 6.375 Z M 586.125 6.375 "/>
<g clip-path="url(#clip-0)">
<path fill-rule="nonzero" fill="rgb(100%, 100%, 100%)" fill-opacity="1" d="M 607.199219 26.175781 L 607.199219 30.375 C 606.148438 30.898438 604.5 31.125 603.074219 31.125 C 599.398438 31.125 597.375 29.101562 597.375 25.199219 L 597.375 13.726562 L 594.148438 13.726562 L 594.148438 9.675781 L 597.300781 9.675781 L 597.300781 3.976562 L 602.175781 2.925781 L 602.175781 9.75 L 607.199219 9.75 L 607.199219 13.800781 L 602.175781 13.800781 L 602.175781 24.148438 C 602.175781 26.101562 602.851562 26.925781 604.425781 26.925781 C 605.398438 26.851562 606.375 26.550781 607.199219 26.175781 Z M 607.199219 26.175781 "/>
</g>
<path fill-rule="nonzero" fill="rgb(100%, 100%, 100%)" fill-opacity="1" d="M 7.5 75.976562 L 2.398438 75.976562 L 2.398438 46.949219 L 13.199219 46.949219 C 19.351562 46.949219 23.175781 49.800781 23.175781 55.5 C 23.175781 59.925781 20.925781 62.699219 17.25 63.824219 L 23.925781 75.976562 L 18 75.976562 L 12 64.351562 L 7.574219 64.351562 L 7.574219 75.976562 Z M 17.925781 55.726562 C 17.925781 52.875 16.125 51.523438 12.75 51.523438 L 7.5 51.523438 L 7.5 60 L 12.523438 60 C 16.050781 60 17.925781 58.574219 17.925781 55.726562 Z M 17.925781 55.726562 "/>
<path fill-rule="nonzero" fill="rgb(100%, 100%, 100%)" fill-opacity="1" d="M 37.574219 76.5 C 31.351562 76.5 27.148438 72.074219 27.148438 65.476562 C 27.148438 58.949219 31.125 54.523438 36.976562 54.523438 C 42.601562 54.523438 46.273438 58.726562 46.273438 65.175781 C 46.273438 65.851562 46.199219 66.601562 46.199219 67.199219 L 32.175781 67.199219 C 32.699219 70.425781 34.648438 72.300781 37.648438 72.300781 C 39.601562 72.300781 41.175781 71.550781 42.824219 69.824219 L 45.898438 73.050781 C 43.425781 75.375 40.800781 76.5 37.574219 76.5 Z M 32.101562 63.601562 L 41.625 63.601562 C 41.398438 60.375 39.75 58.5 36.976562 58.5 C 34.273438 58.5 32.550781 60.375 32.101562 63.601562 Z M 32.101562 63.601562 "/>
<path fill-rule="nonzero" fill="rgb(100%, 100%, 100%)" fill-opacity="1" d="M 68.175781 73.125 C 66.074219 75.449219 63.675781 76.5 60.675781 76.5 C 54.675781 76.5 50.625 72.148438 50.625 65.550781 C 50.625 58.949219 54.675781 54.449219 60.75 54.449219 C 63.898438 54.449219 66.449219 55.648438 68.324219 58.050781 L 64.949219 61.273438 C 63.75 59.699219 62.398438 58.949219 60.75 58.949219 C 57.675781 58.949219 55.574219 61.5 55.574219 65.476562 C 55.574219 69.375 57.675781 72 60.75 72 C 62.398438 72 63.75 71.25 65.101562 69.675781 Z M 68.175781 73.125 "/>
<path fill-rule="nonzero" fill="rgb(100%, 100%, 100%)" fill-opacity="1" d="M 90.523438 75.976562 L 85.648438 75.976562 L 85.648438 63.976562 C 85.648438 60.898438 84.675781 58.875 81.75 58.875 C 78.375 58.875 77.398438 61.574219 77.398438 63.976562 L 77.398438 76.050781 L 72.523438 76.050781 L 72.523438 46.574219 L 77.398438 45.375 L 77.398438 57.601562 L 77.476562 57.601562 C 78.675781 55.726562 80.851562 54.523438 83.625 54.523438 C 88.5 54.523438 90.523438 58.125 90.523438 63 Z M 90.523438 75.976562 "/>
<path fill-rule="nonzero" fill="rgb(100%, 100%, 100%)" fill-opacity="1" d="M 107.476562 71.550781 L 107.476562 75.75 C 106.425781 76.273438 104.773438 76.5 103.351562 76.5 C 99.675781 76.5 97.648438 74.476562 97.648438 70.574219 L 97.648438 59.101562 L 94.425781 59.101562 L 94.425781 55.050781 L 97.574219 55.050781 L 97.574219 49.351562 L 102.449219 48.300781 L 102.449219 55.125 L 107.476562 55.125 L 107.476562 59.175781 L 102.449219 59.175781 L 102.449219 69.523438 C 102.449219 71.476562 103.125 72.300781 104.699219 72.300781 C 105.675781 72.226562 106.648438 71.925781 107.476562 71.550781 Z M 107.476562 71.550781 "/>
<path fill-rule="nonzero" fill="rgb(100%, 100%, 100%)" fill-opacity="1" d="M 113.324219 70.050781 C 115.425781 71.625 117.375 72.375 119.25 72.375 C 121.050781 72.375 122.324219 71.550781 122.324219 70.273438 C 122.324219 66.675781 111.824219 67.949219 111.824219 60.976562 C 111.824219 57.074219 115.050781 54.449219 119.773438 54.449219 C 122.324219 54.449219 124.800781 55.199219 127.050781 56.625 L 124.726562 60.449219 C 122.925781 59.25 121.273438 58.574219 119.699219 58.574219 C 117.898438 58.574219 116.699219 59.324219 116.699219 60.523438 C 116.699219 63.976562 127.199219 62.773438 127.199219 69.824219 C 127.199219 73.800781 123.976562 76.5 119.101562 76.5 C 116.324219 76.5 113.476562 75.601562 111 73.949219 Z M 113.324219 70.050781 "/>
<path fill-rule="nonzero" fill="rgb(100%, 100%, 100%)" fill-opacity="1" d="M 131.023438 60.824219 L 141.300781 60.824219 L 141.300781 65.476562 L 131.023438 65.476562 Z M 131.023438 60.824219 "/>
<path fill-rule="nonzero" fill="rgb(100%, 100%, 100%)" fill-opacity="1" d="M 163.574219 67.648438 C 163.574219 70.5 165 72.074219 167.773438 72.074219 C 170.476562 72.074219 171.824219 70.574219 171.824219 67.648438 L 171.824219 55.050781 L 176.699219 55.050781 L 176.699219 67.800781 C 176.699219 73.351562 173.625 76.574219 167.851562 76.574219 C 162.148438 76.574219 158.625 73.351562 158.625 67.875 L 158.625 55.125 L 163.5 55.125 L 163.5 67.648438 Z M 163.574219 67.648438 "/>
<path fill-rule="nonzero" fill="rgb(100%, 100%, 100%)" fill-opacity="1" d="M 201.074219 75.976562 L 196.199219 75.976562 L 196.199219 63.976562 C 196.199219 60.898438 195.300781 58.875 192.300781 58.875 C 188.851562 58.875 187.949219 61.648438 187.949219 63.976562 L 187.949219 76.050781 L 183.074219 76.050781 L 183.074219 55.050781 L 187.949219 55.050781 L 187.949219 57.601562 L 188.023438 57.601562 C 189.226562 55.726562 191.476562 54.523438 194.175781 54.523438 C 198.976562 54.523438 201.074219 58.050781 201.074219 63 Z M 201.074219 75.976562 "/>
<path fill-rule="nonzero" fill="rgb(100%, 100%, 100%)" fill-opacity="1" d="M 206.25 65.476562 C 206.25 58.726562 209.699219 54.523438 214.800781 54.523438 C 217.425781 54.523438 219.523438 55.648438 220.875 57.375 L 220.949219 57.375 L 220.949219 46.574219 L 225.824219 45.375 L 225.824219 76.050781 L 221.023438 76.050781 L 221.023438 73.574219 L 220.949219 73.574219 C 219.449219 75.449219 217.273438 76.574219 214.648438 76.574219 C 209.699219 76.5 206.25 72.226562 206.25 65.476562 Z M 211.125 65.476562 C 211.125 69.75 212.925781 72.226562 216 72.226562 C 217.875 72.226562 219.449219 71.324219 221.023438 69.449219 L 221.023438 61.800781 C 219.601562 59.925781 218.023438 59.023438 216 59.023438 C 212.773438 58.949219 211.125 61.273438 211.125 65.476562 Z M 211.125 65.476562 "/>
<path fill-rule="nonzero" fill="rgb(100%, 100%, 100%)" fill-opacity="1" d="M 242.699219 46.949219 L 248.101562 46.949219 L 252.824219 67.949219 L 252.898438 67.949219 L 257.925781 46.949219 L 263.25 46.949219 L 268.351562 67.949219 L 268.425781 67.949219 L 273.074219 46.949219 L 278.398438 46.949219 L 271.125 75.976562 L 265.800781 75.976562 L 260.625 54.675781 L 260.550781 54.675781 L 255.375 75.976562 L 249.976562 75.976562 Z M 242.699219 46.949219 "/>
<path fill-rule="nonzero" fill="rgb(100%, 100%, 100%)" fill-opacity="1" d="M 288.824219 48.675781 C 288.824219 50.398438 287.398438 51.675781 285.675781 51.675781 C 283.949219 51.675781 282.601562 50.476562 282.601562 48.675781 C 282.601562 46.949219 284.023438 45.675781 285.675781 45.675781 C 287.398438 45.675781 288.824219 46.949219 288.824219 48.675781 Z M 288.148438 75.976562 L 283.273438 75.976562 L 283.273438 54.976562 L 288.148438 54.976562 Z M 288.148438 75.976562 "/>
<path fill-rule="nonzero" fill="rgb(100%, 100%, 100%)" fill-opacity="1" d="M 307.273438 54.898438 L 306.523438 59.925781 C 305.773438 59.550781 304.875 59.25 303.824219 59.25 C 300.449219 59.25 299.550781 61.949219 299.550781 65.175781 L 299.550781 75.976562 L 294.675781 75.976562 L 294.675781 54.976562 L 299.476562 54.976562 L 299.476562 57.601562 L 299.550781 57.601562 C 300.675781 55.648438 302.625 54.449219 305.023438 54.449219 C 305.625 54.449219 306.523438 54.601562 307.273438 54.898438 Z M 307.273438 54.898438 "/>
<path fill-rule="nonzero" fill="rgb(100%, 100%, 100%)" fill-opacity="1" d="M 323.398438 71.550781 L 323.398438 75.75 C 322.351562 76.273438 320.699219 76.5 319.273438 76.5 C 315.601562 76.5 313.574219 74.476562 313.574219 70.574219 L 313.574219 59.101562 L 310.351562 59.101562 L 310.351562 55.050781 L 313.5 55.050781 L 313.5 49.351562 L 318.375 48.300781 L 318.375 55.125 L 323.398438 55.125 L 323.398438 59.175781 L 318.375 59.175781 L 318.375 69.523438 C 318.375 71.476562 319.050781 72.300781 320.625 72.300781 C 321.523438 72.226562 322.5 71.925781 323.398438 71.550781 Z M 323.398438 71.550781 "/>
<path fill-rule="nonzero" fill="rgb(100%, 100%, 100%)" fill-opacity="1" d="M 329.175781 70.050781 C 331.273438 71.625 333.226562 72.375 335.101562 72.375 C 336.898438 72.375 338.175781 71.550781 338.175781 70.273438 C 338.175781 66.675781 327.675781 67.949219 327.675781 60.976562 C 327.675781 57.074219 330.898438 54.449219 335.625 54.449219 C 338.175781 54.449219 340.648438 55.199219 342.898438 56.625 L 340.574219 60.449219 C 338.773438 59.25 337.125 58.574219 335.550781 58.574219 C 333.75 58.574219 332.550781 59.324219 332.550781 60.523438 C 332.550781 63.976562 343.050781 62.773438 343.050781 69.824219 C 343.050781 73.800781 339.824219 76.5 334.949219 76.5 C 332.175781 76.5 329.324219 75.601562 326.851562 73.949219 Z M 329.175781 70.050781 "/>
<path fill-rule="nonzero" fill="rgb(100%, 100%, 100%)" fill-opacity="1" d="M 364.574219 73.125 C 362.476562 75.449219 360.074219 76.5 357.074219 76.5 C 351.074219 76.5 347.023438 72.148438 347.023438 65.550781 C 347.023438 58.949219 351.074219 54.449219 357.148438 54.449219 C 360.300781 54.449219 362.851562 55.648438 364.726562 58.050781 L 361.351562 61.273438 C 360.148438 59.699219 358.800781 58.949219 357.148438 58.949219 C 354.074219 58.949219 351.976562 61.5 351.976562 65.476562 C 351.976562 69.375 354.074219 72 357.148438 72 C 358.800781 72 360.148438 71.25 361.5 69.675781 Z M 364.574219 73.125 "/>
<path fill-rule="nonzero" fill="rgb(100%, 100%, 100%)" fill-opacity="1" d="M 387 75.976562 L 382.125 75.976562 L 382.125 63.976562 C 382.125 60.898438 381.148438 58.875 378.226562 58.875 C 374.851562 58.875 373.875 61.574219 373.875 63.976562 L 373.875 76.050781 L 369 76.050781 L 369 46.574219 L 373.875 45.375 L 373.875 57.601562 L 373.949219 57.601562 C 375.148438 55.726562 377.324219 54.523438 380.101562 54.523438 C 384.976562 54.523438 387 58.125 387 63 Z M 387 75.976562 "/>
<path fill-rule="nonzero" fill="rgb(100%, 100%, 100%)" fill-opacity="1" d="M 400.875 63 C 402.226562 63 403.5 63.074219 404.851562 63.449219 L 404.851562 62.699219 C 404.851562 60 403.273438 58.648438 400.199219 58.648438 C 398.476562 58.648438 396.601562 59.101562 394.875 59.851562 L 393.824219 55.726562 C 395.773438 54.976562 398.324219 54.523438 400.726562 54.523438 C 406.648438 54.523438 409.648438 57.300781 409.648438 62.625 L 409.648438 76.050781 L 405 76.050781 L 405 73.800781 L 404.925781 73.800781 C 403.125 75.675781 401.25 76.5 398.773438 76.5 C 394.574219 76.5 391.875 73.875 391.875 69.824219 C 391.800781 65.398438 395.023438 63 400.875 63 Z M 400.050781 72.824219 C 401.851562 72.824219 403.5 71.925781 404.851562 70.273438 L 404.851562 66.601562 C 403.726562 66.300781 402.523438 66.226562 401.398438 66.226562 C 398.324219 66.226562 396.523438 67.425781 396.523438 69.675781 C 396.523438 71.625 397.875 72.824219 400.050781 72.824219 Z M 400.050781 72.824219 "/>
<path fill-rule="nonzero" fill="rgb(100%, 100%, 100%)" fill-opacity="1" d="M 426.449219 49.648438 C 425.773438 49.351562 425.023438 49.199219 424.273438 49.199219 C 422.398438 49.199219 421.648438 50.175781 421.648438 52.125 L 421.648438 54.976562 L 425.851562 54.976562 L 425.851562 59.023438 L 421.726562 59.023438 L 421.726562 75.898438 L 416.851562 75.898438 L 416.851562 59.023438 L 413.625 59.023438 L 413.625 55.050781 L 416.851562 55.050781 L 416.851562 52.050781 C 416.851562 47.699219 418.800781 45.074219 423.523438 45.074219 C 424.574219 45.074219 425.625 45.226562 426.449219 45.523438 Z M 426.449219 49.648438 "/>
<path fill-rule="nonzero" fill="rgb(100%, 100%, 100%)" fill-opacity="1" d="M 442.125 71.550781 L 442.125 75.75 C 441.074219 76.273438 439.425781 76.5 438 76.5 C 434.324219 76.5 432.300781 74.476562 432.300781 70.574219 L 432.300781 59.101562 L 429.074219 59.101562 L 429.074219 55.050781 L 432.226562 55.050781 L 432.226562 49.351562 L 437.101562 48.300781 L 437.101562 55.125 L 442.125 55.125 L 442.125 59.175781 L 437.101562 59.175781 L 437.101562 69.523438 C 437.101562 71.476562 437.773438 72.300781 439.351562 72.300781 C 440.324219 72.226562 441.300781 71.925781 442.125 71.550781 Z M 442.125 71.550781 "/>
<path fill-rule="nonzero" fill="rgb(100%, 100%, 100%)" fill-opacity="1" d="M 447.976562 70.050781 C 450.074219 71.625 452.023438 72.375 453.898438 72.375 C 455.699219 72.375 456.976562 71.550781 456.976562 70.273438 C 456.976562 66.675781 446.476562 67.949219 446.476562 60.976562 C 446.476562 57.074219 449.699219 54.449219 454.425781 54.449219 C 456.976562 54.449219 459.449219 55.199219 461.699219 56.625 L 459.375 60.449219 C 457.574219 59.25 455.925781 58.574219 454.351562 58.574219 C 452.550781 58.574219 451.351562 59.324219 451.351562 60.523438 C 451.351562 63.976562 461.851562 62.773438 461.851562 69.824219 C 461.851562 73.800781 458.625 76.5 453.75 76.5 C 450.976562 76.5 448.125 75.601562 445.648438 73.949219 Z M 447.976562 70.050781 "/>
<path fill-rule="nonzero" fill="rgb(100%, 100%, 100%)" fill-opacity="1" d="M 465.675781 60.824219 L 475.949219 60.824219 L 475.949219 65.476562 L 465.675781 65.476562 Z M 465.675781 60.824219 "/>
<g clip-path="url(#clip-1)">
<path fill-rule="nonzero" fill="rgb(100%, 100%, 100%)" fill-opacity="1" d="M 29.550781 100.425781 L 23.324219 121.425781 L 18.601562 121.425781 L 14.773438 106.875 L 14.699219 106.875 L 10.875 121.425781 L 6.226562 121.425781 L 0 100.425781 L 5.175781 100.425781 L 8.773438 114.601562 L 8.851562 114.601562 L 12.601562 100.425781 L 17.101562 100.425781 L 20.925781 114.601562 L 21 114.601562 L 24.523438 100.425781 Z M 29.550781 100.425781 "/>
</g>
<g clip-path="url(#clip-2)">
<path fill-rule="nonzero" fill="rgb(100%, 100%, 100%)" fill-opacity="1" d="M 39.523438 94.050781 C 39.523438 95.773438 38.101562 97.050781 36.375 97.050781 C 34.648438 97.050781 33.300781 95.851562 33.300781 94.050781 C 33.300781 92.324219 34.726562 91.050781 36.375 91.050781 C 38.101562 91.050781 39.523438 92.324219 39.523438 94.050781 Z M 38.851562 121.351562 L 33.976562 121.351562 L 33.976562 100.351562 L 38.851562 100.351562 Z M 38.851562 121.351562 "/>
</g>
<g clip-path="url(#clip-3)">
<path fill-rule="nonzero" fill="rgb(100%, 100%, 100%)" fill-opacity="1" d="M 45.675781 115.425781 C 47.699219 117 49.726562 117.75 51.601562 117.75 C 53.398438 117.75 54.675781 116.925781 54.675781 115.648438 C 54.675781 112.050781 44.175781 113.324219 44.175781 106.351562 C 44.175781 102.449219 47.398438 99.824219 52.125 99.824219 C 54.675781 99.824219 57.148438 100.574219 59.398438 102 L 57.074219 105.824219 C 55.273438 104.625 53.625 103.949219 52.050781 103.949219 C 50.25 103.949219 49.050781 104.699219 49.050781 105.898438 C 49.050781 109.351562 59.550781 108.148438 59.550781 115.199219 C 59.550781 119.175781 56.324219 121.875 51.449219 121.875 C 48.675781 121.875 45.824219 120.976562 43.351562 119.324219 Z M 45.675781 115.425781 "/>
</g>
<g clip-path="url(#clip-4)">
<path fill-rule="nonzero" fill="rgb(100%, 100%, 100%)" fill-opacity="1" d="M 65.101562 115.425781 C 67.199219 117 69.148438 117.75 71.023438 117.75 C 72.824219 117.75 74.101562 116.925781 74.101562 115.648438 C 74.101562 112.050781 63.601562 113.324219 63.601562 106.351562 C 63.601562 102.449219 66.824219 99.824219 71.550781 99.824219 C 74.101562 99.824219 76.574219 100.574219 78.824219 102 L 76.5 105.824219 C 74.699219 104.625 73.050781 103.949219 71.476562 103.949219 C 69.675781 103.949219 68.476562 104.699219 68.476562 105.898438 C 68.476562 109.351562 78.976562 108.148438 78.976562 115.199219 C 78.976562 119.175781 75.75 121.875 70.875 121.875 C 68.101562 121.875 65.25 120.976562 62.773438 119.324219 Z M 65.101562 115.425781 "/>
</g>
<g clip-path="url(#clip-5)">
<path fill-rule="nonzero" fill="rgb(100%, 100%, 100%)" fill-opacity="1" d="M 93.300781 121.875 C 87.074219 121.875 82.875 117.449219 82.875 110.851562 C 82.875 104.324219 86.851562 99.898438 92.699219 99.898438 C 98.324219 99.898438 102 104.101562 102 110.550781 C 102 111.226562 101.925781 111.976562 101.925781 112.574219 L 87.824219 112.574219 C 88.351562 115.800781 90.300781 117.675781 93.300781 117.675781 C 95.25 117.675781 96.824219 116.925781 98.476562 115.199219 L 101.550781 118.425781 C 99.226562 120.75 96.523438 121.875 93.300781 121.875 Z M 87.824219 108.976562 L 97.351562 108.976562 C 97.125 105.75 95.476562 103.875 92.699219 103.875 C 90 103.875 88.273438 105.75 87.824219 108.976562 Z M 87.824219 108.976562 "/>
</g>
<g clip-path="url(#clip-6)">
<path fill-rule="nonzero" fill="rgb(100%, 100%, 100%)" fill-opacity="1" d="M 125.550781 121.351562 L 120.675781 121.351562 L 120.675781 109.351562 C 120.675781 106.273438 119.773438 104.25 116.773438 104.25 C 113.324219 104.25 112.425781 107.023438 112.425781 109.351562 L 112.425781 121.425781 L 107.476562 121.425781 L 107.476562 100.425781 L 112.351562 100.425781 L 112.351562 102.976562 L 112.425781 102.976562 C 113.625 101.101562 115.875 99.898438 118.574219 99.898438 C 123.375 99.898438 125.476562 103.425781 125.476562 108.375 L 125.476562 121.351562 Z M 125.550781 121.351562 "/>
</g>
<g clip-path="url(#clip-7)">
<path fill-rule="nonzero" fill="rgb(100%, 100%, 100%)" fill-opacity="1" d="M 132.226562 115.425781 C 134.25 117 136.273438 117.75 138.148438 117.75 C 139.949219 117.75 141.226562 116.925781 141.226562 115.648438 C 141.226562 112.050781 130.726562 113.324219 130.726562 106.351562 C 130.726562 102.449219 133.949219 99.824219 138.675781 99.824219 C 141.226562 99.824219 143.699219 100.574219 145.949219 102 L 143.625 105.824219 C 141.824219 104.625 140.175781 103.949219 138.601562 103.949219 C 136.800781 103.949219 135.601562 104.699219 135.601562 105.898438 C 135.601562 109.351562 146.101562 108.148438 146.101562 115.199219 C 146.101562 119.175781 142.875 121.875 138 121.875 C 135.226562 121.875 132.375 120.976562 129.898438 119.324219 Z M 132.226562 115.425781 "/>
</g>
<g clip-path="url(#clip-8)">
<path fill-rule="nonzero" fill="rgb(100%, 100%, 100%)" fill-opacity="1" d="M 167.625 118.5 C 165.523438 120.824219 163.125 121.875 160.125 121.875 C 154.125 121.875 150.074219 117.523438 150.074219 110.925781 C 150.074219 104.324219 154.125 99.824219 160.199219 99.824219 C 163.351562 99.824219 165.898438 101.023438 167.773438 103.425781 L 164.398438 106.648438 C 163.125 105.074219 161.851562 104.324219 160.199219 104.324219 C 157.125 104.324219 155.023438 106.875 155.023438 110.851562 C 155.023438 114.75 157.125 117.375 160.199219 117.375 C 161.851562 117.375 163.199219 116.625 164.550781 115.050781 Z M 167.625 118.5 "/>
</g>
<g clip-path="url(#clip-9)">
<path fill-rule="nonzero" fill="rgb(100%, 100%, 100%)" fill-opacity="1" d="M 190.050781 121.351562 L 185.175781 121.351562 L 185.175781 109.351562 C 185.175781 106.273438 184.199219 104.25 181.273438 104.25 C 177.898438 104.25 176.925781 106.949219 176.925781 109.351562 L 176.925781 121.425781 L 171.976562 121.425781 L 171.976562 91.949219 L 176.851562 90.75 L 176.851562 102.976562 L 176.925781 102.976562 C 178.125 101.101562 180.300781 99.898438 183.074219 99.898438 C 187.949219 99.898438 189.976562 103.5 189.976562 108.375 L 189.976562 121.351562 Z M 190.050781 121.351562 "/>
</g>
<g clip-path="url(#clip-10)">
<path fill-rule="nonzero" fill="rgb(100%, 100%, 100%)" fill-opacity="1" d="M 203.925781 108.375 C 205.273438 108.375 206.550781 108.449219 207.898438 108.824219 L 207.898438 108.074219 C 207.898438 105.375 206.324219 104.023438 203.25 104.023438 C 201.523438 104.023438 199.648438 104.476562 197.925781 105.226562 L 196.875 101.101562 C 198.824219 100.351562 201.375 99.898438 203.773438 99.898438 C 209.699219 99.898438 212.699219 102.675781 212.699219 108 L 212.699219 121.425781 L 208.050781 121.425781 L 208.050781 119.175781 L 207.976562 119.175781 C 206.175781 121.050781 204.300781 121.875 201.824219 121.875 C 197.625 121.875 194.925781 119.25 194.925781 115.199219 C 194.851562 110.773438 198.074219 108.375 203.925781 108.375 Z M 203.101562 118.199219 C 204.898438 118.199219 206.550781 117.300781 207.898438 115.648438 L 207.898438 112.050781 C 206.773438 111.75 205.574219 111.675781 204.449219 111.675781 C 201.375 111.675781 199.574219 112.875 199.574219 115.125 C 199.574219 117 200.925781 118.199219 203.101562 118.199219 Z M 203.101562 118.199219 "/>
</g>
<g clip-path="url(#clip-11)">
<path fill-rule="nonzero" fill="rgb(100%, 100%, 100%)" fill-opacity="1" d="M 229.5 95.023438 C 228.824219 94.726562 228.074219 94.574219 227.324219 94.574219 C 225.449219 94.574219 224.699219 95.550781 224.699219 97.5 L 224.699219 100.351562 L 228.898438 100.351562 L 228.898438 104.398438 L 224.773438 104.398438 L 224.773438 121.273438 L 219.898438 121.273438 L 219.898438 104.398438 L 216.675781 104.398438 L 216.675781 100.351562 L 219.898438 100.351562 L 219.898438 97.351562 C 219.898438 93 221.851562 90.375 226.574219 90.375 C 227.625 90.375 228.675781 90.523438 229.5 90.824219 Z M 229.5 95.023438 "/>
</g>
<g clip-path="url(#clip-12)">
<path fill-rule="nonzero" fill="rgb(100%, 100%, 100%)" fill-opacity="1" d="M 245.175781 116.925781 L 245.175781 121.125 C 244.125 121.648438 242.476562 121.875 241.050781 121.875 C 237.375 121.875 235.351562 119.851562 235.351562 115.949219 L 235.351562 104.476562 L 232.125 104.476562 L 232.125 100.425781 L 235.273438 100.425781 L 235.273438 94.726562 L 240.148438 93.675781 L 240.148438 100.5 L 245.175781 100.5 L 245.175781 104.550781 L 240.226562 104.550781 L 240.226562 114.898438 C 240.226562 116.851562 240.898438 117.675781 242.476562 117.675781 C 243.375 117.601562 244.351562 117.300781 245.175781 116.925781 Z M 245.175781 116.925781 "/>
</g>
<g clip-path="url(#clip-13)">
<path fill-rule="nonzero" fill="rgb(100%, 100%, 100%)" fill-opacity="1" d="M 255 121.351562 L 250.125 121.351562 L 250.125 91.800781 L 255 90.675781 Z M 255 121.351562 "/>
</g>
<g clip-path="url(#clip-14)">
<path fill-rule="nonzero" fill="rgb(100%, 100%, 100%)" fill-opacity="1" d="M 267.074219 94.050781 C 267.074219 95.773438 265.648438 97.050781 263.925781 97.050781 C 262.199219 97.050781 260.851562 95.851562 260.851562 94.050781 C 260.851562 92.324219 262.273438 91.050781 263.925781 91.050781 C 265.648438 91.050781 267.074219 92.324219 267.074219 94.050781 Z M 266.398438 121.351562 L 261.523438 121.351562 L 261.523438 100.351562 L 266.398438 100.351562 Z M 266.398438 121.351562 "/>
</g>
<g clip-path="url(#clip-15)">
<path fill-rule="nonzero" fill="rgb(100%, 100%, 100%)" fill-opacity="1" d="M 289.273438 118.5 C 287.175781 120.824219 284.773438 121.875 281.773438 121.875 C 275.773438 121.875 271.726562 117.523438 271.726562 110.925781 C 271.726562 104.324219 275.773438 99.824219 281.851562 99.824219 C 285 99.824219 287.550781 101.023438 289.425781 103.425781 L 286.050781 106.648438 C 284.851562 105.074219 283.5 104.324219 281.851562 104.324219 C 278.773438 104.324219 276.675781 106.875 276.675781 110.851562 C 276.675781 114.75 278.773438 117.375 281.851562 117.375 C 283.5 117.375 284.851562 116.625 286.199219 115.050781 Z M 289.273438 118.5 "/>
</g>
<g clip-path="url(#clip-16)">
<path fill-rule="nonzero" fill="rgb(100%, 100%, 100%)" fill-opacity="1" d="M 311.625 121.351562 L 306.75 121.351562 L 306.75 109.351562 C 306.75 106.273438 305.773438 104.25 302.851562 104.25 C 299.476562 104.25 298.5 106.949219 298.5 109.351562 L 298.5 121.425781 L 293.625 121.425781 L 293.625 91.949219 L 298.5 90.75 L 298.5 102.976562 L 298.574219 102.976562 C 299.773438 101.101562 301.949219 99.898438 304.726562 99.898438 C 309.601562 99.898438 311.625 103.5 311.625 108.375 Z M 311.625 121.351562 "/>
</g>
<g clip-path="url(#clip-17)">
<path fill-rule="nonzero" fill="rgb(100%, 100%, 100%)" fill-opacity="1" d="M 327.148438 121.875 C 320.925781 121.875 316.726562 117.449219 316.726562 110.851562 C 316.726562 104.324219 320.699219 99.898438 326.550781 99.898438 C 332.175781 99.898438 335.851562 104.101562 335.851562 110.550781 C 335.851562 111.226562 335.773438 111.976562 335.773438 112.574219 L 321.675781 112.574219 C 322.199219 115.800781 324.148438 117.675781 327.148438 117.675781 C 329.101562 117.675781 330.675781 116.925781 332.324219 115.199219 L 335.398438 118.425781 C 333.074219 120.75 330.375 121.875 327.148438 121.875 Z M 321.675781 108.976562 L 331.199219 108.976562 C 330.976562 105.75 329.324219 103.875 326.550781 103.875 C 323.851562 103.875 322.125 105.75 321.675781 108.976562 Z M 321.675781 108.976562 "/>
</g>
<g clip-path="url(#clip-18)">
<path fill-rule="nonzero" fill="rgb(100%, 100%, 100%)" fill-opacity="1" d="M 372 97.125 L 358.949219 97.125 L 358.949219 104.324219 L 368.699219 104.324219 L 368.699219 109.050781 L 358.949219 109.050781 L 358.949219 121.425781 L 353.773438 121.425781 L 353.773438 92.398438 L 372 92.398438 Z M 372 97.125 "/>
</g>
<g clip-path="url(#clip-19)">
<path fill-rule="nonzero" fill="rgb(100%, 100%, 100%)" fill-opacity="1" d="M 381.976562 108.375 C 383.324219 108.375 384.601562 108.449219 385.949219 108.824219 L 385.949219 108.074219 C 385.949219 105.375 384.375 104.023438 381.300781 104.023438 C 379.574219 104.023438 377.699219 104.476562 375.976562 105.226562 L 374.925781 101.101562 C 376.875 100.351562 379.425781 99.898438 381.824219 99.898438 C 387.75 99.898438 390.75 102.675781 390.75 108 L 390.75 121.425781 L 386.101562 121.425781 L 386.101562 119.175781 L 386.023438 119.175781 C 384.226562 121.050781 382.351562 121.875 379.875 121.875 C 375.675781 121.875 372.976562 119.25 372.976562 115.199219 C 372.976562 110.773438 376.125 108.375 381.976562 108.375 Z M 381.148438 118.199219 C 382.949219 118.199219 384.601562 117.300781 385.949219 115.648438 L 385.949219 112.050781 C 384.824219 111.75 383.625 111.675781 382.5 111.675781 C 379.425781 111.675781 377.625 112.875 377.625 115.125 C 377.625 117 378.976562 118.199219 381.148438 118.199219 Z M 381.148438 118.199219 "/>
</g>
<g clip-path="url(#clip-20)">
<path fill-rule="nonzero" fill="rgb(100%, 100%, 100%)" fill-opacity="1" d="M 396.976562 91.949219 L 401.851562 90.75 L 401.851562 109.199219 L 401.925781 109.199219 L 408.824219 100.425781 L 414.675781 100.425781 L 407.773438 108.675781 L 415.425781 121.425781 L 409.574219 121.425781 L 404.324219 112.351562 L 401.925781 115.050781 L 401.925781 121.425781 L 396.976562 121.425781 Z M 396.976562 91.949219 "/>
</g>
<g clip-path="url(#clip-21)">
<path fill-rule="nonzero" fill="rgb(100%, 100%, 100%)" fill-opacity="1" d="M 423.976562 113.023438 C 423.976562 115.875 425.398438 117.449219 428.175781 117.449219 C 430.875 117.449219 432.226562 115.949219 432.226562 113.023438 L 432.226562 100.425781 L 437.101562 100.425781 L 437.101562 113.175781 C 437.101562 118.726562 434.023438 121.949219 428.25 121.949219 C 422.550781 121.949219 419.023438 118.726562 419.023438 113.25 L 419.023438 100.5 L 423.898438 100.5 L 423.898438 113.023438 Z M 423.976562 113.023438 "/>
</g>
<g clip-path="url(#clip-22)">
<path fill-rule="nonzero" fill="rgb(100%, 100%, 100%)" fill-opacity="1" d="M 448.351562 121.351562 L 443.476562 121.351562 L 443.476562 91.800781 L 448.351562 90.675781 Z M 448.351562 121.351562 "/>
</g>
<g clip-path="url(#clip-23)">
<path fill-rule="nonzero" fill="rgb(100%, 100%, 100%)" fill-opacity="1" d="M 465.675781 116.925781 L 465.675781 121.125 C 464.625 121.648438 462.976562 121.875 461.550781 121.875 C 457.875 121.875 455.851562 119.851562 455.851562 115.949219 L 455.851562 104.476562 L 452.625 104.476562 L 452.625 100.425781 L 455.773438 100.425781 L 455.773438 94.726562 L 460.648438 93.675781 L 460.648438 100.5 L 465.675781 100.5 L 465.675781 104.550781 L 460.648438 104.550781 L 460.648438 114.898438 C 460.648438 116.851562 461.324219 117.675781 462.898438 117.675781 C 463.875 117.601562 464.851562 117.300781 465.675781 116.925781 Z M 465.675781 116.925781 "/>
</g>
<g clip-path="url(#clip-24)">
<path fill-rule="nonzero" fill="rgb(100%, 100%, 100%)" fill-opacity="1" d="M 478.574219 108.375 C 479.925781 108.375 481.199219 108.449219 482.550781 108.824219 L 482.550781 108.074219 C 482.550781 105.375 480.976562 104.023438 477.898438 104.023438 C 476.175781 104.023438 474.300781 104.476562 472.574219 105.226562 L 471.523438 101.101562 C 473.476562 100.351562 476.023438 99.898438 478.425781 99.898438 C 484.351562 99.898438 487.351562 102.675781 487.351562 108 L 487.351562 121.425781 L 482.699219 121.425781 L 482.699219 119.175781 L 482.625 119.175781 C 480.824219 121.050781 478.949219 121.875 476.476562 121.875 C 472.273438 121.875 469.574219 119.25 469.574219 115.199219 C 469.5 110.773438 472.648438 108.375 478.574219 108.375 Z M 474.523438 97.125 C 472.949219 97.125 471.601562 95.773438 471.601562 94.273438 C 471.601562 92.773438 472.949219 91.425781 474.523438 91.425781 C 476.101562 91.425781 477.449219 92.773438 477.449219 94.273438 C 477.449219 95.851562 476.101562 97.125 474.523438 97.125 Z M 477.75 118.199219 C 479.550781 118.199219 481.199219 117.300781 482.550781 115.648438 L 482.550781 112.050781 C 481.425781 111.75 480.226562 111.675781 479.101562 111.675781 C 476.023438 111.675781 474.226562 112.875 474.226562 115.125 C 474.226562 117 475.574219 118.199219 477.75 118.199219 Z M 483.148438 97.125 C 481.574219 97.125 480.226562 95.773438 480.226562 94.273438 C 480.226562 92.773438 481.574219 91.425781 483.148438 91.425781 C 484.726562 91.425781 486.074219 92.773438 486.074219 94.273438 C 486.074219 95.851562 484.726562 97.125 483.148438 97.125 Z M 483.148438 97.125 "/>
</g>
<g clip-path="url(#clip-25)">
<path fill-rule="nonzero" fill="rgb(100%, 100%, 100%)" fill-opacity="1" d="M 504.226562 116.925781 L 504.226562 121.125 C 503.175781 121.648438 501.523438 121.875 500.101562 121.875 C 496.425781 121.875 494.398438 119.851562 494.398438 115.949219 L 494.398438 104.476562 L 491.175781 104.476562 L 491.175781 100.425781 L 494.324219 100.425781 L 494.324219 94.726562 L 499.199219 93.675781 L 499.199219 100.5 L 504.226562 100.5 L 504.226562 104.550781 L 499.199219 104.550781 L 499.199219 114.898438 C 499.199219 116.851562 499.875 117.675781 501.449219 117.675781 C 502.425781 117.601562 503.398438 117.300781 504.226562 116.925781 Z M 504.226562 116.925781 "/>
</g>
</svg>
