<?xml version="1.0" encoding="UTF-8"?>
<svg xmlns="http://www.w3.org/2000/svg" xmlns:xlink="http://www.w3.org/1999/xlink" width="606.974976" height="129.524994" viewBox="0 0 606.974976 129.524994">
<defs>
<clipPath id="clip-0">
<path clip-rule="nonzero" d="M 593 2 L 606.976562 2 L 606.976562 32 L 593 32 Z M 593 2 "/>
</clipPath>
<clipPath id="clip-1">
<path clip-rule="nonzero" d="M 422 100 L 444 100 L 444 129.523438 L 422 129.523438 Z M 422 100 "/>
</clipPath>
</defs>
<path fill-rule="nonzero" fill="rgb(100%, 100%, 100%)" fill-opacity="1" d="M 20.398438 6.375 L 7.273438 6.375 L 7.273438 13.574219 L 17.023438 13.574219 L 17.023438 18.300781 L 7.273438 18.300781 L 7.273438 30.675781 L 2.101562 30.675781 L 2.101562 1.574219 L 20.324219 1.574219 L 20.324219 6.375 Z M 20.398438 6.375 "/>
<path fill-rule="nonzero" fill="rgb(100%, 100%, 100%)" fill-opacity="1" d="M 35.851562 9.523438 L 35.101562 14.550781 C 34.351562 14.175781 33.449219 13.875 32.398438 13.875 C 29.023438 13.875 28.125 16.574219 28.125 19.800781 L 28.125 30.601562 L 23.25 30.601562 L 23.25 9.601562 L 28.050781 9.601562 L 28.050781 12.300781 L 28.125 12.300781 C 29.25 10.351562 31.199219 9.148438 33.601562 9.148438 C 34.273438 9.074219 35.101562 9.226562 35.851562 9.523438 Z M 35.851562 9.523438 "/>
<path fill-rule="nonzero" fill="rgb(100%, 100%, 100%)" fill-opacity="1" d="M 45.601562 3.300781 C 45.601562 5.023438 44.175781 6.300781 42.449219 6.300781 C 40.726562 6.300781 39.375 5.101562 39.375 3.300781 C 39.375 1.574219 40.800781 0.300781 42.449219 0.300781 C 44.175781 0.300781 45.601562 1.574219 45.601562 3.300781 Z M 44.925781 30.675781 L 40.050781 30.675781 L 40.050781 9.675781 L 44.925781 9.675781 Z M 44.925781 30.675781 "/>
<path fill-rule="nonzero" fill="rgb(100%, 100%, 100%)" fill-opacity="1" d="M 60.523438 31.125 C 54.300781 31.125 50.101562 26.699219 50.101562 20.101562 C 50.101562 13.574219 54.074219 9.148438 59.925781 9.148438 C 65.550781 9.148438 69.226562 13.351562 69.226562 19.800781 C 69.226562 20.476562 69.148438 21.226562 69.148438 21.824219 L 55.050781 21.824219 C 55.574219 25.050781 57.523438 26.925781 60.523438 26.925781 C 62.476562 26.925781 64.050781 26.175781 65.699219 24.449219 L 68.773438 27.675781 C 66.375 30 63.675781 31.125 60.523438 31.125 Z M 54.976562 18.226562 L 64.5 18.226562 C 64.273438 15 62.625 13.125 59.851562 13.125 C 57.148438 13.125 55.425781 15 54.976562 18.226562 Z M 54.976562 18.226562 "/>
<path fill-rule="nonzero" fill="rgb(100%, 100%, 100%)" fill-opacity="1" d="M 73.574219 20.101562 C 73.574219 13.351562 77.023438 9.148438 82.125 9.148438 C 84.75 9.148438 86.851562 10.273438 88.199219 12 L 88.273438 12 L 88.273438 1.199219 L 93.148438 0 L 93.148438 30.675781 L 88.351562 30.675781 L 88.351562 28.199219 L 88.273438 28.199219 C 86.773438 30.074219 84.601562 31.199219 81.976562 31.199219 C 77.023438 31.125 73.574219 26.851562 73.574219 20.101562 Z M 78.375 20.101562 C 78.375 24.375 80.175781 26.851562 83.25 26.851562 C 85.125 26.851562 86.699219 25.949219 88.273438 24.074219 L 88.273438 16.351562 C 86.851562 14.476562 85.273438 13.574219 83.25 13.574219 C 80.101562 13.574219 78.375 15.898438 78.375 20.101562 Z M 78.375 20.101562 "/>
<path fill-rule="nonzero" fill="rgb(100%, 100%, 100%)" fill-opacity="1" d="M 112.273438 9.523438 L 111.523438 14.550781 C 110.773438 14.175781 109.875 13.875 108.824219 13.875 C 105.449219 13.875 104.550781 16.574219 104.550781 19.800781 L 104.550781 30.601562 L 99.675781 30.601562 L 99.675781 9.601562 L 104.476562 9.601562 L 104.476562 12.300781 L 104.550781 12.300781 C 105.675781 10.351562 107.625 9.148438 110.023438 9.148438 C 110.699219 9.074219 111.523438 9.226562 112.273438 9.523438 Z M 112.273438 9.523438 "/>
<path fill-rule="nonzero" fill="rgb(100%, 100%, 100%)" fill-opacity="1" d="M 121.949219 3.300781 C 121.949219 5.023438 120.523438 6.300781 118.800781 6.300781 C 117.074219 6.300781 115.726562 5.101562 115.726562 3.300781 C 115.726562 1.574219 117.148438 0.300781 118.800781 0.300781 C 120.601562 0.300781 121.949219 1.574219 121.949219 3.300781 Z M 121.351562 30.675781 L 116.476562 30.675781 L 116.476562 9.675781 L 121.351562 9.675781 Z M 121.351562 30.675781 "/>
<path fill-rule="nonzero" fill="rgb(100%, 100%, 100%)" fill-opacity="1" d="M 144.148438 27.75 C 142.050781 30.074219 139.648438 31.125 136.648438 31.125 C 130.648438 31.125 126.601562 26.773438 126.601562 20.175781 C 126.601562 13.574219 130.648438 9.074219 136.726562 9.074219 C 139.875 9.074219 142.425781 10.273438 144.300781 12.675781 L 140.925781 15.898438 C 139.726562 14.324219 138.375 13.574219 136.726562 13.574219 C 133.648438 13.574219 131.550781 16.125 131.550781 20.101562 C 131.550781 24 133.648438 26.625 136.726562 26.625 C 138.375 26.625 139.726562 25.875 141.074219 24.300781 Z M 144.148438 27.75 "/>
<path fill-rule="nonzero" fill="rgb(100%, 100%, 100%)" fill-opacity="1" d="M 166.574219 30.675781 L 161.699219 30.675781 L 161.699219 18.675781 C 161.699219 15.601562 160.726562 13.574219 157.800781 13.574219 C 154.425781 13.574219 153.449219 16.273438 153.449219 18.675781 L 153.449219 30.75 L 148.5 30.75 L 148.5 1.199219 L 153.375 0 L 153.375 12.226562 L 153.449219 12.226562 C 154.648438 10.351562 156.824219 9.148438 159.601562 9.148438 C 164.476562 9.148438 166.5 12.75 166.5 17.625 L 166.5 30.675781 Z M 166.574219 30.675781 "/>
<path fill-rule="nonzero" fill="rgb(100%, 100%, 100%)" fill-opacity="1" d="M 172.199219 15.449219 L 182.476562 15.449219 L 182.476562 20.101562 L 172.199219 20.101562 Z M 172.199219 15.449219 "/>
<path fill-rule="nonzero" fill="rgb(100%, 100%, 100%)" fill-opacity="1" d="M 195.824219 1.574219 L 201.300781 1.574219 L 212.101562 30.601562 L 206.476562 30.601562 L 204.375 24.449219 L 192.675781 24.449219 L 190.574219 30.601562 L 185.101562 30.601562 Z M 194.25 19.800781 L 202.726562 19.800781 L 198.523438 7.5 L 198.449219 7.5 Z M 194.25 19.800781 "/>
<path fill-rule="nonzero" fill="rgb(100%, 100%, 100%)" fill-opacity="1" d="M 221.324219 30.675781 L 216.449219 30.675781 L 216.449219 1.125 L 221.324219 0 Z M 221.324219 30.675781 "/>
<path fill-rule="nonzero" fill="rgb(100%, 100%, 100%)" fill-opacity="1" d="M 237 31.125 C 230.773438 31.125 226.574219 26.699219 226.574219 20.101562 C 226.574219 13.574219 230.550781 9.148438 236.398438 9.148438 C 242.023438 9.148438 245.699219 13.351562 245.699219 19.800781 C 245.699219 20.476562 245.625 21.226562 245.625 21.824219 L 231.523438 21.824219 C 232.050781 25.050781 234 26.925781 237 26.925781 C 238.949219 26.925781 240.523438 26.175781 242.175781 24.449219 L 245.25 27.675781 C 242.851562 30 240.226562 31.125 237 31.125 Z M 231.523438 18.226562 L 241.050781 18.226562 C 240.824219 15 239.175781 13.125 236.398438 13.125 C 233.699219 13.125 231.976562 15 231.523438 18.226562 Z M 231.523438 18.226562 "/>
<path fill-rule="nonzero" fill="rgb(100%, 100%, 100%)" fill-opacity="1" d="M 268.5 30.675781 L 262.875 30.675781 L 258.375 23.398438 L 258.300781 23.398438 L 253.949219 30.675781 L 248.398438 30.675781 L 255.601562 19.800781 L 248.925781 9.675781 L 254.476562 9.675781 L 258.449219 16.125 L 258.523438 16.125 L 262.425781 9.675781 L 267.898438 9.675781 L 261.300781 19.726562 Z M 268.5 30.675781 "/>
<path fill-rule="nonzero" fill="rgb(100%, 100%, 100%)" fill-opacity="1" d="M 280.125 17.625 C 281.476562 17.625 282.75 17.699219 284.101562 18.074219 L 284.101562 17.324219 C 284.101562 14.625 282.523438 13.273438 279.449219 13.273438 C 277.726562 13.273438 275.851562 13.648438 274.125 14.476562 L 273.074219 10.351562 C 275.023438 9.601562 277.574219 9.148438 279.976562 9.148438 C 285.898438 9.148438 288.898438 11.925781 288.898438 17.25 L 288.898438 30.675781 L 284.25 30.675781 L 284.25 28.425781 L 284.175781 28.425781 C 282.375 30.300781 280.5 31.125 278.023438 31.125 C 273.824219 31.125 271.125 28.5 271.125 24.449219 C 271.050781 20.023438 274.199219 17.625 280.125 17.625 Z M 279.300781 27.449219 C 281.101562 27.449219 282.75 26.550781 284.101562 24.898438 L 284.101562 21.300781 C 282.976562 21 281.773438 20.925781 280.648438 20.925781 C 277.574219 20.925781 275.773438 22.125 275.773438 24.375 C 275.773438 26.25 277.125 27.449219 279.300781 27.449219 Z M 279.300781 27.449219 "/>
<path fill-rule="nonzero" fill="rgb(100%, 100%, 100%)" fill-opacity="1" d="M 313.199219 30.675781 L 308.25 30.675781 L 308.25 18.675781 C 308.25 15.601562 307.351562 13.574219 304.351562 13.574219 C 300.898438 13.574219 300 16.351562 300 18.675781 L 300 30.75 L 295.125 30.75 L 295.125 9.75 L 300 9.75 L 300 12.300781 L 300.074219 12.300781 C 301.351562 10.425781 303.523438 9.226562 306.226562 9.226562 C 311.023438 9.226562 313.125 12.75 313.125 17.699219 L 313.125 30.675781 Z M 313.199219 30.675781 "/>
<path fill-rule="nonzero" fill="rgb(100%, 100%, 100%)" fill-opacity="1" d="M 318.375 20.101562 C 318.375 13.351562 321.824219 9.148438 326.925781 9.148438 C 329.550781 9.148438 331.648438 10.273438 333 12 L 333.074219 12 L 333.074219 1.199219 L 337.949219 0 L 337.949219 30.675781 L 333.148438 30.675781 L 333.148438 28.199219 L 333.074219 28.199219 C 331.574219 30.074219 329.398438 31.199219 326.773438 31.199219 C 321.824219 31.125 318.375 26.851562 318.375 20.101562 Z M 323.25 20.101562 C 323.25 24.375 325.050781 26.851562 328.125 26.851562 C 330 26.851562 331.574219 25.949219 333.148438 24.074219 L 333.148438 16.351562 C 331.726562 14.476562 330.148438 13.574219 328.125 13.574219 C 324.898438 13.574219 323.25 15.898438 323.25 20.101562 Z M 323.25 20.101562 "/>
<path fill-rule="nonzero" fill="rgb(100%, 100%, 100%)" fill-opacity="1" d="M 353.699219 31.125 C 347.476562 31.125 343.273438 26.699219 343.273438 20.101562 C 343.273438 13.574219 347.25 9.148438 353.101562 9.148438 C 358.726562 9.148438 362.398438 13.351562 362.398438 19.800781 C 362.398438 20.476562 362.324219 21.226562 362.324219 21.824219 L 348.226562 21.824219 C 348.75 25.050781 350.699219 26.925781 353.699219 26.925781 C 355.648438 26.925781 357.226562 26.175781 358.875 24.449219 L 361.949219 27.675781 C 359.550781 30 356.851562 31.125 353.699219 31.125 Z M 348.226562 18.226562 L 357.75 18.226562 C 357.523438 15 355.875 13.125 353.101562 13.125 C 350.398438 13.125 348.601562 15 348.226562 18.226562 Z M 348.226562 18.226562 "/>
<path fill-rule="nonzero" fill="rgb(100%, 100%, 100%)" fill-opacity="1" d="M 380.550781 9.523438 L 379.800781 14.550781 C 379.050781 14.175781 378.148438 13.875 377.101562 13.875 C 373.726562 13.875 372.824219 16.574219 372.824219 19.800781 L 372.824219 30.601562 L 367.949219 30.601562 L 367.949219 9.601562 L 372.75 9.601562 L 372.75 12.300781 L 372.824219 12.300781 C 373.949219 10.351562 375.898438 9.148438 378.300781 9.148438 C 378.976562 9.074219 379.800781 9.226562 380.550781 9.523438 Z M 380.550781 9.523438 "/>
<path fill-rule="nonzero" fill="rgb(100%, 100%, 100%)" fill-opacity="1" d="M 383.625 15.449219 L 393.898438 15.449219 L 393.898438 20.101562 L 383.625 20.101562 Z M 383.625 15.449219 "/>
<path fill-rule="nonzero" fill="rgb(100%, 100%, 100%)" fill-opacity="1" d="M 422.851562 19.125 C 422.851562 26.101562 419.25 31.125 411.449219 31.125 C 403.726562 31.125 400.125 26.175781 400.125 19.125 L 400.125 1.574219 L 405.375 1.574219 L 405.375 18.824219 C 405.375 23.175781 407.25 26.175781 411.523438 26.175781 C 415.800781 26.175781 417.523438 23.25 417.523438 18.824219 L 417.523438 1.574219 L 422.773438 1.574219 L 422.773438 19.125 Z M 422.851562 19.125 "/>
<path fill-rule="nonzero" fill="rgb(100%, 100%, 100%)" fill-opacity="1" d="M 447.449219 30.675781 L 442.574219 30.675781 L 442.574219 18.675781 C 442.574219 15.601562 441.675781 13.574219 438.675781 13.574219 C 435.226562 13.574219 434.324219 16.351562 434.324219 18.675781 L 434.324219 30.75 L 429.449219 30.75 L 429.449219 9.75 L 434.324219 9.75 L 434.324219 12.300781 L 434.398438 12.300781 C 435.675781 10.425781 437.851562 9.226562 440.550781 9.226562 C 445.351562 9.226562 447.449219 12.75 447.449219 17.699219 Z M 447.449219 30.675781 "/>
<path fill-rule="nonzero" fill="rgb(100%, 100%, 100%)" fill-opacity="1" d="M 459.226562 3.300781 C 459.226562 5.023438 457.800781 6.300781 456.074219 6.300781 C 454.351562 6.300781 453 5.101562 453 3.300781 C 453 1.574219 454.425781 0.300781 456.074219 0.300781 C 457.800781 0.300781 459.226562 1.574219 459.226562 3.300781 Z M 458.550781 30.675781 L 453.675781 30.675781 L 453.675781 9.675781 L 458.550781 9.675781 Z M 458.550781 30.675781 "/>
<path fill-rule="nonzero" fill="rgb(100%, 100%, 100%)" fill-opacity="1" d="M 483.074219 9.675781 L 475.425781 30.675781 L 470.324219 30.675781 L 462.675781 9.675781 L 468.074219 9.675781 L 472.875 24.898438 L 472.949219 24.898438 L 477.75 9.675781 Z M 483.074219 9.675781 "/>
<path fill-rule="nonzero" fill="rgb(100%, 100%, 100%)" fill-opacity="1" d="M 495.75 31.125 C 489.523438 31.125 485.324219 26.699219 485.324219 20.101562 C 485.324219 13.574219 489.300781 9.148438 495.148438 9.148438 C 500.773438 9.148438 504.449219 13.351562 504.449219 19.800781 C 504.449219 20.476562 504.375 21.226562 504.375 21.824219 L 490.273438 21.824219 C 490.800781 25.050781 492.75 26.925781 495.75 26.925781 C 497.699219 26.925781 499.273438 26.175781 500.925781 24.449219 L 504 27.675781 C 501.601562 30 498.976562 31.125 495.75 31.125 Z M 490.273438 18.226562 L 499.800781 18.226562 C 499.574219 15 497.925781 13.125 495.148438 13.125 C 492.449219 13.125 490.726562 15 490.273438 18.226562 Z M 490.273438 18.226562 "/>
<path fill-rule="nonzero" fill="rgb(100%, 100%, 100%)" fill-opacity="1" d="M 522.601562 9.523438 L 521.851562 14.550781 C 521.101562 14.175781 520.199219 13.875 519.148438 13.875 C 515.773438 13.875 514.875 16.574219 514.875 19.800781 L 514.875 30.601562 L 510 30.601562 L 510 9.601562 L 514.800781 9.601562 L 514.800781 12.300781 L 514.875 12.300781 C 516 10.351562 517.949219 9.148438 520.351562 9.148438 C 521.023438 9.074219 521.851562 9.226562 522.601562 9.523438 Z M 522.601562 9.523438 "/>
<path fill-rule="nonzero" fill="rgb(100%, 100%, 100%)" fill-opacity="1" d="M 527.25 24.675781 C 529.351562 26.25 531.300781 27 533.175781 27 C 534.976562 27 536.25 26.175781 536.25 24.898438 C 536.25 21.300781 525.75 22.574219 525.75 15.601562 C 525.75 11.699219 528.976562 9.074219 533.699219 9.074219 C 536.25 9.074219 538.726562 9.824219 540.976562 11.25 L 538.648438 15.074219 C 536.851562 13.875 535.199219 13.199219 533.625 13.199219 C 531.824219 13.199219 530.625 13.949219 530.625 15.148438 C 530.625 18.601562 541.125 17.398438 541.125 24.449219 C 541.125 28.425781 537.898438 31.125 533.023438 31.125 C 530.25 31.125 527.398438 30.226562 524.925781 28.574219 Z M 527.25 24.675781 "/>
<path fill-rule="nonzero" fill="rgb(100%, 100%, 100%)" fill-opacity="1" d="M 551.925781 3.300781 C 551.925781 5.023438 550.5 6.300781 548.773438 6.300781 C 547.050781 6.300781 545.699219 5.101562 545.699219 3.300781 C 545.699219 1.574219 547.125 0.300781 548.773438 0.300781 C 550.5 0.300781 551.925781 1.574219 551.925781 3.300781 Z M 551.25 30.675781 L 546.375 30.675781 L 546.375 9.675781 L 551.25 9.675781 Z M 551.25 30.675781 "/>
<path fill-rule="nonzero" fill="rgb(100%, 100%, 100%)" fill-opacity="1" d="M 568.5 26.175781 L 568.5 30.375 C 567.449219 30.898438 565.800781 31.125 564.375 31.125 C 560.699219 31.125 558.675781 29.023438 558.675781 25.199219 L 558.675781 13.726562 L 555.449219 13.726562 L 555.449219 9.675781 L 558.601562 9.675781 L 558.601562 3.976562 L 563.476562 2.925781 L 563.476562 9.75 L 568.5 9.75 L 568.5 13.800781 L 563.476562 13.800781 L 563.476562 24.148438 C 563.476562 26.101562 564.148438 26.925781 565.726562 26.925781 C 566.625 26.851562 567.675781 26.550781 568.5 26.175781 Z M 568.5 26.175781 "/>
<path fill-rule="nonzero" fill="rgb(100%, 100%, 100%)" fill-opacity="1" d="M 581.324219 17.625 C 582.675781 17.625 583.949219 17.699219 585.300781 18.074219 L 585.300781 17.324219 C 585.300781 14.625 583.726562 13.273438 580.648438 13.273438 C 578.925781 13.273438 577.050781 13.648438 575.324219 14.476562 L 574.273438 10.351562 C 576.226562 9.601562 578.773438 9.148438 581.175781 9.148438 C 587.101562 9.148438 590.101562 11.925781 590.101562 17.25 L 590.101562 30.675781 L 585.449219 30.675781 L 585.449219 28.425781 L 585.375 28.425781 C 583.574219 30.300781 581.699219 31.125 579.226562 31.125 C 575.023438 31.125 572.324219 28.5 572.324219 24.449219 C 572.324219 20.023438 575.476562 17.625 581.324219 17.625 Z M 577.351562 6.375 C 575.773438 6.375 574.425781 5.023438 574.425781 3.523438 C 574.425781 2.023438 575.773438 0.675781 577.351562 0.675781 C 578.925781 0.675781 580.273438 2.023438 580.273438 3.523438 C 580.273438 5.101562 578.925781 6.375 577.351562 6.375 Z M 580.5 27.449219 C 582.300781 27.449219 583.949219 26.550781 585.300781 24.898438 L 585.300781 21.300781 C 584.175781 21 582.976562 20.925781 581.851562 20.925781 C 578.773438 20.925781 576.976562 22.125 576.976562 24.375 C 576.976562 26.25 578.324219 27.449219 580.5 27.449219 Z M 585.898438 6.375 C 584.324219 6.375 582.976562 5.023438 582.976562 3.523438 C 582.976562 2.023438 584.324219 0.675781 585.898438 0.675781 C 587.476562 0.675781 588.824219 2.023438 588.824219 3.523438 C 588.824219 5.101562 587.476562 6.375 585.898438 6.375 Z M 585.898438 6.375 "/>
<g clip-path="url(#clip-0)">
<path fill-rule="nonzero" fill="rgb(100%, 100%, 100%)" fill-opacity="1" d="M 606.976562 26.175781 L 606.976562 30.375 C 605.925781 30.898438 604.273438 31.125 602.851562 31.125 C 599.175781 31.125 597.148438 29.023438 597.148438 25.199219 L 597.148438 13.726562 L 593.925781 13.726562 L 593.925781 9.675781 L 597.074219 9.675781 L 597.074219 3.976562 L 601.949219 2.925781 L 601.949219 9.75 L 606.976562 9.75 L 606.976562 13.800781 L 601.949219 13.800781 L 601.949219 24.148438 C 601.949219 26.101562 602.625 26.925781 604.199219 26.925781 C 605.175781 26.851562 606.148438 26.550781 606.976562 26.175781 Z M 606.976562 26.175781 "/>
</g>
<path fill-rule="nonzero" fill="rgb(100%, 100%, 100%)" fill-opacity="1" d="M 3.300781 68.476562 C 5.476562 70.574219 8.101562 71.699219 10.5 71.699219 C 13.199219 71.699219 15.226562 70.199219 15.226562 68.101562 C 15.226562 62.550781 0.976562 64.273438 0.976562 54.824219 C 0.976562 49.800781 5.023438 46.425781 10.800781 46.425781 C 14.25 46.425781 17.476562 47.625 20.175781 49.949219 L 16.949219 53.925781 C 14.851562 52.050781 12.75 51.148438 10.574219 51.148438 C 8.023438 51.148438 6.148438 52.5 6.148438 54.375 C 6.148438 59.625 20.398438 57.898438 20.398438 67.648438 C 20.398438 72.898438 16.351562 76.425781 10.351562 76.425781 C 6.523438 76.425781 2.773438 75 0 72.449219 Z M 3.300781 68.476562 "/>
<path fill-rule="nonzero" fill="rgb(100%, 100%, 100%)" fill-opacity="1" d="M 42.300781 73.125 C 40.199219 75.449219 37.800781 76.5 34.800781 76.5 C 28.800781 76.5 24.75 72.148438 24.75 65.550781 C 24.75 58.949219 28.800781 54.449219 34.875 54.449219 C 38.023438 54.449219 40.574219 55.648438 42.449219 58.050781 L 39.074219 61.273438 C 37.800781 59.699219 36.523438 58.949219 34.875 58.949219 C 31.800781 58.949219 29.699219 61.5 29.699219 65.476562 C 29.699219 69.375 31.800781 72 34.875 72 C 36.523438 72 37.875 71.25 39.226562 69.675781 Z M 42.300781 73.125 "/>
<path fill-rule="nonzero" fill="rgb(100%, 100%, 100%)" fill-opacity="1" d="M 64.726562 76.050781 L 59.851562 76.050781 L 59.851562 64.050781 C 59.851562 60.976562 58.875 58.949219 55.949219 58.949219 C 52.574219 58.949219 51.601562 61.648438 51.601562 64.050781 L 51.601562 76.050781 L 46.726562 76.050781 L 46.726562 46.574219 L 51.601562 45.375 L 51.601562 57.601562 L 51.675781 57.601562 C 52.875 55.726562 55.050781 54.523438 57.824219 54.523438 C 62.699219 54.523438 64.726562 58.125 64.726562 63 Z M 64.726562 76.050781 "/>
<path fill-rule="nonzero" fill="rgb(100%, 100%, 100%)" fill-opacity="1" d="M 69.898438 65.476562 C 69.898438 58.875 73.949219 54.449219 80.101562 54.449219 C 86.175781 54.449219 90.148438 58.800781 90.148438 65.476562 C 90.148438 72.074219 86.25 76.5 80.101562 76.5 C 74.023438 76.5 69.898438 72.148438 69.898438 65.476562 Z M 85.199219 65.550781 C 85.199219 61.5 83.175781 58.949219 79.949219 58.949219 C 76.726562 58.949219 74.699219 61.5 74.699219 65.476562 C 74.699219 69.523438 76.726562 72.148438 79.949219 72.148438 C 83.25 72.074219 85.199219 69.601562 85.199219 65.550781 Z M 85.199219 65.550781 "/>
<path fill-rule="nonzero" fill="rgb(100%, 100%, 100%)" fill-opacity="1" d="M 94.273438 65.476562 C 94.273438 58.875 98.324219 54.449219 104.476562 54.449219 C 110.550781 54.449219 114.523438 58.800781 114.523438 65.476562 C 114.523438 72.074219 110.625 76.5 104.476562 76.5 C 98.398438 76.5 94.273438 72.148438 94.273438 65.476562 Z M 109.648438 65.550781 C 109.648438 61.5 107.625 58.949219 104.398438 58.949219 C 101.175781 58.949219 99.148438 61.5 99.148438 65.476562 C 99.148438 69.523438 101.175781 72.148438 104.398438 72.148438 C 107.625 72.074219 109.648438 69.601562 109.648438 65.550781 Z M 109.648438 65.550781 "/>
<path fill-rule="nonzero" fill="rgb(100%, 100%, 100%)" fill-opacity="1" d="M 124.800781 76.050781 L 119.925781 76.050781 L 119.925781 46.5 L 124.800781 45.375 Z M 124.800781 76.050781 "/>
<path fill-rule="nonzero" fill="rgb(100%, 100%, 100%)" fill-opacity="1" d="M 142.425781 65.476562 C 142.425781 58.875 146.476562 54.449219 152.625 54.449219 C 158.699219 54.449219 162.675781 58.800781 162.675781 65.476562 C 162.675781 72.074219 158.773438 76.5 152.625 76.5 C 146.550781 76.5 142.425781 72.148438 142.425781 65.476562 Z M 157.800781 65.550781 C 157.800781 61.5 155.773438 58.949219 152.550781 58.949219 C 149.324219 58.949219 147.300781 61.5 147.300781 65.476562 C 147.300781 69.523438 149.324219 72.148438 152.550781 72.148438 C 155.773438 72.074219 157.800781 69.601562 157.800781 65.550781 Z M 157.800781 65.550781 "/>
<path fill-rule="nonzero" fill="rgb(100%, 100%, 100%)" fill-opacity="1" d="M 178.574219 49.648438 C 177.898438 49.351562 177.148438 49.273438 176.398438 49.273438 C 174.523438 49.273438 173.773438 50.25 173.773438 52.199219 L 173.773438 55.050781 L 177.976562 55.050781 L 177.976562 59.101562 L 173.851562 59.101562 L 173.851562 76.050781 L 168.976562 76.050781 L 168.976562 59.175781 L 165.75 59.175781 L 165.75 55.050781 L 168.976562 55.050781 L 168.976562 52.050781 C 168.976562 47.699219 170.925781 45.074219 175.648438 45.074219 C 176.699219 45.074219 177.75 45.226562 178.574219 45.523438 Z M 178.574219 49.648438 "/>
<path fill-rule="nonzero" fill="rgb(100%, 100%, 100%)" fill-opacity="1" d="M 215.851562 67.425781 C 215.851562 72.601562 212.023438 75.976562 205.726562 75.976562 L 194.851562 75.976562 L 194.851562 46.949219 L 205.574219 46.949219 C 211.425781 46.949219 214.726562 49.425781 214.726562 54.074219 C 214.726562 57.226562 213.226562 59.398438 210.375 60.375 L 210.375 60.449219 C 213.898438 61.351562 215.851562 63.675781 215.851562 67.425781 Z M 209.699219 54.976562 C 209.699219 52.648438 208.125 51.449219 205.050781 51.449219 L 199.949219 51.449219 L 199.949219 58.800781 L 205.351562 58.800781 C 208.125 58.800781 209.699219 57.300781 209.699219 54.976562 Z M 210.75 67.125 C 210.75 64.351562 208.875 62.925781 205.125 62.925781 L 200.023438 62.925781 L 200.023438 71.550781 L 205.5 71.550781 C 208.800781 71.550781 210.75 69.898438 210.75 67.125 Z M 210.75 67.125 "/>
<path fill-rule="nonzero" fill="rgb(100%, 100%, 100%)" fill-opacity="1" d="M 226.199219 67.648438 C 226.199219 70.5 227.625 72.074219 230.398438 72.074219 C 233.101562 72.074219 234.449219 70.574219 234.449219 67.648438 L 234.449219 55.050781 L 239.324219 55.050781 L 239.324219 67.800781 C 239.324219 73.351562 236.25 76.574219 230.476562 76.574219 C 224.773438 76.574219 221.25 73.351562 221.25 67.875 L 221.25 55.125 L 226.125 55.125 L 226.125 67.648438 Z M 226.199219 67.648438 "/>
<path fill-rule="nonzero" fill="rgb(100%, 100%, 100%)" fill-opacity="1" d="M 245.851562 70.050781 C 247.949219 71.625 249.898438 72.375 251.773438 72.375 C 253.574219 72.375 254.851562 71.550781 254.851562 70.273438 C 254.851562 66.675781 244.351562 67.949219 244.351562 60.976562 C 244.351562 57.074219 247.574219 54.449219 252.300781 54.449219 C 254.851562 54.449219 257.324219 55.199219 259.574219 56.625 L 257.25 60.449219 C 255.449219 59.25 253.800781 58.574219 252.226562 58.574219 C 250.425781 58.574219 249.226562 59.324219 249.226562 60.523438 C 249.226562 63.976562 259.726562 62.773438 259.726562 69.824219 C 259.726562 73.800781 256.5 76.5 251.625 76.5 C 248.851562 76.5 246 75.601562 243.523438 73.949219 Z M 245.851562 70.050781 "/>
<path fill-rule="nonzero" fill="rgb(100%, 100%, 100%)" fill-opacity="1" d="M 270.449219 48.675781 C 270.449219 50.398438 269.023438 51.675781 267.300781 51.675781 C 265.574219 51.675781 264.226562 50.476562 264.226562 48.675781 C 264.226562 46.949219 265.648438 45.675781 267.300781 45.675781 C 269.023438 45.675781 270.449219 46.949219 270.449219 48.675781 Z M 269.773438 76.050781 L 264.898438 76.050781 L 264.898438 55.050781 L 269.773438 55.050781 Z M 269.773438 76.050781 "/>
<path fill-rule="nonzero" fill="rgb(100%, 100%, 100%)" fill-opacity="1" d="M 294.300781 76.050781 L 289.425781 76.050781 L 289.425781 64.050781 C 289.425781 60.976562 288.523438 58.949219 285.523438 58.949219 C 282.074219 58.949219 281.175781 61.726562 281.175781 64.050781 L 281.175781 76.050781 L 276.300781 76.050781 L 276.300781 55.050781 L 281.175781 55.050781 L 281.175781 57.601562 L 281.25 57.601562 C 282.523438 55.726562 284.699219 54.523438 287.398438 54.523438 C 292.199219 54.523438 294.300781 58.050781 294.300781 63 Z M 294.300781 76.050781 "/>
<path fill-rule="nonzero" fill="rgb(100%, 100%, 100%)" fill-opacity="1" d="M 309.824219 76.5 C 303.601562 76.5 299.398438 72.074219 299.398438 65.476562 C 299.398438 58.949219 303.375 54.523438 309.226562 54.523438 C 314.851562 54.523438 318.523438 58.726562 318.523438 65.175781 C 318.523438 65.851562 318.449219 66.601562 318.449219 67.199219 L 304.351562 67.199219 C 304.875 70.425781 306.824219 72.300781 309.824219 72.300781 C 311.773438 72.300781 313.351562 71.550781 315 69.824219 L 318.074219 73.050781 C 315.675781 75.375 312.976562 76.5 309.824219 76.5 Z M 304.351562 63.601562 L 313.875 63.601562 C 313.648438 60.375 312 58.5 309.226562 58.5 C 306.449219 58.5 304.726562 60.375 304.351562 63.601562 Z M 304.351562 63.601562 "/>
<path fill-rule="nonzero" fill="rgb(100%, 100%, 100%)" fill-opacity="1" d="M 324.300781 70.050781 C 326.398438 71.625 328.351562 72.375 330.226562 72.375 C 332.023438 72.375 333.300781 71.550781 333.300781 70.273438 C 333.300781 66.675781 322.800781 67.949219 322.800781 60.976562 C 322.800781 57.074219 326.023438 54.449219 330.75 54.449219 C 333.300781 54.449219 335.773438 55.199219 338.023438 56.625 L 335.699219 60.449219 C 333.898438 59.25 332.25 58.574219 330.675781 58.574219 C 328.875 58.574219 327.675781 59.324219 327.675781 60.523438 C 327.675781 63.976562 338.175781 62.773438 338.175781 69.824219 C 338.175781 73.800781 334.949219 76.5 330.074219 76.5 C 327.300781 76.5 324.449219 75.601562 321.976562 73.949219 Z M 324.300781 70.050781 "/>
<path fill-rule="nonzero" fill="rgb(100%, 100%, 100%)" fill-opacity="1" d="M 343.726562 70.050781 C 345.824219 71.625 347.773438 72.375 349.648438 72.375 C 351.449219 72.375 352.726562 71.550781 352.726562 70.273438 C 352.726562 66.675781 342.226562 67.949219 342.226562 60.976562 C 342.226562 57.074219 345.449219 54.449219 350.175781 54.449219 C 352.726562 54.449219 355.199219 55.199219 357.449219 56.625 L 355.125 60.449219 C 353.324219 59.25 351.675781 58.574219 350.101562 58.574219 C 348.300781 58.574219 347.101562 59.324219 347.101562 60.523438 C 347.101562 63.976562 357.601562 62.773438 357.601562 69.824219 C 357.601562 73.800781 354.375 76.5 349.5 76.5 C 346.726562 76.5 343.875 75.601562 341.398438 73.949219 Z M 343.726562 70.050781 "/>
<path fill-rule="nonzero" fill="rgb(100%, 100%, 100%)" fill-opacity="1" d="M 368.699219 70.125 L 364.800781 81.148438 L 361.425781 81.148438 L 363.226562 70.125 Z M 368.699219 70.125 "/>
<path fill-rule="nonzero" fill="rgb(100%, 100%, 100%)" fill-opacity="1" d="M 21.074219 121.425781 L 2.101562 121.425781 L 2.101562 92.398438 L 20.550781 92.398438 L 20.550781 97.125 L 7.273438 97.125 L 7.273438 104.023438 L 17.398438 104.023438 L 17.398438 108.675781 L 7.273438 108.675781 L 7.273438 116.699219 L 21.148438 116.699219 L 21.148438 121.425781 Z M 21.074219 121.425781 "/>
<path fill-rule="nonzero" fill="rgb(100%, 100%, 100%)" fill-opacity="1" d="M 42.449219 118.5 C 40.351562 120.824219 37.949219 121.875 34.949219 121.875 C 28.949219 121.875 24.898438 117.523438 24.898438 110.925781 C 24.898438 104.324219 28.949219 99.824219 35.023438 99.824219 C 38.175781 99.824219 40.726562 101.023438 42.601562 103.425781 L 39.226562 106.648438 C 38.023438 105.074219 36.675781 104.324219 35.023438 104.324219 C 31.949219 104.324219 29.851562 106.875 29.851562 110.851562 C 29.851562 114.75 31.949219 117.375 35.023438 117.375 C 36.675781 117.375 38.023438 116.625 39.375 115.050781 Z M 42.449219 118.5 "/>
<path fill-rule="nonzero" fill="rgb(100%, 100%, 100%)" fill-opacity="1" d="M 45.226562 110.851562 C 45.226562 104.25 49.273438 99.824219 55.425781 99.824219 C 61.5 99.824219 65.476562 104.175781 65.476562 110.851562 C 65.476562 117.449219 61.574219 121.875 55.425781 121.875 C 49.351562 121.875 45.226562 117.523438 45.226562 110.851562 Z M 60.601562 110.925781 C 60.601562 106.875 58.574219 104.324219 55.351562 104.324219 C 52.125 104.324219 50.101562 106.875 50.101562 110.851562 C 50.101562 114.898438 52.125 117.523438 55.351562 117.523438 C 58.648438 117.449219 60.601562 114.976562 60.601562 110.925781 Z M 60.601562 110.925781 "/>
<path fill-rule="nonzero" fill="rgb(100%, 100%, 100%)" fill-opacity="1" d="M 88.875 121.425781 L 84 121.425781 L 84 109.425781 C 84 106.351562 83.101562 104.324219 80.101562 104.324219 C 76.648438 104.324219 75.75 107.101562 75.75 109.425781 L 75.75 121.5 L 70.875 121.5 L 70.875 100.5 L 75.75 100.5 L 75.75 103.050781 L 75.824219 103.050781 C 77.023438 101.175781 79.273438 99.976562 81.976562 99.976562 C 86.773438 99.976562 88.875 103.5 88.875 108.449219 Z M 88.875 121.425781 "/>
<path fill-rule="nonzero" fill="rgb(100%, 100%, 100%)" fill-opacity="1" d="M 93.976562 110.851562 C 93.976562 104.25 98.023438 99.824219 104.175781 99.824219 C 110.25 99.824219 114.226562 104.175781 114.226562 110.851562 C 114.226562 117.449219 110.324219 121.875 104.175781 121.875 C 98.101562 121.875 93.976562 117.523438 93.976562 110.851562 Z M 109.351562 110.925781 C 109.351562 106.875 107.324219 104.324219 104.101562 104.324219 C 100.875 104.324219 98.851562 106.875 98.851562 110.851562 C 98.851562 114.898438 100.875 117.523438 104.101562 117.523438 C 107.324219 117.449219 109.351562 114.976562 109.351562 110.925781 Z M 109.351562 110.925781 "/>
<path fill-rule="nonzero" fill="rgb(100%, 100%, 100%)" fill-opacity="1" d="M 119.476562 100.425781 L 124.351562 100.425781 L 124.351562 102.976562 L 124.425781 102.976562 C 125.625 101.023438 127.800781 99.898438 130.273438 99.898438 C 133.050781 99.898438 134.925781 101.25 135.824219 103.5 C 137.398438 101.101562 139.5 99.898438 142.351562 99.898438 C 147.148438 99.898438 149.324219 103.273438 149.324219 108.375 L 149.324219 121.425781 L 144.449219 121.425781 L 144.449219 109.273438 C 144.449219 106.425781 143.699219 104.25 140.925781 104.25 C 137.699219 104.25 136.875 107.023438 136.875 109.273438 L 136.875 121.425781 L 132 121.425781 L 132 109.273438 C 132 106.425781 131.25 104.25 128.476562 104.25 C 125.324219 104.25 124.425781 107.023438 124.425781 109.273438 L 124.425781 121.425781 L 119.550781 121.425781 L 119.550781 100.425781 Z M 119.476562 100.425781 "/>
<path fill-rule="nonzero" fill="rgb(100%, 100%, 100%)" fill-opacity="1" d="M 161.175781 94.050781 C 161.175781 95.773438 159.75 97.050781 158.023438 97.050781 C 156.300781 97.050781 154.949219 95.851562 154.949219 94.050781 C 154.949219 92.324219 156.375 91.050781 158.023438 91.050781 C 159.824219 91.050781 161.175781 92.324219 161.175781 94.050781 Z M 160.574219 121.425781 L 155.699219 121.425781 L 155.699219 100.425781 L 160.574219 100.425781 Z M 160.574219 121.425781 "/>
<path fill-rule="nonzero" fill="rgb(100%, 100%, 100%)" fill-opacity="1" d="M 183.375 118.5 C 181.273438 120.824219 178.875 121.875 175.875 121.875 C 169.875 121.875 165.824219 117.523438 165.824219 110.925781 C 165.824219 104.324219 169.875 99.824219 175.949219 99.824219 C 179.101562 99.824219 181.648438 101.023438 183.523438 103.425781 L 180.148438 106.648438 C 178.949219 105.074219 177.601562 104.324219 175.949219 104.324219 C 172.875 104.324219 170.773438 106.875 170.773438 110.851562 C 170.773438 114.75 172.875 117.375 175.949219 117.375 C 177.601562 117.375 178.949219 116.625 180.300781 115.050781 Z M 183.375 118.5 "/>
<path fill-rule="nonzero" fill="rgb(100%, 100%, 100%)" fill-opacity="1" d="M 189 115.425781 C 191.101562 117 193.050781 117.75 194.925781 117.75 C 196.726562 117.75 198 116.925781 198 115.648438 C 198 112.050781 187.5 113.324219 187.5 106.351562 C 187.5 102.449219 190.726562 99.824219 195.449219 99.824219 C 198 99.824219 200.476562 100.574219 202.726562 102 L 200.398438 105.824219 C 198.601562 104.625 196.949219 103.949219 195.375 103.949219 C 193.574219 103.949219 192.375 104.699219 192.375 105.898438 C 192.375 109.351562 202.875 108.148438 202.875 115.199219 C 202.875 119.175781 199.648438 121.875 194.773438 121.875 C 192 121.875 189.148438 120.976562 186.675781 119.324219 Z M 189 115.425781 "/>
<path fill-rule="nonzero" fill="rgb(100%, 100%, 100%)" fill-opacity="1" d="M 228.074219 108.375 C 229.425781 108.375 230.699219 108.449219 232.050781 108.824219 L 232.050781 108.074219 C 232.050781 105.375 230.476562 104.023438 227.398438 104.023438 C 225.675781 104.023438 223.800781 104.398438 222.074219 105.226562 L 221.023438 101.101562 C 222.976562 100.351562 225.523438 99.898438 227.925781 99.898438 C 233.851562 99.898438 236.851562 102.675781 236.851562 108 L 236.851562 121.425781 L 232.199219 121.425781 L 232.199219 119.175781 L 232.125 119.175781 C 230.324219 121.050781 228.449219 121.875 225.976562 121.875 C 221.773438 121.875 219.074219 119.25 219.074219 115.199219 C 219.074219 110.773438 222.226562 108.375 228.074219 108.375 Z M 227.25 118.199219 C 229.050781 118.199219 230.699219 117.300781 232.050781 115.648438 L 232.050781 112.050781 C 230.925781 111.75 229.726562 111.675781 228.601562 111.675781 C 225.523438 111.675781 223.726562 112.875 223.726562 115.125 C 223.800781 117 225.148438 118.199219 227.25 118.199219 Z M 227.25 118.199219 "/>
<path fill-rule="nonzero" fill="rgb(100%, 100%, 100%)" fill-opacity="1" d="M 261.148438 121.425781 L 256.273438 121.425781 L 256.273438 109.425781 C 256.273438 106.351562 255.375 104.324219 252.375 104.324219 C 248.925781 104.324219 248.023438 107.101562 248.023438 109.425781 L 248.023438 121.5 L 243.148438 121.5 L 243.148438 100.5 L 248.023438 100.5 L 248.023438 103.050781 L 248.101562 103.050781 C 249.375 101.175781 251.550781 99.976562 254.25 99.976562 C 259.050781 99.976562 261.148438 103.5 261.148438 108.449219 Z M 261.148438 121.425781 "/>
<path fill-rule="nonzero" fill="rgb(100%, 100%, 100%)" fill-opacity="1" d="M 266.398438 110.851562 C 266.398438 104.101562 269.851562 99.898438 274.949219 99.898438 C 277.574219 99.898438 279.675781 101.023438 281.023438 102.75 L 281.101562 102.75 L 281.101562 91.949219 L 285.976562 90.75 L 285.976562 121.425781 L 281.25 121.425781 L 281.25 118.949219 L 281.175781 118.949219 C 279.675781 120.824219 277.5 121.949219 274.875 121.949219 C 269.851562 121.875 266.398438 117.601562 266.398438 110.851562 Z M 271.199219 110.851562 C 271.199219 115.125 273 117.601562 276.074219 117.601562 C 277.949219 117.601562 279.523438 116.699219 281.101562 114.824219 L 281.101562 107.175781 C 279.675781 105.300781 278.101562 104.398438 276.074219 104.398438 C 272.925781 104.324219 271.199219 106.648438 271.199219 110.851562 Z M 271.199219 110.851562 "/>
<path fill-rule="nonzero" fill="rgb(100%, 100%, 100%)" fill-opacity="1" d="M 306.148438 113.851562 C 308.324219 115.949219 310.949219 117.074219 313.351562 117.074219 C 316.050781 117.074219 318.074219 115.574219 318.074219 113.476562 C 318.074219 107.925781 303.824219 109.648438 303.824219 100.199219 C 303.824219 95.175781 307.875 91.800781 313.648438 91.800781 C 317.101562 91.800781 320.324219 93 323.023438 95.324219 L 319.800781 99.300781 C 317.699219 97.425781 315.601562 96.523438 313.425781 96.523438 C 310.875 96.523438 309 97.875 309 99.75 C 309 105 323.25 103.273438 323.25 113.023438 C 323.25 118.273438 319.199219 121.800781 313.199219 121.800781 C 309.375 121.800781 305.625 120.375 302.851562 117.824219 Z M 306.148438 113.851562 "/>
<path fill-rule="nonzero" fill="rgb(100%, 100%, 100%)" fill-opacity="1" d="M 327.601562 110.851562 C 327.601562 104.25 331.648438 99.824219 337.800781 99.824219 C 343.875 99.824219 347.851562 104.175781 347.851562 110.851562 C 347.851562 117.449219 343.949219 121.875 337.800781 121.875 C 331.726562 121.875 327.601562 117.523438 327.601562 110.851562 Z M 342.976562 110.925781 C 342.976562 106.875 340.949219 104.324219 337.726562 104.324219 C 334.5 104.324219 332.476562 106.875 332.476562 110.851562 C 332.476562 114.898438 334.5 117.523438 337.726562 117.523438 C 340.949219 117.449219 342.976562 114.976562 342.976562 110.925781 Z M 342.976562 110.925781 "/>
<path fill-rule="nonzero" fill="rgb(100%, 100%, 100%)" fill-opacity="1" d="M 369.601562 118.5 C 367.5 120.824219 365.101562 121.875 362.101562 121.875 C 356.101562 121.875 352.050781 117.523438 352.050781 110.925781 C 352.050781 104.324219 356.101562 99.824219 362.175781 99.824219 C 365.324219 99.824219 367.875 101.023438 369.75 103.425781 L 366.375 106.648438 C 365.175781 105.074219 363.824219 104.324219 362.175781 104.324219 C 359.101562 104.324219 357 106.875 357 110.851562 C 357 114.75 359.101562 117.375 362.175781 117.375 C 363.824219 117.375 365.175781 116.625 366.523438 115.050781 Z M 369.601562 118.5 "/>
<path fill-rule="nonzero" fill="rgb(100%, 100%, 100%)" fill-opacity="1" d="M 379.5 94.050781 C 379.5 95.773438 378.074219 97.050781 376.351562 97.050781 C 374.625 97.050781 373.273438 95.851562 373.273438 94.050781 C 373.273438 92.324219 374.699219 91.050781 376.351562 91.050781 C 378.148438 91.050781 379.5 92.324219 379.5 94.050781 Z M 378.898438 121.425781 L 374.023438 121.425781 L 374.023438 100.425781 L 378.898438 100.425781 Z M 378.898438 121.425781 "/>
<path fill-rule="nonzero" fill="rgb(100%, 100%, 100%)" fill-opacity="1" d="M 394.425781 121.875 C 388.199219 121.875 384 117.449219 384 110.851562 C 384 104.324219 387.976562 99.898438 393.824219 99.898438 C 399.449219 99.898438 403.125 104.101562 403.125 110.550781 C 403.125 111.226562 403.050781 111.976562 403.050781 112.574219 L 388.949219 112.574219 C 389.476562 115.800781 391.425781 117.675781 394.425781 117.675781 C 396.375 117.675781 397.949219 116.925781 399.601562 115.199219 L 402.675781 118.425781 C 400.273438 120.75 397.648438 121.875 394.425781 121.875 Z M 388.949219 108.976562 L 398.476562 108.976562 C 398.25 105.75 396.601562 103.875 393.824219 103.875 C 391.125 103.875 389.398438 105.75 388.949219 108.976562 Z M 388.949219 108.976562 "/>
<path fill-rule="nonzero" fill="rgb(100%, 100%, 100%)" fill-opacity="1" d="M 419.324219 116.925781 L 419.324219 121.125 C 418.273438 121.648438 416.625 121.875 415.199219 121.875 C 411.523438 121.875 409.5 119.773438 409.5 115.949219 L 409.5 104.476562 L 406.273438 104.476562 L 406.273438 100.425781 L 409.425781 100.425781 L 409.425781 94.726562 L 414.300781 93.675781 L 414.300781 100.5 L 419.324219 100.5 L 419.324219 104.550781 L 414.300781 104.550781 L 414.300781 114.898438 C 414.300781 116.851562 414.976562 117.675781 416.550781 117.675781 C 417.523438 117.601562 418.5 117.300781 419.324219 116.925781 Z M 419.324219 116.925781 "/>
<g clip-path="url(#clip-1)">
<path fill-rule="nonzero" fill="rgb(100%, 100%, 100%)" fill-opacity="1" d="M 443.324219 100.425781 L 432.601562 129.523438 L 427.273438 129.523438 L 430.5 120.898438 L 422.699219 100.425781 L 428.101562 100.425781 L 433.125 115.648438 L 433.199219 115.648438 L 438 100.425781 Z M 443.324219 100.425781 "/>
</g>
</svg>
