<?xml version="1.0" encoding="UTF-8"?>
<svg xmlns="http://www.w3.org/2000/svg" xmlns:xlink="http://www.w3.org/1999/xlink" width="606.974976" height="129.899994" viewBox="0 0 606.974976 129.899994">
<defs>
<clipPath id="clip-0">
<path clip-rule="nonzero" d="M 593 2 L 606.976562 2 L 606.976562 32 L 593 32 Z M 593 2 "/>
</clipPath>
<clipPath id="clip-1">
<path clip-rule="nonzero" d="M 423 89 L 427 89 L 427 129.898438 L 423 129.898438 Z M 423 89 "/>
</clipPath>
</defs>
<path fill-rule="nonzero" fill="rgb(1.568604%, 19.215393%, 41.567993%)" fill-opacity="1" d="M 20.398438 6.375 L 7.273438 6.375 L 7.273438 13.574219 L 17.023438 13.574219 L 17.023438 18.300781 L 7.273438 18.300781 L 7.273438 30.675781 L 2.101562 30.675781 L 2.101562 1.574219 L 20.324219 1.574219 L 20.324219 6.375 Z M 20.398438 6.375 "/>
<path fill-rule="nonzero" fill="rgb(1.568604%, 19.215393%, 41.567993%)" fill-opacity="1" d="M 35.851562 9.523438 L 35.101562 14.550781 C 34.351562 14.175781 33.449219 13.875 32.398438 13.875 C 29.023438 13.875 28.125 16.574219 28.125 19.800781 L 28.125 30.601562 L 23.25 30.601562 L 23.25 9.601562 L 28.050781 9.601562 L 28.050781 12.300781 L 28.125 12.300781 C 29.25 10.351562 31.199219 9.148438 33.601562 9.148438 C 34.273438 9.074219 35.101562 9.226562 35.851562 9.523438 Z M 35.851562 9.523438 "/>
<path fill-rule="nonzero" fill="rgb(1.568604%, 19.215393%, 41.567993%)" fill-opacity="1" d="M 45.601562 3.300781 C 45.601562 5.023438 44.175781 6.300781 42.449219 6.300781 C 40.726562 6.300781 39.375 5.101562 39.375 3.300781 C 39.375 1.574219 40.800781 0.300781 42.449219 0.300781 C 44.175781 0.300781 45.601562 1.574219 45.601562 3.300781 Z M 44.925781 30.675781 L 40.050781 30.675781 L 40.050781 9.675781 L 44.925781 9.675781 Z M 44.925781 30.675781 "/>
<path fill-rule="nonzero" fill="rgb(1.568604%, 19.215393%, 41.567993%)" fill-opacity="1" d="M 60.523438 31.125 C 54.300781 31.125 50.101562 26.699219 50.101562 20.101562 C 50.101562 13.574219 54.074219 9.148438 59.925781 9.148438 C 65.550781 9.148438 69.226562 13.351562 69.226562 19.800781 C 69.226562 20.476562 69.148438 21.226562 69.148438 21.824219 L 55.050781 21.824219 C 55.574219 25.050781 57.523438 26.925781 60.523438 26.925781 C 62.476562 26.925781 64.050781 26.175781 65.699219 24.449219 L 68.773438 27.675781 C 66.375 30 63.675781 31.125 60.523438 31.125 Z M 54.976562 18.226562 L 64.5 18.226562 C 64.273438 15 62.625 13.125 59.851562 13.125 C 57.148438 13.125 55.425781 15 54.976562 18.226562 Z M 54.976562 18.226562 "/>
<path fill-rule="nonzero" fill="rgb(1.568604%, 19.215393%, 41.567993%)" fill-opacity="1" d="M 73.574219 20.101562 C 73.574219 13.351562 77.023438 9.148438 82.125 9.148438 C 84.75 9.148438 86.851562 10.273438 88.199219 12 L 88.273438 12 L 88.273438 1.199219 L 93.148438 0 L 93.148438 30.675781 L 88.351562 30.675781 L 88.351562 28.199219 L 88.273438 28.199219 C 86.773438 30.074219 84.601562 31.199219 81.976562 31.199219 C 77.023438 31.125 73.574219 26.851562 73.574219 20.101562 Z M 78.375 20.101562 C 78.375 24.375 80.175781 26.851562 83.25 26.851562 C 85.125 26.851562 86.699219 25.949219 88.273438 24.074219 L 88.273438 16.351562 C 86.851562 14.476562 85.273438 13.574219 83.25 13.574219 C 80.101562 13.574219 78.375 15.898438 78.375 20.101562 Z M 78.375 20.101562 "/>
<path fill-rule="nonzero" fill="rgb(1.568604%, 19.215393%, 41.567993%)" fill-opacity="1" d="M 112.273438 9.523438 L 111.523438 14.550781 C 110.773438 14.175781 109.875 13.875 108.824219 13.875 C 105.449219 13.875 104.550781 16.574219 104.550781 19.800781 L 104.550781 30.601562 L 99.675781 30.601562 L 99.675781 9.601562 L 104.476562 9.601562 L 104.476562 12.300781 L 104.550781 12.300781 C 105.675781 10.351562 107.625 9.148438 110.023438 9.148438 C 110.699219 9.074219 111.523438 9.226562 112.273438 9.523438 Z M 112.273438 9.523438 "/>
<path fill-rule="nonzero" fill="rgb(1.568604%, 19.215393%, 41.567993%)" fill-opacity="1" d="M 121.949219 3.300781 C 121.949219 5.023438 120.523438 6.300781 118.800781 6.300781 C 117.074219 6.300781 115.726562 5.101562 115.726562 3.300781 C 115.726562 1.574219 117.148438 0.300781 118.800781 0.300781 C 120.601562 0.300781 121.949219 1.574219 121.949219 3.300781 Z M 121.351562 30.675781 L 116.476562 30.675781 L 116.476562 9.675781 L 121.351562 9.675781 Z M 121.351562 30.675781 "/>
<path fill-rule="nonzero" fill="rgb(1.568604%, 19.215393%, 41.567993%)" fill-opacity="1" d="M 144.148438 27.75 C 142.050781 30.074219 139.648438 31.125 136.648438 31.125 C 130.648438 31.125 126.601562 26.773438 126.601562 20.175781 C 126.601562 13.574219 130.648438 9.074219 136.726562 9.074219 C 139.875 9.074219 142.425781 10.273438 144.300781 12.675781 L 140.925781 15.898438 C 139.726562 14.324219 138.375 13.574219 136.726562 13.574219 C 133.648438 13.574219 131.550781 16.125 131.550781 20.101562 C 131.550781 24 133.648438 26.625 136.726562 26.625 C 138.375 26.625 139.726562 25.875 141.074219 24.300781 Z M 144.148438 27.75 "/>
<path fill-rule="nonzero" fill="rgb(1.568604%, 19.215393%, 41.567993%)" fill-opacity="1" d="M 166.574219 30.675781 L 161.699219 30.675781 L 161.699219 18.675781 C 161.699219 15.601562 160.726562 13.574219 157.800781 13.574219 C 154.425781 13.574219 153.449219 16.273438 153.449219 18.675781 L 153.449219 30.75 L 148.5 30.75 L 148.5 1.199219 L 153.375 0 L 153.375 12.226562 L 153.449219 12.226562 C 154.648438 10.351562 156.824219 9.148438 159.601562 9.148438 C 164.476562 9.148438 166.5 12.75 166.5 17.625 L 166.5 30.675781 Z M 166.574219 30.675781 "/>
<path fill-rule="nonzero" fill="rgb(1.568604%, 19.215393%, 41.567993%)" fill-opacity="1" d="M 172.199219 15.449219 L 182.476562 15.449219 L 182.476562 20.101562 L 172.199219 20.101562 Z M 172.199219 15.449219 "/>
<path fill-rule="nonzero" fill="rgb(1.568604%, 19.215393%, 41.567993%)" fill-opacity="1" d="M 195.824219 1.574219 L 201.300781 1.574219 L 212.101562 30.601562 L 206.476562 30.601562 L 204.375 24.449219 L 192.675781 24.449219 L 190.574219 30.601562 L 185.101562 30.601562 Z M 194.25 19.800781 L 202.726562 19.800781 L 198.523438 7.5 L 198.449219 7.5 Z M 194.25 19.800781 "/>
<path fill-rule="nonzero" fill="rgb(1.568604%, 19.215393%, 41.567993%)" fill-opacity="1" d="M 221.324219 30.675781 L 216.449219 30.675781 L 216.449219 1.125 L 221.324219 0 Z M 221.324219 30.675781 "/>
<path fill-rule="nonzero" fill="rgb(1.568604%, 19.215393%, 41.567993%)" fill-opacity="1" d="M 237 31.125 C 230.773438 31.125 226.574219 26.699219 226.574219 20.101562 C 226.574219 13.574219 230.550781 9.148438 236.398438 9.148438 C 242.023438 9.148438 245.699219 13.351562 245.699219 19.800781 C 245.699219 20.476562 245.625 21.226562 245.625 21.824219 L 231.523438 21.824219 C 232.050781 25.050781 234 26.925781 237 26.925781 C 238.949219 26.925781 240.523438 26.175781 242.175781 24.449219 L 245.25 27.675781 C 242.851562 30 240.226562 31.125 237 31.125 Z M 231.523438 18.226562 L 241.050781 18.226562 C 240.824219 15 239.175781 13.125 236.398438 13.125 C 233.699219 13.125 231.976562 15 231.523438 18.226562 Z M 231.523438 18.226562 "/>
<path fill-rule="nonzero" fill="rgb(1.568604%, 19.215393%, 41.567993%)" fill-opacity="1" d="M 268.5 30.675781 L 262.875 30.675781 L 258.375 23.398438 L 258.300781 23.398438 L 253.949219 30.675781 L 248.398438 30.675781 L 255.601562 19.800781 L 248.925781 9.675781 L 254.476562 9.675781 L 258.449219 16.125 L 258.523438 16.125 L 262.425781 9.675781 L 267.898438 9.675781 L 261.300781 19.726562 Z M 268.5 30.675781 "/>
<path fill-rule="nonzero" fill="rgb(1.568604%, 19.215393%, 41.567993%)" fill-opacity="1" d="M 280.125 17.625 C 281.476562 17.625 282.75 17.699219 284.101562 18.074219 L 284.101562 17.324219 C 284.101562 14.625 282.523438 13.273438 279.449219 13.273438 C 277.726562 13.273438 275.851562 13.648438 274.125 14.476562 L 273.074219 10.351562 C 275.023438 9.601562 277.574219 9.148438 279.976562 9.148438 C 285.898438 9.148438 288.898438 11.925781 288.898438 17.25 L 288.898438 30.675781 L 284.25 30.675781 L 284.25 28.425781 L 284.175781 28.425781 C 282.375 30.300781 280.5 31.125 278.023438 31.125 C 273.824219 31.125 271.125 28.5 271.125 24.449219 C 271.050781 20.023438 274.199219 17.625 280.125 17.625 Z M 279.300781 27.449219 C 281.101562 27.449219 282.75 26.550781 284.101562 24.898438 L 284.101562 21.300781 C 282.976562 21 281.773438 20.925781 280.648438 20.925781 C 277.574219 20.925781 275.773438 22.125 275.773438 24.375 C 275.773438 26.25 277.125 27.449219 279.300781 27.449219 Z M 279.300781 27.449219 "/>
<path fill-rule="nonzero" fill="rgb(1.568604%, 19.215393%, 41.567993%)" fill-opacity="1" d="M 313.199219 30.675781 L 308.25 30.675781 L 308.25 18.675781 C 308.25 15.601562 307.351562 13.574219 304.351562 13.574219 C 300.898438 13.574219 300 16.351562 300 18.675781 L 300 30.75 L 295.125 30.75 L 295.125 9.75 L 300 9.75 L 300 12.300781 L 300.074219 12.300781 C 301.351562 10.425781 303.523438 9.226562 306.226562 9.226562 C 311.023438 9.226562 313.125 12.75 313.125 17.699219 L 313.125 30.675781 Z M 313.199219 30.675781 "/>
<path fill-rule="nonzero" fill="rgb(1.568604%, 19.215393%, 41.567993%)" fill-opacity="1" d="M 318.375 20.101562 C 318.375 13.351562 321.824219 9.148438 326.925781 9.148438 C 329.550781 9.148438 331.648438 10.273438 333 12 L 333.074219 12 L 333.074219 1.199219 L 337.949219 0 L 337.949219 30.675781 L 333.148438 30.675781 L 333.148438 28.199219 L 333.074219 28.199219 C 331.574219 30.074219 329.398438 31.199219 326.773438 31.199219 C 321.824219 31.125 318.375 26.851562 318.375 20.101562 Z M 323.25 20.101562 C 323.25 24.375 325.050781 26.851562 328.125 26.851562 C 330 26.851562 331.574219 25.949219 333.148438 24.074219 L 333.148438 16.351562 C 331.726562 14.476562 330.148438 13.574219 328.125 13.574219 C 324.898438 13.574219 323.25 15.898438 323.25 20.101562 Z M 323.25 20.101562 "/>
<path fill-rule="nonzero" fill="rgb(1.568604%, 19.215393%, 41.567993%)" fill-opacity="1" d="M 353.699219 31.125 C 347.476562 31.125 343.273438 26.699219 343.273438 20.101562 C 343.273438 13.574219 347.25 9.148438 353.101562 9.148438 C 358.726562 9.148438 362.398438 13.351562 362.398438 19.800781 C 362.398438 20.476562 362.324219 21.226562 362.324219 21.824219 L 348.226562 21.824219 C 348.75 25.050781 350.699219 26.925781 353.699219 26.925781 C 355.648438 26.925781 357.226562 26.175781 358.875 24.449219 L 361.949219 27.675781 C 359.550781 30 356.851562 31.125 353.699219 31.125 Z M 348.226562 18.226562 L 357.75 18.226562 C 357.523438 15 355.875 13.125 353.101562 13.125 C 350.398438 13.125 348.601562 15 348.226562 18.226562 Z M 348.226562 18.226562 "/>
<path fill-rule="nonzero" fill="rgb(1.568604%, 19.215393%, 41.567993%)" fill-opacity="1" d="M 380.550781 9.523438 L 379.800781 14.550781 C 379.050781 14.175781 378.148438 13.875 377.101562 13.875 C 373.726562 13.875 372.824219 16.574219 372.824219 19.800781 L 372.824219 30.601562 L 367.949219 30.601562 L 367.949219 9.601562 L 372.75 9.601562 L 372.75 12.300781 L 372.824219 12.300781 C 373.949219 10.351562 375.898438 9.148438 378.300781 9.148438 C 378.976562 9.074219 379.800781 9.226562 380.550781 9.523438 Z M 380.550781 9.523438 "/>
<path fill-rule="nonzero" fill="rgb(1.568604%, 19.215393%, 41.567993%)" fill-opacity="1" d="M 383.625 15.449219 L 393.898438 15.449219 L 393.898438 20.101562 L 383.625 20.101562 Z M 383.625 15.449219 "/>
<path fill-rule="nonzero" fill="rgb(1.568604%, 19.215393%, 41.567993%)" fill-opacity="1" d="M 422.851562 19.125 C 422.851562 26.101562 419.25 31.125 411.449219 31.125 C 403.726562 31.125 400.125 26.175781 400.125 19.125 L 400.125 1.574219 L 405.375 1.574219 L 405.375 18.824219 C 405.375 23.175781 407.25 26.175781 411.523438 26.175781 C 415.800781 26.175781 417.523438 23.25 417.523438 18.824219 L 417.523438 1.574219 L 422.773438 1.574219 L 422.773438 19.125 Z M 422.851562 19.125 "/>
<path fill-rule="nonzero" fill="rgb(1.568604%, 19.215393%, 41.567993%)" fill-opacity="1" d="M 447.449219 30.675781 L 442.574219 30.675781 L 442.574219 18.675781 C 442.574219 15.601562 441.675781 13.574219 438.675781 13.574219 C 435.226562 13.574219 434.324219 16.351562 434.324219 18.675781 L 434.324219 30.75 L 429.449219 30.75 L 429.449219 9.75 L 434.324219 9.75 L 434.324219 12.300781 L 434.398438 12.300781 C 435.675781 10.425781 437.851562 9.226562 440.550781 9.226562 C 445.351562 9.226562 447.449219 12.75 447.449219 17.699219 Z M 447.449219 30.675781 "/>
<path fill-rule="nonzero" fill="rgb(1.568604%, 19.215393%, 41.567993%)" fill-opacity="1" d="M 459.226562 3.300781 C 459.226562 5.023438 457.800781 6.300781 456.074219 6.300781 C 454.351562 6.300781 453 5.101562 453 3.300781 C 453 1.574219 454.425781 0.300781 456.074219 0.300781 C 457.800781 0.300781 459.226562 1.574219 459.226562 3.300781 Z M 458.550781 30.675781 L 453.675781 30.675781 L 453.675781 9.675781 L 458.550781 9.675781 Z M 458.550781 30.675781 "/>
<path fill-rule="nonzero" fill="rgb(1.568604%, 19.215393%, 41.567993%)" fill-opacity="1" d="M 483.074219 9.675781 L 475.425781 30.675781 L 470.324219 30.675781 L 462.675781 9.675781 L 468.074219 9.675781 L 472.875 24.898438 L 472.949219 24.898438 L 477.75 9.675781 Z M 483.074219 9.675781 "/>
<path fill-rule="nonzero" fill="rgb(1.568604%, 19.215393%, 41.567993%)" fill-opacity="1" d="M 495.75 31.125 C 489.523438 31.125 485.324219 26.699219 485.324219 20.101562 C 485.324219 13.574219 489.300781 9.148438 495.148438 9.148438 C 500.773438 9.148438 504.449219 13.351562 504.449219 19.800781 C 504.449219 20.476562 504.375 21.226562 504.375 21.824219 L 490.273438 21.824219 C 490.800781 25.050781 492.75 26.925781 495.75 26.925781 C 497.699219 26.925781 499.273438 26.175781 500.925781 24.449219 L 504 27.675781 C 501.601562 30 498.976562 31.125 495.75 31.125 Z M 490.273438 18.226562 L 499.800781 18.226562 C 499.574219 15 497.925781 13.125 495.148438 13.125 C 492.449219 13.125 490.726562 15 490.273438 18.226562 Z M 490.273438 18.226562 "/>
<path fill-rule="nonzero" fill="rgb(1.568604%, 19.215393%, 41.567993%)" fill-opacity="1" d="M 522.601562 9.523438 L 521.851562 14.550781 C 521.101562 14.175781 520.199219 13.875 519.148438 13.875 C 515.773438 13.875 514.875 16.574219 514.875 19.800781 L 514.875 30.601562 L 510 30.601562 L 510 9.601562 L 514.800781 9.601562 L 514.800781 12.300781 L 514.875 12.300781 C 516 10.351562 517.949219 9.148438 520.351562 9.148438 C 521.023438 9.074219 521.851562 9.226562 522.601562 9.523438 Z M 522.601562 9.523438 "/>
<path fill-rule="nonzero" fill="rgb(1.568604%, 19.215393%, 41.567993%)" fill-opacity="1" d="M 527.25 24.675781 C 529.351562 26.25 531.300781 27 533.175781 27 C 534.976562 27 536.25 26.175781 536.25 24.898438 C 536.25 21.300781 525.75 22.574219 525.75 15.601562 C 525.75 11.699219 528.976562 9.074219 533.699219 9.074219 C 536.25 9.074219 538.726562 9.824219 540.976562 11.25 L 538.648438 15.074219 C 536.851562 13.875 535.199219 13.199219 533.625 13.199219 C 531.824219 13.199219 530.625 13.949219 530.625 15.148438 C 530.625 18.601562 541.125 17.398438 541.125 24.449219 C 541.125 28.425781 537.898438 31.125 533.023438 31.125 C 530.25 31.125 527.398438 30.226562 524.925781 28.574219 Z M 527.25 24.675781 "/>
<path fill-rule="nonzero" fill="rgb(1.568604%, 19.215393%, 41.567993%)" fill-opacity="1" d="M 551.925781 3.300781 C 551.925781 5.023438 550.5 6.300781 548.773438 6.300781 C 547.050781 6.300781 545.699219 5.101562 545.699219 3.300781 C 545.699219 1.574219 547.125 0.300781 548.773438 0.300781 C 550.5 0.300781 551.925781 1.574219 551.925781 3.300781 Z M 551.25 30.675781 L 546.375 30.675781 L 546.375 9.675781 L 551.25 9.675781 Z M 551.25 30.675781 "/>
<path fill-rule="nonzero" fill="rgb(1.568604%, 19.215393%, 41.567993%)" fill-opacity="1" d="M 568.5 26.175781 L 568.5 30.375 C 567.449219 30.898438 565.800781 31.125 564.375 31.125 C 560.699219 31.125 558.675781 29.023438 558.675781 25.199219 L 558.675781 13.726562 L 555.449219 13.726562 L 555.449219 9.675781 L 558.601562 9.675781 L 558.601562 3.976562 L 563.476562 2.925781 L 563.476562 9.75 L 568.5 9.75 L 568.5 13.800781 L 563.476562 13.800781 L 563.476562 24.148438 C 563.476562 26.101562 564.148438 26.925781 565.726562 26.925781 C 566.625 26.851562 567.675781 26.550781 568.5 26.175781 Z M 568.5 26.175781 "/>
<path fill-rule="nonzero" fill="rgb(1.568604%, 19.215393%, 41.567993%)" fill-opacity="1" d="M 581.324219 17.625 C 582.675781 17.625 583.949219 17.699219 585.300781 18.074219 L 585.300781 17.324219 C 585.300781 14.625 583.726562 13.273438 580.648438 13.273438 C 578.925781 13.273438 577.050781 13.648438 575.324219 14.476562 L 574.273438 10.351562 C 576.226562 9.601562 578.773438 9.148438 581.175781 9.148438 C 587.101562 9.148438 590.101562 11.925781 590.101562 17.25 L 590.101562 30.675781 L 585.449219 30.675781 L 585.449219 28.425781 L 585.375 28.425781 C 583.574219 30.300781 581.699219 31.125 579.226562 31.125 C 575.023438 31.125 572.324219 28.5 572.324219 24.449219 C 572.324219 20.023438 575.476562 17.625 581.324219 17.625 Z M 577.351562 6.375 C 575.773438 6.375 574.425781 5.023438 574.425781 3.523438 C 574.425781 2.023438 575.773438 0.675781 577.351562 0.675781 C 578.925781 0.675781 580.273438 2.023438 580.273438 3.523438 C 580.273438 5.101562 578.925781 6.375 577.351562 6.375 Z M 580.5 27.449219 C 582.300781 27.449219 583.949219 26.550781 585.300781 24.898438 L 585.300781 21.300781 C 584.175781 21 582.976562 20.925781 581.851562 20.925781 C 578.773438 20.925781 576.976562 22.125 576.976562 24.375 C 576.976562 26.25 578.324219 27.449219 580.5 27.449219 Z M 585.898438 6.375 C 584.324219 6.375 582.976562 5.023438 582.976562 3.523438 C 582.976562 2.023438 584.324219 0.675781 585.898438 0.675781 C 587.476562 0.675781 588.824219 2.023438 588.824219 3.523438 C 588.824219 5.101562 587.476562 6.375 585.898438 6.375 Z M 585.898438 6.375 "/>
<g clip-path="url(#clip-0)">
<path fill-rule="nonzero" fill="rgb(1.568604%, 19.215393%, 41.567993%)" fill-opacity="1" d="M 606.976562 26.175781 L 606.976562 30.375 C 605.925781 30.898438 604.273438 31.125 602.851562 31.125 C 599.175781 31.125 597.148438 29.023438 597.148438 25.199219 L 597.148438 13.726562 L 593.925781 13.726562 L 593.925781 9.675781 L 597.074219 9.675781 L 597.074219 3.976562 L 601.949219 2.925781 L 601.949219 9.75 L 606.976562 9.75 L 606.976562 13.800781 L 601.949219 13.800781 L 601.949219 24.148438 C 601.949219 26.101562 602.625 26.925781 604.199219 26.925781 C 605.175781 26.851562 606.148438 26.550781 606.976562 26.175781 Z M 606.976562 26.175781 "/>
</g>
<path fill-rule="nonzero" fill="rgb(78.430176%, 6.274414%, 18.03894%)" fill-opacity="1" d="M 20.398438 51.75 L 7.273438 51.75 L 7.273438 58.949219 L 17.023438 58.949219 L 17.023438 63.675781 L 7.273438 63.675781 L 7.273438 76.050781 L 2.101562 76.050781 L 2.101562 47.023438 L 20.324219 47.023438 L 20.324219 51.75 Z M 20.398438 51.75 "/>
<path fill-rule="nonzero" fill="rgb(78.430176%, 6.274414%, 18.03894%)" fill-opacity="1" d="M 30.300781 63 C 31.648438 63 32.925781 63.074219 34.273438 63.449219 L 34.273438 62.699219 C 34.273438 60 32.699219 58.648438 29.625 58.648438 C 27.898438 58.648438 26.023438 59.023438 24.300781 59.851562 L 23.25 55.726562 C 25.199219 54.976562 27.75 54.523438 30.148438 54.523438 C 36.074219 54.523438 39.074219 57.300781 39.074219 62.625 L 39.074219 76.050781 L 34.425781 76.050781 L 34.425781 73.800781 L 34.351562 73.800781 C 32.550781 75.675781 30.675781 76.5 28.199219 76.5 C 24 76.5 21.300781 73.875 21.300781 69.824219 C 21.300781 65.398438 24.449219 63 30.300781 63 Z M 29.476562 72.824219 C 31.273438 72.824219 32.925781 71.925781 34.273438 70.273438 L 34.273438 66.601562 C 33.148438 66.300781 31.949219 66.226562 30.824219 66.226562 C 27.75 66.226562 25.949219 67.425781 25.949219 69.675781 C 26.023438 71.625 27.375 72.824219 29.476562 72.824219 Z M 29.476562 72.824219 "/>
<path fill-rule="nonzero" fill="rgb(78.430176%, 6.274414%, 18.03894%)" fill-opacity="1" d="M 61.800781 73.125 C 59.699219 75.449219 57.300781 76.5 54.300781 76.5 C 48.300781 76.5 44.25 72.148438 44.25 65.550781 C 44.25 58.949219 48.300781 54.449219 54.375 54.449219 C 57.523438 54.449219 60.074219 55.648438 61.949219 58.050781 L 58.574219 61.273438 C 57.375 59.699219 56.023438 58.949219 54.375 58.949219 C 51.300781 58.949219 49.199219 61.5 49.199219 65.476562 C 49.199219 69.375 51.300781 72 54.375 72 C 56.023438 72 57.375 71.25 58.726562 69.675781 Z M 61.800781 73.125 "/>
<path fill-rule="nonzero" fill="rgb(78.430176%, 6.274414%, 18.03894%)" fill-opacity="1" d="M 84.226562 76.050781 L 79.351562 76.050781 L 79.351562 64.050781 C 79.351562 60.976562 78.375 58.949219 75.449219 58.949219 C 72.074219 58.949219 71.101562 61.648438 71.101562 64.050781 L 71.101562 76.050781 L 66.226562 76.050781 L 66.226562 46.574219 L 71.101562 45.375 L 71.101562 57.601562 L 71.175781 57.601562 C 72.375 55.726562 74.550781 54.523438 77.324219 54.523438 C 82.199219 54.523438 84.226562 58.125 84.226562 63 Z M 84.226562 76.050781 "/>
<path fill-rule="nonzero" fill="rgb(78.430176%, 6.274414%, 18.03894%)" fill-opacity="1" d="M 110.023438 65.398438 C 110.023438 72.148438 106.574219 76.5 101.476562 76.5 C 98.851562 76.5 96.675781 75.375 95.25 73.574219 L 95.175781 73.574219 L 95.175781 75.976562 L 90.449219 75.976562 L 90.449219 46.5 L 95.324219 45.300781 L 95.324219 57.449219 L 95.398438 57.449219 C 96.824219 55.574219 98.925781 54.449219 101.550781 54.449219 C 106.648438 54.449219 110.023438 58.574219 110.023438 65.398438 Z M 105.226562 65.476562 C 105.226562 61.125 103.425781 58.875 100.351562 58.875 C 98.476562 58.875 96.898438 59.699219 95.398438 61.574219 L 95.398438 69.300781 C 96.824219 71.175781 98.398438 72.148438 100.425781 72.148438 C 103.5 72.148438 105.226562 69.675781 105.226562 65.476562 Z M 105.226562 65.476562 "/>
<path fill-rule="nonzero" fill="rgb(78.430176%, 6.274414%, 18.03894%)" fill-opacity="1" d="M 124.726562 76.5 C 118.5 76.5 114.300781 72.074219 114.300781 65.476562 C 114.300781 58.949219 118.273438 54.523438 124.125 54.523438 C 129.75 54.523438 133.425781 58.726562 133.425781 65.175781 C 133.425781 65.851562 133.351562 66.601562 133.351562 67.199219 L 119.25 67.199219 C 119.773438 70.425781 121.726562 72.300781 124.726562 72.300781 C 126.675781 72.300781 128.25 71.550781 129.898438 69.824219 L 132.976562 73.050781 C 130.574219 75.375 127.949219 76.5 124.726562 76.5 Z M 119.25 63.601562 L 128.773438 63.601562 C 128.550781 60.375 126.898438 58.5 124.125 58.5 C 121.425781 58.5 119.699219 60.375 119.25 63.601562 Z M 119.25 63.601562 "/>
<path fill-rule="nonzero" fill="rgb(78.430176%, 6.274414%, 18.03894%)" fill-opacity="1" d="M 151.574219 54.898438 L 150.824219 59.925781 C 150.074219 59.550781 149.175781 59.25 148.125 59.25 C 144.75 59.25 143.851562 61.949219 143.851562 65.175781 L 143.851562 76.050781 L 138.976562 76.050781 L 138.976562 55.050781 L 143.773438 55.050781 L 143.773438 57.675781 L 143.851562 57.675781 C 144.976562 55.726562 146.925781 54.523438 149.324219 54.523438 C 150 54.449219 150.824219 54.601562 151.574219 54.898438 Z M 151.574219 54.898438 "/>
<path fill-rule="nonzero" fill="rgb(78.430176%, 6.274414%, 18.03894%)" fill-opacity="1" d="M 164.699219 76.5 C 158.476562 76.5 154.273438 72.074219 154.273438 65.476562 C 154.273438 58.949219 158.25 54.523438 164.101562 54.523438 C 169.726562 54.523438 173.398438 58.726562 173.398438 65.175781 C 173.398438 65.851562 173.324219 66.601562 173.324219 67.199219 L 159.226562 67.199219 C 159.75 70.425781 161.699219 72.300781 164.699219 72.300781 C 166.648438 72.300781 168.226562 71.550781 169.875 69.824219 L 172.949219 73.050781 C 170.550781 75.375 167.851562 76.5 164.699219 76.5 Z M 159.226562 63.601562 L 168.75 63.601562 C 168.523438 60.375 166.875 58.5 164.101562 58.5 C 161.398438 58.5 159.601562 60.375 159.226562 63.601562 Z M 159.226562 63.601562 "/>
<path fill-rule="nonzero" fill="rgb(78.430176%, 6.274414%, 18.03894%)" fill-opacity="1" d="M 184.351562 48.675781 C 184.351562 50.398438 182.925781 51.675781 181.199219 51.675781 C 179.476562 51.675781 178.125 50.476562 178.125 48.675781 C 178.125 46.949219 179.550781 45.675781 181.199219 45.675781 C 182.925781 45.675781 184.351562 46.949219 184.351562 48.675781 Z M 183.675781 76.050781 L 178.800781 76.050781 L 178.800781 55.050781 L 183.675781 55.050781 Z M 183.675781 76.050781 "/>
<path fill-rule="nonzero" fill="rgb(78.430176%, 6.274414%, 18.03894%)" fill-opacity="1" d="M 206.550781 73.125 C 204.449219 75.449219 202.050781 76.5 199.050781 76.5 C 193.050781 76.5 189 72.148438 189 65.550781 C 189 58.949219 193.050781 54.449219 199.125 54.449219 C 202.273438 54.449219 204.824219 55.648438 206.699219 58.050781 L 203.324219 61.273438 C 202.125 59.699219 200.773438 58.949219 199.125 58.949219 C 196.050781 58.949219 193.949219 61.5 193.949219 65.476562 C 193.949219 69.375 196.050781 72 199.125 72 C 200.773438 72 202.125 71.25 203.476562 69.675781 Z M 206.550781 73.125 "/>
<path fill-rule="nonzero" fill="rgb(78.430176%, 6.274414%, 18.03894%)" fill-opacity="1" d="M 228.898438 76.050781 L 224.023438 76.050781 L 224.023438 64.050781 C 224.023438 60.976562 223.050781 58.949219 220.125 58.949219 C 216.75 58.949219 215.773438 61.648438 215.773438 64.050781 L 215.773438 76.050781 L 210.898438 76.050781 L 210.898438 46.574219 L 215.773438 45.375 L 215.773438 57.601562 L 215.851562 57.601562 C 217.050781 55.726562 219.226562 54.523438 222 54.523438 C 226.875 54.523438 228.898438 58.125 228.898438 63 Z M 228.898438 76.050781 "/>
<path fill-rule="nonzero" fill="rgb(78.430176%, 6.274414%, 18.03894%)" fill-opacity="1" d="M 245.476562 46.949219 L 250.875 46.949219 L 255.601562 67.949219 L 255.675781 67.949219 L 260.699219 46.949219 L 266.023438 46.949219 L 271.125 67.949219 L 271.199219 67.949219 L 275.851562 46.949219 L 281.175781 46.949219 L 273.898438 75.976562 L 268.574219 75.976562 L 263.398438 54.675781 L 263.324219 54.675781 L 258.148438 75.976562 L 252.75 75.976562 Z M 245.476562 46.949219 "/>
<path fill-rule="nonzero" fill="rgb(78.430176%, 6.274414%, 18.03894%)" fill-opacity="1" d="M 291.601562 48.675781 C 291.601562 50.398438 290.175781 51.675781 288.449219 51.675781 C 286.726562 51.675781 285.375 50.476562 285.375 48.675781 C 285.375 46.949219 286.800781 45.675781 288.449219 45.675781 C 290.175781 45.675781 291.601562 46.949219 291.601562 48.675781 Z M 290.925781 76.050781 L 286.050781 76.050781 L 286.050781 55.050781 L 290.925781 55.050781 Z M 290.925781 76.050781 "/>
<path fill-rule="nonzero" fill="rgb(78.430176%, 6.274414%, 18.03894%)" fill-opacity="1" d="M 310.050781 54.898438 L 309.300781 59.925781 C 308.550781 59.550781 307.648438 59.25 306.601562 59.25 C 303.226562 59.25 302.324219 61.949219 302.324219 65.175781 L 302.324219 76.050781 L 297.449219 76.050781 L 297.449219 55.050781 L 302.25 55.050781 L 302.25 57.675781 L 302.324219 57.675781 C 303.449219 55.726562 305.398438 54.523438 307.800781 54.523438 C 308.398438 54.449219 309.300781 54.601562 310.050781 54.898438 Z M 310.050781 54.898438 "/>
<path fill-rule="nonzero" fill="rgb(78.430176%, 6.274414%, 18.03894%)" fill-opacity="1" d="M 326.175781 71.550781 L 326.175781 75.75 C 325.125 76.273438 323.476562 76.5 322.050781 76.5 C 318.375 76.5 316.351562 74.398438 316.351562 70.574219 L 316.351562 59.101562 L 313.125 59.101562 L 313.125 55.050781 L 316.273438 55.050781 L 316.273438 49.351562 L 321.148438 48.300781 L 321.148438 55.125 L 326.175781 55.125 L 326.175781 59.175781 L 321.148438 59.175781 L 321.148438 69.523438 C 321.148438 71.476562 321.824219 72.300781 323.398438 72.300781 C 324.375 72.226562 325.351562 71.925781 326.175781 71.550781 Z M 326.175781 71.550781 "/>
<path fill-rule="nonzero" fill="rgb(78.430176%, 6.274414%, 18.03894%)" fill-opacity="1" d="M 331.949219 70.050781 C 334.050781 71.625 336 72.375 337.875 72.375 C 339.675781 72.375 340.949219 71.550781 340.949219 70.273438 C 340.949219 66.675781 330.449219 67.949219 330.449219 60.976562 C 330.449219 57.074219 333.675781 54.449219 338.398438 54.449219 C 340.949219 54.449219 343.425781 55.199219 345.675781 56.625 L 343.351562 60.449219 C 341.550781 59.25 339.898438 58.574219 338.324219 58.574219 C 336.523438 58.574219 335.324219 59.324219 335.324219 60.523438 C 335.324219 63.976562 345.824219 62.773438 345.824219 69.824219 C 345.824219 73.800781 342.601562 76.5 337.726562 76.5 C 334.949219 76.5 332.101562 75.601562 329.625 73.949219 Z M 331.949219 70.050781 "/>
<path fill-rule="nonzero" fill="rgb(78.430176%, 6.274414%, 18.03894%)" fill-opacity="1" d="M 367.425781 73.125 C 365.324219 75.449219 362.925781 76.5 359.925781 76.5 C 353.925781 76.5 349.875 72.148438 349.875 65.550781 C 349.875 58.949219 353.925781 54.449219 360 54.449219 C 363.148438 54.449219 365.699219 55.648438 367.574219 58.050781 L 364.199219 61.273438 C 363 59.699219 361.648438 58.949219 360 58.949219 C 356.925781 58.949219 354.824219 61.5 354.824219 65.476562 C 354.824219 69.375 356.925781 72 360 72 C 361.648438 72 363 71.25 364.351562 69.675781 Z M 367.425781 73.125 "/>
<path fill-rule="nonzero" fill="rgb(78.430176%, 6.274414%, 18.03894%)" fill-opacity="1" d="M 389.773438 76.050781 L 384.898438 76.050781 L 384.898438 64.050781 C 384.898438 60.976562 383.925781 58.949219 381 58.949219 C 377.625 58.949219 376.648438 61.648438 376.648438 64.050781 L 376.648438 76.050781 L 371.773438 76.050781 L 371.773438 46.574219 L 376.648438 45.375 L 376.648438 57.601562 L 376.726562 57.601562 C 377.925781 55.726562 380.101562 54.523438 382.875 54.523438 C 387.75 54.523438 389.773438 58.125 389.773438 63 Z M 389.773438 76.050781 "/>
<path fill-rule="nonzero" fill="rgb(78.430176%, 6.274414%, 18.03894%)" fill-opacity="1" d="M 403.648438 63 C 405 63 406.273438 63.074219 407.625 63.449219 L 407.625 62.699219 C 407.625 60 406.050781 58.648438 402.976562 58.648438 C 401.25 58.648438 399.375 59.023438 397.648438 59.851562 L 396.601562 55.726562 C 398.550781 54.976562 401.101562 54.523438 403.5 54.523438 C 409.425781 54.523438 412.425781 57.300781 412.425781 62.625 L 412.425781 76.050781 L 407.773438 76.050781 L 407.773438 73.800781 L 407.699219 73.800781 C 405.898438 75.675781 404.023438 76.5 401.550781 76.5 C 397.351562 76.5 394.648438 73.875 394.648438 69.824219 C 394.648438 65.398438 397.800781 63 403.648438 63 Z M 402.824219 72.824219 C 404.625 72.824219 406.273438 71.925781 407.625 70.273438 L 407.625 66.601562 C 406.5 66.300781 405.300781 66.226562 404.175781 66.226562 C 401.101562 66.226562 399.300781 67.425781 399.300781 69.675781 C 399.300781 71.625 400.648438 72.824219 402.824219 72.824219 Z M 402.824219 72.824219 "/>
<path fill-rule="nonzero" fill="rgb(78.430176%, 6.274414%, 18.03894%)" fill-opacity="1" d="M 429.226562 49.648438 C 428.550781 49.351562 427.800781 49.273438 427.050781 49.273438 C 425.175781 49.273438 424.425781 50.25 424.425781 52.199219 L 424.425781 55.050781 L 428.625 55.050781 L 428.625 59.101562 L 424.5 59.101562 L 424.5 76.050781 L 419.625 76.050781 L 419.625 59.175781 L 416.398438 59.175781 L 416.398438 55.050781 L 419.625 55.050781 L 419.625 52.050781 C 419.625 47.699219 421.574219 45.074219 426.300781 45.074219 C 427.351562 45.074219 428.398438 45.226562 429.226562 45.523438 Z M 429.226562 49.648438 "/>
<path fill-rule="nonzero" fill="rgb(78.430176%, 6.274414%, 18.03894%)" fill-opacity="1" d="M 444.898438 71.550781 L 444.898438 75.75 C 443.851562 76.273438 442.199219 76.5 440.773438 76.5 C 437.101562 76.5 435.074219 74.398438 435.074219 70.574219 L 435.074219 59.101562 L 431.851562 59.101562 L 431.851562 55.050781 L 435 55.050781 L 435 49.351562 L 439.875 48.300781 L 439.875 55.125 L 444.898438 55.125 L 444.898438 59.175781 L 439.875 59.175781 L 439.875 69.523438 C 439.875 71.476562 440.550781 72.300781 442.125 72.300781 C 443.101562 72.226562 444.074219 71.925781 444.898438 71.550781 Z M 444.898438 71.550781 "/>
<path fill-rule="nonzero" fill="rgb(78.430176%, 6.274414%, 18.03894%)" fill-opacity="1" d="M 450.75 70.050781 C 452.851562 71.625 454.800781 72.375 456.675781 72.375 C 458.476562 72.375 459.75 71.550781 459.75 70.273438 C 459.75 66.675781 449.25 67.949219 449.25 60.976562 C 449.25 57.074219 452.476562 54.449219 457.199219 54.449219 C 459.75 54.449219 462.226562 55.199219 464.476562 56.625 L 462.148438 60.449219 C 460.351562 59.25 458.699219 58.574219 457.125 58.574219 C 455.324219 58.574219 454.125 59.324219 454.125 60.523438 C 454.125 63.976562 464.625 62.773438 464.625 69.824219 C 464.625 73.800781 461.398438 76.5 456.523438 76.5 C 453.75 76.5 450.898438 75.601562 448.425781 73.949219 Z M 450.75 70.050781 "/>
<path fill-rule="nonzero" fill="rgb(78.430176%, 6.274414%, 18.03894%)" fill-opacity="1" d="M 468.449219 60.824219 L 478.726562 60.824219 L 478.726562 65.476562 L 468.449219 65.476562 Z M 468.449219 60.824219 "/>
<path fill-rule="nonzero" fill="rgb(78.430176%, 6.274414%, 18.03894%)" fill-opacity="1" d="M 501.074219 67.648438 C 501.074219 70.5 502.5 72.074219 505.273438 72.074219 C 507.976562 72.074219 509.324219 70.574219 509.324219 67.648438 L 509.324219 55.050781 L 514.199219 55.050781 L 514.199219 67.800781 C 514.199219 73.351562 511.125 76.574219 505.351562 76.574219 C 499.648438 76.574219 496.125 73.351562 496.125 67.875 L 496.125 55.125 L 501 55.125 L 501 67.648438 Z M 501.074219 67.648438 "/>
<path fill-rule="nonzero" fill="rgb(78.430176%, 6.274414%, 18.03894%)" fill-opacity="1" d="M 538.5 76.050781 L 533.625 76.050781 L 533.625 64.050781 C 533.625 60.976562 532.726562 58.949219 529.726562 58.949219 C 526.273438 58.949219 525.375 61.726562 525.375 64.050781 L 525.375 76.050781 L 520.5 76.050781 L 520.5 55.050781 L 525.375 55.050781 L 525.375 57.601562 L 525.449219 57.601562 C 526.726562 55.726562 528.898438 54.523438 531.601562 54.523438 C 536.398438 54.523438 538.5 58.050781 538.5 63 Z M 538.5 76.050781 "/>
<path fill-rule="nonzero" fill="rgb(78.430176%, 6.274414%, 18.03894%)" fill-opacity="1" d="M 543.675781 65.476562 C 543.675781 58.726562 547.125 54.523438 552.226562 54.523438 C 554.851562 54.523438 556.949219 55.648438 558.300781 57.375 L 558.375 57.375 L 558.375 46.574219 L 563.25 45.375 L 563.25 76.050781 L 558.449219 76.050781 L 558.449219 73.574219 L 558.375 73.574219 C 556.875 75.449219 554.699219 76.574219 552.074219 76.574219 C 547.125 76.5 543.675781 72.226562 543.675781 65.476562 Z M 548.550781 65.476562 C 548.550781 69.75 550.351562 72.226562 553.425781 72.226562 C 555.300781 72.226562 556.875 71.324219 558.449219 69.449219 L 558.449219 61.800781 C 557.023438 59.925781 555.449219 59.023438 553.425781 59.023438 C 550.273438 58.949219 548.550781 61.273438 548.550781 65.476562 Z M 548.550781 65.476562 "/>
<path fill-rule="nonzero" fill="rgb(78.430176%, 6.274414%, 18.03894%)" fill-opacity="1" d="M 3.300781 113.851562 C 5.476562 115.949219 8.101562 117.074219 10.5 117.074219 C 13.199219 117.074219 15.226562 115.574219 15.226562 113.476562 C 15.226562 107.925781 0.976562 109.648438 0.976562 100.199219 C 0.976562 95.175781 5.023438 91.800781 10.800781 91.800781 C 14.25 91.800781 17.476562 93 20.175781 95.324219 L 16.949219 99.300781 C 14.851562 97.425781 12.75 96.523438 10.574219 96.523438 C 8.023438 96.523438 6.148438 97.875 6.148438 99.75 C 6.148438 105 20.398438 103.273438 20.398438 113.023438 C 20.398438 118.273438 16.351562 121.800781 10.351562 121.800781 C 6.523438 121.800781 2.773438 120.375 0 117.824219 Z M 3.300781 113.851562 "/>
<path fill-rule="nonzero" fill="rgb(78.430176%, 6.274414%, 18.03894%)" fill-opacity="1" d="M 24.75 110.851562 C 24.75 104.25 28.800781 99.824219 34.949219 99.824219 C 41.023438 99.824219 45 104.175781 45 110.851562 C 45 117.449219 41.101562 121.875 34.949219 121.875 C 28.875 121.875 24.75 117.523438 24.75 110.851562 Z M 40.125 110.925781 C 40.125 106.875 38.101562 104.324219 34.875 104.324219 C 31.648438 104.324219 29.625 106.875 29.625 110.851562 C 29.625 114.898438 31.648438 117.523438 34.875 117.523438 C 38.101562 117.449219 40.125 114.976562 40.125 110.925781 Z M 40.125 110.925781 "/>
<path fill-rule="nonzero" fill="rgb(78.430176%, 6.274414%, 18.03894%)" fill-opacity="1" d="M 65.023438 121.425781 L 48.449219 121.425781 L 48.449219 117.226562 L 58.949219 104.625 L 49.125 104.625 L 49.125 100.425781 L 64.949219 100.425781 L 64.949219 104.625 L 54.449219 117.226562 L 65.101562 117.226562 L 65.101562 121.425781 Z M 65.023438 121.425781 "/>
<path fill-rule="nonzero" fill="rgb(78.430176%, 6.274414%, 18.03894%)" fill-opacity="1" d="M 75.675781 94.050781 C 75.675781 95.773438 74.25 97.050781 72.523438 97.050781 C 70.800781 97.050781 69.449219 95.851562 69.449219 94.050781 C 69.449219 92.324219 70.875 91.050781 72.523438 91.050781 C 74.25 91.050781 75.675781 92.324219 75.675781 94.050781 Z M 75 121.425781 L 70.125 121.425781 L 70.125 100.425781 L 75 100.425781 Z M 75 121.425781 "/>
<path fill-rule="nonzero" fill="rgb(78.430176%, 6.274414%, 18.03894%)" fill-opacity="1" d="M 89.101562 108.375 C 90.449219 108.375 91.726562 108.449219 93.074219 108.824219 L 93.074219 108.074219 C 93.074219 105.375 91.5 104.023438 88.425781 104.023438 C 86.699219 104.023438 84.824219 104.398438 83.101562 105.226562 L 82.050781 101.101562 C 84 100.351562 86.550781 99.898438 88.949219 99.898438 C 94.875 99.898438 97.875 102.675781 97.875 108 L 97.875 121.425781 L 93.226562 121.425781 L 93.226562 119.175781 L 93.148438 119.175781 C 91.351562 121.050781 89.476562 121.875 87 121.875 C 82.800781 121.875 80.101562 119.25 80.101562 115.199219 C 80.023438 110.773438 83.175781 108.375 89.101562 108.375 Z M 88.273438 118.199219 C 90.074219 118.199219 91.726562 117.300781 93.074219 115.648438 L 93.074219 112.050781 C 91.949219 111.75 90.75 111.675781 89.625 111.675781 C 86.550781 111.675781 84.75 112.875 84.75 115.125 C 84.75 117 86.101562 118.199219 88.273438 118.199219 Z M 88.273438 118.199219 "/>
<path fill-rule="nonzero" fill="rgb(78.430176%, 6.274414%, 18.03894%)" fill-opacity="1" d="M 109.050781 121.425781 L 104.175781 121.425781 L 104.175781 91.875 L 109.050781 90.75 Z M 109.050781 121.425781 "/>
<path fill-rule="nonzero" fill="rgb(78.430176%, 6.274414%, 18.03894%)" fill-opacity="1" d="M 142.875 100.425781 L 136.648438 121.425781 L 131.925781 121.425781 L 128.101562 106.875 L 128.023438 106.875 L 124.199219 121.425781 L 119.476562 121.425781 L 113.25 100.425781 L 118.425781 100.425781 L 122.023438 114.601562 L 122.101562 114.601562 L 125.851562 100.425781 L 130.351562 100.425781 L 134.175781 114.601562 L 134.25 114.601562 L 137.773438 100.425781 Z M 142.875 100.425781 "/>
<path fill-rule="nonzero" fill="rgb(78.430176%, 6.274414%, 18.03894%)" fill-opacity="1" d="M 152.773438 94.050781 C 152.773438 95.773438 151.351562 97.050781 149.625 97.050781 C 147.898438 97.050781 146.550781 95.851562 146.550781 94.050781 C 146.550781 92.324219 147.976562 91.050781 149.625 91.050781 C 151.425781 91.050781 152.773438 92.324219 152.773438 94.050781 Z M 152.175781 121.425781 L 147.300781 121.425781 L 147.300781 100.425781 L 152.175781 100.425781 Z M 152.175781 121.425781 "/>
<path fill-rule="nonzero" fill="rgb(78.430176%, 6.274414%, 18.03894%)" fill-opacity="1" d="M 159 115.425781 C 161.023438 117 163.050781 117.75 164.925781 117.75 C 166.726562 117.75 168 116.925781 168 115.648438 C 168 112.050781 157.5 113.324219 157.5 106.351562 C 157.5 102.449219 160.726562 99.824219 165.449219 99.824219 C 168 99.824219 170.476562 100.574219 172.726562 102 L 170.398438 105.824219 C 168.601562 104.625 166.949219 103.949219 165.375 103.949219 C 163.574219 103.949219 162.375 104.699219 162.375 105.898438 C 162.375 109.351562 172.875 108.148438 172.875 115.199219 C 172.875 119.175781 169.648438 121.875 164.773438 121.875 C 162 121.875 159.148438 120.976562 156.675781 119.324219 Z M 159 115.425781 "/>
<path fill-rule="nonzero" fill="rgb(78.430176%, 6.274414%, 18.03894%)" fill-opacity="1" d="M 178.425781 115.425781 C 180.523438 117 182.476562 117.75 184.351562 117.75 C 186.148438 117.75 187.425781 116.925781 187.425781 115.648438 C 187.425781 112.050781 176.925781 113.324219 176.925781 106.351562 C 176.925781 102.449219 180.148438 99.824219 184.875 99.824219 C 187.425781 99.824219 189.898438 100.574219 192.148438 102 L 189.824219 105.824219 C 188.023438 104.625 186.375 103.949219 184.800781 103.949219 C 183 103.949219 181.800781 104.699219 181.800781 105.898438 C 181.800781 109.351562 192.300781 108.148438 192.300781 115.199219 C 192.300781 119.175781 189.074219 121.875 184.199219 121.875 C 181.425781 121.875 178.574219 120.976562 176.101562 119.324219 Z M 178.425781 115.425781 "/>
<path fill-rule="nonzero" fill="rgb(78.430176%, 6.274414%, 18.03894%)" fill-opacity="1" d="M 206.625 121.875 C 200.398438 121.875 196.199219 117.449219 196.199219 110.851562 C 196.199219 104.324219 200.175781 99.898438 206.023438 99.898438 C 211.648438 99.898438 215.324219 104.101562 215.324219 110.550781 C 215.324219 111.226562 215.25 111.976562 215.25 112.574219 L 201.148438 112.574219 C 201.675781 115.800781 203.625 117.675781 206.625 117.675781 C 208.574219 117.675781 210.148438 116.925781 211.800781 115.199219 L 214.875 118.425781 C 212.476562 120.75 209.851562 121.875 206.625 121.875 Z M 201.148438 108.976562 L 210.675781 108.976562 C 210.449219 105.75 208.800781 103.875 206.023438 103.875 C 203.324219 103.875 201.601562 105.75 201.148438 108.976562 Z M 201.148438 108.976562 "/>
<path fill-rule="nonzero" fill="rgb(78.430176%, 6.274414%, 18.03894%)" fill-opacity="1" d="M 238.875 121.425781 L 234 121.425781 L 234 109.425781 C 234 106.351562 233.101562 104.324219 230.101562 104.324219 C 226.648438 104.324219 225.75 107.101562 225.75 109.425781 L 225.75 121.5 L 220.875 121.5 L 220.875 100.5 L 225.75 100.5 L 225.75 103.050781 L 225.824219 103.050781 C 227.101562 101.175781 229.273438 99.976562 231.976562 99.976562 C 236.773438 99.976562 238.875 103.5 238.875 108.449219 Z M 238.875 121.425781 "/>
<path fill-rule="nonzero" fill="rgb(78.430176%, 6.274414%, 18.03894%)" fill-opacity="1" d="M 245.550781 115.425781 C 247.648438 117 249.601562 117.75 251.476562 117.75 C 253.273438 117.75 254.550781 116.925781 254.550781 115.648438 C 254.550781 112.050781 244.050781 113.324219 244.050781 106.351562 C 244.050781 102.449219 247.273438 99.824219 252 99.824219 C 254.550781 99.824219 257.023438 100.574219 259.273438 102 L 256.949219 105.824219 C 255.148438 104.625 253.5 103.949219 251.925781 103.949219 C 250.125 103.949219 248.925781 104.699219 248.925781 105.898438 C 248.925781 109.351562 259.425781 108.148438 259.425781 115.199219 C 259.425781 119.175781 256.199219 121.875 251.324219 121.875 C 248.550781 121.875 245.699219 120.976562 243.226562 119.324219 Z M 245.550781 115.425781 "/>
<path fill-rule="nonzero" fill="rgb(78.430176%, 6.274414%, 18.03894%)" fill-opacity="1" d="M 280.949219 118.5 C 278.851562 120.824219 276.449219 121.875 273.449219 121.875 C 267.449219 121.875 263.398438 117.523438 263.398438 110.925781 C 263.398438 104.324219 267.449219 99.824219 273.523438 99.824219 C 276.675781 99.824219 279.226562 101.023438 281.101562 103.425781 L 277.726562 106.648438 C 276.523438 105.074219 275.175781 104.324219 273.523438 104.324219 C 270.449219 104.324219 268.351562 106.875 268.351562 110.851562 C 268.351562 114.75 270.449219 117.375 273.523438 117.375 C 275.175781 117.375 276.523438 116.625 277.875 115.050781 Z M 280.949219 118.5 "/>
<path fill-rule="nonzero" fill="rgb(78.430176%, 6.274414%, 18.03894%)" fill-opacity="1" d="M 303.375 121.425781 L 298.5 121.425781 L 298.5 109.425781 C 298.5 106.351562 297.523438 104.324219 294.601562 104.324219 C 291.226562 104.324219 290.25 107.023438 290.25 109.425781 L 290.25 121.5 L 285.375 121.5 L 285.375 92.023438 L 290.25 90.824219 L 290.25 103.050781 L 290.324219 103.050781 C 291.523438 101.175781 293.699219 99.976562 296.476562 99.976562 C 301.351562 99.976562 303.375 103.574219 303.375 108.449219 Z M 303.375 121.425781 "/>
<path fill-rule="nonzero" fill="rgb(78.430176%, 6.274414%, 18.03894%)" fill-opacity="1" d="M 317.25 108.375 C 318.601562 108.375 319.875 108.449219 321.226562 108.824219 L 321.226562 108.074219 C 321.226562 105.375 319.648438 104.023438 316.574219 104.023438 C 314.851562 104.023438 312.976562 104.398438 311.25 105.226562 L 310.199219 101.101562 C 312.148438 100.351562 314.699219 99.898438 317.101562 99.898438 C 323.023438 99.898438 326.023438 102.675781 326.023438 108 L 326.023438 121.425781 L 321.375 121.425781 L 321.375 119.175781 L 321.300781 119.175781 C 319.5 121.050781 317.625 121.875 315.148438 121.875 C 310.949219 121.875 308.25 119.25 308.25 115.199219 C 308.175781 110.773438 311.324219 108.375 317.25 108.375 Z M 316.425781 118.199219 C 318.226562 118.199219 319.875 117.300781 321.226562 115.648438 L 321.226562 112.050781 C 320.101562 111.75 318.898438 111.675781 317.773438 111.675781 C 314.699219 111.675781 312.898438 112.875 312.898438 115.125 C 312.898438 117 314.25 118.199219 316.425781 118.199219 Z M 316.425781 118.199219 "/>
<path fill-rule="nonzero" fill="rgb(78.430176%, 6.274414%, 18.03894%)" fill-opacity="1" d="M 342.824219 95.023438 C 342.148438 94.726562 341.398438 94.648438 340.648438 94.648438 C 338.773438 94.648438 338.023438 95.625 338.023438 97.574219 L 338.023438 100.425781 L 342.226562 100.425781 L 342.226562 104.476562 L 338.101562 104.476562 L 338.101562 121.351562 L 333.226562 121.351562 L 333.226562 104.476562 L 330 104.476562 L 330 100.425781 L 333.226562 100.425781 L 333.226562 97.425781 C 333.226562 93.074219 335.175781 90.449219 339.898438 90.449219 C 340.949219 90.449219 342 90.601562 342.824219 90.898438 Z M 342.824219 95.023438 "/>
<path fill-rule="nonzero" fill="rgb(78.430176%, 6.274414%, 18.03894%)" fill-opacity="1" d="M 358.5 116.925781 L 358.5 121.125 C 357.449219 121.648438 355.800781 121.875 354.375 121.875 C 350.699219 121.875 348.675781 119.773438 348.675781 115.949219 L 348.675781 104.476562 L 345.449219 104.476562 L 345.449219 100.425781 L 348.601562 100.425781 L 348.601562 94.726562 L 353.476562 93.675781 L 353.476562 100.5 L 358.5 100.5 L 358.5 104.550781 L 353.476562 104.550781 L 353.476562 114.898438 C 353.476562 116.851562 354.148438 117.675781 355.726562 117.675781 C 356.699219 117.601562 357.675781 117.300781 358.5 116.925781 Z M 358.5 116.925781 "/>
<path fill-rule="nonzero" fill="rgb(78.430176%, 6.274414%, 18.03894%)" fill-opacity="1" d="M 372.148438 121.875 C 365.925781 121.875 361.726562 117.449219 361.726562 110.851562 C 361.726562 104.324219 365.699219 99.898438 371.550781 99.898438 C 377.175781 99.898438 380.851562 104.101562 380.851562 110.550781 C 380.851562 111.226562 380.773438 111.976562 380.773438 112.574219 L 366.75 112.574219 C 367.273438 115.800781 369.226562 117.675781 372.226562 117.675781 C 374.175781 117.675781 375.75 116.925781 377.398438 115.199219 L 380.476562 118.425781 C 378 120.75 375.300781 121.875 372.148438 121.875 Z M 366.675781 108.976562 L 376.199219 108.976562 C 375.976562 105.75 374.324219 103.875 371.550781 103.875 C 368.773438 103.875 367.050781 105.75 366.675781 108.976562 Z M 366.675781 108.976562 "/>
<path fill-rule="nonzero" fill="rgb(78.430176%, 6.274414%, 18.03894%)" fill-opacity="1" d="M 404.324219 121.425781 L 399.449219 121.425781 L 399.449219 109.425781 C 399.449219 106.351562 398.550781 104.324219 395.550781 104.324219 C 392.101562 104.324219 391.199219 107.101562 391.199219 109.425781 L 391.199219 121.5 L 386.324219 121.5 L 386.324219 100.5 L 391.199219 100.5 L 391.199219 103.050781 L 391.273438 103.050781 C 392.550781 101.175781 394.726562 99.976562 397.425781 99.976562 C 402.226562 99.976562 404.324219 103.5 404.324219 108.449219 Z M 404.324219 121.425781 "/>
<g clip-path="url(#clip-1)">
<path fill-rule="nonzero" fill="rgb(78.430176%, 6.274414%, 18.03894%)" fill-opacity="1" d="M 423.75 89.398438 L 426.523438 89.398438 L 426.523438 129.898438 L 423.75 129.898438 Z M 423.75 89.398438 "/>
</g>
<path fill-rule="nonzero" fill="rgb(78.430176%, 6.274414%, 18.03894%)" fill-opacity="1" d="M 444.226562 92.324219 L 449.625 92.324219 L 454.351562 113.324219 L 454.425781 113.324219 L 459.449219 92.324219 L 464.773438 92.324219 L 469.875 113.324219 L 469.949219 113.324219 L 474.601562 92.324219 L 479.925781 92.324219 L 472.648438 121.351562 L 467.324219 121.351562 L 462.148438 100.050781 L 462.074219 100.050781 L 456.898438 121.351562 L 451.5 121.351562 Z M 444.226562 92.324219 "/>
<path fill-rule="nonzero" fill="rgb(78.430176%, 6.274414%, 18.03894%)" fill-opacity="1" d="M 490.351562 94.050781 C 490.351562 95.773438 488.925781 97.050781 487.199219 97.050781 C 485.476562 97.050781 484.125 95.851562 484.125 94.050781 C 484.125 92.324219 485.550781 91.050781 487.199219 91.050781 C 488.925781 91.050781 490.351562 92.324219 490.351562 94.050781 Z M 489.675781 121.425781 L 484.800781 121.425781 L 484.800781 100.425781 L 489.675781 100.425781 Z M 489.675781 121.425781 "/>
<path fill-rule="nonzero" fill="rgb(78.430176%, 6.274414%, 18.03894%)" fill-opacity="1" d="M 497.476562 113.851562 C 499.648438 115.949219 502.273438 117.074219 504.675781 117.074219 C 507.375 117.074219 509.398438 115.574219 509.398438 113.476562 C 509.398438 107.925781 495.148438 109.648438 495.148438 100.199219 C 495.148438 95.175781 499.199219 91.800781 504.976562 91.800781 C 508.425781 91.800781 511.648438 93 514.351562 95.324219 L 511.125 99.300781 C 509.023438 97.425781 506.925781 96.523438 504.75 96.523438 C 502.199219 96.523438 500.324219 97.875 500.324219 99.75 C 500.324219 105 514.574219 103.273438 514.574219 113.023438 C 514.574219 118.273438 510.523438 121.800781 504.523438 121.800781 C 500.699219 121.800781 496.949219 120.375 494.175781 117.824219 Z M 497.476562 113.851562 "/>
<path fill-rule="nonzero" fill="rgb(78.430176%, 6.274414%, 18.03894%)" fill-opacity="1" d="M 519 110.851562 C 519 104.25 523.050781 99.824219 529.199219 99.824219 C 535.273438 99.824219 539.25 104.175781 539.25 110.851562 C 539.25 117.449219 535.351562 121.875 529.199219 121.875 C 523.050781 121.875 519 117.523438 519 110.851562 Z M 534.300781 110.925781 C 534.300781 106.875 532.273438 104.324219 529.050781 104.324219 C 525.824219 104.324219 523.800781 106.875 523.800781 110.851562 C 523.800781 114.898438 525.824219 117.523438 529.050781 117.523438 C 532.351562 117.449219 534.300781 114.976562 534.300781 110.925781 Z M 534.300781 110.925781 "/>
</svg>
