<?xml version="1.0" encoding="UTF-8"?>
<svg xmlns="http://www.w3.org/2000/svg" xmlns:xlink="http://www.w3.org/1999/xlink" width="604.875" height="129.825012" viewBox="0 0 604.875 129.825012">
<defs>
<clipPath id="clip-0">
<path clip-rule="nonzero" d="M 591 2 L 604.875 2 L 604.875 32 L 591 32 Z M 591 2 "/>
</clipPath>
<clipPath id="clip-1">
<path clip-rule="nonzero" d="M 376 99 L 396 99 L 396 129.824219 L 376 129.824219 Z M 376 99 "/>
</clipPath>
</defs>
<path fill-rule="nonzero" fill="rgb(1.568604%, 19.215393%, 41.567993%)" fill-opacity="1" d="M 18.300781 6.375 L 5.175781 6.375 L 5.175781 13.574219 L 14.925781 13.574219 L 14.925781 18.300781 L 5.175781 18.300781 L 5.175781 30.675781 L 0 30.675781 L 0 1.574219 L 18.226562 1.574219 L 18.226562 6.375 Z M 18.300781 6.375 "/>
<path fill-rule="nonzero" fill="rgb(1.568604%, 19.215393%, 41.567993%)" fill-opacity="1" d="M 33.75 9.523438 L 33 14.550781 C 32.25 14.175781 31.351562 13.875 30.300781 13.875 C 26.925781 13.875 26.023438 16.574219 26.023438 19.800781 L 26.023438 30.601562 L 21.148438 30.601562 L 21.148438 9.601562 L 25.949219 9.601562 L 25.949219 12.300781 L 26.023438 12.300781 C 27.148438 10.351562 29.101562 9.148438 31.5 9.148438 C 32.175781 9.074219 33 9.226562 33.75 9.523438 Z M 33.75 9.523438 "/>
<path fill-rule="nonzero" fill="rgb(1.568604%, 19.215393%, 41.567993%)" fill-opacity="1" d="M 43.5 3.300781 C 43.5 5.023438 42.074219 6.300781 40.351562 6.300781 C 38.625 6.300781 37.273438 5.101562 37.273438 3.300781 C 37.273438 1.574219 38.699219 0.300781 40.351562 0.300781 C 42.074219 0.300781 43.5 1.574219 43.5 3.300781 Z M 42.824219 30.601562 L 37.949219 30.601562 L 37.949219 9.601562 L 42.824219 9.601562 Z M 42.824219 30.601562 "/>
<path fill-rule="nonzero" fill="rgb(1.568604%, 19.215393%, 41.567993%)" fill-opacity="1" d="M 58.425781 31.125 C 52.199219 31.125 48 26.699219 48 20.101562 C 48 13.574219 51.976562 9.148438 57.824219 9.148438 C 63.449219 9.148438 67.125 13.351562 67.125 19.800781 C 67.125 20.476562 67.050781 21.226562 67.050781 21.824219 L 52.949219 21.824219 C 53.476562 25.050781 55.425781 26.925781 58.425781 26.925781 C 60.375 26.925781 61.949219 26.175781 63.601562 24.449219 L 66.675781 27.675781 C 64.273438 30 61.574219 31.125 58.425781 31.125 Z M 52.875 18.226562 L 62.398438 18.226562 C 62.175781 15 60.523438 13.125 57.75 13.125 C 55.050781 13.125 53.324219 15 52.875 18.226562 Z M 52.875 18.226562 "/>
<path fill-rule="nonzero" fill="rgb(1.568604%, 19.215393%, 41.567993%)" fill-opacity="1" d="M 71.476562 20.101562 C 71.476562 13.351562 74.925781 9.148438 80.023438 9.148438 C 82.648438 9.148438 84.75 10.273438 86.101562 12 L 86.175781 12 L 86.175781 1.199219 L 91.050781 0 L 91.050781 30.675781 L 86.25 30.675781 L 86.25 28.199219 L 86.175781 28.199219 C 84.675781 30.074219 82.5 31.199219 79.875 31.199219 C 74.925781 31.125 71.476562 26.851562 71.476562 20.101562 Z M 76.273438 20.101562 C 76.273438 24.375 78.074219 26.851562 81.148438 26.851562 C 83.023438 26.851562 84.601562 25.949219 86.175781 24.074219 L 86.175781 16.351562 C 84.75 14.476562 83.175781 13.574219 81.148438 13.574219 C 78 13.574219 76.273438 15.898438 76.273438 20.101562 Z M 76.273438 20.101562 "/>
<path fill-rule="nonzero" fill="rgb(1.568604%, 19.215393%, 41.567993%)" fill-opacity="1" d="M 110.175781 9.523438 L 109.425781 14.550781 C 108.675781 14.175781 107.773438 13.875 106.726562 13.875 C 103.351562 13.875 102.449219 16.574219 102.449219 19.800781 L 102.449219 30.601562 L 97.574219 30.601562 L 97.574219 9.601562 L 102.375 9.601562 L 102.375 12.300781 L 102.449219 12.300781 C 103.574219 10.351562 105.523438 9.148438 107.925781 9.148438 C 108.601562 9.074219 109.425781 9.226562 110.175781 9.523438 Z M 110.175781 9.523438 "/>
<path fill-rule="nonzero" fill="rgb(1.568604%, 19.215393%, 41.567993%)" fill-opacity="1" d="M 119.851562 3.300781 C 119.851562 5.023438 118.425781 6.300781 116.699219 6.300781 C 114.976562 6.300781 113.625 5.101562 113.625 3.300781 C 113.625 1.574219 115.050781 0.300781 116.699219 0.300781 C 118.5 0.300781 119.851562 1.574219 119.851562 3.300781 Z M 119.25 30.601562 L 114.375 30.601562 L 114.375 9.601562 L 119.25 9.601562 Z M 119.25 30.601562 "/>
<path fill-rule="nonzero" fill="rgb(1.568604%, 19.215393%, 41.567993%)" fill-opacity="1" d="M 142.050781 27.75 C 139.949219 30.074219 137.550781 31.125 134.550781 31.125 C 128.550781 31.125 124.5 26.773438 124.5 20.175781 C 124.5 13.574219 128.550781 9.074219 134.625 9.074219 C 137.773438 9.074219 140.324219 10.273438 142.199219 12.675781 L 138.824219 15.898438 C 137.625 14.324219 136.273438 13.574219 134.625 13.574219 C 131.550781 13.574219 129.449219 16.125 129.449219 20.101562 C 129.449219 24 131.550781 26.625 134.625 26.625 C 136.273438 26.625 137.625 25.875 138.976562 24.300781 Z M 142.050781 27.75 "/>
<path fill-rule="nonzero" fill="rgb(1.568604%, 19.215393%, 41.567993%)" fill-opacity="1" d="M 164.476562 30.601562 L 159.601562 30.601562 L 159.601562 18.601562 C 159.601562 15.523438 158.625 13.5 155.699219 13.5 C 152.324219 13.5 151.351562 16.199219 151.351562 18.601562 L 151.351562 30.675781 L 146.398438 30.675781 L 146.398438 1.199219 L 151.273438 0 L 151.273438 12.226562 L 151.351562 12.226562 C 152.550781 10.351562 154.726562 9.148438 157.5 9.148438 C 162.375 9.148438 164.398438 12.75 164.398438 17.625 L 164.398438 30.601562 Z M 164.476562 30.601562 "/>
<path fill-rule="nonzero" fill="rgb(1.568604%, 19.215393%, 41.567993%)" fill-opacity="1" d="M 170.101562 15.449219 L 180.375 15.449219 L 180.375 20.101562 L 170.101562 20.101562 Z M 170.101562 15.449219 "/>
<path fill-rule="nonzero" fill="rgb(1.568604%, 19.215393%, 41.567993%)" fill-opacity="1" d="M 193.726562 1.574219 L 199.199219 1.574219 L 210 30.601562 L 204.375 30.601562 L 202.273438 24.449219 L 190.574219 24.449219 L 188.476562 30.601562 L 183 30.601562 Z M 192.148438 19.800781 L 200.625 19.800781 L 196.425781 7.5 L 196.351562 7.5 Z M 192.148438 19.800781 "/>
<path fill-rule="nonzero" fill="rgb(1.568604%, 19.215393%, 41.567993%)" fill-opacity="1" d="M 219.226562 30.601562 L 214.351562 30.601562 L 214.351562 1.125 L 219.226562 0 Z M 219.226562 30.601562 "/>
<path fill-rule="nonzero" fill="rgb(1.568604%, 19.215393%, 41.567993%)" fill-opacity="1" d="M 234.898438 31.125 C 228.675781 31.125 224.476562 26.699219 224.476562 20.101562 C 224.476562 13.574219 228.449219 9.148438 234.300781 9.148438 C 239.925781 9.148438 243.601562 13.351562 243.601562 19.800781 C 243.601562 20.476562 243.523438 21.226562 243.523438 21.824219 L 229.425781 21.824219 C 229.949219 25.050781 231.898438 26.925781 234.898438 26.925781 C 236.851562 26.925781 238.425781 26.175781 240.074219 24.449219 L 243.148438 27.675781 C 240.75 30 238.125 31.125 234.898438 31.125 Z M 229.425781 18.226562 L 238.949219 18.226562 C 238.726562 15 237.074219 13.125 234.300781 13.125 C 231.601562 13.125 229.875 15 229.425781 18.226562 Z M 229.425781 18.226562 "/>
<path fill-rule="nonzero" fill="rgb(1.568604%, 19.215393%, 41.567993%)" fill-opacity="1" d="M 266.398438 30.601562 L 260.773438 30.601562 L 256.273438 23.324219 L 256.199219 23.324219 L 251.851562 30.601562 L 246.300781 30.601562 L 253.5 19.726562 L 246.824219 9.601562 L 252.375 9.601562 L 256.351562 16.050781 L 256.425781 16.050781 L 260.324219 9.601562 L 265.800781 9.601562 L 259.199219 19.648438 Z M 266.398438 30.601562 "/>
<path fill-rule="nonzero" fill="rgb(1.568604%, 19.215393%, 41.567993%)" fill-opacity="1" d="M 278.023438 17.625 C 279.375 17.625 280.648438 17.699219 282 18.074219 L 282 17.324219 C 282 14.625 280.425781 13.273438 277.351562 13.273438 C 275.625 13.273438 273.75 13.648438 272.023438 14.476562 L 270.976562 10.351562 C 272.925781 9.601562 275.476562 9.148438 277.875 9.148438 C 283.800781 9.148438 286.800781 11.925781 286.800781 17.25 L 286.800781 30.675781 L 282.148438 30.675781 L 282.148438 28.425781 L 282.074219 28.425781 C 280.273438 30.300781 278.398438 31.125 275.925781 31.125 C 271.726562 31.125 269.023438 28.5 269.023438 24.449219 C 268.949219 20.023438 272.101562 17.625 278.023438 17.625 Z M 277.199219 27.449219 C 279 27.449219 280.648438 26.550781 282 24.898438 L 282 21.300781 C 280.875 21 279.675781 20.925781 278.550781 20.925781 C 275.476562 20.925781 273.675781 22.125 273.675781 24.375 C 273.675781 26.25 275.023438 27.449219 277.199219 27.449219 Z M 277.199219 27.449219 "/>
<path fill-rule="nonzero" fill="rgb(1.568604%, 19.215393%, 41.567993%)" fill-opacity="1" d="M 311.101562 30.601562 L 306.148438 30.601562 L 306.148438 18.601562 C 306.148438 15.523438 305.25 13.5 302.25 13.5 C 298.800781 13.5 297.898438 16.273438 297.898438 18.601562 L 297.898438 30.675781 L 293.023438 30.675781 L 293.023438 9.675781 L 297.898438 9.675781 L 297.898438 12.226562 L 297.976562 12.226562 C 299.25 10.351562 301.425781 9.148438 304.125 9.148438 C 308.925781 9.148438 311.023438 12.675781 311.023438 17.625 L 311.023438 30.601562 Z M 311.101562 30.601562 "/>
<path fill-rule="nonzero" fill="rgb(1.568604%, 19.215393%, 41.567993%)" fill-opacity="1" d="M 316.273438 20.101562 C 316.273438 13.351562 319.726562 9.148438 324.824219 9.148438 C 327.449219 9.148438 329.550781 10.273438 330.898438 12 L 330.976562 12 L 330.976562 1.199219 L 335.851562 0 L 335.851562 30.675781 L 331.050781 30.675781 L 331.050781 28.199219 L 330.976562 28.199219 C 329.476562 30.074219 327.300781 31.199219 324.675781 31.199219 C 319.726562 31.125 316.273438 26.851562 316.273438 20.101562 Z M 321.148438 20.101562 C 321.148438 24.375 322.949219 26.851562 326.023438 26.851562 C 327.898438 26.851562 329.476562 25.949219 331.050781 24.074219 L 331.050781 16.351562 C 329.625 14.476562 328.050781 13.574219 326.023438 13.574219 C 322.800781 13.574219 321.148438 15.898438 321.148438 20.101562 Z M 321.148438 20.101562 "/>
<path fill-rule="nonzero" fill="rgb(1.568604%, 19.215393%, 41.567993%)" fill-opacity="1" d="M 351.601562 31.125 C 345.375 31.125 341.175781 26.699219 341.175781 20.101562 C 341.175781 13.574219 345.148438 9.148438 351 9.148438 C 356.625 9.148438 360.300781 13.351562 360.300781 19.800781 C 360.300781 20.476562 360.226562 21.226562 360.226562 21.824219 L 346.125 21.824219 C 346.648438 25.050781 348.601562 26.925781 351.601562 26.925781 C 353.550781 26.925781 355.125 26.175781 356.773438 24.449219 L 359.851562 27.675781 C 357.449219 30 354.75 31.125 351.601562 31.125 Z M 346.125 18.226562 L 355.648438 18.226562 C 355.425781 15 353.773438 13.125 351 13.125 C 348.300781 13.125 346.5 15 346.125 18.226562 Z M 346.125 18.226562 "/>
<path fill-rule="nonzero" fill="rgb(1.568604%, 19.215393%, 41.567993%)" fill-opacity="1" d="M 378.449219 9.523438 L 377.699219 14.550781 C 376.949219 14.175781 376.050781 13.875 375 13.875 C 371.625 13.875 370.726562 16.574219 370.726562 19.800781 L 370.726562 30.601562 L 365.851562 30.601562 L 365.851562 9.601562 L 370.648438 9.601562 L 370.648438 12.300781 L 370.726562 12.300781 C 371.851562 10.351562 373.800781 9.148438 376.199219 9.148438 C 376.875 9.074219 377.699219 9.226562 378.449219 9.523438 Z M 378.449219 9.523438 "/>
<path fill-rule="nonzero" fill="rgb(1.568604%, 19.215393%, 41.567993%)" fill-opacity="1" d="M 381.523438 15.449219 L 391.800781 15.449219 L 391.800781 20.101562 L 381.523438 20.101562 Z M 381.523438 15.449219 "/>
<path fill-rule="nonzero" fill="rgb(1.568604%, 19.215393%, 41.567993%)" fill-opacity="1" d="M 420.75 19.125 C 420.75 26.101562 417.148438 31.125 409.351562 31.125 C 401.625 31.125 398.023438 26.175781 398.023438 19.125 L 398.023438 1.574219 L 403.273438 1.574219 L 403.273438 18.824219 C 403.273438 23.175781 405.148438 26.175781 409.425781 26.175781 C 413.699219 26.175781 415.425781 23.25 415.425781 18.824219 L 415.425781 1.574219 L 420.675781 1.574219 L 420.675781 19.125 Z M 420.75 19.125 "/>
<path fill-rule="nonzero" fill="rgb(1.568604%, 19.215393%, 41.567993%)" fill-opacity="1" d="M 445.351562 30.601562 L 440.476562 30.601562 L 440.476562 18.601562 C 440.476562 15.523438 439.574219 13.5 436.574219 13.5 C 433.125 13.5 432.226562 16.273438 432.226562 18.601562 L 432.226562 30.675781 L 427.351562 30.675781 L 427.351562 9.675781 L 432.226562 9.675781 L 432.226562 12.226562 L 432.300781 12.226562 C 433.574219 10.351562 435.75 9.148438 438.449219 9.148438 C 443.25 9.148438 445.351562 12.675781 445.351562 17.625 Z M 445.351562 30.601562 "/>
<path fill-rule="nonzero" fill="rgb(1.568604%, 19.215393%, 41.567993%)" fill-opacity="1" d="M 457.125 3.300781 C 457.125 5.023438 455.699219 6.300781 453.976562 6.300781 C 452.25 6.300781 450.898438 5.101562 450.898438 3.300781 C 450.898438 1.574219 452.324219 0.300781 453.976562 0.300781 C 455.699219 0.300781 457.125 1.574219 457.125 3.300781 Z M 456.449219 30.601562 L 451.574219 30.601562 L 451.574219 9.601562 L 456.449219 9.601562 Z M 456.449219 30.601562 "/>
<path fill-rule="nonzero" fill="rgb(1.568604%, 19.215393%, 41.567993%)" fill-opacity="1" d="M 480.976562 9.675781 L 473.324219 30.675781 L 468.226562 30.675781 L 460.574219 9.675781 L 465.976562 9.675781 L 470.773438 24.898438 L 470.851562 24.898438 L 475.648438 9.675781 Z M 480.976562 9.675781 "/>
<path fill-rule="nonzero" fill="rgb(1.568604%, 19.215393%, 41.567993%)" fill-opacity="1" d="M 493.648438 31.125 C 487.425781 31.125 483.226562 26.699219 483.226562 20.101562 C 483.226562 13.574219 487.199219 9.148438 493.050781 9.148438 C 498.675781 9.148438 502.351562 13.351562 502.351562 19.800781 C 502.351562 20.476562 502.273438 21.226562 502.273438 21.824219 L 488.175781 21.824219 C 488.699219 25.050781 490.648438 26.925781 493.648438 26.925781 C 495.601562 26.925781 497.175781 26.175781 498.824219 24.449219 L 501.898438 27.675781 C 499.5 30 496.875 31.125 493.648438 31.125 Z M 488.175781 18.226562 L 497.699219 18.226562 C 497.476562 15 495.824219 13.125 493.050781 13.125 C 490.351562 13.125 488.625 15 488.175781 18.226562 Z M 488.175781 18.226562 "/>
<path fill-rule="nonzero" fill="rgb(1.568604%, 19.215393%, 41.567993%)" fill-opacity="1" d="M 520.5 9.523438 L 519.75 14.550781 C 519 14.175781 518.101562 13.875 517.050781 13.875 C 513.675781 13.875 512.773438 16.574219 512.773438 19.800781 L 512.773438 30.601562 L 507.898438 30.601562 L 507.898438 9.601562 L 512.699219 9.601562 L 512.699219 12.300781 L 512.773438 12.300781 C 513.898438 10.351562 515.851562 9.148438 518.25 9.148438 C 518.925781 9.074219 519.75 9.226562 520.5 9.523438 Z M 520.5 9.523438 "/>
<path fill-rule="nonzero" fill="rgb(1.568604%, 19.215393%, 41.567993%)" fill-opacity="1" d="M 525.148438 24.675781 C 527.25 26.25 529.199219 27 531.074219 27 C 532.875 27 534.148438 26.175781 534.148438 24.898438 C 534.148438 21.300781 523.648438 22.574219 523.648438 15.601562 C 523.648438 11.699219 526.875 9.074219 531.601562 9.074219 C 534.148438 9.074219 536.625 9.824219 538.875 11.25 L 536.550781 15.074219 C 534.75 13.875 533.101562 13.199219 531.523438 13.199219 C 529.726562 13.199219 528.523438 13.949219 528.523438 15.148438 C 528.523438 18.601562 539.023438 17.398438 539.023438 24.449219 C 539.023438 28.425781 535.800781 31.125 530.925781 31.125 C 528.148438 31.125 525.300781 30.226562 522.824219 28.574219 Z M 525.148438 24.675781 "/>
<path fill-rule="nonzero" fill="rgb(1.568604%, 19.215393%, 41.567993%)" fill-opacity="1" d="M 549.824219 3.300781 C 549.824219 5.023438 548.398438 6.300781 546.675781 6.300781 C 544.949219 6.300781 543.601562 5.101562 543.601562 3.300781 C 543.601562 1.574219 545.023438 0.300781 546.675781 0.300781 C 548.398438 0.300781 549.824219 1.574219 549.824219 3.300781 Z M 549.148438 30.601562 L 544.273438 30.601562 L 544.273438 9.601562 L 549.148438 9.601562 Z M 549.148438 30.601562 "/>
<path fill-rule="nonzero" fill="rgb(1.568604%, 19.215393%, 41.567993%)" fill-opacity="1" d="M 566.398438 26.175781 L 566.398438 30.375 C 565.351562 30.898438 563.699219 31.125 562.273438 31.125 C 558.601562 31.125 556.574219 29.023438 556.574219 25.199219 L 556.574219 13.726562 L 553.351562 13.726562 L 553.351562 9.675781 L 556.5 9.675781 L 556.5 3.976562 L 561.375 2.925781 L 561.375 9.75 L 566.398438 9.75 L 566.398438 13.800781 L 561.375 13.800781 L 561.375 24.148438 C 561.375 26.101562 562.050781 26.925781 563.625 26.925781 C 564.523438 26.851562 565.574219 26.550781 566.398438 26.175781 Z M 566.398438 26.175781 "/>
<path fill-rule="nonzero" fill="rgb(1.568604%, 19.215393%, 41.567993%)" fill-opacity="1" d="M 579.226562 17.625 C 580.574219 17.625 581.851562 17.699219 583.199219 18.074219 L 583.199219 17.324219 C 583.199219 14.625 581.625 13.273438 578.550781 13.273438 C 576.824219 13.273438 574.949219 13.648438 573.226562 14.476562 L 572.175781 10.351562 C 574.125 9.601562 576.675781 9.148438 579.074219 9.148438 C 585 9.148438 588 11.925781 588 17.25 L 588 30.675781 L 583.351562 30.675781 L 583.351562 28.425781 L 583.273438 28.425781 C 581.476562 30.300781 579.601562 31.125 577.125 31.125 C 572.925781 31.125 570.226562 28.5 570.226562 24.449219 C 570.226562 20.023438 573.375 17.625 579.226562 17.625 Z M 575.25 6.375 C 573.675781 6.375 572.324219 5.023438 572.324219 3.523438 C 572.324219 2.023438 573.675781 0.675781 575.25 0.675781 C 576.824219 0.675781 578.175781 2.023438 578.175781 3.523438 C 578.175781 5.101562 576.824219 6.375 575.25 6.375 Z M 578.398438 27.449219 C 580.199219 27.449219 581.851562 26.550781 583.199219 24.898438 L 583.199219 21.300781 C 582.074219 21 580.875 20.925781 579.75 20.925781 C 576.675781 20.925781 574.875 22.125 574.875 24.375 C 574.875 26.25 576.226562 27.449219 578.398438 27.449219 Z M 583.800781 6.375 C 582.226562 6.375 580.875 5.023438 580.875 3.523438 C 580.875 2.023438 582.226562 0.675781 583.800781 0.675781 C 585.375 0.675781 586.726562 2.023438 586.726562 3.523438 C 586.726562 5.101562 585.375 6.375 583.800781 6.375 Z M 583.800781 6.375 "/>
<g clip-path="url(#clip-0)">
<path fill-rule="nonzero" fill="rgb(1.568604%, 19.215393%, 41.567993%)" fill-opacity="1" d="M 604.875 26.175781 L 604.875 30.375 C 603.824219 30.898438 602.175781 31.125 600.75 31.125 C 597.074219 31.125 595.050781 29.023438 595.050781 25.199219 L 595.050781 13.726562 L 591.824219 13.726562 L 591.824219 9.675781 L 594.976562 9.675781 L 594.976562 3.976562 L 599.851562 2.925781 L 599.851562 9.75 L 604.875 9.75 L 604.875 13.800781 L 599.851562 13.800781 L 599.851562 24.148438 C 599.851562 26.101562 600.523438 26.925781 602.101562 26.925781 C 603.074219 26.851562 604.050781 26.550781 604.875 26.175781 Z M 604.875 26.175781 "/>
</g>
<path fill-rule="nonzero" fill="rgb(100%, 72.155762%, 10.980225%)" fill-opacity="1" d="M 20.476562 55.726562 C 20.476562 62.023438 16.125 64.875 10.050781 64.875 L 5.25 64.875 L 5.25 75.976562 L 0.0742188 75.976562 L 0.0742188 46.949219 L 10.351562 46.949219 C 16.199219 46.949219 20.476562 49.5 20.476562 55.726562 Z M 15.300781 55.949219 C 15.300781 52.949219 13.425781 51.523438 10.125 51.523438 L 5.25 51.523438 L 5.25 60.375 L 9.976562 60.375 C 13.425781 60.375 15.300781 58.875 15.300781 55.949219 Z M 15.300781 55.949219 "/>
<path fill-rule="nonzero" fill="rgb(100%, 72.155762%, 10.980225%)" fill-opacity="1" d="M 43.125 75.976562 L 38.25 75.976562 L 38.25 63.976562 C 38.25 60.898438 37.273438 58.875 34.351562 58.875 C 30.976562 58.875 30 61.574219 30 63.976562 L 30 76.050781 L 25.125 76.050781 L 25.125 46.574219 L 30 45.375 L 30 57.601562 L 30.074219 57.601562 C 31.273438 55.726562 33.449219 54.523438 36.226562 54.523438 C 41.101562 54.523438 43.125 58.125 43.125 63 Z M 43.125 75.976562 "/>
<path fill-rule="nonzero" fill="rgb(100%, 72.155762%, 10.980225%)" fill-opacity="1" d="M 54.898438 48.675781 C 54.898438 50.398438 53.476562 51.675781 51.75 51.675781 C 50.023438 51.675781 48.675781 50.398438 48.675781 48.675781 C 48.675781 46.949219 50.101562 45.675781 51.75 45.675781 C 53.476562 45.675781 54.898438 46.949219 54.898438 48.675781 Z M 54.226562 75.976562 L 49.351562 75.976562 L 49.351562 54.976562 L 54.226562 54.976562 Z M 54.226562 75.976562 "/>
<path fill-rule="nonzero" fill="rgb(100%, 72.155762%, 10.980225%)" fill-opacity="1" d="M 65.625 75.976562 L 60.75 75.976562 L 60.75 46.425781 L 65.625 45.300781 Z M 65.625 75.976562 "/>
<path fill-rule="nonzero" fill="rgb(100%, 72.155762%, 10.980225%)" fill-opacity="1" d="M 70.949219 65.476562 C 70.949219 58.875 75 54.449219 81.148438 54.449219 C 87.226562 54.449219 91.199219 58.800781 91.199219 65.476562 C 91.199219 72.074219 87.300781 76.5 81.148438 76.5 C 75.074219 76.5 70.949219 72.148438 70.949219 65.476562 Z M 86.25 65.550781 C 86.25 61.5 84.226562 58.949219 81 58.949219 C 77.773438 58.949219 75.75 61.5 75.75 65.476562 C 75.75 69.523438 77.773438 72.148438 81 72.148438 C 84.300781 72.074219 86.25 69.601562 86.25 65.550781 Z M 86.25 65.550781 "/>
<path fill-rule="nonzero" fill="rgb(100%, 72.155762%, 10.980225%)" fill-opacity="1" d="M 96.675781 70.050781 C 98.699219 71.625 100.726562 72.375 102.601562 72.375 C 104.398438 72.375 105.675781 71.550781 105.675781 70.273438 C 105.675781 66.675781 95.175781 67.949219 95.175781 60.976562 C 95.175781 57.074219 98.398438 54.449219 103.125 54.449219 C 105.675781 54.449219 108.148438 55.199219 110.398438 56.625 L 108.074219 60.449219 C 106.273438 59.25 104.625 58.574219 103.050781 58.574219 C 101.25 58.574219 100.050781 59.324219 100.050781 60.523438 C 100.050781 63.976562 110.550781 62.773438 110.550781 69.824219 C 110.550781 73.800781 107.324219 76.5 102.449219 76.5 C 99.675781 76.5 96.824219 75.601562 94.351562 73.949219 Z M 96.675781 70.050781 "/>
<path fill-rule="nonzero" fill="rgb(100%, 72.155762%, 10.980225%)" fill-opacity="1" d="M 114.523438 65.476562 C 114.523438 58.875 118.574219 54.449219 124.726562 54.449219 C 130.800781 54.449219 134.773438 58.800781 134.773438 65.476562 C 134.773438 72.074219 130.875 76.5 124.726562 76.5 C 118.648438 76.5 114.523438 72.148438 114.523438 65.476562 Z M 129.824219 65.550781 C 129.824219 61.5 127.800781 58.949219 124.574219 58.949219 C 121.351562 58.949219 119.324219 61.5 119.324219 65.476562 C 119.324219 69.523438 121.351562 72.148438 124.574219 72.148438 C 127.875 72.074219 129.824219 69.601562 129.824219 65.550781 Z M 129.824219 65.550781 "/>
<path fill-rule="nonzero" fill="rgb(100%, 72.155762%, 10.980225%)" fill-opacity="1" d="M 159.675781 65.398438 C 159.675781 72.226562 156.226562 76.5 151.125 76.5 C 148.574219 76.5 146.398438 75.375 145.050781 73.726562 L 144.976562 73.726562 L 144.976562 83.25 L 140.101562 84.449219 L 140.101562 55.050781 L 144.898438 55.050781 L 144.898438 57.601562 L 144.976562 57.601562 C 146.476562 55.726562 148.726562 54.523438 151.351562 54.523438 C 156.226562 54.449219 159.675781 58.574219 159.675781 65.398438 Z M 154.800781 65.550781 C 154.800781 61.199219 153.074219 58.875 149.925781 58.875 C 148.050781 58.875 146.550781 59.699219 144.976562 61.574219 L 144.976562 69.300781 C 146.398438 71.175781 147.976562 72.148438 150 72.148438 C 153.148438 72.148438 154.800781 69.675781 154.800781 65.550781 Z M 154.800781 65.550781 "/>
<path fill-rule="nonzero" fill="rgb(100%, 72.155762%, 10.980225%)" fill-opacity="1" d="M 183.148438 75.976562 L 178.273438 75.976562 L 178.273438 63.976562 C 178.273438 60.898438 177.300781 58.875 174.375 58.875 C 171 58.875 170.023438 61.574219 170.023438 63.976562 L 170.023438 76.050781 L 165.148438 76.050781 L 165.148438 46.574219 L 170.023438 45.375 L 170.023438 57.601562 L 170.101562 57.601562 C 171.300781 55.726562 173.476562 54.523438 176.25 54.523438 C 181.125 54.523438 183.148438 58.125 183.148438 63 Z M 183.148438 75.976562 "/>
<path fill-rule="nonzero" fill="rgb(100%, 72.155762%, 10.980225%)" fill-opacity="1" d="M 194.925781 48.675781 C 194.925781 50.398438 193.5 51.675781 191.773438 51.675781 C 190.050781 51.675781 188.699219 50.398438 188.699219 48.675781 C 188.699219 46.949219 190.125 45.675781 191.773438 45.675781 C 193.5 45.675781 194.925781 46.949219 194.925781 48.675781 Z M 194.25 75.976562 L 189.375 75.976562 L 189.375 54.976562 L 194.25 54.976562 Z M 194.25 75.976562 "/>
<path fill-rule="nonzero" fill="rgb(100%, 72.155762%, 10.980225%)" fill-opacity="1" d="M 201.148438 70.050781 C 203.25 71.625 205.199219 72.375 207.074219 72.375 C 208.875 72.375 210.148438 71.550781 210.148438 70.273438 C 210.148438 66.675781 199.648438 67.949219 199.648438 60.976562 C 199.648438 57.074219 202.875 54.449219 207.601562 54.449219 C 210.148438 54.449219 212.625 55.199219 214.875 56.625 L 212.550781 60.449219 C 210.75 59.25 209.101562 58.574219 207.523438 58.574219 C 205.726562 58.574219 204.523438 59.324219 204.523438 60.523438 C 204.523438 63.976562 215.023438 62.773438 215.023438 69.824219 C 215.023438 73.800781 211.800781 76.5 206.925781 76.5 C 204.148438 76.5 201.300781 75.601562 198.824219 73.949219 Z M 201.148438 70.050781 "/>
<path fill-rule="nonzero" fill="rgb(100%, 72.155762%, 10.980225%)" fill-opacity="1" d="M 236.550781 73.125 C 234.449219 75.449219 232.050781 76.5 229.050781 76.5 C 223.050781 76.5 219 72.148438 219 65.550781 C 219 58.949219 223.050781 54.449219 229.125 54.449219 C 232.273438 54.449219 234.824219 55.648438 236.699219 58.050781 L 233.324219 61.273438 C 232.125 59.699219 230.773438 58.949219 229.125 58.949219 C 226.050781 58.949219 223.949219 61.5 223.949219 65.476562 C 223.949219 69.375 226.050781 72 229.125 72 C 230.773438 72 232.125 71.25 233.476562 69.675781 Z M 236.550781 73.125 "/>
<path fill-rule="nonzero" fill="rgb(100%, 72.155762%, 10.980225%)" fill-opacity="1" d="M 258.898438 75.976562 L 254.023438 75.976562 L 254.023438 63.976562 C 254.023438 60.898438 253.050781 58.875 250.125 58.875 C 246.75 58.875 245.773438 61.574219 245.773438 63.976562 L 245.773438 76.050781 L 240.898438 76.050781 L 240.898438 46.574219 L 245.773438 45.375 L 245.773438 57.601562 L 245.851562 57.601562 C 247.050781 55.726562 249.226562 54.523438 252 54.523438 C 256.875 54.523438 258.898438 58.125 258.898438 63 Z M 258.898438 75.976562 "/>
<path fill-rule="nonzero" fill="rgb(100%, 72.155762%, 10.980225%)" fill-opacity="1" d="M 274.425781 76.5 C 268.199219 76.5 264 72.074219 264 65.476562 C 264 58.949219 267.976562 54.523438 273.824219 54.523438 C 279.449219 54.523438 283.125 58.726562 283.125 65.175781 C 283.125 65.851562 283.050781 66.601562 283.050781 67.199219 L 268.949219 67.199219 C 269.476562 70.425781 271.425781 72.300781 274.425781 72.300781 C 276.375 72.300781 277.949219 71.550781 279.601562 69.824219 L 282.675781 73.050781 C 280.273438 75.375 277.648438 76.5 274.425781 76.5 Z M 268.949219 63.601562 L 278.476562 63.601562 C 278.25 60.375 276.601562 58.5 273.824219 58.5 C 271.125 58.5 269.398438 60.375 268.949219 63.601562 Z M 268.949219 63.601562 "/>
<path fill-rule="nonzero" fill="rgb(100%, 72.155762%, 10.980225%)" fill-opacity="1" d="M 319.273438 51.75 L 306.226562 51.75 L 306.226562 58.949219 L 315.976562 58.949219 L 315.976562 63.675781 L 306.226562 63.675781 L 306.226562 76.050781 L 301.050781 76.050781 L 301.050781 47.023438 L 319.273438 47.023438 Z M 319.273438 51.75 "/>
<path fill-rule="nonzero" fill="rgb(100%, 72.155762%, 10.980225%)" fill-opacity="1" d="M 329.25 63 C 330.601562 63 331.875 63.074219 333.226562 63.449219 L 333.226562 62.699219 C 333.226562 60 331.648438 58.648438 328.574219 58.648438 C 326.851562 58.648438 324.976562 59.023438 323.25 59.851562 L 322.199219 55.726562 C 324.148438 54.976562 326.699219 54.523438 329.101562 54.523438 C 335.023438 54.523438 338.023438 57.300781 338.023438 62.625 L 338.023438 76.050781 L 333.375 76.050781 L 333.375 73.800781 L 333.300781 73.800781 C 331.5 75.675781 329.625 76.5 327.148438 76.5 C 322.949219 76.5 320.25 73.875 320.25 69.824219 C 320.25 65.398438 323.398438 63 329.25 63 Z M 328.425781 72.824219 C 330.226562 72.824219 331.875 71.925781 333.226562 70.273438 L 333.226562 66.601562 C 332.101562 66.300781 330.898438 66.226562 329.773438 66.226562 C 326.699219 66.226562 324.898438 67.425781 324.898438 69.675781 C 324.898438 71.625 326.25 72.824219 328.425781 72.824219 Z M 328.425781 72.824219 "/>
<path fill-rule="nonzero" fill="rgb(100%, 72.155762%, 10.980225%)" fill-opacity="1" d="M 344.25 46.574219 L 349.125 45.375 L 349.125 63.824219 L 349.199219 63.824219 L 356.101562 55.050781 L 361.949219 55.050781 L 355.050781 63.300781 L 362.699219 76.050781 L 356.851562 76.050781 L 351.601562 66.976562 L 349.199219 69.675781 L 349.199219 76.050781 L 344.324219 76.050781 L 344.324219 46.574219 Z M 344.25 46.574219 "/>
<path fill-rule="nonzero" fill="rgb(100%, 72.155762%, 10.980225%)" fill-opacity="1" d="M 371.25 67.648438 C 371.25 70.5 372.675781 72.074219 375.449219 72.074219 C 378.148438 72.074219 379.5 70.574219 379.5 67.648438 L 379.5 55.050781 L 384.375 55.050781 L 384.375 67.800781 C 384.375 73.351562 381.300781 76.574219 375.523438 76.574219 C 369.824219 76.574219 366.300781 73.351562 366.300781 67.875 L 366.300781 55.125 L 371.175781 55.125 L 371.175781 67.648438 Z M 371.25 67.648438 "/>
<path fill-rule="nonzero" fill="rgb(100%, 72.155762%, 10.980225%)" fill-opacity="1" d="M 395.625 75.976562 L 390.75 75.976562 L 390.75 46.425781 L 395.625 45.300781 Z M 395.625 75.976562 "/>
<path fill-rule="nonzero" fill="rgb(100%, 72.155762%, 10.980225%)" fill-opacity="1" d="M 412.949219 71.550781 L 412.949219 75.75 C 411.898438 76.273438 410.25 76.5 408.824219 76.5 C 405.148438 76.5 403.125 74.398438 403.125 70.574219 L 403.125 59.101562 L 399.898438 59.101562 L 399.898438 55.050781 L 403.050781 55.050781 L 403.050781 49.351562 L 407.925781 48.300781 L 407.925781 55.125 L 412.949219 55.125 L 412.949219 59.175781 L 407.925781 59.175781 L 407.925781 69.523438 C 407.925781 71.476562 408.601562 72.300781 410.175781 72.300781 C 411.148438 72.226562 412.125 71.925781 412.949219 71.550781 Z M 412.949219 71.550781 "/>
<path fill-rule="nonzero" fill="rgb(100%, 72.155762%, 10.980225%)" fill-opacity="1" d="M 425.773438 63 C 427.125 63 428.398438 63.074219 429.75 63.449219 L 429.75 62.699219 C 429.75 60 428.175781 58.648438 425.101562 58.648438 C 423.375 58.648438 421.5 59.023438 419.773438 59.851562 L 418.726562 55.726562 C 420.675781 54.976562 423.226562 54.523438 425.625 54.523438 C 431.550781 54.523438 434.550781 57.300781 434.550781 62.625 L 434.550781 76.050781 L 429.898438 76.050781 L 429.898438 73.800781 L 429.824219 73.800781 C 428.023438 75.675781 426.148438 76.5 423.675781 76.5 C 419.476562 76.5 416.773438 73.875 416.773438 69.824219 C 416.773438 65.398438 419.925781 63 425.773438 63 Z M 421.800781 51.75 C 420.226562 51.75 418.875 50.398438 418.875 48.898438 C 418.875 47.398438 420.226562 46.050781 421.800781 46.050781 C 423.375 46.050781 424.726562 47.398438 424.726562 48.898438 C 424.726562 50.476562 423.375 51.75 421.800781 51.75 Z M 424.949219 72.824219 C 426.75 72.824219 428.398438 71.925781 429.75 70.273438 L 429.75 66.601562 C 428.625 66.300781 427.425781 66.226562 426.300781 66.226562 C 423.226562 66.226562 421.425781 67.425781 421.425781 69.675781 C 421.5 71.625 422.851562 72.824219 424.949219 72.824219 Z M 430.425781 51.75 C 428.851562 51.75 427.5 50.398438 427.5 48.898438 C 427.5 47.398438 428.851562 46.050781 430.425781 46.050781 C 432 46.050781 433.351562 47.398438 433.351562 48.898438 C 433.351562 50.476562 431.925781 51.75 430.425781 51.75 Z M 430.425781 51.75 "/>
<path fill-rule="nonzero" fill="rgb(100%, 72.155762%, 10.980225%)" fill-opacity="1" d="M 451.5 71.550781 L 451.5 75.75 C 450.449219 76.273438 448.800781 76.5 447.375 76.5 C 443.699219 76.5 441.675781 74.398438 441.675781 70.574219 L 441.675781 59.101562 L 438.449219 59.101562 L 438.449219 55.050781 L 441.601562 55.050781 L 441.601562 49.351562 L 446.476562 48.300781 L 446.476562 55.125 L 451.5 55.125 L 451.5 59.175781 L 446.476562 59.175781 L 446.476562 69.523438 C 446.476562 71.476562 447.148438 72.300781 448.726562 72.300781 C 449.699219 72.226562 450.675781 71.925781 451.5 71.550781 Z M 451.5 71.550781 "/>
<path fill-rule="nonzero" fill="rgb(100%, 72.155762%, 10.980225%)" fill-opacity="1" d="M 473.25 67.648438 C 473.25 70.5 474.675781 72.074219 477.449219 72.074219 C 480.148438 72.074219 481.5 70.574219 481.5 67.648438 L 481.5 55.050781 L 486.375 55.050781 L 486.375 67.800781 C 486.375 73.351562 483.300781 76.574219 477.523438 76.574219 C 471.824219 76.574219 468.300781 73.351562 468.300781 67.875 L 468.300781 55.125 L 473.175781 55.125 L 473.175781 67.648438 Z M 473.25 67.648438 "/>
<path fill-rule="nonzero" fill="rgb(100%, 72.155762%, 10.980225%)" fill-opacity="1" d="M 510.675781 75.976562 L 505.800781 75.976562 L 505.800781 63.976562 C 505.800781 60.898438 504.898438 58.875 501.898438 58.875 C 498.449219 58.875 497.550781 61.648438 497.550781 63.976562 L 497.550781 76.050781 L 492.675781 76.050781 L 492.675781 55.050781 L 497.550781 55.050781 L 497.550781 57.601562 L 497.625 57.601562 C 498.898438 55.726562 501.074219 54.523438 503.773438 54.523438 C 508.574219 54.523438 510.675781 58.050781 510.675781 63 Z M 510.675781 75.976562 "/>
<path fill-rule="nonzero" fill="rgb(100%, 72.155762%, 10.980225%)" fill-opacity="1" d="M 515.851562 65.476562 C 515.851562 58.726562 519.300781 54.523438 524.398438 54.523438 C 527.023438 54.523438 529.125 55.648438 530.476562 57.375 L 530.550781 57.375 L 530.550781 46.574219 L 535.425781 45.375 L 535.425781 76.050781 L 530.625 76.050781 L 530.625 73.574219 L 530.550781 73.574219 C 529.050781 75.449219 526.875 76.574219 524.25 76.574219 C 519.300781 76.5 515.851562 72.226562 515.851562 65.476562 Z M 520.726562 65.476562 C 520.726562 69.75 522.523438 72.226562 525.601562 72.226562 C 527.476562 72.226562 529.050781 71.324219 530.625 69.449219 L 530.625 61.800781 C 529.199219 59.925781 527.625 59.023438 525.601562 59.023438 C 522.449219 58.949219 520.726562 61.273438 520.726562 65.476562 Z M 520.726562 65.476562 "/>
<path fill-rule="nonzero" fill="rgb(100%, 72.155762%, 10.980225%)" fill-opacity="1" d="M 18.300781 97.125 L 5.175781 97.125 L 5.175781 104.324219 L 14.925781 104.324219 L 14.925781 109.050781 L 5.175781 109.050781 L 5.175781 121.425781 L 0 121.425781 L 0 92.398438 L 18.226562 92.398438 L 18.226562 97.125 Z M 18.300781 97.125 "/>
<path fill-rule="nonzero" fill="rgb(100%, 72.155762%, 10.980225%)" fill-opacity="1" d="M 28.199219 108.375 C 29.550781 108.375 30.824219 108.449219 32.175781 108.824219 L 32.175781 108.074219 C 32.175781 105.375 30.601562 104.023438 27.523438 104.023438 C 25.800781 104.023438 23.925781 104.398438 22.199219 105.226562 L 21.148438 101.101562 C 23.101562 100.351562 25.648438 99.898438 28.050781 99.898438 C 33.976562 99.898438 36.976562 102.675781 36.976562 108 L 36.976562 121.425781 L 32.324219 121.425781 L 32.324219 119.175781 L 32.25 119.175781 C 30.449219 121.050781 28.574219 121.875 26.101562 121.875 C 21.898438 121.875 19.199219 119.25 19.199219 115.199219 C 19.199219 110.773438 22.351562 108.375 28.199219 108.375 Z M 27.375 118.199219 C 29.175781 118.199219 30.824219 117.300781 32.175781 115.648438 L 32.175781 112.050781 C 31.050781 111.75 29.851562 111.675781 28.726562 111.675781 C 25.648438 111.675781 23.851562 112.875 23.851562 115.125 C 23.925781 117 25.273438 118.199219 27.375 118.199219 Z M 27.375 118.199219 "/>
<path fill-rule="nonzero" fill="rgb(100%, 72.155762%, 10.980225%)" fill-opacity="1" d="M 59.699219 118.5 C 57.601562 120.824219 55.199219 121.875 52.199219 121.875 C 46.199219 121.875 42.148438 117.523438 42.148438 110.925781 C 42.148438 104.324219 46.199219 99.824219 52.273438 99.824219 C 55.425781 99.824219 57.976562 101.023438 59.851562 103.425781 L 56.476562 106.648438 C 55.273438 105.074219 53.925781 104.324219 52.273438 104.324219 C 49.199219 104.324219 47.101562 106.875 47.101562 110.851562 C 47.101562 114.75 49.199219 117.375 52.273438 117.375 C 53.925781 117.375 55.273438 116.625 56.625 115.050781 Z M 59.699219 118.5 "/>
<path fill-rule="nonzero" fill="rgb(100%, 72.155762%, 10.980225%)" fill-opacity="1" d="M 82.125 121.351562 L 77.25 121.351562 L 77.25 109.351562 C 77.25 106.273438 76.273438 104.25 73.351562 104.25 C 69.976562 104.25 69 106.949219 69 109.351562 L 69 121.425781 L 64.125 121.425781 L 64.125 91.949219 L 69 90.75 L 69 102.976562 L 69.074219 102.976562 C 70.273438 101.101562 72.449219 99.898438 75.226562 99.898438 C 80.101562 99.898438 82.125 103.5 82.125 108.375 Z M 82.125 121.351562 "/>
<path fill-rule="nonzero" fill="rgb(100%, 72.155762%, 10.980225%)" fill-opacity="1" d="M 107.925781 110.773438 C 107.925781 117.523438 104.476562 121.875 99.375 121.875 C 96.75 121.875 94.574219 120.75 93.148438 118.949219 L 93.074219 118.949219 L 93.074219 121.351562 L 88.351562 121.351562 L 88.351562 91.875 L 93.226562 90.675781 L 93.226562 102.824219 L 93.300781 102.824219 C 94.726562 100.949219 96.824219 99.824219 99.449219 99.824219 C 104.550781 99.824219 107.925781 103.949219 107.925781 110.773438 Z M 103.125 110.851562 C 103.125 106.5 101.324219 104.25 98.25 104.25 C 96.375 104.25 94.800781 105.074219 93.300781 106.949219 L 93.300781 114.601562 C 94.726562 116.476562 96.300781 117.449219 98.324219 117.449219 C 101.398438 117.523438 103.125 115.050781 103.125 110.851562 Z M 103.125 110.851562 "/>
<path fill-rule="nonzero" fill="rgb(100%, 72.155762%, 10.980225%)" fill-opacity="1" d="M 122.625 121.875 C 116.398438 121.875 112.199219 117.449219 112.199219 110.851562 C 112.199219 104.324219 116.175781 99.898438 122.023438 99.898438 C 127.648438 99.898438 131.324219 104.101562 131.324219 110.550781 C 131.324219 111.226562 131.25 111.976562 131.25 112.574219 L 117.148438 112.574219 C 117.675781 115.800781 119.625 117.675781 122.625 117.675781 C 124.574219 117.675781 126.148438 116.925781 127.800781 115.199219 L 130.875 118.425781 C 128.476562 120.75 125.851562 121.875 122.625 121.875 Z M 117.148438 108.976562 L 126.675781 108.976562 C 126.449219 105.75 124.800781 103.875 122.023438 103.875 C 119.324219 103.875 117.601562 105.75 117.148438 108.976562 Z M 117.148438 108.976562 "/>
<path fill-rule="nonzero" fill="rgb(100%, 72.155762%, 10.980225%)" fill-opacity="1" d="M 149.476562 100.273438 L 148.726562 105.300781 C 147.976562 104.925781 147.074219 104.625 146.023438 104.625 C 142.648438 104.625 141.75 107.324219 141.75 110.550781 L 141.75 121.351562 L 136.875 121.351562 L 136.875 100.351562 L 141.675781 100.351562 L 141.675781 102.976562 L 141.75 102.976562 C 142.875 101.023438 144.824219 99.824219 147.226562 99.824219 C 147.898438 99.824219 148.726562 99.976562 149.476562 100.273438 Z M 149.476562 100.273438 "/>
<path fill-rule="nonzero" fill="rgb(100%, 72.155762%, 10.980225%)" fill-opacity="1" d="M 162.601562 121.875 C 156.375 121.875 152.175781 117.449219 152.175781 110.851562 C 152.175781 104.324219 156.148438 99.898438 162 99.898438 C 167.625 99.898438 171.300781 104.101562 171.300781 110.550781 C 171.300781 111.226562 171.226562 111.976562 171.226562 112.574219 L 157.125 112.574219 C 157.648438 115.800781 159.601562 117.675781 162.601562 117.675781 C 164.550781 117.675781 166.125 116.925781 167.773438 115.199219 L 170.851562 118.425781 C 168.449219 120.75 165.75 121.875 162.601562 121.875 Z M 157.125 108.976562 L 166.648438 108.976562 C 166.425781 105.75 164.773438 103.875 162 103.875 C 159.300781 103.875 157.5 105.75 157.125 108.976562 Z M 157.125 108.976562 "/>
<path fill-rule="nonzero" fill="rgb(100%, 72.155762%, 10.980225%)" fill-opacity="1" d="M 182.25 94.050781 C 182.25 95.773438 180.824219 97.050781 179.101562 97.050781 C 177.375 97.050781 176.023438 95.773438 176.023438 94.050781 C 176.023438 92.324219 177.449219 91.050781 179.101562 91.050781 C 180.824219 91.050781 182.25 92.324219 182.25 94.050781 Z M 181.574219 121.351562 L 176.699219 121.351562 L 176.699219 100.351562 L 181.574219 100.351562 Z M 181.574219 121.351562 "/>
<path fill-rule="nonzero" fill="rgb(100%, 72.155762%, 10.980225%)" fill-opacity="1" d="M 204.449219 118.5 C 202.351562 120.824219 199.949219 121.875 196.949219 121.875 C 190.949219 121.875 186.898438 117.523438 186.898438 110.925781 C 186.898438 104.324219 190.949219 99.824219 197.023438 99.824219 C 200.175781 99.824219 202.726562 101.023438 204.601562 103.425781 L 201.226562 106.648438 C 200.023438 105.074219 198.675781 104.324219 197.023438 104.324219 C 193.949219 104.324219 191.851562 106.875 191.851562 110.851562 C 191.851562 114.75 193.949219 117.375 197.023438 117.375 C 198.675781 117.375 200.023438 116.625 201.375 115.050781 Z M 204.449219 118.5 "/>
<path fill-rule="nonzero" fill="rgb(100%, 72.155762%, 10.980225%)" fill-opacity="1" d="M 226.800781 121.351562 L 221.925781 121.351562 L 221.925781 109.351562 C 221.925781 106.273438 220.949219 104.25 218.023438 104.25 C 214.648438 104.25 213.675781 106.949219 213.675781 109.351562 L 213.675781 121.425781 L 208.800781 121.425781 L 208.800781 91.949219 L 213.675781 90.75 L 213.675781 102.976562 L 213.75 102.976562 C 214.949219 101.101562 217.125 99.898438 219.898438 99.898438 C 224.773438 99.898438 226.800781 103.5 226.800781 108.375 Z M 226.800781 121.351562 "/>
<path fill-rule="nonzero" fill="rgb(100%, 72.155762%, 10.980225%)" fill-opacity="1" d="M 265.050781 97.199219 L 256.800781 97.199219 L 256.800781 121.425781 L 251.625 121.425781 L 251.625 97.199219 L 243.300781 97.199219 L 243.300781 92.398438 L 264.976562 92.398438 L 264.976562 97.199219 Z M 265.050781 97.199219 "/>
<path fill-rule="nonzero" fill="rgb(100%, 72.155762%, 10.980225%)" fill-opacity="1" d="M 287.476562 121.351562 L 282.601562 121.351562 L 282.601562 109.351562 C 282.601562 106.273438 281.625 104.25 278.699219 104.25 C 275.324219 104.25 274.351562 106.949219 274.351562 109.351562 L 274.351562 121.425781 L 269.398438 121.425781 L 269.398438 91.949219 L 274.273438 90.75 L 274.273438 102.976562 L 274.351562 102.976562 C 275.550781 101.101562 277.726562 99.898438 280.5 99.898438 C 285.375 99.898438 287.398438 103.5 287.398438 108.375 L 287.398438 121.351562 Z M 287.476562 121.351562 "/>
<path fill-rule="nonzero" fill="rgb(100%, 72.155762%, 10.980225%)" fill-opacity="1" d="M 303 121.875 C 296.773438 121.875 292.574219 117.449219 292.574219 110.851562 C 292.574219 104.324219 296.550781 99.898438 302.398438 99.898438 C 308.023438 99.898438 311.699219 104.101562 311.699219 110.550781 C 311.699219 111.226562 311.625 111.976562 311.625 112.574219 L 297.523438 112.574219 C 298.050781 115.800781 300 117.675781 303 117.675781 C 304.949219 117.675781 306.523438 116.925781 308.175781 115.199219 L 311.25 118.425781 C 308.851562 120.75 306.148438 121.875 303 121.875 Z M 297.523438 108.976562 L 307.050781 108.976562 C 306.824219 105.75 305.175781 103.875 302.398438 103.875 C 299.625 103.875 297.898438 105.75 297.523438 108.976562 Z M 297.523438 108.976562 "/>
<path fill-rule="nonzero" fill="rgb(100%, 72.155762%, 10.980225%)" fill-opacity="1" d="M 315.976562 110.851562 C 315.976562 104.25 320.023438 99.824219 326.175781 99.824219 C 332.25 99.824219 336.226562 104.175781 336.226562 110.851562 C 336.226562 117.449219 332.324219 121.875 326.175781 121.875 C 320.101562 121.875 315.976562 117.523438 315.976562 110.851562 Z M 331.351562 110.925781 C 331.351562 106.875 329.324219 104.324219 326.101562 104.324219 C 322.875 104.324219 320.851562 106.875 320.851562 110.851562 C 320.851562 114.898438 322.875 117.523438 326.101562 117.523438 C 329.324219 117.449219 331.351562 114.976562 331.351562 110.925781 Z M 331.351562 110.925781 "/>
<path fill-rule="nonzero" fill="rgb(100%, 72.155762%, 10.980225%)" fill-opacity="1" d="M 346.425781 121.351562 L 341.550781 121.351562 L 341.550781 91.800781 L 346.425781 90.675781 Z M 346.425781 121.351562 "/>
<path fill-rule="nonzero" fill="rgb(100%, 72.155762%, 10.980225%)" fill-opacity="1" d="M 351.75 110.851562 C 351.75 104.25 355.800781 99.824219 361.949219 99.824219 C 368.023438 99.824219 372 104.175781 372 110.851562 C 372 117.449219 368.101562 121.875 361.949219 121.875 C 355.875 121.875 351.75 117.523438 351.75 110.851562 Z M 367.125 110.925781 C 367.125 106.875 365.101562 104.324219 361.875 104.324219 C 358.648438 104.324219 356.625 106.875 356.625 110.851562 C 356.625 114.898438 358.648438 117.523438 361.875 117.523438 C 365.175781 117.449219 367.125 114.976562 367.125 110.925781 Z M 367.125 110.925781 "/>
<g clip-path="url(#clip-1)">
<path fill-rule="nonzero" fill="rgb(100%, 72.155762%, 10.980225%)" fill-opacity="1" d="M 381.824219 126 L 382.875 125.925781 C 389.175781 125.699219 390.976562 123.898438 390.976562 119.925781 L 390.976562 118.574219 L 390.898438 118.574219 C 389.398438 120.449219 387.074219 121.5 384.523438 121.5 C 379.425781 121.5 376.199219 117.300781 376.199219 110.851562 C 376.199219 104.175781 379.648438 99.824219 384.75 99.824219 C 387.300781 99.824219 389.550781 100.875 390.898438 102.75 L 390.976562 102.75 L 390.976562 100.351562 L 395.773438 100.351562 L 395.773438 119.175781 C 395.773438 126 392.324219 129.375 383.175781 129.75 L 382.125 129.824219 Z M 381.148438 110.773438 C 381.148438 114.898438 382.949219 117.300781 386.023438 117.300781 C 387.898438 117.300781 389.476562 116.398438 390.976562 114.523438 L 390.976562 107.023438 C 389.550781 105.226562 387.898438 104.25 385.949219 104.25 C 382.949219 104.25 381.148438 106.648438 381.148438 110.773438 Z M 381.148438 110.773438 "/>
</g>
<path fill-rule="nonzero" fill="rgb(100%, 72.155762%, 10.980225%)" fill-opacity="1" d="M 407.925781 94.050781 C 407.925781 95.773438 406.5 97.050781 404.773438 97.050781 C 403.050781 97.050781 401.699219 95.773438 401.699219 94.050781 C 401.699219 92.324219 403.125 91.050781 404.773438 91.050781 C 406.5 91.050781 407.925781 92.324219 407.925781 94.050781 Z M 407.25 121.351562 L 402.375 121.351562 L 402.375 100.351562 L 407.25 100.351562 Z M 407.25 121.351562 "/>
<path fill-rule="nonzero" fill="rgb(100%, 72.155762%, 10.980225%)" fill-opacity="1" d="M 422.851562 121.875 C 416.625 121.875 412.425781 117.449219 412.425781 110.851562 C 412.425781 104.324219 416.398438 99.898438 422.25 99.898438 C 427.875 99.898438 431.550781 104.101562 431.550781 110.550781 C 431.550781 111.226562 431.476562 111.976562 431.476562 112.574219 L 417.375 112.574219 C 417.898438 115.800781 419.851562 117.675781 422.851562 117.675781 C 424.800781 117.675781 426.375 116.925781 428.023438 115.199219 L 431.101562 118.425781 C 428.699219 120.75 426 121.875 422.851562 121.875 Z M 417.375 108.976562 L 426.898438 108.976562 C 426.675781 105.75 425.023438 103.875 422.25 103.875 C 419.476562 103.875 417.75 105.75 417.375 108.976562 Z M 417.375 108.976562 "/>
</svg>
