<?xml version="1.0" encoding="UTF-8"?>
<svg xmlns="http://www.w3.org/2000/svg" xmlns:xlink="http://www.w3.org/1999/xlink" width="601.061" height="282.568" viewBox="0 0 601.061 282.568">
<path fill-rule="nonzero" fill="rgb(100%, 100%, 100%)" fill-opacity="1" d="M 241.703125 155.898438 L 251.46875 155.898438 L 277.109375 95.0625 L 272.230469 83.476562 Z M 281.976562 106.628906 L 261.214844 155.898438 L 302.722656 155.898438 Z M 237.601562 165.644531 L 208.78125 233.851562 L 199.039062 233.851562 L 272.207031 60.285156 L 312.46875 155.898438 L 322.210938 155.898438 L 277.082031 48.71875 L 286.824219 48.71875 L 336.058594 165.644531 Z M 296.570312 48.71875 L 371.625 226.996094 L 377.816406 218.578125 L 306.3125 48.71875 Z M 257.59375 48.71875 L 185.984375 218.578125 L 192.1875 226.996094 L 267.335938 48.71875 Z M 243.257812 175.386719 L 218.617188 233.851562 L 228.363281 233.847656 L 228.363281 233.851562 L 240.683594 204.617188 L 323.238281 204.617188 L 335.542969 233.851562 L 345.289062 233.851562 L 328.878906 194.875 L 244.789062 194.875 L 248.894531 185.128906 L 334.519531 185.128906 L 355.03125 233.851562 L 364.777344 233.851562 L 340.160156 175.386719 Z M 68.207031 233.851562 L 77.949219 233.851562 L 77.949219 185.128906 L 87.691406 185.128906 L 87.691406 225.667969 L 97.4375 215.925781 L 97.4375 185.128906 L 172.097656 185.128906 L 172.097656 175.386719 L 68.207031 175.386719 Z M 186.769531 136.410156 L 97.4375 136.410156 L 97.4375 97.4375 L 177.023438 97.4375 L 186.769531 87.695312 L 97.4375 87.695312 L 97.4375 77.949219 L 194.875 77.949219 L 194.875 68.207031 L 87.691406 68.207031 L 87.691406 146.15625 L 177.152344 146.15625 Z M 77.949219 58.460938 L 194.875 58.460938 L 194.875 48.71875 L 68.207031 48.71875 L 68.207031 165.644531 L 172.097656 165.644531 L 172.097656 155.898438 L 77.949219 155.898438 Z M 48.71875 66.644531 L 58.460938 56.898438 L 58.460938 233.851562 L 48.71875 233.851562 Z M 462.980469 221.667969 C 492.5625 221.667969 513.339844 199.761719 513.367188 170.191406 L 513.367188 56.898438 L 503.625 66.644531 L 503.625 160.773438 C 503.625 179.605469 488.355469 192.4375 469.519531 192.4375 C 449.101562 192.4375 435.417969 182.261719 435.417969 160.773438 L 435.417969 48.71875 L 425.671875 48.71875 L 425.671875 160.773438 C 425.671875 187.777344 443.496094 202.183594 469.519531 202.183594 C 479.421875 202.183594 491.441406 197.289062 499.605469 188.679688 L 499.824219 188.964844 C 492.171875 203.160156 481.226562 211.925781 462.980469 211.925781 C 436.761719 211.925781 415.929688 193.167969 415.929688 165.480469 L 415.929688 48.71875 L 406.1875 48.71875 L 406.191406 165.5625 C 406.191406 198.683594 431.558594 221.667969 462.980469 221.667969 M 542.601562 48.71875 L 542.601562 160.773438 C 542.601562 186.847656 530.964844 209.246094 503.820312 226.429688 L 503.601562 226.140625 C 521.4375 211.996094 532.855469 193.824219 532.855469 170.351562 L 532.855469 48.71875 L 523.113281 48.71875 L 523.113281 170.191406 C 523.113281 205.167969 494.753906 231.414062 459.777344 231.414062 C 424.796875 231.414062 396.441406 205.167969 396.441406 170.191406 L 396.441406 56.898438 L 386.699219 66.644531 L 386.699219 170.351562 C 386.699219 210.710938 419.417969 240.996094 459.777344 240.996094 L 469.519531 240.996094 C 509.265625 240.996094 552.34375 211.644531 552.34375 160.914062 L 552.34375 48.71875 Z M 542.601562 48.71875 "/>
</svg>
