<?xml version="1.0" encoding="UTF-8"?>
<svg xmlns="http://www.w3.org/2000/svg" xmlns:xlink="http://www.w3.org/1999/xlink" width="601.059998" height="282.570007" viewBox="0 0 601.059998 282.570007">
<path fill-rule="nonzero" fill="rgb(7.058716%, 19.215393%, 39.607239%)" fill-opacity="1" d="M 241.703125 155.902344 L 251.46875 155.902344 L 277.109375 95.066406 L 272.230469 83.480469 Z M 281.976562 106.632812 L 261.214844 155.902344 L 302.722656 155.902344 Z M 237.601562 165.644531 L 208.78125 233.851562 L 199.039062 233.851562 L 272.210938 60.289062 L 312.46875 155.902344 L 322.210938 155.902344 L 277.082031 48.722656 L 286.824219 48.722656 L 336.058594 165.644531 Z M 296.570312 48.722656 L 371.628906 227 L 377.8125 218.578125 L 306.3125 48.722656 Z M 257.59375 48.722656 L 185.984375 218.578125 L 192.1875 227 L 267.339844 48.722656 Z M 243.257812 175.390625 L 218.617188 233.851562 L 228.363281 233.851562 L 240.683594 204.621094 L 323.234375 204.621094 L 335.542969 233.851562 L 345.289062 233.851562 L 328.878906 194.878906 L 244.789062 194.878906 L 248.894531 185.132812 L 334.519531 185.132812 L 355.03125 233.851562 L 364.777344 233.851562 L 340.160156 175.390625 Z M 459.777344 221.671875 C 489.355469 221.671875 513.339844 199.765625 513.367188 170.191406 L 513.367188 56.902344 L 503.625 66.644531 L 503.625 160.773438 C 503.625 179.609375 488.355469 192.441406 469.519531 192.441406 C 450.6875 192.441406 435.417969 179.609375 435.417969 160.773438 L 435.417969 48.722656 L 425.675781 48.722656 L 425.675781 160.773438 C 425.675781 184.988281 445.304688 202.183594 469.519531 202.183594 C 479.421875 202.183594 491.441406 197.292969 499.605469 188.679688 L 499.824219 188.96875 C 492.171875 203.164062 478.019531 211.929688 459.777344 211.929688 C 435.710938 211.929688 416.175781 194.503906 415.9375 170.515625 L 415.929688 170.515625 L 415.929688 48.722656 L 406.1875 48.722656 L 406.1875 170.515625 L 406.191406 170.515625 C 406.394531 199.925781 430.304688 221.671875 459.777344 221.671875 Z M 542.597656 48.722656 L 542.597656 160.773438 C 542.597656 186.847656 530.964844 209.25 503.820312 226.429688 L 503.597656 226.144531 C 521.4375 211.996094 532.855469 193.828125 532.855469 170.355469 L 532.855469 48.722656 L 523.109375 48.722656 L 523.109375 170.191406 C 523.109375 205.171875 494.753906 231.417969 459.777344 231.417969 C 424.796875 231.417969 396.441406 205.171875 396.441406 170.191406 L 396.441406 56.902344 L 386.699219 66.644531 L 386.699219 170.355469 C 386.699219 210.714844 419.417969 240.996094 459.777344 240.996094 C 460.710938 240.996094 469.519531 240.996094 469.519531 240.996094 C 509.261719 240.996094 552.34375 211.648438 552.34375 160.917969 C 552.34375 160.867188 552.34375 48.722656 552.34375 48.722656 Z M 68.207031 233.851562 L 77.949219 233.851562 L 77.949219 185.132812 L 87.695312 185.132812 L 87.695312 225.671875 L 97.4375 215.925781 L 97.4375 185.132812 L 175.828125 185.132812 L 175.828125 175.390625 L 68.207031 175.390625 Z M 190.5 136.414062 L 97.4375 136.414062 L 97.4375 97.441406 L 177.023438 97.441406 L 186.769531 87.695312 L 97.4375 87.695312 L 97.4375 77.953125 L 194.875 77.953125 L 194.875 68.207031 L 87.695312 68.207031 L 87.695312 146.15625 L 180.882812 146.15625 Z M 77.949219 58.464844 L 194.875 58.464844 L 194.875 48.722656 L 68.207031 48.722656 L 68.207031 165.644531 L 175.828125 165.644531 L 175.828125 155.902344 L 77.949219 155.902344 Z M 48.71875 66.644531 L 58.460938 56.902344 L 58.460938 233.851562 L 48.71875 233.851562 L 48.71875 66.644531 "/>
</svg>
