<?xml version="1.0" encoding="UTF-8" standalone="no"?>
<svg
   width="337.20001pt"
   height="141.84pt"
   viewBox="0 0 337.2 141.84"
   version="1.1"
   id="svg55"
   xmlns="http://www.w3.org/2000/svg"
   xmlns:svg="http://www.w3.org/2000/svg">
  <defs
     id="defs55" />
  <path
     fill-rule="nonzero"
     fill="#171817"
     fill-opacity="1"
     d="m 287.92578,49.335938 v 2.03125 h 4.21484 v 15.761718 h 2.21094 V 51.367188 h 4.21485 v -2.03125 h -10.64063"
     id="path1" />
  <path
     fill-rule="nonzero"
     fill="#171817"
     fill-opacity="1"
     d="m 273.08594,49.335938 h -10.64453 v 2.03125 h 4.21484 v 15.761718 h 2.21484 V 51.367188 h 4.21485 v -2.03125"
     id="path2" />
  <path
     fill-rule="nonzero"
     fill="#171817"
     fill-opacity="1"
     d="m 257.10937,67.128906 h 2.21485 V 49.335938 h -2.21485 v 17.792968"
     id="path3" />
  <path
     fill-rule="nonzero"
     fill="#171817"
     fill-opacity="1"
     d="m 248.66016,56.605469 -1.26954,-0.496094 c -1.10546,-0.425781 -2.47265,-1.15625 -2.47265,-2.550781 0,-1.558594 1.55469,-2.523438 2.96875,-2.523438 1.33984,0 2.1875,0.566406 2.84765,1.675782 l 1.76563,-1.0625 c -0.96484,-1.722657 -2.58984,-2.691407 -4.56641,-2.691407 -2.68359,0 -5.23047,1.722657 -5.23047,4.601563 0,2.480468 1.83985,3.636718 3.86329,4.507812 l 1.22265,0.519532 c 1.53125,0.636718 3.0625,1.464843 3.0625,3.375 0,1.863281 -1.36719,3.46875 -3.27344,3.46875 -1.90625,0 -3.46093,-1.414063 -3.4375,-3.375 l -2.23828,0.476562 c 0.37891,2.851562 2.61719,4.976562 5.48828,4.976562 3.17969,0 5.67188,-2.3125 5.67188,-5.546874 0,-2.972657 -1.88281,-4.363282 -4.40234,-5.355469"
     id="path4" />
  <path
     fill-rule="nonzero"
     fill="#171817"
     fill-opacity="1"
     d="M 224.38672,65.101562 H 217.0625 V 58.375 h 7.10937 v -2.03125 h -7.10937 v -4.976562 h 7.32422 v -2.03125 h -9.53516 v 17.792968 h 9.53516 v -2.027344"
     id="path5" />
  <path
     fill-rule="nonzero"
     fill="#171817"
     fill-opacity="1"
     d="m 212.55469,49.335938 h -2.42578 l -5.27344,13.167968 -5.29688,-13.167968 h -2.42578 l 7.72266,18.738281 7.69922,-18.738281"
     id="path6" />
  <path
     fill-rule="nonzero"
     fill="#171817"
     fill-opacity="1"
     d="m 194.82422,49.335938 h -2.21485 v 17.792968 h 2.21485 V 49.335938"
     id="path7" />
  <path
     fill-rule="nonzero"
     fill="#171817"
     fill-opacity="1"
     d="m 174.44531,53.867188 13.32422,13.996093 V 49.335938 h -2.21094 V 62.480469 L 172.23437,48.484375 v 18.644531 h 2.21094 V 53.867188"
     id="path8" />
  <path
     fill-rule="nonzero"
     fill="#171817"
     fill-opacity="1"
     d="m 161.73047,67.507812 c 4.07031,0 6.49609,-2.996093 6.49609,-6.914062 V 49.335938 h -2.21484 v 10.503906 c 0,2.898437 -0.8711,5.589844 -4.28125,5.589844 -3.41797,0 -4.28516,-2.691407 -4.28516,-5.589844 V 49.335938 h -2.21484 V 60.59375 c 0,3.917969 2.42578,6.914062 6.5,6.914062"
     id="path9" />
  <path
     fill-rule="nonzero"
     fill="#171817"
     fill-opacity="1"
     d="m 231.98828,57.761719 h -0.70703 v -6.441407 h 0.58984 c 2.1875,0 4.82422,0.398438 4.82422,3.183594 0,2.832032 -2.44922,3.257813 -4.70703,3.257813 z m 6.78125,-3.351563 c 0,-1.699218 -0.84766,-3.375 -2.33203,-4.25 -1.41406,-0.800781 -3.10938,-0.824218 -4.68359,-0.824218 h -2.6836 v 17.792968 h 2.21094 v -7.527344 h 0.91797 l 5.22656,7.527344 h 2.68359 l -5.60156,-7.738281 c 2.56641,-0.308594 4.26172,-2.433594 4.26172,-4.980469"
     id="path10" />
  <path
     fill-rule="nonzero"
     fill="#171817"
     fill-opacity="1"
     d="m 283.98437,52.046875 c 0.77735,0 1.41016,-0.636719 1.41016,-1.4375 0,-0.78125 -0.63281,-1.417969 -1.41016,-1.417969 -0.80078,0 -1.4375,0.636719 -1.4375,1.417969 0,0.800781 0.63672,1.4375 1.4375,1.4375"
     id="path11" />
  <path
     fill-rule="nonzero"
     fill="#171817"
     fill-opacity="1"
     d="m 277.33984,60.640625 3.15235,-7.199219 3.15625,7.199219 z m -5.32031,6.488281 h 2.375 l 2.02734,-4.460937 h 8.14454 l 2.02343,4.460937 h 2.37891 l -8.47656,-18.546875 -8.47266,18.546875"
     id="path12" />
  <path
     fill-rule="nonzero"
     fill="#171817"
     fill-opacity="1"
     d="m 277.00391,52.046875 c 0.80078,0 1.43359,-0.636719 1.43359,-1.4375 0,-0.78125 -0.63281,-1.417969 -1.43359,-1.417969 -0.77735,0 -1.41407,0.636719 -1.41407,1.417969 0,0.800781 0.63672,1.4375 1.41407,1.4375"
     id="path13" />
  <path
     fill-rule="nonzero"
     fill="#171817"
     fill-opacity="1"
     d="m 157.44141,75.660156 h -2.21094 v 17.792969 h 7.60547 v -2.027344 h -5.39453 V 75.660156"
     id="path14" />
  <path
     fill-rule="nonzero"
     fill="#171817"
     fill-opacity="1"
     d="m 227.44141,86.515625 h 4.58984 c -0.0937,2.902344 -3.05859,5.285156 -5.8125,5.285156 -3.83594,0 -6.89844,-3.539062 -6.89844,-7.265625 0,-3.988281 3.10938,-7.226562 7.08594,-7.226562 2.16797,0 4.30859,1.160156 5.57812,2.90625 l 1.55469,-1.488282 c -1.74219,-2.191406 -4.47265,-3.445312 -7.22656,-3.445312 -5.10938,0 -9.20313,4.199219 -9.20313,9.324219 0,4.929687 4,9.226562 8.96875,9.226562 4.96875,0 8.40235,-3.753906 8.40235,-8.636719 v -0.710937 h -7.03906 v 2.03125"
     id="path15" />
  <path
     fill-rule="nonzero"
     fill="#171817"
     fill-opacity="1"
     d="m 211.78125,93.453125 h 2.21484 V 75.660156 h -2.21484 v 17.792969"
     id="path16" />
  <path
     fill-rule="nonzero"
     fill="#171817"
     fill-opacity="1"
     d="m 197.42187,75.859375 v 2.03125 h 7.72266 l -8.99219,15.761719 h 12.59375 v -2.03125 h -8.99218 l 8.99218,-15.761719 h -11.32422"
     id="path17" />
  <path
     fill-rule="nonzero"
     fill="#171817"
     fill-opacity="1"
     d="m 178.87891,93.453125 h 2.21484 V 75.660156 h -2.21484 v 17.792969"
     id="path18" />
  <path
     fill-rule="nonzero"
     fill="#171817"
     fill-opacity="1"
     d="m 165.04297,93.453125 h 9.53515 v -2.027344 h -7.32421 v -6.726562 h 7.10937 v -2.03125 h -7.10937 V 77.6875 h 7.32421 v -2.027344 h -9.53515 v 17.792969"
     id="path19" />
  <path
     fill-rule="nonzero"
     fill="#171817"
     fill-opacity="1"
     d="m 188.92578,84.015625 h -0.71094 v -6.371094 h 0.58985 c 2.1914,0 4.82812,0.328125 4.82812,3.113281 0,2.832032 -2.44922,3.257813 -4.70703,3.257813 z m -0.37891,-8.355469 h -2.54296 v 17.792969 h 2.21093 v -7.457031 h 1.27344 c 3.36719,0 6.21484,-1.4375 6.21484,-5.191406 0,-3.257813 -1.69531,-5.144532 -7.15625,-5.144532"
     id="path20" />
  <path
     fill-rule="nonzero"
     fill="#171817"
     fill-opacity="1"
     d="m 141.94141,116.76563 h 0.51953 V 25.550781 h -0.51953 v 91.214849"
     id="path21" />
  <path
     fill-rule="nonzero"
     fill="#171817"
     fill-opacity="1"
     d="m 83.5625,116.23828 c -24.855469,0 -45.078125,-20.222655 -45.078125,-45.08203 0,-24.855469 20.222656,-45.078125 45.078125,-45.078125 24.85938,0 45.08203,20.222656 45.08203,45.078125 0,24.859375 -20.22265,45.08203 -45.08203,45.08203 z m 0,-90.687499 c -25.144531,0 -45.605469,20.460938 -45.605469,45.605469 0,25.148438 20.460938,45.60938 45.605469,45.60938 25.14844,0 45.60937,-20.460942 45.60937,-45.60938 0,-25.144531 -20.46093,-45.605469 -45.60937,-45.605469"
     id="path22" />
  <path
     fill-rule="nonzero"
     fill="#171817"
     fill-opacity="1"
     d="m 72.371094,57.683594 c 0.0078,0.0078 0.183594,0.07813 0.1875,0.07813 0.01172,0 0.105468,0.04687 0.113281,0.04687 0.08594,-0.02344 0.121094,-0.105469 0.164063,-0.191406 0.0039,-0.0039 0.242187,-0.40625 0.417968,-0.722657 0.09766,-0.179687 0.246094,-0.367187 0.566406,-0.28125 0.101563,0.02734 0.289063,0.09375 0.429688,0.148438 0.0078,-0.01953 0.01563,-0.03516 0.02734,-0.05078 0.01953,-0.02734 0.04297,-0.05469 0.05859,-0.08984 0,0 0.01562,-0.03906 0.02344,-0.04297 0.01563,-0.04687 0.03125,-0.09375 0.04297,-0.144531 -0.01953,-0.02344 -0.03125,-0.05859 -0.03906,-0.09375 -0.03906,-0.01563 -0.07031,-0.04687 -0.08984,-0.07813 -0.0625,-0.01953 -0.121094,-0.04297 -0.175782,-0.06641 -0.484375,-0.199218 -0.976562,-0.03125 -1.242187,0.441407 -0.132813,0.242187 -0.402344,0.585937 -0.480469,0.75 -0.05078,0.09766 -0.08984,0.226562 -0.0039,0.296875"
     id="path23" />
  <path
     fill-rule="nonzero"
     fill="#171817"
     fill-opacity="1"
     d="m 72.097656,56.574219 c 0.136719,0.03125 0.265625,-0.08594 0.292969,-0.144531 0.02734,-0.05859 -0.03516,-0.199219 -0.0625,-0.253907 -0.02734,-0.05469 -0.08594,-0.09766 -0.191406,-0.136719 -0.101563,-0.03516 -0.207031,0.0039 -0.207031,0.0039 0,0 -0.164063,0.0625 -0.203126,0.132812 -0.04297,0.07031 0.01172,0.1875 0.07031,0.257813 0.05469,0.07031 0.164063,0.109375 0.300781,0.140625"
     id="path24" />
  <path
     fill-rule="nonzero"
     fill="#171817"
     fill-opacity="1"
     d="m 72.019531,58.105469 c -0.113281,-0.08203 -0.234375,0.03125 -0.234375,0.03125 0,0 -0.05859,0.08203 -0.05859,0.199219 0,0.117187 -0.0039,0.328124 0.503907,0.449218 0.191406,0.04687 0.300781,-0.0039 0.363281,-0.160156 0.132812,-0.339844 -0.324219,-0.335938 -0.574219,-0.519531"
     id="path25" />
  <path
     fill-rule="nonzero"
     fill="#171817"
     fill-opacity="1"
     d="m 95.097656,56.902344 c 0.171875,0.01953 0.316406,-0.144532 0.339844,-0.21875 0.02734,-0.07813 -0.07031,-0.242188 -0.113281,-0.304688 -0.03906,-0.0625 -0.117188,-0.109375 -0.25,-0.136718 -0.132813,-0.03125 -0.257813,0.03125 -0.257813,0.03125 0,0 -0.195312,0.09375 -0.234375,0.191406 -0.03906,0.09375 0.04297,0.226562 0.125,0.308594 0.08203,0.07812 0.21875,0.109374 0.390625,0.128906"
     id="path26" />
  <path
     fill-rule="nonzero"
     fill="#171817"
     fill-opacity="1"
     d="m 99.855469,68.546875 c 0.125,0.01172 0.230471,-0.101563 0.250001,-0.160156 0.0156,-0.05469 -0.0547,-0.171875 -0.082,-0.214844 -0.03125,-0.04687 -0.08594,-0.07813 -0.183596,-0.101563 -0.09766,-0.02344 -0.183594,0.02344 -0.183594,0.02344 0,0 -0.140625,0.07031 -0.171875,0.136719 -0.02734,0.07031 0.03516,0.167969 0.09375,0.222656 0.05469,0.05469 0.15625,0.07813 0.277344,0.09375"
     id="path27" />
  <path
     fill-rule="nonzero"
     fill="#171817"
     fill-opacity="1"
     d="m 92.59375,56.257812 c -0.05859,-0.04297 -0.148438,-0.0625 -0.28125,-0.04297 -0.136719,0.01563 -0.230469,0.117187 -0.230469,0.117187 0,0 -0.148437,0.160157 -0.152343,0.261719 -0.0039,0.105469 0.117187,0.199219 0.222656,0.246094 0.101562,0.04687 0.242187,0.02734 0.414062,-0.01563 0.167969,-0.03906 0.242188,-0.242188 0.242188,-0.320313 -0.0039,-0.08203 -0.152344,-0.203125 -0.214844,-0.246094"
     id="path28" />
  <path
     fill-rule="nonzero"
     fill="#171817"
     fill-opacity="1"
     d="m 74.097656,57.167969 c -0.105468,-0.02344 -0.203125,0.02734 -0.203125,0.02734 0,0 -0.160156,0.07813 -0.191406,0.15625 -0.03125,0.07422 0.03516,0.179688 0.101563,0.246094 0.0625,0.0625 0.171874,0.08984 0.3125,0.105469 0.140624,0.01563 0.253906,-0.117187 0.277343,-0.179687 0.01953,-0.0625 -0.0625,-0.195313 -0.09375,-0.242188 -0.03125,-0.05078 -0.09375,-0.08984 -0.203125,-0.113281"
     id="path29" />
  <path
     fill-rule="nonzero"
     fill="#171817"
     fill-opacity="1"
     d="m 50.320312,95.121094 1.234376,-1.996094 1.066406,1.492188 z m 4.527344,-0.992188 -1.628906,0.359375 -1.34375,-1.882812 0.878906,-1.410157 -0.390625,-0.546874 -3.199219,5.28125 6.070313,-1.265626 -0.386719,-0.535156"
     id="path30" />
  <path
     fill-rule="nonzero"
     fill="#171817"
     fill-opacity="1"
     d="m 50.605469,87.308594 -0.496094,0.261718 0.695313,1.324219 -4.292969,2.257813 0.28125,0.535156 4.789062,-2.523438 -0.976562,-1.855468"
     id="path31" />
  <path
     fill-rule="nonzero"
     fill="#171817"
     fill-opacity="1"
     d="m 50.035156,86.324219 -0.203125,-0.582031 -3.6875,0.542968 -0.0039,-0.01563 3.097656,-2.914062 -4.242187,-0.375 -0.0039,-0.01563 3.230468,-1.855469 -0.203125,-0.585937 -5.046875,2.914062 4.941406,0.375 -3.648437,3.351562 5.769531,-0.839843"
     id="path32" />
  <path
     fill-rule="nonzero"
     fill="#171817"
     fill-opacity="1"
     d="m 43.191406,77.5 2.007813,-1.214844 0.273437,1.808594 z M 47.679688,78.667969 46.0625,78.25 l -0.34375,-2.285156 1.421875,-0.863282 -0.101563,-0.660156 -5.242187,3.257813 5.984375,1.621093 -0.101562,-0.652343"
     id="path33" />
  <path
     fill-rule="nonzero"
     fill="#171817"
     fill-opacity="1"
     d="m 46.867188,71.660156 0.04687,-0.613281 -3.597656,-0.972656 v -0.01563 l 4.003906,-1.4375 -3.742187,-2.035156 v -0.01172 l 3.707031,-0.417969 0.04687,-0.617188 -5.792969,0.664063 4.386719,2.3125 -4.683593,1.621094 5.625,1.523437"
     id="path34" />
  <path
     fill-rule="nonzero"
     fill="#171817"
     fill-opacity="1"
     d="m 45.800781,63.015625 -1.886719,-1.421875 2.324219,-0.359375 z m 1.820313,1.371094 -1.335938,-1 0.554688,-2.246094 1.644531,-0.253906 0.160156,-0.648438 -6.09375,1.007813 4.914063,3.78125 0.15625,-0.640625"
     id="path35" />
  <path
     fill-rule="nonzero"
     fill="#171817"
     fill-opacity="1"
     d="m 44.839844,56.664062 4.523437,1.761719 0.21875,-0.5625 -4.523437,-1.765625 0.480468,-1.226562 -0.519531,-0.207032 -1.175781,3.011719 0.523438,0.203125 0.472656,-1.214844"
     id="path36" />
  <path
     fill-rule="nonzero"
     fill="#171817"
     fill-opacity="1"
     d="m 52.148438,52.621094 -0.492188,-0.265625 -1.058594,1.933593 -1.863281,-1.019531 1.027344,-1.878906 -0.492188,-0.269531 -1.027343,1.875 -1.410157,-0.769532 1.058594,-1.933593 -0.492187,-0.269531 -1.347657,2.464843 4.75,2.597657 1.347657,-2.464844"
     id="path37" />
  <path
     fill-rule="nonzero"
     fill="#171817"
     fill-opacity="1"
     d="m 51.488281,48.402344 c 0,0 -0.0039,0 -0.01172,0.0039 l -0.109374,0.152344 -1.574219,-1.140625 0.105469,-0.144531 c 0.210937,-0.296876 0.441406,-0.527344 0.6875,-0.691407 0.246093,-0.164062 0.550781,-0.117187 0.910156,0.144531 0.339844,0.246094 0.476562,0.519532 0.402344,0.8125 -0.07031,0.296876 -0.207032,0.582032 -0.402344,0.851563 0,0.0078 -0.0039,0.0078 -0.0078,0.01172 z m 2.238281,1.859375 -1.925781,-1.394531 0.08594,-0.121094 2.886719,0.0625 0.433593,-0.597656 -2.972656,-0.01953 c 0.214844,-0.359375 0.28125,-0.71875 0.207031,-1.074218 -0.07813,-0.355469 -0.285156,-0.65625 -0.621094,-0.902344 C 51.324219,45.855469 50.878906,45.785156 50.484375,46 c -0.390625,0.21875 -0.738281,0.53125 -1.042969,0.945312 l -0.457031,0.632813 4.390625,3.167969 0.351562,-0.484375"
     id="path38" />
  <path
     fill-rule="nonzero"
     fill="#171817"
     fill-opacity="1"
     d="m 113.97656,51.023438 0.45313,-0.328126 -0.875,-1.210937 3.93359,-2.84375 -0.35156,-0.488281 -4.39063,3.171875 1.23047,1.699219"
     id="path39" />
  <path
     fill-rule="nonzero"
     fill="#171817"
     fill-opacity="1"
     d="m 115.43359,53.433594 4.69532,-2.695313 -0.30078,-0.523437 -4.69532,2.699218 0.30078,0.519532"
     id="path40" />
  <path
     fill-rule="nonzero"
     fill="#171817"
     fill-opacity="1"
     d="m 121.51563,54.75 0.082,0.207031 c 0.004,0.0039 0.004,0.0078 0.008,0.01172 0,0 0,0.0039 0.004,0.0078 0.13281,0.324219 0.21093,0.636719 0.23046,0.941407 0.0234,0.308593 -0.16796,0.542969 -0.57031,0.710937 -0.35937,0.152344 -0.64844,0.140625 -0.86328,-0.03516 -0.21875,-0.175781 -0.38672,-0.414062 -0.51172,-0.726562 l -0.15625,-0.371094 z m -4.48047,1.878906 2.1875,-0.914062 0.16797,0.402344 c 0.0117,0.02734 0.0234,0.05469 0.0352,0.07812 0.008,0.02734 0.0195,0.05469 0.0312,0.08203 0.0859,0.175781 0.1875,0.34375 0.30469,0.503906 0.12109,0.160156 0.26953,0.289062 0.45703,0.382812 0.18359,0.09766 0.38672,0.152344 0.59766,0.152344 0.21484,0.0039 0.42187,-0.02734 0.62109,-0.101562 0.008,-0.0039 0.0156,-0.0078 0.0234,-0.01172 0.0117,-0.0039 0.0195,-0.0078 0.0273,-0.01172 0.21875,-0.08984 0.41406,-0.226562 0.57813,-0.40625 0.16406,-0.183594 0.27343,-0.394531 0.32031,-0.632812 0.043,-0.199219 0.043,-0.394532 0,-0.589844 -0.043,-0.195312 -0.10156,-0.386719 -0.17578,-0.574219 -0.0117,-0.03125 -0.0234,-0.05859 -0.0391,-0.08984 -0.0117,-0.03516 -0.0234,-0.06641 -0.0312,-0.09766 l -0.34375,-0.820312 -4.9961,2.09375 0.23438,0.554687"
     id="path41" />
  <path
     fill-rule="nonzero"
     fill="#171817"
     fill-opacity="1"
     d="m 121.82813,60.3125 c -0.13282,0.277344 -0.22657,0.585938 -0.28125,0.925781 l -0.0625,0.359375 c 0,0.01172 -0.004,0.01953 -0.004,0.02344 0,0.01172 0,0.01953 -0.004,0.03125 -0.043,0.265625 -0.11328,0.507812 -0.20312,0.730468 -0.0898,0.222657 -0.28125,0.375 -0.57813,0.449219 -0.29687,0.07813 -0.57031,0.03516 -0.82031,-0.132812 -0.24609,-0.167969 -0.41016,-0.394531 -0.48437,-0.675781 -0.0742,-0.285157 -0.0391,-0.546876 0.10156,-0.785157 0.14062,-0.238281 0.34375,-0.414062 0.60937,-0.519531 l -0.3164,-0.527344 c -0.38672,0.1875 -0.66407,0.460938 -0.83594,0.820313 -0.16797,0.351562 -0.19922,0.742187 -0.0898,1.164062 0.12109,0.453125 0.375,0.800781 0.76562,1.042969 0.39063,0.242188 0.81641,0.304688 1.27734,0.183594 0.41407,-0.105469 0.69532,-0.3125 0.83985,-0.613282 0.14453,-0.300781 0.25,-0.644531 0.3125,-1.027343 l 0.0547,-0.386719 c 0.008,-0.03516 0.0117,-0.07422 0.0195,-0.113281 0.008,-0.04297 0.0156,-0.08203 0.0234,-0.125 0.0352,-0.167969 0.0937,-0.332031 0.17188,-0.488281 0.082,-0.15625 0.21094,-0.257813 0.39453,-0.308594 0.24219,-0.05859 0.45703,-0.02344 0.65234,0.109375 0.19532,0.136719 0.32422,0.320312 0.38672,0.550781 0.0547,0.222656 0.0547,0.417969 -0.0117,0.582031 -0.0625,0.164063 -0.16796,0.320313 -0.3164,0.46875 l 0.41406,0.382813 c 0.22266,-0.203125 0.37109,-0.441406 0.45313,-0.710938 0.0781,-0.273437 0.082,-0.558594 0.004,-0.851562 -0.10156,-0.386719 -0.30859,-0.699219 -0.625,-0.929688 -0.32031,-0.230468 -0.67969,-0.292968 -1.08984,-0.1875 -0.375,0.09766 -0.62891,0.285156 -0.75781,0.558594"
     id="path42" />
  <path
     fill-rule="nonzero"
     fill="#171817"
     fill-opacity="1"
     d="m 123.84766,62.4375 -0.004,-0.0039 c 0,0 0,0.0039 -0.004,0.0078 l 0.008,-0.0039"
     id="path43" />
  <path
     fill-rule="nonzero"
     fill="#171817"
     fill-opacity="1"
     d="m 119.87109,66.984375 5.3711,-0.695313 -0.0781,-0.597656 -5.37109,0.695313 0.0781,0.597656"
     id="path44" />
  <path
     fill-rule="nonzero"
     fill="#171817"
     fill-opacity="1"
     d="m 120.14844,72.605469 0.5625,-0.0039 -0.0156,-2.203124 2.125,-0.01563 0.0156,2.140626 0.55859,-0.0039 -0.0156,-2.140625 1.60937,-0.01172 0.0156,2.203124 0.55859,-0.0039 -0.0195,-2.804687 -5.41406,0.03516 0.0195,2.808594"
     id="path45" />
  <path
     fill-rule="nonzero"
     fill="#171817"
     fill-opacity="1"
     d="m 119.96484,75.75 -0.10937,0.59375 4.10156,0.761719 -5.11719,3.34375 5.5625,1.035156 0.11329,-0.59375 -4.125,-0.765625 5.12109,-3.34375 -5.54688,-1.03125"
     id="path46" />
  <path
     fill-rule="nonzero"
     fill="#171817"
     fill-opacity="1"
     d="m 122.12891,84.503906 c -0.36328,-0.136718 -0.67578,-0.132812 -0.94141,0.01563 -0.26953,0.152344 -0.52344,0.347657 -0.76562,0.59375 l -0.25782,0.257813 c -0.008,0.0039 -0.0156,0.01172 -0.0195,0.01563 -0.004,0.0078 -0.0117,0.01563 -0.0195,0.02344 -0.1875,0.1875 -0.38672,0.347656 -0.58984,0.476563 -0.20313,0.128906 -0.44532,0.140625 -0.73438,0.03125 -0.28515,-0.109375 -0.48047,-0.300781 -0.58594,-0.582031 -0.10546,-0.28125 -0.10937,-0.558594 -0.004,-0.832032 0.10547,-0.273437 0.28125,-0.464844 0.53515,-0.582031 0.25391,-0.113281 0.51954,-0.136719 0.79688,-0.07031 l 0.0469,-0.613281 c -0.42187,-0.06641 -0.80859,-0.0078 -1.15234,0.183594 -0.34375,0.191406 -0.59375,0.492187 -0.75,0.898437 -0.16406,0.4375 -0.16016,0.871094 0.0195,1.292969 0.17969,0.425781 0.49219,0.722657 0.9336,0.890625 0.40234,0.152344 0.75,0.148438 1.04296,-0.01563 0.29297,-0.160156 0.57813,-0.382812 0.85157,-0.65625 l 0.26562,-0.28125 c 0.0273,-0.02734 0.0547,-0.05469 0.082,-0.08594 0.0312,-0.03125 0.0586,-0.05859 0.0937,-0.08984 0.125,-0.113281 0.26563,-0.210938 0.42188,-0.292969 0.15625,-0.08203 0.32031,-0.08984 0.49609,-0.02344 0.23438,0.08984 0.39063,0.246094 0.47266,0.46875 0.082,0.21875 0.0781,0.445312 -0.004,0.671875 -0.082,0.214843 -0.19922,0.371093 -0.34375,0.46875 -0.14844,0.09375 -0.32812,0.160156 -0.53515,0.195312 l 0.11718,0.554688 c 0.30078,-0.03906 0.5586,-0.144531 0.78125,-0.320313 0.22266,-0.175781 0.39063,-0.40625 0.4961,-0.6875 0.14453,-0.375 0.15234,-0.75 0.0273,-1.121094 -0.125,-0.375 -0.38281,-0.636718 -0.77734,-0.785156"
     id="path47" />
  <path
     fill-rule="nonzero"
     fill="#171817"
     fill-opacity="1"
     d="m 121.60156,87.421875 v -0.0039 c 0,0 -0.004,0 -0.004,0 l 0.004,0.0039"
     id="path48" />
  <path
     fill-rule="nonzero"
     fill="#171817"
     fill-opacity="1"
     d="m 115.92188,88.457031 4.80859,2.492188 0.27734,-0.535157 -4.80859,-2.492187 -0.27734,0.535156"
     id="path49" />
  <path
     fill-rule="nonzero"
     fill="#171817"
     fill-opacity="1"
     d="m 118.16016,92.878906 c -0.32422,-0.214844 -0.62891,-0.28125 -0.92578,-0.195312 -0.29297,0.08594 -0.58594,0.21875 -0.875,0.40625 l -0.3086,0.1875 c -0.0117,0.0039 -0.0195,0.01172 -0.0234,0.01563 -0.008,0.0039 -0.0156,0.01172 -0.0234,0.01563 -0.23047,0.140625 -0.45703,0.25 -0.6836,0.332031 -0.22656,0.08203 -0.46875,0.03516 -0.72265,-0.136719 -0.25391,-0.171875 -0.40235,-0.402344 -0.44141,-0.699218 -0.0391,-0.296876 0.0234,-0.570313 0.1875,-0.8125 0.16406,-0.242188 0.37891,-0.390626 0.65234,-0.441407 0.27344,-0.05469 0.53516,-0.01953 0.79297,0.105469 l 0.1836,-0.582031 c -0.39844,-0.164063 -0.78516,-0.191407 -1.16407,-0.08203 -0.3789,0.105468 -0.6914,0.34375 -0.93359,0.703124 -0.26172,0.390626 -0.35156,0.8125 -0.27344,1.265626 0.0781,0.453124 0.3125,0.8125 0.70703,1.078124 0.35938,0.238282 0.69922,0.3125 1.01954,0.222657 0.32031,-0.09375 0.64843,-0.242188 0.97656,-0.449219 l 0.32422,-0.214844 c 0.0312,-0.01953 0.0625,-0.03906 0.0977,-0.0625 0.0391,-0.02344 0.0742,-0.04297 0.10938,-0.0625 0.14844,-0.08594 0.30859,-0.152344 0.48047,-0.195312 0.17187,-0.04297 0.33203,-0.01563 0.48828,0.08984 0.20703,0.140624 0.32422,0.328124 0.35156,0.566406 0.0312,0.234375 -0.0195,0.449218 -0.15234,0.648437 -0.12891,0.191407 -0.27735,0.316407 -0.44141,0.378907 -0.16797,0.0625 -0.35547,0.08594 -0.56641,0.07031 l -0.0117,0.570312 c 0.30078,0.02734 0.57812,-0.01562 0.83593,-0.136718 0.25782,-0.121094 0.46875,-0.308594 0.63672,-0.558594 0.22656,-0.332031 0.32031,-0.695312 0.28125,-1.085938 -0.0352,-0.390624 -0.23047,-0.703124 -0.57812,-0.941406"
     id="path50" />
  <path
     fill-rule="nonzero"
     fill="#171817"
     fill-opacity="1"
     d="m 55.511719,43.902344 c 0.242187,0 0.441406,-0.195313 0.441406,-0.4375 0,-0.246094 -0.199219,-0.441406 -0.441406,-0.441406 -0.242188,0 -0.4375,0.195312 -0.4375,0.441406 0,0.242187 0.195312,0.4375 0.4375,0.4375"
     id="path51" />
  <path
     fill-rule="nonzero"
     fill="#171817"
     fill-opacity="1"
     d="m 111.30469,43.027344 c -0.24219,0 -0.44141,0.199218 -0.44141,0.441406 0,0.242188 0.19922,0.4375 0.44141,0.4375 0.24219,0 0.4375,-0.195312 0.4375,-0.4375 0,-0.242188 -0.19531,-0.441406 -0.4375,-0.441406"
     id="path52" />
  <path
     fill-rule="nonzero"
     fill="#171817"
     fill-opacity="1"
     d="m 55.648438,98.523438 c -0.242188,0 -0.441407,0.195312 -0.441407,0.441406 0,0.242187 0.199219,0.4375 0.441407,0.4375 0.242187,0 0.4375,-0.195313 0.4375,-0.4375 0,-0.246094 -0.195313,-0.441406 -0.4375,-0.441406"
     id="path53" />
  <path
     fill-rule="nonzero"
     fill="#171817"
     fill-opacity="1"
     d="m 111.74219,98.371094 c -0.24219,0 -0.4375,0.199218 -0.4375,0.4375 0,0.246094 0.19531,0.441406 0.4375,0.441406 0.24609,0 0.4414,-0.195312 0.4414,-0.441406 0,-0.238282 -0.19531,-0.4375 -0.4414,-0.4375"
     id="path54" />
  <path
     fill-rule="nonzero"
     fill="#231f20"
     fill-opacity="1"
     d="m 107.03125,107.52344 0.004,-2.10547 -1.97266,-0.004 v -5.28125 c 9.01172,-6.72656 14.39063,-17.441404 14.39063,-28.679685 0,-11.238281 -5.37891,-21.957031 -14.39844,-28.683594 v -3.679687 h 1.34375 v -0.53125 h -1.34375 v -3.414063 h -0.54297 v 2.160157 l -6.562501,-3.582032 v -3.046875 h -0.429688 v 3.070313 l -6.84375,3.113281 v -3.769531 h 0.625 v -1.9375 h -1.046875 c -0.726562,-1.554688 -2.386718,-2.726563 -4.464844,-3.242188 22.847658,1.160156 41.082028,20.113282 41.082028,43.246094 0,15.234375 -7.91406,28.648438 -19.83984,36.36719 z m -0.52344,-0.0273 h -4.57812 v -1.55468 h 4.57812 z m -9.210935,4.71875 c 0.597656,-0.66406 1.914063,-2.125 2.035156,-2.29687 0.332031,-0.46875 0.449219,-1.20313 -0.210937,-1.89453 H 106.25 c -2.78906,1.72265 -5.78906,3.13281 -8.953125,4.1914 z m -0.414063,-2.14062 c -0.253906,-0.20703 -0.554687,-0.31641 -0.867187,-0.33984 l 1.628906,-1.71094 h 0.519531 c 0.175782,0.0508 0.375,0.15234 0.574219,0.36328 0.519531,0.53906 0.328125,0.99609 0.164063,1.22266 -0.07031,0.10156 -0.742188,0.85546 -1.421875,1.61718 -0.02344,-0.44922 -0.238281,-0.86718 -0.597657,-1.15234 z m -0.304687,2.10937 c -0.320313,0.33594 -0.800781,0.55469 -1.222656,0.55469 -0.582031,0 -1.449219,-0.32031 -2.289063,-0.6289 -0.230468,-0.0859 -0.457031,-0.16407 -0.679687,-0.24219 l 1.46875,-1.59375 c 0.0625,-0.0625 0.59375,-0.65625 0.570312,-1.23438 -0.01172,-0.21875 -0.101562,-0.41797 -0.265625,-0.5625 -0.179687,-0.16797 -0.375,-0.32031 -0.558594,-0.45312 h 3.339844 l -1.839844,1.96094 c -0.183593,0.13281 -0.328124,0.3125 -0.410156,0.53125 -0.04297,0.10937 -0.0625,0.22656 -0.07031,0.33984 0.175781,-0.0156 0.351562,-0.0117 0.527344,-0.008 0.0078,-0.0469 0.01562,-0.10157 0.03516,-0.14844 0.08203,-0.22266 0.285156,-0.38281 0.539062,-0.42969 0.300782,-0.0508 0.59375,0.0234 0.832032,0.21485 0.242187,0.19531 0.394531,0.48828 0.40625,0.78906 0.01172,0.41406 -0.199219,0.72265 -0.382813,0.91015 z m -12.785156,2.26954 c 0.613281,-0.92969 1.410156,-2.13672 1.628906,-2.44922 0.640625,-0.23828 2.507813,-0.32422 2.84375,-0.33203 1.601563,-0.0352 2.652344,0.25 3.613281,0.57812 l 0.199219,0.0664 c 0.257813,0.0898 0.53125,0.1875 0.804687,0.28906 0.5,0.17969 1.003907,0.36719 1.472657,0.49609 -3.378907,0.86719 -6.917969,1.33594 -10.5625,1.35157 z m -0.378907,-0.38282 c -1.480468,-2.63281 -1.492187,-2.64062 -1.695312,-2.64453 -0.292969,-0.043 -0.582031,-0.0781 -0.859375,-0.10937 v -0.92188 h 1.246094 l 0.01172,-0.5 h -1.257813 v -1.87109 h 5.65625 c -0.351563,0.32422 -0.769531,0.71094 -0.851563,0.80469 -0.445312,0.49218 -0.460937,1.04296 -0.03516,1.47265 0.285156,0.28125 0.71875,0.70703 1.03125,1.00781 -0.425781,0.0469 -0.882812,0.10547 -1.382812,0.1875 -0.164063,0 -0.175782,0.004 -1.863282,2.57422 z m -10.558593,-0.95312 c 0.488281,-0.12891 1.011719,-0.32031 1.53125,-0.51172 0.273437,-0.10156 0.546875,-0.19922 0.808593,-0.28906 l 0.199219,-0.0664 c 0.957031,-0.32812 1.714844,-0.57812 3.3125,-0.54687 0.683594,0.0156 1.734375,0.0703 2.882813,0.23437 0.207031,0.33984 0.914062,1.58594 1.429687,2.50781 -3.5,-0.043 -6.90625,-0.49609 -10.164062,-1.32812 z m -2.160157,-0.9336 c -0.183593,-0.1875 -0.398437,-0.49609 -0.382812,-0.91015 0.01172,-0.30078 0.164062,-0.59375 0.40625,-0.78906 0.238281,-0.19141 0.535156,-0.26563 0.832031,-0.21485 0.253907,0.0469 0.453125,0.20703 0.539063,0.42969 0.01563,0.043 0.02734,0.0898 0.03125,0.13672 0.179687,0.0117 0.355468,0.0117 0.53125,0.0273 -0.0039,-0.12109 -0.02734,-0.23437 -0.07031,-0.34765 -0.08203,-0.21875 -0.226562,-0.39844 -0.410156,-0.53516 l -1.816406,-1.95703 h 4.449219 l -1.113282,1.03515 0.359375,0.38672 1.53125,-1.42187 h 0.03906 v 3.59375 c -0.128906,0.043 -0.261719,0.0859 -0.398438,0.13281 l -0.195312,0.0664 c -0.265625,0.0898 -0.542969,0.1914 -0.820313,0.29297 -0.839843,0.30859 -1.707031,0.6289 -2.289062,0.6289 -0.421875,0 -0.902344,-0.21875 -1.222657,-0.55469 z m -0.902343,-0.95703 c -0.683594,-0.76172 -1.355469,-1.51953 -1.425781,-1.61718 -0.160157,-0.22657 -0.351563,-0.6836 0.164062,-1.22266 0.203125,-0.21094 0.402344,-0.31641 0.578125,-0.36328 h 0.519531 l 1.628906,1.71094 c -0.3125,0.0234 -0.613281,0.13281 -0.867187,0.33984 -0.359375,0.28516 -0.574219,0.70312 -0.597656,1.15234 z m -8.90625,-3.20312 h 7.261719 c -0.65625,0.6914 -0.539063,1.42578 -0.207032,1.89453 0.125,0.17578 1.527344,1.73437 2.089844,2.36328 -3.230469,-1.06641 -6.296875,-2.5 -9.144531,-4.25781 z m -0.304688,-2.08985 4.589844,0.008 -0.0039,1.55468 H 60.58985 Z m -5.015625,-36.597652 -0.0078,6.59375 H 52.46095 v -6.589844 z m 4.332032,-12.589844 c 0.609374,-0.832032 1.230468,-1.511719 1.820312,-2.003906 v 5.566406 c -0.511719,-1.371094 -1.195312,-2.535156 -1.820312,-3.5625 z m -0.04688,8.625 c 0,0 0.0078,-0.05859 0.01563,-0.152344 0.0625,-1.003906 0.808593,-2.550781 1.851562,-4.023438 v 21.578126 h -1.867188 z m -2.058593,-4.847656 c 0.507812,-1.214844 1.097656,-2.292969 1.714843,-3.21875 0.644532,1.066406 1.289063,2.1875 1.753907,3.550781 -0.722657,1.019531 -1.328125,2.066406 -1.648438,2.972656 -0.351562,-1.046875 -0.964843,-2.242187 -1.820312,-3.304687 z m 1.53125,4.851562 v 17.398438 h -3.21875 l 0.01563,-13.996094 c 0,-2.890625 0.503906,-5.34375 1.425781,-7.628906 1.058594,1.390624 1.734375,3 1.773437,4.046874 -0.0039,0.05859 0.0039,0.179688 0.0039,0.179688 z M 61.71875,49.824219 v 4.125 c -1.871094,1.359375 -4.453125,4.980469 -5.613281,9.847656 v -6.21875 c 0.0625,0.105469 0.171875,0.179687 0.300781,0.179687 0.191406,0 0.347656,-0.15625 0.347656,-0.347656 0,-0.191406 -0.15625,-0.347656 -0.347656,-0.347656 -0.128906,0 -0.238281,0.07813 -0.300781,0.183594 V 56.40625 c 0.0625,0.105469 0.171875,0.179688 0.300781,0.179688 0.191406,0 0.347656,-0.15625 0.347656,-0.34375 0,-0.195313 -0.15625,-0.351563 -0.347656,-0.351563 -0.128906,0 -0.238281,0.07422 -0.300781,0.183594 v -0.84375 c 0.0625,0.109375 0.171875,0.183593 0.300781,0.183593 0.191406,0 0.347656,-0.15625 0.347656,-0.347656 0,-0.195312 -0.15625,-0.347656 -0.347656,-0.347656 -0.128906,0 -0.238281,0.07422 -0.300781,0.183594 v -0.355469 h -0.125 c 0.109375,-0.05859 0.1875,-0.175781 0.1875,-0.304687 0,-0.191407 -0.15625,-0.347657 -0.347657,-0.347657 -0.191406,0 -0.347656,0.15625 -0.347656,0.347657 0,0.128906 0.07813,0.246093 0.1875,0.304687 h -0.125 v 0.386719 c -0.05469,-0.125 -0.175781,-0.214844 -0.320312,-0.214844 -0.195313,0 -0.351563,0.152344 -0.351563,0.347656 0,0.191406 0.15625,0.347656 0.351563,0.347656 0.144531,0 0.265625,-0.08984 0.320312,-0.214843 v 0.910156 c -0.05469,-0.128906 -0.175781,-0.21875 -0.320312,-0.21875 -0.195313,0 -0.351563,0.15625 -0.351563,0.351563 0,0.1875 0.15625,0.34375 0.351563,0.34375 0.144531,0 0.265625,-0.08984 0.320312,-0.214844 v 0.910156 c -0.05469,-0.128906 -0.175781,-0.21875 -0.320312,-0.21875 -0.195313,0 -0.351563,0.15625 -0.351563,0.347656 0,0.191406 0.15625,0.347656 0.351563,0.347656 0.144531,0 0.265625,-0.08984 0.320312,-0.214843 0,0 0.0039,10.503906 0.0039,11.246093 l -3.058593,-0.0078 V 65.375 c 0.05859,0.105469 0.167969,0.183594 0.300781,0.183594 0.191406,0 0.347656,-0.15625 0.347656,-0.347656 0,-0.191407 -0.15625,-0.347657 -0.347656,-0.347657 -0.132812,0 -0.242188,0.07422 -0.300781,0.183594 v -0.84375 c 0.05859,0.105469 0.167969,0.183594 0.300781,0.183594 0.191406,0 0.347656,-0.15625 0.347656,-0.347657 0,-0.195312 -0.15625,-0.351562 -0.347656,-0.351562 -0.132812,0 -0.242188,0.07813 -0.300781,0.183594 V 63.03125 c 0.05859,0.105469 0.167969,0.179688 0.300781,0.179688 0.191406,0 0.347656,-0.152344 0.347656,-0.347657 0,-0.191406 -0.15625,-0.347656 -0.347656,-0.347656 -0.132812,0 -0.242188,0.07813 -0.300781,0.183594 V 62.34375 h -0.128907 c 0.113282,-0.05859 0.1875,-0.171875 0.1875,-0.304688 0,-0.191406 -0.152343,-0.347656 -0.34375,-0.347656 -0.195312,0 -0.347656,0.15625 -0.347656,0.347656 0,0.132813 0.07422,0.246094 0.1875,0.304688 h -0.1289 v 0.390625 c -0.05078,-0.128906 -0.175781,-0.21875 -0.320312,-0.21875 -0.191407,0 -0.347657,0.15625 -0.347657,0.347656 0,0.195313 0.15625,0.347657 0.347657,0.347657 0.144531,0 0.269531,-0.08984 0.320312,-0.214844 v 0.910156 c -0.05078,-0.125 -0.175781,-0.21875 -0.320312,-0.21875 -0.191407,0 -0.347657,0.15625 -0.347657,0.351562 0,0.191407 0.15625,0.347657 0.347657,0.347657 0.144531,0 0.269531,-0.08984 0.320312,-0.214844 v 0.90625 c -0.05078,-0.125 -0.175781,-0.214844 -0.320312,-0.214844 -0.191407,0 -0.347657,0.15625 -0.347657,0.347657 0,0.191406 0.15625,0.347656 0.347657,0.347656 0.144531,0 0.269531,-0.08984 0.320312,-0.21875 v 3.574218 l -2.429688,2.257813 0.390626,0.417969 2.054687,-1.964844 v 6.304688 h -3.1875 c -0.183594,-1.472657 -0.285156,-2.964844 -0.285156,-4.476563 0,-10.800781 4.832031,-20.808594 13.269531,-27.542969 v 5.382813 h -1.460938 v 0.53125 z m -1.425781,41.851562 c 0.238281,-0.402343 0.230469,-0.941406 -0.01563,-1.371093 -0.269532,-0.46875 -0.765625,-0.738282 -1.367188,-0.738282 -0.40625,0 -0.753906,0.07813 -1.054687,0.21875 0.183593,-1.089844 -0.07422,-2.414062 -0.8125,-2.941406 -0.425781,-0.300781 -0.914063,-0.414062 -1.351563,-0.304688 -0.378906,0.09375 -0.679687,0.335938 -0.867187,0.707032 -0.203125,0.394531 -0.1875,0.84375 0.03125,1.203125 0.210937,0.339843 0.585937,0.542969 1,0.542969 h 0.01563 l -0.0078,-0.527344 c -0.222656,-0.02344 -0.441406,-0.101563 -0.558593,-0.292969 -0.125,-0.199219 -0.128907,-0.457031 -0.01172,-0.683594 0.121093,-0.234375 0.296875,-0.382812 0.523437,-0.4375 0.28125,-0.07031 0.628906,0.01563 0.921875,0.222657 0.6875,0.492187 0.875,2.304687 0.332031,3.234374 -0.0039,0 -0.296874,0.515626 -0.296874,1.3125 0,0.472657 0.464843,2.234376 2.519531,2.253907 h 0.02734 c 0.769532,0 1.464844,-0.289063 2.011719,-0.832031 0.148438,-0.148438 0.273438,-0.308594 0.386719,-0.46875 v 6.222656 C 54.554688,93.277344 50.011719,85.382812 48.800781,76.457031 h 0.125 c 0.03516,0.03125 3.546875,2.960938 3.832031,3.222657 0.242188,0.21875 0.515626,0.464843 0.523438,1.253906 0.0039,0.371094 -0.179688,0.632812 -0.332031,0.789062 -0.300781,0.300782 -0.707031,0.375 -0.972657,0.375 -0.269531,0 -1.023437,-0.101562 -1.046874,-0.839844 -0.0078,-0.261718 0.105468,-0.480468 0.230468,-0.605468 0.09766,-0.09766 0.238282,-0.136719 0.414063,-0.136719 0.332031,0.01953 0.421875,0.382813 0.421875,0.453125 l 0.527344,0.01172 c 0.0078,-0.382813 -0.289063,-0.960938 -0.929688,-0.988281 -0.320312,-0.0078 -0.601562,0.08594 -0.804688,0.285156 -0.230468,0.234375 -0.398437,0.585937 -0.386718,1 0.03516,1.027344 1,1.351562 1.574218,1.351562 0.457032,0 0.988282,-0.179687 1.347657,-0.535156 0.320312,-0.324219 0.488281,-0.726562 0.484375,-1.164062 -0.0078,-0.941407 -0.351563,-1.328126 -0.699219,-1.640626 -0.222656,-0.203124 -2.289063,-1.972656 -3.296875,-2.832031 h 5.746094 l -0.0078,6.316407 h -1.558593 v 0.527343 H 61.71875 V 89.6875 l -4.375,-4.792969 h -3.351562 v 0.527344 h 3.117187 l 4.609375,5.046875 v 0.417969 c 0.05078,0.902343 -0.304688,1.53125 -0.757812,1.984375 -0.3125,0.308594 -0.847657,0.675781 -1.640626,0.675781 -0.0039,0 -0.01562,-0.0039 -0.02344,-0.0039 -1.847656,-0.01172 -2,-1.714844 -2,-1.730469 -0.0039,-0.324219 0.04297,-0.921875 0.425781,-1.3125 0.269532,-0.269531 0.667969,-0.410156 1.1875,-0.410156 0.554688,0 0.808594,0.296875 0.910156,0.476562 0.152344,0.269532 0.164063,0.601563 0.01953,0.839844 -0.128906,0.21875 -0.386719,0.332031 -0.671875,0.328125 l -0.0039,0.527344 c 0.511719,0.0078 0.90625,-0.203125 1.128907,-0.585938 z M 40.269531,71.15625 c 0,-22.960938 17.96875,-41.796875 40.582031,-43.207031 -2.011718,0.53125 -3.617187,1.6875 -4.324218,3.203125 h -1.082032 v 1.9375 h 0.65625 v 3.78125 l -6.839843,-3.125 v -3.070313 h -0.425781 v 3.042969 l -6.605469,3.609375 v -2.183594 h -0.527344 l 0.01563,3.414063 h -1.292969 v 0.53125 h 1.292969 v 4.140625 C 52.949224,50.066406 47.92188,60.351562 47.92188,71.453125 c 0,11.109375 5.027344,21.390625 13.796875,28.226563 v 5.730472 l -1.664062,-0.004 0.01172,2.08984 C 48.164062,99.769531 40.269531,86.371094 40.269531,71.15625 Z M 83.089844,29.484375 H 82.1875 v 0.527344 h 0.902344 v 1.140625 h -5.980469 c 0.949219,-1.71875 3.3125,-2.910156 5.980469,-2.992188 z M 96.644531,42.832031 C 95.84375,41.769531 94.507812,40.753906 94.078125,40.4375 V 38.34375 H 93.53125 v 2.121094 c -0.445312,0.316406 -1.777344,1.292968 -2.855469,2.3125 v -3.6875 h 1.355469 v -0.53125 h -1.355469 v -1.117188 l 5.96875,-2.714844 z m 4.402349,13.019531 c 0,1.292969 -0.38672,2.527344 -1.10938,3.585938 -0.238281,0.07813 -0.609375,0.15625 -0.894531,0.05859 -1.632813,-0.546875 -1.238281,-2.523438 -1.050781,-3.476563 l 0.03516,-0.183593 C 98.175781,55.046875 97.894531,54.03125 97.328125,53.308594 96.949219,52.816406 96.476562,52.53125 96,52.503906 c -1.171875,-0.07422 -1.652344,0.386719 -2.035156,0.757813 l -0.05078,0.04687 c -0.320312,-0.398438 -1.015624,-1.128906 -2.410156,-0.550782 -1.3125,0.542969 -1.453125,2.515626 -1.394531,3.167969 0.01953,0.257813 -0.09375,0.445313 -0.253906,0.695313 -0.175781,0.28125 -0.394531,0.628906 -0.414063,1.160156 -0.02344,0.507812 0.25,0.960938 0.488282,1.359375 0.234374,0.386719 0.378906,0.652344 0.277343,0.800781 -0.175781,0.257813 -0.367187,0.273438 -0.679687,0.222656 -0.785156,-0.980468 -1.234375,-2.542968 -1.234375,-4.3125 0,-3.515624 2.859375,-6.378906 6.375,-6.378906 3.515625,0 6.378909,2.863282 6.378909,6.378906 z M 98.128906,49.292969 H 97.214844 V 34.46875 l 0.546875,-0.25 0.367187,0.199219 z m 6.398434,0.53125 v 0.644531 c -0.88281,0.484375 -2.36718,0.9375 -4.29687,1.3125 -0.585939,-0.800781 -1.335939,-1.472656 -2.207032,-1.957031 z m 0,-11.265625 h -1.22265 v 0.53125 h 1.22265 v 3.257812 c -1.01562,-0.921875 -2.16015,-1.589844 -2.5664,-1.882812 V 38.34375 h -0.55078 v 2.09375 c -0.45703,0.335938 -1.937504,1.464844 -2.714848,2.59375 v -8.300781 l 5.832028,3.175781 z m 0,10.734375 h -5.820309 v -5.023438 c 0,-1.011719 2.015629,-2.710937 2.957029,-3.40625 0.44141,0.320313 1.8125,1.15625 2.86328,2.164063 z m 1.25,23.097656 c -0.008,0.679687 -0.13671,1.265625 -0.28515,1.761719 -0.76172,-0.382813 -1.79688,-0.953125 -1.99219,-1.210938 -0.0781,-0.105468 0.0391,-0.542968 0.11719,-0.835937 0.15234,-0.5625 0.30859,-1.148438 -0.0117,-1.53125 -0.53125,-0.632813 -1.07031,-0.792969 -1.53125,-0.8125 0.25,-0.433594 0.38672,-0.929688 0.38672,-1.4375 0,-1.605469 -1.3086,-2.917969 -2.917971,-2.917969 -1.605469,0 -2.914063,1.3125 -2.914063,2.917969 0,0.9375 0.460938,1.820312 1.214844,2.363281 -0.152344,0.25 -0.277344,0.511719 -0.308594,0.71875 -0.07813,0.5625 -0.210937,1.503906 -0.609375,1.851562 -0.148437,0.132813 -0.324219,0.238282 -0.496093,0.351563 -0.07031,0.04297 -0.25,0.113281 -0.292969,0.1875 -0.04297,0.07031 0.01172,0.128906 0.05078,0.164063 0.01563,0.0078 0.01953,0.01172 0.01953,0.01172 0.03125,0.03125 0.09375,0.08203 0.199219,0.132813 0.605469,0.335937 1.988281,0.707031 3.195312,0.761719 -0.07031,0.328124 -0.207031,0.851562 -0.46875,1.675781 -0.648437,2 -1.78125,3.949219 -2.628906,5.105469 -0.851562,1.167968 -1.453125,1.691406 -2.09375,2.246093 l -0.246094,0.214844 c -0.75,0.660156 -1.261718,1.160156 -2.191406,2.140625 -0.390625,0.414062 -0.6875,0.917969 -0.976562,1.40625 -0.390625,0.660156 -0.761719,1.285156 -1.316406,1.617188 -1.757813,1.050781 -2.253907,2.523437 -2.390626,3.183593 -0.347656,-0.371093 -0.855468,-0.921875 -1.1875,-1.371093 -0.480468,-0.652344 -0.46875,-2.574219 -0.207031,-4.132813 0.128907,-0.761719 0.21875,-1.597656 0.308594,-2.527344 0.894531,-0.460937 1.457031,-2.03125 1.847656,-3.386719 0.269531,-0.917968 1.058594,-2.066406 1.515625,-2.363281 0.570313,-0.367187 1.925782,-1.9375 2.714844,-3.035156 0.703125,-0.980469 1.203125,-2.570313 1.347656,-3.058594 0.773438,0.04297 1.675782,-0.08203 2.375,-0.75 0.488282,-0.464843 0.675782,-0.871093 0.570313,-1.238281 -0.128907,-0.453125 -0.679688,-0.765625 -1.726563,-0.980469 -0.273437,-0.05859 -0.480468,-0.113281 -0.652344,-0.164062 0.121094,-0.04687 0.25,-0.09766 0.386719,-0.152344 0.546875,-0.242187 0.773438,-0.273437 1.105469,-0.257813 l 0.02344,-0.527343 c -0.460938,-0.01953 -0.769532,0.05078 -1.328126,0.296875 -0.664062,0.253906 -1.144531,0.480468 -1.210937,0.511718 -0.08594,0.02344 -0.179687,0.05859 -0.289063,0.105469 -0.417968,0.179688 -1.148437,0.484375 -2.578124,0.253907 0.554687,-0.660157 1.476562,-1.707032 1.84375,-1.945313 0.398437,-0.261719 1.8125,-0.691406 2.652343,-0.949219 0.308594,-0.09375 0.566407,-0.175781 0.730469,-0.230468 0.703125,-0.234376 1.765625,-1.078126 2.1875,-1.730469 0.316406,-0.496094 1.609375,-1.234375 2.54297,-1.339844 0.61719,-0.07031 0.95312,0.04687 1.08203,0.109375 0.48047,1.832031 1.69141,3.199219 2.25,3.824219 0.10547,0.125 0.22656,0.261719 0.25,0.300781 l 0.082,0.132812 c 1.53906,2.574219 1.85547,3.890626 1.85156,4.539063 z m 1.14063,-7.347656 h 0.004 v 13.667969 c -0.0586,-0.08203 -0.1211,-0.167969 -0.1836,-0.253907 -0.50781,-0.703125 -1.14062,-1.574219 -1.14453,-2.789062 0,-0.125 0.0898,-0.382813 0.1875,-0.679688 0.20313,-0.59375 0.51172,-1.5 0.51953,-2.59375 0.008,-0.835937 -0.41406,-2.054687 -1.24609,-3.613281 v -8.007812 c 1.08203,1.503906 1.86328,3.210937 1.86328,4.269531 z m 0.0273,-8.613281 c -0.65234,1.074218 -1.375,2.296874 -1.89062,3.757812 v -5.824219 c 0.60937,0.5 1.25781,1.199219 1.89062,2.066407 z m 4.38672,12.578124 h 3.07422 v 6.921876 h -3.06641 z m -2.03125,-8.175781 c 0.85938,2.253907 1.48438,4.910157 1.46094,7.816407 l 0.0156,14.125 h -3.32812 c 0,0 0,-16.652344 0,-17.726563 0,-1.074219 0.79297,-2.824219 1.85156,-4.214844 z M 107.18359,63.5 c -0.32031,-0.90625 -0.875,-1.941406 -1.59765,-2.964844 0.46094,-1.363281 1.10547,-2.480468 1.7539,-3.546875 0.61719,0.921875 1.20704,2.003907 1.71485,3.21875 -0.85547,1.058594 -1.51953,2.246094 -1.8711,3.292969 z m -2.12109,29.234375 c 0.11719,0.175781 0.25391,0.347656 0.41797,0.507813 0.54687,0.542968 1.24219,0.832031 2.00781,0.832031 h 0.0273 c 2.05859,-0.01953 2.51171,-1.78125 2.52343,-2.253907 0.004,-0.261718 -0.0234,-0.574218 -0.11718,-0.886718 0,0 -0.17969,-0.425782 -0.17969,-0.425782 -0.54688,-0.929687 -0.35938,-2.742187 0.33203,-3.234374 0.29297,-0.207032 0.63672,-0.292969 0.92187,-0.222657 0.22657,0.05469 0.40235,0.203125 0.51954,0.4375 0.11718,0.226563 0.11328,0.484375 -0.0117,0.683594 -0.11328,0.191406 -0.32032,0.324219 -0.5586,0.292969 l -0.008,0.527344 h 0.0156 c 0.41796,0 0.78906,-0.203126 1,-0.542969 0.22265,-0.359375 0.23437,-0.808594 0.0312,-1.203125 -0.1875,-0.371094 -0.48829,-0.613282 -0.86329,-0.707032 -0.4375,-0.109374 -0.92968,0.0039 -1.35156,0.304688 -0.74219,0.527344 -0.99609,1.851562 -0.8164,2.941406 -0.29688,-0.140625 -0.64454,-0.21875 -1.05469,-0.21875 -0.59766,0 -1.09766,0.269532 -1.36719,0.738282 -0.24609,0.429687 -0.25391,0.96875 -0.0156,1.371093 0.22265,0.378907 0.61718,0.585938 1.11328,0.585938 h 0.0195 l -0.008,-0.527344 c -0.33204,0.0039 -0.54297,-0.109375 -0.67188,-0.328125 -0.14062,-0.238281 -0.13281,-0.570312 0.0195,-0.839844 0.10156,-0.179687 0.35547,-0.476562 0.91016,-0.476562 0.51953,0 0.92187,0.140625 1.1875,0.410156 0.38281,0.390625 0.42969,0.988281 0.42578,1.308594 0,0.01953 -0.14844,1.722656 -2,1.734375 -0.008,0 -0.0156,0.0039 -0.0234,0.0039 -0.78906,-0.0039 -1.32812,-0.367187 -1.64062,-0.675781 -0.53907,-0.535156 -0.78516,-1.09375 -0.78516,-1.824219 V 90.46875 l 4.60938,-5.046875 h 3.11718 v -0.527344 h -3.35156 l -4.375,4.792969 v -6.386719 h 7.72656 v -0.527343 h -1.4414 l -0.008,-6.316407 6.05079,-0.0078 c -1.125,0.84375 -3.46485,2.636719 -3.6875,2.839843 -0.35157,0.3125 -0.69141,0.703126 -0.69922,1.640626 -0.004,0.4375 0.16406,0.839843 0.48437,1.164062 0.35938,0.355469 0.88672,0.589844 1.34766,0.589844 0.57031,0 1.54687,-0.378906 1.57812,-1.40625 0.0156,-0.414063 -0.16015,-0.765625 -0.39453,-1 -0.19922,-0.199219 -0.47265,-0.292969 -0.80469,-0.285156 -0.63671,0.02734 -0.91015,0.605468 -0.90234,0.988281 l 0.52734,-0.01172 c 0,-0.07031 0.0664,-0.433594 0.39454,-0.453125 0.17187,0 0.32031,0.03906 0.41406,0.136719 0.125,0.125 0.25,0.34375 0.24219,0.605468 -0.0273,0.738282 -0.78516,0.898438 -1.05469,0.898438 -0.26953,0 -0.67578,-0.132812 -0.97266,-0.433594 -0.15234,-0.15625 -0.33594,-0.417968 -0.33203,-0.789062 0.004,-0.789063 0.28125,-1.035156 0.52344,-1.253906 0.2539,-0.234376 4.27734,-3.222657 4.27734,-3.222657 h 0.23438 c -1.3125,9.058594 -6.15235,17.390625 -13.50391,23.015625 z m 1.85938,-11.800781 v 1.839844 h -1.85938 v -1.308594 c 0.44141,-0.01563 1.30469,-0.113282 1.85938,-0.53125 z m -4.69532,-6.507813 c 0.75782,-0.273437 1.3086,-0.59375 1.45703,-0.679687 0.53907,0.351562 1.26563,0.722656 1.65235,0.914062 -0.0156,0.05078 -0.0352,0.109375 -0.0508,0.160156 -0.12891,0.367188 -0.21875,0.636719 -0.21875,0.851563 0.004,1.382813 0.69531,2.328125 1.24609,3.09375 0.32813,0.449219 0.60938,0.835937 0.60938,1.152344 0,0.207031 -0.0742,0.382812 -0.22266,0.523437 -0.37891,0.367188 -1.16016,0.476563 -1.63672,0.496094 v -0.105469 c -0.0664,-1.375 -0.48047,-3.535156 -2.83594,-6.40625 z m -2.562498,32.554689 c 0.167969,-0.32422 0.171876,-0.68359 0,-1.07813 -0.214843,-0.51562 -0.449218,-0.91406 -0.65625,-1.26171 -0.05859,-0.10157 -0.109374,-0.19532 -0.164062,-0.28516 h 3.77734 l 0.004,1.05469 h -1.22266 v 2.08593 h -2.253902 c 0.199218,-0.125 0.394531,-0.29296 0.515624,-0.51562 z m -11.429687,0.51562 c 0.441406,-0.26953 0.984375,-0.59765 1.351563,-0.8164 0.566406,-0.33594 1.023437,-0.53906 1.363281,-0.60156 0.06641,-0.0117 1.683593,-0.3125 1.796875,-1.25391 0.01563,-0.14844 0.01172,-0.29297 -0.01172,-0.4375 h 3.582031 c 0,0.0898 0,0.17969 0,0.25781 0,0.36328 0,0.67578 0.02344,0.88281 0.01172,0.15235 0.0039,0.36719 -0.0039,0.59375 -0.02344,0.52735 -0.04688,1.07032 0.175781,1.375 z m 0.683594,2.875 c 0.601562,-0.6875 0.367187,-1.21484 0.06641,-1.53515 -0.242187,-0.25391 -0.640625,-0.5625 -0.988281,-0.8125 H 92.0625 l -0.546875,0.52344 c -0.03125,0.0352 -0.328125,0.35546 -0.292969,0.75781 0.01172,0.14844 0.07813,0.375 0.324219,0.5625 0.5,0.39062 0.664063,0.51953 0.667969,0.51953 l 0.332031,-0.40625 c 0,0 -0.160156,-0.13281 -0.675781,-0.53125 -0.105469,-0.0781 -0.121094,-0.14453 -0.125,-0.1875 -0.01172,-0.14063 0.109375,-0.30859 0.144531,-0.34375 l 0.863281,-0.82813 c 0.234375,0.14454 0.683594,0.42969 1.050782,0.76954 0.04687,0.043 0.191406,0.17578 -0.0078,0.58203 -0.132813,0.25781 -0.324219,0.47656 -0.328125,0.47656 l -1.625,1.76172 c -0.917969,-0.3086 -1.722656,-0.54297 -3.292969,-0.5 -0.164062,0.004 -0.359375,0.008 -0.574219,0.0195 0.378907,-0.3125 0.820313,-0.68359 0.941407,-0.82813 z m -1.71875,-2.26171 c 0.332031,0.22265 1.066406,0.73046 1.402343,1.08984 0.238282,0.25391 0.214844,0.48828 -0.08203,0.82812 -0.121093,0.14063 -0.792969,0.69922 -1.289062,1.10547 -0.285157,-0.28125 -0.875,-0.85547 -1.226563,-1.20703 -0.08984,-0.0898 -0.328125,-0.32422 0.05078,-0.74609 0.08203,-0.0898 0.691406,-0.65625 1.144532,-1.07031 z m -21.382813,-20.289068 0.972656,7.019532 -1.519531,0.777344 -1.601562,-7.019532 z m -2.339844,-12 c -0.0078,-0.246093 0.125,-0.835937 0.242188,-1.355468 0.128906,-0.574219 0.25,-1.113282 0.257812,-1.441406 0.0039,-0.164063 0.02734,-0.347657 0.05469,-0.550782 0.07422,-0.605468 0.164062,-1.355468 -0.07422,-2.175781 -0.171875,-0.585937 -0.5,-2.171875 -0.480469,-3.191406 0.01563,-0.746094 0.207032,-2.304688 0.207032,-2.304688 0.382812,0.02344 1.472656,0.140625 1.921875,0.351563 0.472656,0.226562 1.0625,0.945312 1.613281,1.972656 0.535156,0.992188 0.07422,2.800781 -0.07813,3.335938 -0.308594,1.0625 0.125,2.097656 0.480469,2.777343 0.08594,0.171875 0.183594,0.328125 0.277344,0.480469 0.3125,0.496094 0.578124,0.925781 0.460937,1.730469 -0.140625,0.9375 -0.0625,1.367187 0.121094,2.40625 0.05469,0.308593 0.117187,0.667969 0.1875,1.113281 0.292969,1.867188 -0.285157,3.015625 -0.710938,3.851562 -0.0039,0.01563 -0.01172,0.03125 -0.01953,0.04297 -0.05859,-0.601562 -0.28125,-1.152343 -0.714844,-1.421875 -0.65625,-0.300781 -1.261718,-0.28125 -1.6875,0.02734 -0.144531,-0.476562 -0.03125,-0.976562 0.08203,-1.460938 0.136718,-0.609374 0.28125,-1.234374 -0.160157,-1.710937 -0.132812,-0.144531 -0.300781,-0.25 -0.476562,-0.363281 -0.175781,-0.117188 -1.109375,-0.691406 -1.273438,-1.191406 -0.125,-0.277344 -0.222656,-0.59375 -0.230469,-0.921876 z M 66.1875,52.328125 C 65.78125,53.003906 65.488281,53.75 65.335938,54.554688 63.605469,54.210938 62.78125,53.828125 62.261719,53.527344 v -2.382813 c 0.90625,0.441407 2.222656,0.839844 3.925781,1.183594 z m 3.378906,-3.035156 h -0.914062 v -14.875 l 0.367187,-0.199219 0.546875,0.25 z m 2.546875,0.179687 c 3.515625,0 6.375,2.863282 6.375,6.378906 0,1.984376 -0.941406,3.867188 -2.515625,5.070313 l -2.058594,-1.121094 c 0.132813,-0.117187 0.371094,-0.296875 0.371094,-0.296875 0.01953,0.0039 0.05078,0.01563 0.09375,0.02734 0.410156,0.132812 1.507813,0.480469 2.160156,-0.191406 0.542969,-0.558594 0.464844,-1.191406 0.402344,-1.65625 -0.03516,-0.269532 -0.0625,-0.503906 0.02344,-0.652344 0.21875,-0.367188 0.351562,-0.996094 0.179687,-1.492188 -0.09766,-0.285156 -0.28125,-0.484374 -0.539062,-0.585937 -0.277344,-0.109375 -0.347657,-0.199219 -0.449219,-0.316406 -0.0625,-0.07813 -0.128906,-0.15625 -0.226562,-0.238281 -0.05469,-0.04688 -0.148438,-0.277344 -0.210938,-0.433594 -0.148438,-0.367188 -0.316406,-0.78125 -0.636719,-0.945313 -0.355469,-0.175781 -0.710937,-0.02734 -0.96875,0.08203 -0.09375,0.03516 -0.230469,0.09375 -0.242187,0.09766 -0.02344,-0.01563 -0.07031,-0.08594 -0.105469,-0.136719 -0.152344,-0.222656 -0.414063,-0.625 -1.027344,-0.574219 -0.394531,0.01563 -0.636719,0.207031 -0.847656,0.378907 -0.09766,0.07812 -0.195313,0.152343 -0.300781,0.207031 -0.113282,0.05859 -0.441406,0.07813 -0.703125,0.09375 -0.480469,0.03125 -0.933594,0.0625 -1.179688,0.269531 -0.328125,0.28125 -0.453125,0.75 -0.558593,1.125 -0.03906,0.132812 -0.06641,0.25 -0.105469,0.332031 -0.0625,0.136719 -0.199219,0.214844 -0.359375,0.3125 -0.214844,0.128907 -0.515625,0.304688 -0.53125,0.6875 -0.02344,0.441407 0.449218,0.738281 0.910156,1.019531 0.222656,0.140626 0.644531,0.472657 0.644531,0.472657 0.382813,0.378906 0.558594,0.550781 0.445313,1.253906 -0.07422,0.4375 -0.375,0.488281 -0.828125,0.511719 -0.125,0.0078 -1.5,0.152344 -2.117188,0.550781 -0.03516,0.02344 -0.07813,0.05078 -0.117187,0.07422 -0.882813,-1.128906 -1.355469,-2.488282 -1.355469,-3.925782 0,-3.515624 2.863281,-6.378906 6.378906,-6.378906 z m 0.914063,-8.609375 c 0.46875,0.339844 3.023437,2.25 3.074218,3.195313 v 5.234375 h -1.839843 c -0.675781,-0.222657 -1.398438,-0.34375 -2.148438,-0.34375 -0.6875,0 -1.351562,0.101562 -1.976562,0.289062 v -4.984375 c 0.132812,-1.066406 2.046875,-2.769531 2.890625,-3.390625 z m 3.074218,-2.304687 H 74.75 v 0.53125 h 1.351562 V 42.84375 C 75.078125,41.640625 73.953125,40.8125 73.320312,40.464844 V 38.34375 h -0.546874 v 2.09375 c -0.445313,0.324219 -1.84375,1.390625 -2.636719,2.488281 v -8.199219 l 5.964843,2.722657 z m 6.320313,11.265625 c -0.03906,0.05859 -0.07422,0.117187 -0.101563,0.179687 -0.05859,0.140625 -0.09375,0.292969 -0.09375,0.453125 0,0.160157 0.03516,0.3125 0.09375,0.449219 0.04688,0.113281 0.117188,0.210938 0.195313,0.304688 0,0 0.25,0.25 0.410156,0.308593 -1.117187,0.546875 -2.765625,1 -4.636719,1.265625 -0.625,-1.25 -1.609374,-2.285156 -2.824218,-2.960937 z m 0.96875,0 c 0.351563,0 0.632813,0.28125 0.632813,0.632812 0,0.347657 -0.28125,0.632813 -0.632813,0.632813 -0.351563,0 -0.632813,-0.285156 -0.632813,-0.632813 0,-0.351562 0.28125,-0.632812 0.632813,-0.632812 z m 0.96875,-2.246094 c 0.0039,0.01953 0,0.03125 0,0.04687 0.04687,0.617188 0.5,1.058594 1.191406,1.058594 h 0.01172 c 0.375,0 0.71875,-0.15625 0.976562,-0.429688 0.261719,-0.285156 0.398438,-0.671875 0.371094,-1.058594 -0.05469,-0.75 -0.613281,-1.335937 -1.363281,-1.507812 h 0.01172 c 0,-0.996094 -0.75,-1.808594 -1.667969,-1.808594 v 0.527344 c 0.613281,0 1.113281,0.546875 1.136719,1.230469 -0.726563,0.02344 -1.316406,0.398437 -1.636719,0.972656 -0.320313,-0.578125 -0.910156,-0.953125 -1.636719,-0.976563 0.02344,-0.683593 0.523438,-1.230468 1.136719,-1.230468 V 43.875 c -0.921875,0 -1.667969,0.8125 -1.667969,1.808594 h 0.01563 c -0.75,0.171875 -1.3125,0.757812 -1.367187,1.507812 -0.02734,0.386719 0.105468,0.773438 0.371094,1.054688 0.253906,0.277344 0.601562,0.429687 0.976562,0.4375 h 0.01172 c 0.691406,0 1.160156,-0.445313 1.203125,-1.0625 0.0039,-0.01172 0.0039,-0.02734 0.0039,-0.04297 h -0.527344 c 0,0.0039 0,0.0039 0,0.0078 -0.02734,0.378906 -0.363281,0.5625 -0.6875,0.566406 -0.230468,0 -0.441406,-0.09375 -0.59375,-0.261719 -0.164062,-0.175781 -0.25,-0.417969 -0.230468,-0.664063 0.04297,-0.621093 0.585937,-1.074218 1.285156,-1.074218 h 0.01563 c 0.839843,0.0078 1.429687,0.621094 1.429687,1.488281 v 1.652344 h -4.988281 c 0.371094,-2.847657 4.230469,-8.902344 5.21875,-10.414063 0.996094,1.542969 4.949219,7.804688 5.335937,10.414063 h -5.042968 v -1.648438 c 0,-0.867187 0.589844,-1.476562 1.429687,-1.484375 h 0.01172 c 0.695312,0 1.246094,0.457032 1.289062,1.074219 0.01953,0.242187 -0.06641,0.484375 -0.230468,0.660156 -0.15625,0.167969 -0.367188,0.261719 -0.59375,0.265625 h -0.0078 c -0.347656,0 -0.640625,-0.195312 -0.664062,-0.570312 0,-0.0039 0,-0.0078 0,-0.01172 z m 3.410156,8.183594 c -1.585937,-0.296875 -3.011719,-0.726563 -4.339843,-1.320313 l -0.0039,-0.0078 c -0.01563,0.0039 -0.03125,0.0078 -0.04687,0.0078 -0.01563,0 -0.03125,-0.0039 -0.04297,-0.0078 v 0.0078 c -1.148438,0.515625 -2.636719,0.957032 -4.328126,1.28125 -0.01562,-0.863281 -0.1875,-1.683594 -0.492187,-2.441406 2.015625,-0.296875 3.714844,-0.796875 4.875,-1.425781 1.160156,0.628906 2.855469,1.128906 4.875,1.425781 -0.308594,0.769531 -0.484375,1.601562 -0.496094,2.480469 z m 0.75,4.386719 c -0.574219,0.261718 -0.4375,1.039062 -0.332031,1.410156 -0.488281,0.375 -1.925781,1.570312 -2.039062,2.789062 -0.257813,2.726563 -1.664063,4.546875 -2.371094,5.128906 -0.605469,0.496094 -1.097656,1.660157 -1.011719,2.394532 0.04297,0.355468 0.152344,0.691406 0.300781,1.011718 l -0.04687,-0.03906 c -0.109375,0.140625 -0.21875,0.390625 -0.316406,0.691406 -0.152344,-0.214844 -0.355469,-0.453125 -0.601563,-0.636718 l -1.445312,-6.152344 -0.601562,0.144531 c -0.382813,-0.492187 -1.785157,-2.3125 -2.050782,-2.730469 -0.117187,-0.183594 -0.152344,-0.433594 -0.1875,-0.675781 -0.05078,-0.355469 -0.101562,-0.726563 -0.402344,-0.949219 -0.242187,-0.183594 -0.667968,-0.941406 -0.886718,-1.394531 1.457031,-1.214844 2.351562,-2.988281 2.464844,-4.878906 1.699218,-0.320313 3.210937,-0.757813 4.394531,-1.269531 1.347656,0.585937 2.789062,1.015624 4.394531,1.304687 0.0625,1.484375 0.425781,2.816406 1.039062,3.78125 -0.101562,0.0078 -0.203124,0.02344 -0.300781,0.07031 z m 6.574219,-5.917969 c 0.34375,0.214843 0.59375,0.707031 0.742188,1.152343 -0.773438,-0.128906 -1.570313,0.144532 -1.746094,0.226563 l 0.230468,0.472656 c 0.125,-0.05859 0.941407,-0.339843 1.617188,-0.140625 0,0 0.03906,0.03516 0.04297,0.07422 0.05078,0.605469 0.15625,2.097656 -0.04297,2.851563 -0.04297,0.15625 -0.05859,0.316406 -0.05859,0.480468 -0.382812,-0.03125 -0.683594,-0.199218 -0.992187,-0.390625 -0.34375,-0.210937 -0.699219,-0.429687 -1.148438,-0.375 -0.375,0.04687 -0.632812,0.230469 -0.859375,0.398438 -0.238281,0.171875 -0.433594,0.296875 -0.742187,0.28125 -0.01172,-0.04297 -0.02734,-0.09375 -0.04297,-0.132813 0,-0.0039 0,-0.0078 0,-0.0078 -0.0039,-0.01172 -0.0078,-0.02344 -0.01172,-0.03125 -0.01172,-0.03125 -0.02344,-0.06641 -0.03516,-0.09375 -0.113281,-0.207032 -0.347656,-0.820313 -0.386719,-1.378906 -0.01953,-0.292969 0.04297,-1.101563 0.09766,-1.671876 l 0.0039,0.0078 c 0.0039,-0.0039 0.148437,-0.08984 0.527343,-0.08984 0.3125,0 0.648438,-0.01172 0.792969,0.179688 0.04297,0.05469 0.121094,0.257812 0.08203,0.449219 -0.140624,0.714843 -0.339843,1.433593 -0.4375,1.613281 0,0 0.457032,0.01563 0.5625,0.01953 0.04297,-0.148438 0.375,-1.46875 0.382813,-1.480469 0.113281,-0.382812 0.03125,-0.726562 -0.08203,-0.882812 -0.277344,-0.371094 -0.890625,-0.425781 -1.300782,-0.425781 -0.191406,0 -0.339843,0.01953 -0.460937,0.04297 0,-0.0039 0,-0.0078 0.0039,-0.01172 0.07031,-0.355469 0.199219,-0.773438 0.769531,-1.226563 0.519532,-0.410156 1.75,-0.367187 2.492188,0.08984 z M 92.25,59.789062 c 0.417969,-0.01562 0.699219,-0.21875 0.9375,-0.390624 0.199219,-0.144532 0.371094,-0.269532 0.613281,-0.296876 0.269531,-0.03516 0.511719,0.113282 0.816407,0.300782 0.339843,0.207031 0.757812,0.460937 1.316406,0.472656 0.02344,0.105469 0.05469,0.203125 0.09375,0.300781 0,0 0,0 0.0039,0 0.04687,0.175781 0.117188,0.488281 0.148438,0.796875 0.03516,0.332032 -0.160157,1.054688 -0.347657,1.753906 -0.06641,0.242188 -0.132812,0.492188 -0.195312,0.734376 -0.21875,0.875 -0.875,1.605468 -1.40625,1.871093 -0.460938,0.230469 -1.304688,0.28125 -2.058594,0.128907 -0.40625,-0.08594 -0.457031,-0.386719 -0.480469,-0.78125 -0.0039,-0.05469 -0.0078,-0.101563 -0.01172,-0.140626 -0.01953,-0.148437 0.152343,-0.601562 0.25,-0.871093 0.03906,-0.09766 0.07422,-0.191407 0.101562,-0.277344 0.148438,-0.425781 0.265625,-1.484375 0.28125,-1.679687 0.01953,-0.246094 0.0039,-1.363282 -0.0625,-1.921876 z m -2.730469,9.726563 c -0.96875,-0.261719 -4.820312,2.050781 -6.097656,2.84375 -0.0625,-0.179687 -0.109375,-0.363281 -0.132813,-0.546875 -0.0625,-0.554688 0.359376,-1.546875 0.820313,-1.929688 0.09375,-0.07422 2.222656,-1.859374 2.5625,-5.484374 0.09766,-1.035157 1.484375,-2.152344 1.871094,-2.449219 0.261719,0.07813 0.636719,0.179687 1.109375,0.269531 0.15625,0.02734 0.292968,0.03906 0.425781,0.04297 0,-0.0039 0,-0.0078 0,-0.01563 0.08594,0.0078 0.179687,0.0078 0.28125,0.0078 0.03516,0 0.07031,0 0.105469,0 0.472656,-0.0078 0.960937,-0.113281 1.289062,-0.199218 -0.05078,0.386718 -0.128906,0.929687 -0.214844,1.167968 -0.02734,0.07813 -0.05859,0.167969 -0.09375,0.265625 -0.1875,0.492188 -0.316406,0.859375 -0.285156,1.113281 0.0039,0.03125 0.0078,0.07031 0.01172,0.113282 0.01953,0.324218 0.06641,1.085937 0.894531,1.253906 0.289063,0.0625 0.640625,0.101562 1.003906,0.101562 0.488282,0 0.996094,-0.07422 1.390626,-0.273437 0.621093,-0.308594 1.414062,-1.132813 1.683593,-2.210937 0.05859,-0.238282 0.125,-0.484376 0.191407,-0.722657 0.128906,-0.480469 0.316406,-1.257812 0.316406,-1.257812 0.230468,-0.09375 0.808594,-0.332031 1.332031,-0.332031 0.550781,0 1.101563,0.234374 1.519531,0.460937 0.621093,0.464844 1.179683,0.832031 1.644533,0.847656 0.0117,0.06641 0.0312,0.132813 0.0391,0.199219 0.008,0.07813 0.0312,0.148438 0.043,0.222656 -0.24219,-0.05859 -0.57813,-0.09375 -1.03125,-0.04297 -1.039063,0.121093 -2.496094,0.894531 -2.925781,1.578124 -0.8125,1.292969 -2.660157,1.75 -2.660157,1.75 -0.484375,0.152344 -2.574219,0.886719 -2.75,1 -0.523437,0.339844 -1.753906,1.800782 -2.144531,2.269532 -0.06641,-0.01563 -0.125,-0.02344 -0.199219,-0.04297 z m 2.960938,2.355469 c -1.582031,-0.355469 -2.894531,0.355468 -3.910157,0.902344 -0.09766,0.05469 -0.222656,0.117187 -0.367187,0.191406 -0.769531,0.386718 -1.996094,1.011718 -2.824219,1.84375 -0.410156,-0.324219 -1.257812,-1.0625 -1.742187,-1.964844 2.101562,-1.304688 5.152343,-2.960938 5.753906,-2.816406 2.140625,0.554687 3.191406,0.09766 3.699219,-0.121094 0.09375,-0.03516 0.183594,-0.07813 0.230468,-0.08203 0.175782,-0.03516 0.300782,0.0039 0.585938,0.08984 0.203125,0.0625 0.464844,0.136719 0.832031,0.214844 1.105469,0.226563 1.296875,0.5 1.332031,0.609375 0.04297,0.15625 -0.109374,0.410157 -0.429687,0.714844 -0.964844,0.917969 -2.445313,0.582031 -3.160156,0.417969 z M 76.277344,103.88672 c 0.699218,-0.082 1.136718,0.39453 1.433594,0.71484 0.105468,0.11328 0.1875,0.20313 0.277343,0.25782 0.113281,0.0742 0.289063,0.14843 0.476563,0.22656 0.613281,0.25781 1.074218,0.48437 0.96875,0.91797 -0.0625,0.26953 -1.113282,0.23437 -1.515625,0.21875 -0.136719,-0.004 -0.265625,-0.008 -0.371094,-0.0117 -0.257813,0 -0.558594,-0.36719 -0.824219,-0.69141 -0.21875,-0.26953 -0.425781,-0.52344 -0.660156,-0.66406 -0.148438,-0.0898 -0.324219,-0.33203 -0.523438,-0.72266 0.101563,-0.0859 0.316407,-0.19531 0.738282,-0.24609 z m -3.097656,-0.28516 c 0.0039,-0.0312 0.460937,-2.83593 0.65625,-5.003904 0.148437,-1.683594 0.0078,-2.640625 -0.203126,-4.085937 -0.07031,-0.464844 -0.144531,-0.988281 -0.222656,-1.605469 -0.351562,-2.769531 1,-5.484375 1.273438,-6 0.464844,-0.878906 1.191406,-2.539062 1.429687,-3.09375 0,0 0.0039,0 0.0039,0 0,-0.0078 0.0039,-0.01563 0.0039,-0.01953 0.03906,-0.09375 0.06641,-0.152344 0.07031,-0.164063 V 83.625 c 0.386719,-0.574219 0.667969,-1.332031 0.898438,-2.074219 0.136718,-0.457031 0.296875,-0.914062 0.492187,-1.347656 -0.167969,0.84375 -0.347656,2.066406 -0.394531,3.578125 -0.0625,1.882812 0.199219,2.390625 0.390625,2.761719 0.101563,0.203125 0.164063,0.324219 0.144531,0.667969 -0.02344,0.433593 -0.324218,0.863281 -0.613281,1.28125 -0.375,0.546874 -0.761719,1.105468 -0.621094,1.746093 0.0625,0.285157 0.183594,0.644531 0.328125,1.058594 0.351563,1.015625 0.832032,2.402344 0.570313,3.367187 -0.375,1.382813 -0.746094,3.304688 -0.382813,4.636719 0.253906,0.937499 0.425782,3.386719 0.488282,4.390629 -0.324219,-0.22266 -0.742188,-0.39453 -1.277344,-0.32813 -0.457032,0.0508 -0.753906,0.17578 -0.941406,0.3125 -0.132813,0.0469 -0.195313,0.13281 -0.230469,0.22656 -0.871094,0.84375 -1.003907,0.79297 -1.472657,0.60938 l -0.0625,-0.0234 c -0.386718,-0.14844 -0.328124,-0.88672 -0.328124,-0.88672 z M 75.03125,66.703125 c -1.046875,1.285156 -1.144531,2.03125 -1.222656,2.625 -0.04297,0.335937 -0.07813,0.601563 -0.269532,0.925781 -0.121093,0.195313 -0.207031,0.359375 -0.285156,0.507813 -0.08984,-0.292969 -0.199218,-0.640625 -0.308594,-1.105469 -0.171874,-0.707031 -0.08594,-0.851562 0.04297,-1.066406 0.09375,-0.160156 0.207031,-0.355469 0.261719,-0.71875 0.117188,-0.777344 -0.445312,-2.542969 -0.640625,-3.117188 2.75,-0.195312 4.226563,-1.03125 4.667969,-1.324218 0.0039,0.04297 0.01172,0.08203 0.01563,0.125 0.03516,0.234374 0.07422,0.484374 0.179687,0.722656 -0.285156,0.1875 -1.128906,0.8125 -2.441406,2.425781 z m 0.777344,1.226563 2.195312,8.867187 1.542969,-0.390625 c 0.128906,0.128906 0.261719,0.25 0.40625,0.363281 -0.328125,0.273438 -1.703125,1.414063 -2.1875,2.058594 -0.574219,0.769531 -0.910156,1.679687 -1.132813,2.589844 -0.167968,0.683593 -0.515624,1.335937 -0.773437,1.761719 -0.390625,-0.859376 -1.285156,-2.796876 -1.457031,-3.03125 -0.390625,-0.507813 -0.917969,-1.207032 -0.917969,-1.691407 0,-0.34375 0.05859,-0.507812 0.121094,-0.679687 0.08594,-0.234375 0.175781,-0.480469 0.09766,-1.019532 -0.08203,-0.546874 -0.222656,-0.910156 -0.375,-1.289062 -0.09766,-0.25 -0.199219,-0.503906 -0.292969,-0.839844 -0.121094,-0.425781 0.05859,-0.90625 0.234375,-1.367187 0.132813,-0.359375 0.269531,-0.730469 0.269531,-1.089844 0,-0.195313 -0.01953,-0.371094 -0.05078,-0.542969 h 0.0039 c 0,0 0,-0.28125 0.496093,-1.105468 0.25,-0.414063 0.296875,-0.777344 0.34375,-1.125 0.07031,-0.558594 0.152344,-1.191407 1.109375,-2.363282 1.265625,-1.558594 2.070313,-2.152344 2.3125,-2.3125 0.429688,0.601563 1.3125,1.753906 1.742188,2.304688 z m 4.75,4.9375 c -0.167969,0.128906 -0.457032,0.4375 -0.761719,0.769531 l -1.425781,-5.792969 1.894531,-0.460938 1.230469,5.234376 c -0.324219,-0.05859 -0.644532,0.02344 -0.9375,0.25 z m -1.90625,2.371093 c 0.01953,0.03516 0.207031,0.351563 0.503906,0.722657 l -0.769531,0.195312 -1.9375,-7.84375 1.414062,-0.34375 1.511719,6.148438 c -0.34375,0.394531 -0.632812,0.746093 -0.695312,0.824218 L 78.5625,75.078125 Z m 3.792968,0.691407 c -0.265624,0.265624 -0.828124,0.761718 -1.210937,0.804687 -0.78125,0.08594 -1.648437,-1.011719 -2.027344,-1.605469 0.449219,-0.539062 1.363281,-1.601562 1.675781,-1.847656 0.183594,-0.140625 0.355469,-0.1875 0.546876,-0.144531 0.488281,0.113281 0.9375,0.808593 1.09375,1.105469 -0.113282,0.578124 -0.164063,1.214843 -0.07813,1.6875 z m -0.242187,11.007812 0.06641,0.390625 c 0.21875,1.304687 0.335938,2.214844 0.01563,2.945313 -0.210937,0.484374 -0.492187,0.839843 -0.785156,1.21875 -0.460938,0.589843 -0.941406,1.195312 -1.199219,2.324218 -0.398437,1.746094 -0.460937,4.339844 -0.125,5.234375 0.101563,0.269531 0.273438,0.59375 0.457031,0.933594 0.0078,0.01564 0.01563,0.03127 0.02344,0.04685 0.0078,0 0.01563,0 0.02344,0 0.03516,0.0625 0.07422,0.12892 0.128906,0.21484 0.222656,0.36329 0.59375,0.96875 0.449218,1.42188 -0.07031,0.21484 -0.253906,0.38672 -0.570312,0.51953 -0.257812,0.10938 -1.734375,0.52734 -2.730469,0.59767 -0.08594,-1.1836 -0.238281,-2.847655 -0.445312,-3.621093 -0.347657,-1.28125 0.08984,-3.28125 0.382812,-4.363281 0.304688,-1.117187 -0.207031,-2.59375 -0.578125,-3.671875 1.003906,-0.933594 3.261719,-3.746094 3.511719,-4.386718 0.117187,-0.308594 0.164063,-0.632813 0.222656,-1.085938 0.0625,-0.46875 0.152344,-1.113281 0.371094,-2.042969 0.277344,-1.171875 0.945313,-1.730469 1.308594,-1.957031 0.03906,0.992188 -0.226563,1.527344 -0.414063,1.882812 -0.07422,0.144532 -0.132812,0.265626 -0.167968,0.375 -0.296876,0.980469 -0.140626,1.882813 0.05469,3.023438 z m 0.316406,-6.722656 c 0.07813,0.320312 0.128907,0.601562 0.164063,0.867187 -0.355469,0.171875 -1.390625,0.800781 -1.773438,2.410157 -0.222656,0.953124 -0.316406,1.613281 -0.378906,2.09375 -0.05859,0.429687 -0.09766,0.714843 -0.195312,0.964843 -0.191407,0.492188 -2.15625,2.980469 -3.207032,4.023438 C 77.074219,90.40625 77.03125,90.253906 77,90.125 76.910156,89.710938 77.21875,89.265625 77.542969,88.792969 77.875,88.316406 78.214844,87.820312 78.25,87.238281 c 0.02734,-0.484375 -0.08594,-0.703125 -0.203125,-0.9375 -0.164063,-0.316406 -0.390625,-0.753906 -0.335937,-2.503906 0.08203,-2.554687 0.53125,-4.4375 0.632812,-4.839844 0.5625,-0.636719 1.792969,-1.648437 2.078125,-1.882812 0.230469,0.117187 0.476563,0.191406 0.726563,0.191406 0.05078,0 0.09766,-0.0039 0.144531,-0.0078 0.464843,-0.05469 0.972656,-0.449218 1.296875,-0.742187 0.132812,0.609375 0.04297,1.109375 -0.05078,1.632813 -0.113281,0.609374 -0.222656,1.238281 -0.01953,2.066406 z M 68.316406,62.21875 c 0.40625,0.207031 0.738282,0.214844 1.152344,0.230469 0.28125,0.01172 0.601562,0.01953 1.042969,0.08984 0.476562,0.07422 0.78125,0.289063 1.078125,0.492188 0.320312,0.222656 0.652344,0.457031 1.140625,0.457031 0.04297,0 0.08984,-0.0039 0.132812,-0.0078 0.933594,-0.07813 1.484375,-0.753907 1.929688,-1.300781 l 0.117187,-0.144532 C 75.277344,61.589844 76.019531,61.5 76.027344,61.496094 l 0.06641,-0.0078 0.01563,-0.0078 c 0.164063,0.332031 0.601563,1.15625 0.960937,1.449219 -0.195312,0.144531 -1.9375,1.34375 -5.640624,1.34375 -0.02734,0 -0.05859,0 -0.08984,0 -4.5,-0.02344 -6.320313,-1.609376 -6.589844,-1.871094 0.738281,-0.839844 1.527344,-1.445313 2.128906,-1.859375 l 0.199219,0.433593 c 0.02344,0.03906 0.582031,0.910157 1.238281,1.242188 z m 3.199219,-2.105469 c 0.25,0.160157 0.648437,0.273438 1.0625,0.273438 0.183594,0 0.375,-0.02344 0.550781,-0.07422 0.09766,-0.02734 0.210938,-0.08594 0.324219,-0.164062 l 1.84375,1.003906 c -0.269531,0.109375 -0.570313,0.28125 -0.792969,0.546875 l -0.121094,0.148437 c -0.398437,0.492188 -0.851562,1.050782 -1.5625,1.109375 -0.378906,0.02734 -0.617187,-0.136719 -0.929687,-0.355469 -0.328125,-0.230467 -0.703125,-0.48828 -1.296875,-0.58203 -0.472656,-0.07422 -0.824219,-0.08594 -1.105469,-0.09375 -0.394531,-0.01563 -0.628906,-0.02344 -0.933593,-0.179687 -0.519532,-0.257813 -1.011719,-1.015625 -1.015626,-1.015625 L 67.324219,60.25 c 0.04687,-0.03125 0.09766,-0.06641 0.140625,-0.09375 0.996094,-0.566406 2.226562,-0.371094 2.960937,-0.875 0.355469,0.28125 0.902344,0.710938 1.089844,0.832031 z m -0.605469,-4.214843 c 0.269532,-0.453126 0.316406,-0.640626 0.351563,-0.765626 0.01563,-0.07031 0.01953,-0.08203 0.07422,-0.148437 0.0039,-0.0078 0.570312,-0.703125 1.207031,-0.480469 0.460937,0.15625 0.761719,0.148438 0.964843,0.144532 0.09766,0 0.164063,-0.0039 0.207032,0.01172 0.179687,0.07031 0.222656,0.171875 0.300781,0.378906 0.0625,0.179688 0.144531,0.40625 0.371094,0.570313 0.21875,0.160156 0.445312,0.203125 0.628906,0.242187 0.242187,0.05078 0.324219,0.07031 0.382813,0.226563 0.25,0.703125 -0.5625,1.949219 -0.890626,2.363281 -0.441406,0.507813 -1.207031,1.273438 -1.527343,1.367188 -0.449219,0.132812 -0.964844,0 -1.183594,-0.140625 -0.175781,-0.109375 -0.765625,-0.578125 -1.144531,-0.878907 0.0039,-0.02344 0.01172,-0.03906 0.01953,-0.0625 0.15625,-0.96875 -0.175781,-1.296874 -0.59375,-1.714843 0,0 -0.09766,-0.08594 -0.117187,-0.105469 0.257812,-0.183594 0.652343,-0.515625 0.949218,-1.007812 z m 5.507813,1.855468 c 0.05859,0.429688 0.109375,0.84375 -0.253907,1.21875 -0.386718,0.394532 -1.128906,0.210938 -1.511718,0.09375 0.121094,-0.128906 0.210937,-0.238281 0.257812,-0.289062 0.144532,-0.179688 1.378906,-1.773438 0.980469,-2.875 -0.15625,-0.445313 -0.511719,-0.515625 -0.773437,-0.566406 -0.152344,-0.03125 -0.296876,-0.0625 -0.417969,-0.152344 -0.09375,-0.06641 -0.132813,-0.160156 -0.191407,-0.320313 -0.07812,-0.226562 -0.191406,-0.535156 -0.601562,-0.695312 -0.140625,-0.05078 -0.269531,-0.04687 -0.410156,-0.04687 -0.179688,0.0039 -0.410156,0.0078 -0.78125,-0.117188 -0.785156,-0.269531 -1.496094,0.28125 -1.789063,0.648438 -0.121093,0.144531 -0.148437,0.234375 -0.175781,0.351562 -0.02734,0.09375 -0.05859,0.238282 -0.292969,0.621094 -0.320312,0.53125 -0.78125,0.847656 -0.949219,0.949219 -0.05469,-0.03516 -0.109374,-0.07031 -0.167968,-0.105469 -0.234375,-0.144531 -0.671875,-0.414062 -0.664063,-0.546875 0.0039,-0.08594 0.06641,-0.136719 0.277344,-0.265625 0.195313,-0.113281 0.433594,-0.257812 0.566406,-0.535156 0.04687,-0.105469 0.08984,-0.25 0.136719,-0.417969 0.08203,-0.308594 0.1875,-0.6875 0.394531,-0.867187 0.109375,-0.09375 0.566407,-0.121094 0.867188,-0.140626 0.375,-0.02344 0.699219,-0.04297 0.910156,-0.148437 0.152344,-0.07813 0.28125,-0.179687 0.390625,-0.269531 0.179688,-0.144532 0.316406,-0.253906 0.539062,-0.265625 0.316407,-0.02344 0.4375,0.144531 0.574219,0.347656 0.09766,0.144531 0.222657,0.328125 0.449219,0.351563 0.179688,0.02344 0.359375,-0.05078 0.53125,-0.125 0.238281,-0.09766 0.402344,-0.15625 0.53125,-0.09375 0.144531,0.07422 0.285156,0.417968 0.386719,0.667968 0.109375,0.273438 0.203125,0.511719 0.363281,0.644532 0.07031,0.05859 0.113281,0.113281 0.15625,0.164062 0.121094,0.148438 0.261719,0.316406 0.664062,0.472656 0.109376,0.04297 0.1875,0.128906 0.234376,0.269532 0.109374,0.324218 0.01562,0.796874 -0.136719,1.050781 -0.179688,0.300781 -0.132813,0.652343 -0.09375,0.992187 z M 69.1875,78.886719 c -0.09766,-0.445313 -0.136719,-0.816407 -0.191406,-1.121094 -0.175782,-1.007813 -0.242188,-1.386719 -0.117188,-2.238281 0.148438,-1 -0.199218,-1.550782 -0.53125,-2.085938 C 68.257812,73.296875 68.167969,73.15625 68.089844,73 67.75,72.34375 67.394531,71.480469 67.648438,70.605469 c 0.210937,-0.742188 0.648437,-2.59375 0.03516,-3.726563 C 67.25,66.070312 66.578125,65.03125 65.832031,64.679688 c -0.59375,-0.285157 -1.890625,-0.390626 -2.085937,-0.40625 0.08984,-0.460938 0.199218,-0.832032 0.328125,-1.003907 0.109375,-0.164062 0.222656,-0.3125 0.339843,-0.460937 0.421876,0.40625 2.355469,1.964844 6.921876,1.992187 h 0.09766 c 0.21875,0 0.425781,-0.0078 0.632812,-0.01563 0.222656,0.636719 0.757813,2.375 0.664063,3.007813 -0.03906,0.261719 -0.117188,0.390625 -0.195313,0.527343 -0.195312,0.328126 -0.304687,0.609376 -0.105468,1.457032 0.125,0.507812 0.242187,0.886718 0.339843,1.199218 0.148438,0.46875 0.246094,0.78125 0.246094,1.195313 0,0.265625 -0.117187,0.574219 -0.242187,0.90625 -0.191407,0.515625 -0.414063,1.101563 -0.242188,1.691406 0.101562,0.363281 0.210938,0.644531 0.308594,0.890625 0.144531,0.367188 0.269531,0.683594 0.339844,1.175782 0.0625,0.40625 0.0078,0.554687 -0.06641,0.757812 -0.07031,0.191406 -0.15625,0.425781 -0.15625,0.863281 0,0.660157 0.566407,1.410157 1.023438,2.011719 0.140625,0.183594 0.273437,0.359375 0.359375,0.496094 0.03516,0.03125 1.003906,2.230468 1.210937,2.6875 l -0.0039,0.0039 c 0,0 0.0078,0.01563 0.02344,0.03906 0.0078,0.01563 0.0078,0.01953 0.01172,0.02734 -0.277343,0.640625 -0.9375,2.140625 -1.359375,2.9375 -0.257812,0.484375 -0.875,1.761719 -1.191406,3.363282 C 72.464844,89.53125 71.382812,88.5625 70.949219,87.992188 70.621094,87.5625 70.523438,87.257812 70.386719,86.835938 70.285156,86.519531 70.15625,86.125 69.898438,85.59375 69.433594,84.632812 68.667969,83.941406 68.3125,83.65625 c -0.02344,-0.09766 -0.05078,-0.175781 -0.08203,-0.214844 0.06641,-0.132812 0.132812,-0.261718 0.195312,-0.382812 0.113281,-0.21875 1.226563,-2.027344 0.761718,-4.171875 z m 3.648438,23.523441 c -1.28125,-0.14453 -2.457032,-0.73828 -2.921876,-1 -0.390624,-0.22266 -0.605468,-0.6211 -0.667968,-0.75391 -0.08984,-0.51953 -0.175782,-1.246094 -0.136719,-2.125 0.01953,-0.457031 0.03906,-0.789062 0.05469,-1.070312 0.02734,-0.527344 0.05078,-0.910157 0.05078,-1.621094 0,-0.496094 -0.07031,-0.71875 -0.183594,-1.058594 -0.148438,-0.464844 -0.375,-1.171875 -0.640625,-3.253906 -0.328125,-2.574219 -0.171875,-4.707032 -0.05469,-6.265625 0.01562,-0.222657 0.03125,-0.425781 0.04297,-0.625 0.0078,0.02344 0.01953,0.03906 0.02734,0.05859 l -0.0078,0.0039 c 0.0078,0.01172 0.01562,0.03125 0.02344,0.04297 0.0039,0.01562 0.0039,-0.117188 -0.0078,-0.296876 0.332032,0.332032 0.738282,0.800782 1.015626,1.375 0.242187,0.5 0.359374,0.859376 0.460937,1.175782 0.140625,0.433594 0.261719,0.808594 0.640625,1.3125 0.546875,0.71875 1.972656,1.953125 2.394531,2.316406 -0.101562,0.742188 -0.136719,1.539062 -0.03516,2.347656 0.07813,0.621094 0.15625,1.144532 0.226563,1.613282 0.214843,1.460937 0.34375,2.339843 0.199218,3.964843 -0.117187,1.304688 -0.332031,2.839848 -0.480468,3.859378 z m -2.253907,1.30078 c 0.08203,-0.0195 0.160157,-0.0234 0.230469,-0.0234 0.09766,0 0.25,0.21094 0.277344,0.28516 0.207031,0.60156 0.144531,1.72265 0.02344,1.91797 -0.121093,0.17578 -1.136719,0.5664 -1.558593,0.33984 -0.535157,-0.28906 -0.542969,-0.53906 -0.480469,-0.75 0.128906,-0.42969 0.925781,-1.63672 1.507812,-1.76953 z m -1.535156,-1.23047 0.3125,1.41797 h -2.089844 z m 2.046875,0.73047 c -0.05078,-0.0234 -0.101562,-0.0391 -0.152344,-0.0469 -0.59375,-0.10156 -0.988281,0.22657 -1.046875,0.2461 -0.01172,0.0156 -0.03125,0.0273 -0.04687,0.0391 l -0.378906,-1.71094 c 0.0625,0.043 0.121094,0.0859 0.191406,0.125 0.300782,0.17188 0.894532,0.47266 1.621094,0.72266 z m -2.285156,-1.8125 0.101562,0.45703 -0.511718,0.41016 -0.984376,-7.097661 0.980469,-0.503907 c 0.03125,0.109376 0.0625,0.207032 0.09375,0.292969 0.101563,0.320313 0.152344,0.476563 0.152344,0.882813 0,0.695312 -0.01953,1.050781 -0.05078,1.585937 -0.01563,0.289063 -0.03516,0.621094 -0.05469,1.082031 -0.0625,1.394532 0.171875,2.441408 0.273439,2.890628 z M 67.644531,87.15625 c -0.05078,1.273438 -0.03906,2.761719 0.175781,4.441406 0.15625,1.21875 0.296876,1.980469 0.421876,2.5 l -0.914063,0.46875 -0.960937,-6.945312 z m 0.128907,-3.21875 c 0.01953,0.03906 0.04297,0.07422 0.0625,0.109375 -0.01172,0.335937 -0.03906,0.730469 -0.07031,1.171875 -0.03125,0.402344 -0.0625,0.84375 -0.08984,1.316406 l -1.390625,0.503906 -0.210937,-1.53125 C 66.625,85.046875 67.320312,84.4375 67.773438,83.9375 Z m -2.472657,0.1875 0.167969,1.207031 c -0.08594,0.07031 -0.175781,0.144531 -0.257812,0.210938 l -0.152344,-0.445313 c -0.0039,-0.0078 -0.210938,-0.558594 -0.140625,-1.179687 0.02734,-0.261719 0.175781,-0.488281 0.351562,-0.746094 0.210938,-0.316406 0.445313,-0.675781 0.492188,-1.167969 L 65.742188,82 c 0.367187,-0.414062 0.988281,-0.203125 1.230468,-0.09375 0.328125,0.203125 0.496094,0.820312 0.449219,1.449219 0.0078,0.01172 0.01953,0.01953 0.02734,0.03125 0.01172,0.03125 0.03125,0.05469 0.04297,0.08203 -0.324219,0.378906 -0.90625,0.917969 -1.503907,1.429688 L 65.871094,84.046875 Z M 65.125,81.867188 c 0.04687,0.101562 0.07031,0.183593 0.08203,0.265624 -0.06641,0.277344 -0.214843,0.507813 -0.371093,0.746094 -0.195313,0.292969 -0.394532,0.589844 -0.4375,0.984375 -0.08203,0.742188 0.160156,1.390625 0.167968,1.410157 l 0.273438,0.785156 0.40625,0.121094 c 0.04687,-0.03516 0.15625,-0.125 0.304687,-0.246094 l 0.183594,1.304687 -1.609375,0.585938 v -9.863281 l 0.01563,-0.01172 c 0.171875,0.179687 0.375,0.3125 0.554687,0.425781 0.148438,0.09375 0.289063,0.183594 0.375,0.277344 0.242188,0.261718 0.171876,0.640625 0.03125,1.234375 -0.136718,0.605469 -0.296874,1.292969 0.02344,1.980469 z m 1.445312,22.031252 H 64.125 V 93.171875 Z m -1.140624,-7.695315 1.441406,-0.761719 0.992187,7.156254 -0.816406,0.75781 z m 7.234374,7.656255 h -1.0625 c -0.0039,-0.0156 -0.04687,-0.17969 -0.07031,-0.29688 l 0.25,-0.82812 c 0.3125,0.0859 0.640625,0.15234 0.976562,0.1914 -0.05469,0.36328 -0.09375,0.59375 -0.09375,0.60547 -0.0039,0.0156 -0.01172,0.15234 0,0.32813 z m 18.53125,-12.917974 c 0.785157,-0.226562 1.460938,-0.5625 2.074219,-0.957031 -0.125,0.601563 -0.214843,1.496094 0.0625,2.378906 0.675781,2.148438 0.363281,5.132813 0.21875,5.785157 -0.117187,0.5 -0.515625,1.347656 -0.652343,1.628906 -0.03516,0.01172 -0.07031,0.03125 -0.109376,0.0625 -0.398437,-0.109375 -0.84375,-0.1875 -1.339843,-0.1875 -0.0625,0 -0.125,0 -0.191407,0.0039 -0.625,0.02734 -1.203124,0.132812 -1.714843,0.230469 -0.585938,0.113281 -1.09375,0.207027 -1.527344,0.156247 -0.492187,-0.05859 -1,-0.156247 -1.320313,-0.60156 -0.378906,-0.527344 -0.425781,-1.460937 -0.148437,-2.773437 0.695313,-3.296875 1.496094,-4.820313 4.648437,-5.726563 z m 2.636719,1.261719 c -0.367187,-1.15625 0.01172,-2.402344 0.109375,-2.6875 0.328125,-0.246094 0.636719,-0.507813 0.9375,-0.773437 -0.121094,0.628906 -0.175781,1.472656 0.160156,2.109374 1.070313,2.019532 1.492188,4.277344 1.222657,6.515626 -0.08594,0.714843 -0.410157,3.117192 -0.496094,3.769532 -0.386719,-0.0625 -0.824219,-0.30469 -1.207031,-0.51172 l -0.144532,-0.0781 c -0.289062,-0.15625 -0.644531,-0.34766 -1.058593,-0.51172 0.132812,-0.265629 0.574219,-1.195316 0.707031,-1.773441 0.179688,-0.792969 0.472656,-3.824219 -0.230469,-6.058594 z m -1.640625,10.863285 c -0.08984,-0.1836 -0.300781,-1.14063 0.429688,-2.16016 0.152344,-0.21484 0.257812,-0.35547 0.335937,-0.45703 0.480469,0.16797 0.882813,0.38281 1.203125,0.5625 l 0.144532,0.0742 c 0.464843,0.2539 1.039062,0.5625 1.578124,0.59375 0.109376,0.23047 0.273438,0.64453 0.351563,1.19922 0.04297,0.30468 0.08594,0.73828 0.09766,1.07422 h -3.667969 c -0.101562,-0.25782 -0.300781,-0.58204 -0.390624,-0.74219 -0.03125,-0.0586 -0.0625,-0.10547 -0.08203,-0.14453 z m -1.855468,-0.79297 c -0.0078,-0.11719 -0.01563,-0.2461 -0.01563,-0.38281 0,-0.5 -0.183593,-1.16407 -0.308593,-1.55079 0.402343,-0.0742 0.816406,-0.14062 1.265625,-0.15625 0.414062,-0.0117 0.789062,0.0352 1.132812,0.11719 -0.06641,0.0859 -0.136718,0.1836 -0.21875,0.30078 -0.871094,1.22266 -0.625,2.38672 -0.46875,2.69922 0.02344,0.043 0.05469,0.10156 0.09375,0.16797 0.171875,0.30859 0.464844,0.82422 0.40625,1.29297 -0.04687,0.39844 -0.914062,0.71875 -1.371094,0.80078 -0.402343,0.0742 -0.90625,0.28906 -1.535156,0.66406 -0.5,0.29688 -1.320312,0.79688 -1.769531,1.07422 -0.03906,-0.21484 -0.09375,-0.49609 -0.132813,-0.77734 -0.05469,-0.41797 0.433594,-0.9961 0.921876,-1.26563 0.382812,-0.20703 0.6875,-0.5 1.015624,-0.87109 h 0.03125 v -0.0312 c 0.101563,-0.11719 0.203126,-0.23047 0.3125,-0.35938 l 0.191407,-0.21875 c 0.507812,-0.58203 0.480469,-1.02734 0.449219,-1.5039 z m 12.265622,-1.84375 0.0156,3.51953 h -3.976565 c -0.08203,-0.19141 -0.136719,-0.37109 -0.140625,-0.5625 -0.01953,-0.57031 0.6875,-2.32813 1.027344,-3.10938 0.191406,0.008 0.394531,0.004 0.640626,-0.0234 0.49609,-0.0625 0.90625,-0.22657 1.22656,-0.500004 0.23438,0.238282 0.69141,0.617184 1.20703,0.675784 z m -1.7539,-7.726565 c 0.3164,1.492187 0.75,4.773437 0.75781,4.8125 0,0.0078 0.14844,0.964844 -0.33984,1.613281 -0.25391,0.339844 -0.64454,0.539063 -1.16016,0.601563 -0.472658,0.05469 -0.796876,0.01172 -1.144532,-0.03516 -0.363282,-0.05078 -0.738282,-0.101562 -1.316407,-0.0078 -0.5,0.1875 -0.664062,0.472661 -0.816406,0.750001 -0.109375,0.19141 -0.210937,0.375 -0.441406,0.57422 -0.02734,0.0156 -0.05469,0.0234 -0.07813,0.043 0.105468,-0.81641 0.394531,-2.957035 0.476562,-3.625003 0.28125,-2.34375 -0.160156,-4.707032 -1.28125,-6.824219 -0.4375,-0.832031 -0.0078,-2.21875 0.08984,-2.507813 0.01953,-0.01953 0.03906,-0.03906 0.05859,-0.05469 1.703125,-1.578125 3.183594,-2.945313 5.957039,-2.277344 -0.0469,0.238281 -0.0977,0.464844 -0.14844,0.671875 -0.48438,1.90625 -0.98047,4.539062 -0.61328,6.265625 z m -0.71094,-17.835937 c 0.27344,-0.01172 0.54687,-0.04297 0.80859,-0.08984 0.27735,0.648437 1.10547,2.683594 1.17578,4.089844 0.0664,1.417968 -0.043,4.066406 -0.38671,6.195312 -0.008,0.0625 -0.0156,0.121094 -0.0273,0.183594 -3.035155,-0.714844 -4.67578,0.804687 -6.414061,2.410156 -1.199219,1.109375 -2.4375,2.257812 -4.246094,2.777344 -1.421875,0.410156 -2.398437,0.949218 -3.117187,1.6875 0.230468,-0.660156 0.765624,-1.648438 2.019531,-2.398438 0.667969,-0.398437 1.089843,-1.109375 1.5,-1.800781 0.273437,-0.460937 0.558593,-0.9375 0.90625,-1.3125 0.914062,-0.964844 1.421875,-1.457031 2.15625,-2.105469 l 0.246093,-0.210937 c 0.660157,-0.574219 1.285157,-1.121094 2.171876,-2.332031 0.871093,-1.191407 2.035156,-3.199219 2.703124,-5.257813 0.292969,-0.90625 0.433598,-1.476563 0.503908,-1.835937 z m -1.23047,-2.253907 c -0.117188,0.273438 -0.210938,0.527344 -0.08203,0.722657 0.03906,0.0625 0.132812,0.160156 0.3125,0.160156 h 0.01172 l 0.125,-0.0039 c 0.460937,-0.0078 1.08984,-0.01563 1.44531,-0.527344 0.25781,-0.371094 0.44922,-0.535156 0.55859,-0.605469 v 0.02344 c 0,0.261719 -0.004,0.699219 0.39844,0.886719 0.20313,0.09766 0.34375,0.28125 0.60938,0.570313 -0.64063,0.253906 -1.48438,0.503906 -2.347658,0.507812 -1.1875,0.01953 -2.289062,-0.296875 -2.898438,-0.515625 0.08203,-0.05469 0.160157,-0.113281 0.234376,-0.179687 0.207031,-0.179688 0.355468,-0.4375 0.464843,-0.726563 0.378907,-0.06641 0.8125,-0.167969 1.167969,-0.3125 z m -0.847656,-1.132812 c 0.04297,-0.316407 0.582031,-1.050781 0.777344,-1.238281 0.269531,-0.261719 0.410156,-0.777344 0.324218,-1.203126 -0.06641,-0.320312 -0.394531,-0.425781 -0.65625,-0.511718 -0.08984,-0.03125 -0.238281,-0.07422 -0.25,-0.05078 0.01563,-0.117187 0.386719,-0.480468 0.945313,-0.726562 0.558593,-0.246094 1.191411,-0.308594 1.359371,-0.132812 0.30079,0.308593 0.17969,0.695312 -0.0391,1.25 -0.15234,0.386718 -0.29297,0.753906 -0.13672,1.074218 0.0859,0.179688 0.25782,0.3125 0.50782,0.386719 0.1875,0.05469 0.40234,0.02734 0.6289,0 0.50391,-0.07031 1.07031,-0.144531 1.67969,0.585937 0.14844,0.171876 0.0156,0.664063 -0.0898,1.054688 -0.13672,0.503906 -0.26563,0.980469 -0.0273,1.292969 0.0352,0.04297 0.082,0.08984 0.13672,0.140625 -0.11719,0.06641 -0.27734,0.148437 -0.47266,0.238281 -0.39453,-0.480469 -0.44921,-0.664063 -0.85156,-0.847656 -0.0859,-0.04297 -0.0898,-0.203125 -0.0859,-0.40625 0,-0.199219 0.004,-0.476563 -0.25,-0.5625 -0.2539,-0.08984 -0.67968,-0.01563 -1.27343,0.839843 -0.1875,0.273438 -0.570316,0.292969 -0.953129,0.300782 0.02734,-0.06641 0.05859,-0.140625 0.08203,-0.195313 0.125,-0.289062 0.242188,-0.5625 0.04688,-0.746093 C 99.265625,71.84375 99,71.98828 98.886719,72.04688 c -0.257813,0.132813 -0.625,0.234375 -0.980469,0.308594 0.07031,-0.308594 0.117188,-0.617188 0.152344,-0.875 z M 100.9375,67.25 c -0.45312,-0.464844 -1.4375,-0.210938 -1.949219,0.01563 -0.464843,0.207031 -1.328125,0.738281 -1.257812,1.269531 0.04297,0.308594 0.355469,0.410156 0.609375,0.492188 0.09766,0.03125 0.277344,0.08984 0.304687,0.117187 0.05078,0.246094 -0.03125,0.578125 -0.171875,0.714844 -0.06641,0.06641 -0.195312,0.214844 -0.332031,0.394531 -0.609375,-0.445312 -0.984375,-1.164062 -0.984375,-1.929687 0,-1.316407 1.070312,-2.390625 2.386719,-2.390625 1.316411,0 2.390621,1.074218 2.390621,2.390625 0,0.542969 -0.1914,1.0625 -0.52734,1.484375 -0.14844,0.01953 -0.28906,0.03516 -0.36719,0.01563 -0.0586,-0.01953 -0.15625,-0.05859 -0.18359,-0.113281 -0.0547,-0.113282 0.0547,-0.402344 0.15625,-0.652344 0.20703,-0.515625 0.48437,-1.230469 -0.0742,-1.808594 z M 85.675781,91.398438 c 0.46875,0.628906 1.21875,1.414062 1.511719,1.710937 -0.523438,0.902344 -0.855469,2.023437 -1.15625,3.449219 -0.3125,1.484375 -0.238281,2.527344 0.234375,3.1875 0.480469,0.671876 1.238281,0.765626 1.6875,0.820316 0.46875,0.0586 0.988281,-0.0312 1.535156,-0.13282 0.109375,0.33594 0.304688,1 0.304688,1.45704 0,0.15234 0.0078,0.28906 0.01563,0.41796 0.03125,0.4375 0.04687,0.70704 -0.320313,1.125 l -0.191406,0.21875 c -0.06641,0.0742 -0.121094,0.14063 -0.183594,0.20704 h -7.886719 c -0.101562,0.0547 -0.691406,0 -0.765624,0 -0.05469,0 -0.507813,-0.0391 -0.695313,-0.0273 -0.01953,0.0117 -0.03906,0.0195 -0.05859,0.0234 l 0.0039,0.004 h -1.67969 c -0.01172,-0.13672 -0.02344,-0.32813 -0.03906,-0.55079 1.074218,-0.0781 2.613281,-0.51953 2.898437,-0.64062 0.457031,-0.19141 0.746094,-0.47656 0.863281,-0.84375 0.21875,-0.67969 -0.234375,-1.41016 -0.503906,-1.851564 -0.05859,-0.09766 -0.109375,-0.171875 -0.128906,-0.21875 l -0.01563,0.0039 c 0,-0.0078 -0.0039,-0.01562 -0.0078,-0.01953 -0.175781,-0.328125 -0.339844,-0.636719 -0.429687,-0.871093 -0.269531,-0.71875 -0.253907,-3.183594 0.148437,-4.933594 0.234375,-1.011719 0.652344,-1.546875 1.097656,-2.117188 0.300782,-0.386718 0.613282,-0.785156 0.855469,-1.335937 0.378907,-0.859375 0.246094,-1.882813 0.01563,-3.242188 l -0.06641,-0.390625 c -0.191406,-1.113281 -0.328125,-1.917968 -0.06641,-2.777344 0.02734,-0.08594 0.07422,-0.179687 0.132812,-0.289062 0.292969,-0.5625 0.78125,-1.507812 0.246094,-3.691406 -0.179688,-0.722656 -0.07813,-1.269532 0.02344,-1.847656 0.121093,-0.652344 0.242187,-1.328126 -0.05469,-2.226563 -0.214844,-0.65625 0.06641,-2.078125 0.328125,-2.65625 0.53125,0.847656 1.292969,1.519531 1.703125,1.84375 -0.449219,0.585937 -0.679688,1.257813 -0.4375,2.015625 0.253906,0.800781 0.546875,1.328125 0.800781,1.792969 0.425781,0.773437 0.703125,1.28125 0.566407,2.527343 -0.08984,0.777344 -0.15625,1.503907 -0.222657,2.191407 -0.109375,1.191406 -0.207031,2.214843 -0.363281,3.136719 -0.207031,1.246093 -0.378906,3.601562 0.300781,4.53125 z M 85.855469,78.761719 C 85.613281,78.3125 85.335938,77.808594 85.09375,77.058594 c -0.53125,-1.664063 2.1875,-3.035156 3.34375,-3.625 0.152344,-0.07422 0.28125,-0.140625 0.433594,-0.222656 0.941406,-0.507813 2.105468,-1.140626 3.496094,-0.824219 0.1875,0.04297 0.4375,0.101562 0.726562,0.144531 -0.167969,0.546875 -0.632812,1.953125 -1.242188,2.800781 -0.8125,1.140625 -2.113281,2.601563 -2.574218,2.902344 -0.605469,0.394531 -1.445313,1.6875 -1.730469,2.660156 -0.167969,0.582031 -0.628906,2.152344 -1.277344,2.824219 0.0625,-0.664062 0.128907,-1.371094 0.214844,-2.121094 0.15625,-1.414062 -0.191406,-2.042968 -0.628906,-2.835937 z M 101.45703,54.617188 c -0.14844,-0.820313 -0.44531,-1.589844 -0.85937,-2.285157 1.69922,-0.339843 3.01953,-0.734375 3.92968,-1.171875 v 2.382813 c -0.64453,0.375 -1.48437,0.761719 -3.07031,1.074219 z m 0.082,0.566406 c 1.46485,-0.285156 2.33203,-0.632813 2.98828,-0.988282 V 67.84375 c -0.0508,-0.08984 -0.0977,-0.171875 -0.15234,-0.261719 l -0.0742,-0.125 c -0.0508,-0.08594 -0.14844,-0.199219 -0.3164,-0.386719 -0.60157,-0.679687 -2.01563,-2.277343 -2.27344,-4.355468 -0.17969,-1.429688 -1.01563,-2.535156 -1.36328,-2.9375 0.80468,-1.15625 1.22656,-2.507813 1.22656,-3.925782 0,-0.226562 -0.0117,-0.449218 -0.0352,-0.667968 z m -2.660154,4.8125 c 0.148438,0.05078 0.308594,0.07031 0.464844,0.07031 0.179688,0 0.351562,-0.02344 0.503906,-0.05859 0.101563,0.109376 0.808594,0.898438 1.167974,2.023438 -0.29688,-0.08203 -1.039068,-0.617188 -1.039068,-0.617188 -0.04297,-0.03125 -0.945312,-0.636718 -1.992187,-0.660156 -0.414063,-0.01172 -0.976563,0.171875 -1.289063,0.28125 0,-0.03906 0.0078,-0.08203 0.0039,-0.113281 -0.02734,-0.273437 -0.08203,-0.542969 -0.128907,-0.738281 0.01172,0 -0.02734,-0.144532 -0.05469,-0.222656 -0.01563,-0.05078 -0.02344,-0.08203 -0.02734,-0.08594 h -0.0039 c -0.08984,-0.28125 -0.113281,-0.589844 -0.03906,-0.871094 0.210938,-0.804687 0.128907,-2.246094 0.05859,-3.035156 -0.04297,-0.488281 -0.390625,-1.726562 -1.132812,-2.1875 -0.246094,-0.148438 -0.53125,-0.261719 -0.828125,-0.335938 0.304687,-0.257812 0.675781,-0.457031 1.425781,-0.417968 0.320312,0.01953 0.65625,0.234375 0.945312,0.605468 0.472657,0.601563 0.714844,1.46875 0.597657,2.105469 l -0.03516,0.179688 c -0.203124,1.011719 -0.671874,3.386719 1.402344,4.078125 z m -8.496094,-1.128906 c -0.210937,-0.347657 -0.429687,-0.714844 -0.417968,-1.0625 0.01563,-0.390626 0.171875,-0.640626 0.335937,-0.902344 0.179688,-0.285156 0.367188,-0.582032 0.332031,-1.023438 -0.05859,-0.664062 0.132813,-2.246094 1.070313,-2.632812 0.792969,-0.328125 1.242187,-0.144532 1.542969,0.121094 -0.382813,0.04687 -0.726563,0.167968 -0.972656,0.363281 -0.675782,0.535156 -0.859376,1.050781 -0.957032,1.527343 -0.05469,0.257813 -0.214844,1.898438 -0.179687,2.394532 0.03906,0.632812 0.28125,1.246094 0.40625,1.511718 l -0.0039,0.0039 c 0,0 0.132813,0.203125 0.1875,0.632812 0.05469,0.410157 0.07422,1.292969 0.07031,1.699219 -0.269531,0.07813 -0.828125,0.222656 -1.34375,0.230469 -0.199219,0.0078 -0.40625,-0.0039 -0.507813,-0.0078 -0.0625,-0.0078 -0.121093,-0.0078 -0.191406,-0.02344 -0.445312,-0.08203 -0.804687,-0.179688 -1.050781,-0.25 -0.08594,-0.296875 -0.144531,-0.742188 0.03125,-0.824219 0.125,-0.05469 0.320313,-0.01563 0.527344,0.02344 0.410156,0.08203 0.96875,0.191406 1.382812,-0.410157 0.296875,-0.4375 0.01172,-0.910156 -0.261719,-1.371093 z m 0.292969,-9.574219 v -5.425781 c 0,-0.800782 2.675781,-2.664063 3.148438,-3.003907 0.796875,0.589844 2.652343,2.171875 2.820312,3.238281 v 5.136719 c -0.625,-0.1875 -1.289062,-0.289062 -1.976562,-0.289062 -0.75,0 -1.472657,0.121093 -2.148438,0.34375 z m 0.640625,0.53125 c -1.214844,0.675781 -2.203125,1.710937 -2.824218,2.960937 -1.871094,-0.265625 -3.488282,-0.726562 -4.609376,-1.269531 0.179688,-0.08594 0.382813,-0.304687 0.382813,-0.304687 0.175781,-0.207032 0.285156,-0.464844 0.285156,-0.753907 0,-0.234375 -0.07031,-0.453125 -0.191406,-0.632812 z M 76.71875,38.558594 v -5.46875 H 90.0625 v 5.46875 h -1.125 v 0.53125 h 1.125 V 49.292969 H 89.242188 C 88.851562,46.359375 84.3125,39.339844 83.660156,38.34375 v -2.664062 h -0.613281 v 2.679687 c -0.691406,1.039063 -5.078125,7.746094 -5.457031,10.933594 H 76.71875 V 39.089844 h 1.125 v -0.53125 z m -7.960938,11.265625 c -0.867187,0.480469 -1.617187,1.152343 -2.203124,1.949219 -1.925782,-0.375 -3.40625,-0.828126 -4.28125,-1.3125 l -0.01172,0.01562 v -0.652343 z m -3.574218,-8.785157 c 0.851562,0.625 2.847656,2.289063 2.902344,3.386719 v 4.867188 h -5.824219 v -5.867188 c 1.058593,-1.023437 2.472656,-2.066406 2.921875,-2.386719 z m -2.921875,-2.480468 v -0.644532 l 5.824219,-3.183593 v 8.382812 C 67.292969,42.011719 65.886719,40.9375 65.4375,40.609375 v -2.089844 h -0.546875 v 2.121094 c -0.414063,0.292969 -1.597656,1.160156 -2.628906,2.105469 v -3.65625 h 1.261719 v -0.53125 z m 1.324219,52.25 v 14.605466 l -1.324219,-0.004 V 54.175781 c 0.570312,0.296875 1.441406,0.636719 2.988281,0.941407 -0.02734,0.242187 -0.04297,0.484374 -0.04297,0.734374 0,1.542969 0.5,3 1.441407,4.214844 -0.839844,0.566406 -2.050782,1.492188 -3.003907,2.894532 -0.621093,0.835937 -0.691406,4.105468 -0.691406,4.136718 -0.02344,1.085938 0.3125,2.71875 0.5,3.347656 0.207031,0.714844 0.121094,1.40625 0.05469,1.960938 -0.02734,0.222656 -0.05078,0.425781 -0.05469,0.601562 -0.0078,0.277344 -0.128906,0.820313 -0.25,1.339844 -0.132813,0.605469 -0.261719,1.175782 -0.25,1.488282 0.01563,0.714843 0.351563,1.347656 0.632813,1.769531 v 10.414062 l -0.589844,0.210938 z m 2.109374,16.687496 0.0039,-2.07812 -1.574219,-0.004 v -1.0625 h 2.550781 l 0.0039,0.0156 0.01562,-0.0156 h 2.414063 c -0.277344,0.39453 -0.480469,0.78516 -0.539063,0.97657 -0.113281,0.38281 -0.08203,0.92578 0.738282,1.36328 0.164062,0.0898 0.371094,0.1289 0.597656,0.1289 0.660156,0 1.457031,-0.33203 1.65625,-0.65234 0.195312,-0.3125 0.230469,-1.12891 0.148438,-1.78125 h 1.058593 c 0.09375,0.24609 0.257813,0.47266 0.546875,0.58594 l 0.0625,0.0234 c 0.230469,0.0937 0.421875,0.15235 0.613282,0.15235 0.316406,0 0.640624,-0.16797 1.15625,-0.63281 0.222656,0.40625 0.425781,0.66015 0.640624,0.78906 0.160157,0.0977 0.347657,0.32812 0.527344,0.54687 0.339844,0.41407 0.722656,0.88282 1.230469,0.88282 0.101563,0 0.222656,0.008 0.351563,0.0117 0.171874,0.008 0.359374,0.0156 0.546874,0.0156 0.679688,0 1.371094,-0.0937 1.503907,-0.64063 0.210937,-0.89453 -0.722657,-1.28515 -1.28125,-1.51953 -0.160157,-0.0703 -0.304688,-0.125 -0.398438,-0.1875 -0.0078,-0.004 -0.01953,-0.0195 -0.03125,-0.0273 H 88.61717 c -0.171876,0.16797 -0.34375,0.30469 -0.535157,0.41016 -0.644531,0.35546 -1.28125,1.10546 -1.1875,1.80078 0.04687,0.33984 0.109375,0.67187 0.15625,0.89843 z m 14.640626,2.88672 v 0.88282 c -0.636719,-0.0508 -1.195313,-0.0781 -1.613282,-0.0859 -1.160156,-0.0352 -1.898437,0.0859 -2.570312,0.27344 v -3.42969 h 3.269531 l -1.578125,2.35547 z m -1.535157,-0.48828 1.257813,-1.87109 h 0.277344 v 1.87109 z m 18.039063,-5.94531 c 0,0 -0.03516,-0.78906 -0.08594,-1.14844 -0.07422,-0.51953 -0.214844,-0.92969 -0.332031,-1.20703 0.105469,-0.043 0.207031,-0.10156 0.300781,-0.18359 0.308594,-0.25782 0.449219,-0.51172 0.5625,-0.71485 0.140625,-0.24609 0.222656,-0.39453 0.492188,-0.5 0.449218,-0.0703 0.769531,-0.0273 1.113281,0.0234 0.02734,0.004 0.05859,0.008 0.08594,0.0117 -0.308593,0.71875 -1.023437,2.48047 -1.003906,3.17187 0.0078,0.19141 0.05078,0.3711 0.109375,0.54688 0,0 0.0039,0 0.0039,0 0.05078,0.13281 0.359374,0.76562 0.46875,0.95312 0.199218,0.33985 0.421874,0.72266 0.628906,1.20704 0.101562,0.24609 0.109375,0.44531 0.01563,0.62109 -0.1875,0.35156 -0.757813,0.53516 -0.933594,0.57031 -0.511719,0.0469 -1.164063,0.0117 -1.320313,-0.10547 -0.125,-0.0977 -0.09766,-0.74218 -0.08594,-1.05078 0.01172,-0.24609 -0.02734,-2.0625 -0.01953,-2.19531 z m 7.679686,-4.089845 v 5.554685 l -1.29297,-0.004 -0.0273,-5.02344 c 0.55859,-0.0977 1.00391,-0.27734 1.32031,-0.527345 z m -0.008,-0.691406 c -0.0312,0.03906 -0.0664,0.07031 -0.10547,0.101562 -0.0703,0.08203 -0.15234,0.152344 -0.25391,0.199219 -0.38281,0.289062 -0.95703,0.402344 -1.35937,0.445312 -0.37109,0.05078 -0.82031,-0.320312 -1.05078,-0.558593 0.55078,-0.820313 0.39062,-1.878907 0.38281,-1.917969 -0.0156,-0.132812 -0.4375,-3.332031 -0.76172,-4.847656 -0.27344,-1.265625 -0.0547,-3.40625 0.60547,-6.023438 0.10547,-0.414062 0.20313,-0.890625 0.28516,-1.421875 0.34765,-2.160156 0.46093,-4.859375 0.39062,-6.300781 -0.0703,-1.445312 -0.85156,-3.421875 -1.17578,-4.183594 0.0742,-0.01563 0.14844,-0.03906 0.21875,-0.05859 2.76172,3.289063 2.80078,5.605469 2.82031,6.859376 l 0.0117,17.707031 c 0,0 -0.004,0 -0.008,0 z m 0.54297,-49.875 v -5.859375 c 8.69531,6.640625 13.875,17.078125 13.875,28.019531 0,1.507813 -0.10156,3 -0.29297,4.476563 H 115 c 0,0 -0.0234,-3.800782 -0.0312,-6.527344 l 2.01172,1.871094 0.39062,-0.417969 -2.42578,-2.25 c -0.004,-1.128907 -0.004,-3.582031 -0.004,-3.582031 0.0508,0.125 0.17187,0.21875 0.32031,0.21875 0.19141,0 0.34766,-0.15625 0.34766,-0.347657 0,-0.191406 -0.15625,-0.347656 -0.34766,-0.347656 -0.14844,0 -0.26953,0.08984 -0.32031,0.214844 v -0.910157 c 0.0508,0.125 0.17187,0.214844 0.32031,0.214844 0.19141,0 0.34766,-0.152344 0.34766,-0.347656 0,-0.191406 -0.15625,-0.347656 -0.34766,-0.347656 -0.14844,0 -0.26953,0.08984 -0.32031,0.21875 v -0.910156 c 0.0508,0.125 0.17187,0.214843 0.32031,0.214843 0.19141,0 0.34766,-0.15625 0.34766,-0.347656 0,-0.191406 -0.15625,-0.347656 -0.34766,-0.347656 -0.14844,0 -0.26953,0.08984 -0.32031,0.21875 V 62.023438 H 114.8125 C 114.92188,61.96875 115,61.855469 115,61.722656 c 0,-0.195312 -0.15625,-0.351562 -0.34766,-0.351562 -0.1914,0 -0.34765,0.15625 -0.34765,0.351562 0,0.132813 0.0781,0.246094 0.1875,0.300782 h -0.125 v 0.359374 c -0.0586,-0.105468 -0.17188,-0.183593 -0.30078,-0.183593 -0.19141,0 -0.34766,0.15625 -0.34766,0.347656 0,0.191406 0.15625,0.347656 0.34766,0.347656 0.1289,0 0.24218,-0.07422 0.30078,-0.183593 v 0.84375 c -0.0586,-0.105469 -0.17188,-0.183594 -0.30078,-0.183594 -0.19141,0 -0.34766,0.15625 -0.34766,0.347656 0,0.195312 0.15625,0.347656 0.34766,0.347656 0.1289,0 0.24218,-0.07422 0.30078,-0.179687 v 0.839843 c -0.0586,-0.105468 -0.17188,-0.179687 -0.30078,-0.179687 -0.19141,0 -0.34766,0.15625 -0.34766,0.347656 0,0.191407 0.15625,0.347657 0.34766,0.347657 0.1289,0 0.24218,-0.07422 0.30078,-0.183594 v 3.390625 l -3.01563,0.0078 c 0,-0.07031 -0.0391,-11.230469 -0.0391,-11.230469 0.0508,0.125 0.17578,0.214844 0.32031,0.214844 0.19141,0 0.34766,-0.15625 0.34766,-0.347656 0,-0.191406 -0.15625,-0.347656 -0.34766,-0.347656 -0.14453,0 -0.26953,0.08984 -0.32031,0.21875 v -0.910156 c 0.0508,0.125 0.17578,0.214843 0.32031,0.214843 0.19141,0 0.34766,-0.15625 0.34766,-0.347656 0,-0.191406 -0.15625,-0.347656 -0.34766,-0.347656 -0.14453,0 -0.26953,0.08984 -0.32031,0.214843 V 54.8828 c 0.0508,0.125 0.17578,0.214844 0.32031,0.214844 0.19141,0 0.34766,-0.15625 0.34766,-0.351562 0,-0.191406 -0.15625,-0.34375 -0.34766,-0.34375 -0.14453,0 -0.26953,0.08984 -0.32031,0.214844 V 54.22655 h -0.125 c 0.10938,-0.05469 0.1875,-0.167968 0.1875,-0.304687 0,-0.1875 -0.15625,-0.34375 -0.34766,-0.34375 -0.1914,0 -0.34765,0.15625 -0.34765,0.34375 0,0.136719 0.0781,0.25 0.1875,0.304687 h -0.12891 v 0.355469 c -0.0586,-0.105469 -0.16797,-0.179687 -0.30078,-0.179687 -0.19141,0 -0.34766,0.152344 -0.34766,0.34375 0,0.195312 0.15625,0.351562 0.34766,0.351562 0.13281,0 0.24219,-0.07813 0.30078,-0.183594 v 0.84375 c -0.0586,-0.109374 -0.16797,-0.183593 -0.30078,-0.183593 -0.19141,0 -0.34766,0.15625 -0.34766,0.347656 0,0.191406 0.15625,0.347656 0.34766,0.347656 0.13281,0 0.24219,-0.07422 0.30078,-0.183593 v 0.84375 c -0.0586,-0.105469 -0.16797,-0.183594 -0.30078,-0.183594 -0.19141,0 -0.34766,0.15625 -0.34766,0.347656 0,0.191406 0.15625,0.347656 0.34766,0.347656 0.13281,0 0.24219,-0.07422 0.30078,-0.179687 v 6.222656 c -1.07812,-4.90625 -3.80469,-8.585937 -5.68359,-9.90625 v -3.753906 h 1.47265 v -0.53125 z M 90.777344,31.679688 v 0.878906 H 75.96875 V 31.679688 Z M 83.617188,30.011719 H 84.59375 V 29.484375 H 83.617188 V 28.15625 c 2.695312,0.06641 5.097656,1.257812 6.050781,2.996094 h -6.050781 z m -0.04688,-2.683594 c -24.167968,0 -43.828124,19.664063 -43.828124,43.828125 0,15.363281 7.949218,28.89453 19.945312,36.72266 l 0.226562,0.14453 c 6.828126,4.39844 14.945313,6.96094 23.65625,6.96094 24.167972,0 43.828132,-19.660161 43.828132,-43.82813 0,-24.164062 -19.66016,-43.828125 -43.828132,-43.828125"
     id="path55" />
</svg>
