<?xml version="1.0" encoding="UTF-8"?>
<svg xmlns="http://www.w3.org/2000/svg" xmlns:xlink="http://www.w3.org/1999/xlink" width="612.075012" height="76.574997" viewBox="0 0 612.075012 76.574997">
<defs>
<clipPath id="clip-0">
<path clip-rule="nonzero" d="M 0 46 L 24 46 L 24 76.574219 L 0 76.574219 Z M 0 46 "/>
</clipPath>
<clipPath id="clip-1">
<path clip-rule="nonzero" d="M 28 54 L 47 54 L 47 76.574219 L 28 76.574219 Z M 28 54 "/>
</clipPath>
<clipPath id="clip-2">
<path clip-rule="nonzero" d="M 50 48 L 64 48 L 64 76.574219 L 50 76.574219 Z M 50 48 "/>
</clipPath>
<clipPath id="clip-3">
<path clip-rule="nonzero" d="M 67 55 L 86 55 L 86 76.574219 L 67 76.574219 Z M 67 55 "/>
</clipPath>
<clipPath id="clip-4">
<path clip-rule="nonzero" d="M 107 55 L 138 55 L 138 76.574219 L 107 76.574219 Z M 107 55 "/>
</clipPath>
<clipPath id="clip-5">
<path clip-rule="nonzero" d="M 151 54 L 168 54 L 168 76.574219 L 151 76.574219 Z M 151 54 "/>
</clipPath>
<clipPath id="clip-6">
<path clip-rule="nonzero" d="M 170 54 L 187 54 L 187 76.574219 L 170 76.574219 Z M 170 54 "/>
</clipPath>
<clipPath id="clip-7">
<path clip-rule="nonzero" d="M 190 54 L 210 54 L 210 76.574219 L 190 76.574219 Z M 190 54 "/>
</clipPath>
<clipPath id="clip-8">
<path clip-rule="nonzero" d="M 215 54 L 234 54 L 234 76.574219 L 215 76.574219 Z M 215 54 "/>
</clipPath>
<clipPath id="clip-9">
<path clip-rule="nonzero" d="M 237 54 L 255 54 L 255 76.574219 L 237 76.574219 Z M 237 54 "/>
</clipPath>
<clipPath id="clip-10">
<path clip-rule="nonzero" d="M 258 54 L 276 54 L 276 76.574219 L 258 76.574219 Z M 258 54 "/>
</clipPath>
<clipPath id="clip-11">
<path clip-rule="nonzero" d="M 279 45 L 298 45 L 298 76.574219 L 279 76.574219 Z M 279 45 "/>
</clipPath>
<clipPath id="clip-12">
<path clip-rule="nonzero" d="M 302 54 L 321 54 L 321 76.574219 L 302 76.574219 Z M 302 54 "/>
</clipPath>
<clipPath id="clip-13">
<path clip-rule="nonzero" d="M 340 48 L 354 48 L 354 76.574219 L 340 76.574219 Z M 340 48 "/>
</clipPath>
<clipPath id="clip-14">
<path clip-rule="nonzero" d="M 379 54 L 398 54 L 398 76.574219 L 379 76.574219 Z M 379 54 "/>
</clipPath>
<clipPath id="clip-15">
<path clip-rule="nonzero" d="M 401 45 L 420 45 L 420 76.574219 L 401 76.574219 Z M 401 45 "/>
</clipPath>
<clipPath id="clip-16">
<path clip-rule="nonzero" d="M 424 54 L 444 54 L 444 76.574219 L 424 76.574219 Z M 424 54 "/>
</clipPath>
<clipPath id="clip-17">
<path clip-rule="nonzero" d="M 461 47 L 480 47 L 480 76.574219 L 461 76.574219 Z M 461 47 "/>
</clipPath>
<clipPath id="clip-18">
<path clip-rule="nonzero" d="M 480 54 L 499 54 L 499 76.574219 L 480 76.574219 Z M 480 54 "/>
</clipPath>
<clipPath id="clip-19">
<path clip-rule="nonzero" d="M 504 45 L 524 45 L 524 76.574219 L 504 76.574219 Z M 504 45 "/>
</clipPath>
<clipPath id="clip-20">
<path clip-rule="nonzero" d="M 526 55 L 546 55 L 546 76.574219 L 526 76.574219 Z M 526 55 "/>
</clipPath>
<clipPath id="clip-21">
<path clip-rule="nonzero" d="M 560 48 L 574 48 L 574 76.574219 L 560 76.574219 Z M 560 48 "/>
</clipPath>
<clipPath id="clip-22">
<path clip-rule="nonzero" d="M 577 46 L 596 46 L 596 76.574219 L 577 76.574219 Z M 577 46 "/>
</clipPath>
<clipPath id="clip-23">
<path clip-rule="nonzero" d="M 599 48 L 612.074219 48 L 612.074219 76.574219 L 599 76.574219 Z M 599 48 "/>
</clipPath>
</defs>
<path fill-rule="nonzero" fill="rgb(100%, 100%, 100%)" fill-opacity="1" d="M 18.300781 6.375 L 5.175781 6.375 L 5.175781 13.574219 L 14.925781 13.574219 L 14.925781 18.300781 L 5.175781 18.300781 L 5.175781 30.675781 L 0 30.675781 L 0 1.574219 L 18.226562 1.574219 L 18.226562 6.375 Z M 18.300781 6.375 "/>
<path fill-rule="nonzero" fill="rgb(100%, 100%, 100%)" fill-opacity="1" d="M 33.75 9.523438 L 33 14.550781 C 32.25 14.175781 31.351562 13.875 30.300781 13.875 C 26.925781 13.875 26.023438 16.574219 26.023438 19.800781 L 26.023438 30.601562 L 21.148438 30.601562 L 21.148438 9.601562 L 25.949219 9.601562 L 25.949219 12.300781 L 26.023438 12.300781 C 27.148438 10.351562 29.101562 9.148438 31.5 9.148438 C 32.175781 9.074219 33 9.226562 33.75 9.523438 Z M 33.75 9.523438 "/>
<path fill-rule="nonzero" fill="rgb(100%, 100%, 100%)" fill-opacity="1" d="M 43.5 3.300781 C 43.5 5.023438 42.074219 6.300781 40.351562 6.300781 C 38.625 6.300781 37.273438 5.101562 37.273438 3.300781 C 37.273438 1.574219 38.699219 0.300781 40.351562 0.300781 C 42.074219 0.300781 43.5 1.574219 43.5 3.300781 Z M 42.824219 30.601562 L 37.949219 30.601562 L 37.949219 9.601562 L 42.824219 9.601562 Z M 42.824219 30.601562 "/>
<path fill-rule="nonzero" fill="rgb(100%, 100%, 100%)" fill-opacity="1" d="M 58.425781 31.125 C 52.199219 31.125 48 26.699219 48 20.101562 C 48 13.574219 51.976562 9.148438 57.824219 9.148438 C 63.449219 9.148438 67.125 13.351562 67.125 19.800781 C 67.125 20.476562 67.050781 21.226562 67.050781 21.824219 L 52.949219 21.824219 C 53.476562 25.050781 55.425781 26.925781 58.425781 26.925781 C 60.375 26.925781 61.949219 26.175781 63.601562 24.449219 L 66.675781 27.675781 C 64.273438 30 61.574219 31.125 58.425781 31.125 Z M 52.875 18.226562 L 62.398438 18.226562 C 62.175781 15 60.523438 13.125 57.75 13.125 C 55.050781 13.125 53.324219 15 52.875 18.226562 Z M 52.875 18.226562 "/>
<path fill-rule="nonzero" fill="rgb(100%, 100%, 100%)" fill-opacity="1" d="M 71.476562 20.101562 C 71.476562 13.351562 74.925781 9.148438 80.023438 9.148438 C 82.648438 9.148438 84.75 10.273438 86.101562 12 L 86.175781 12 L 86.175781 1.199219 L 91.050781 0 L 91.050781 30.675781 L 86.25 30.675781 L 86.25 28.199219 L 86.175781 28.199219 C 84.675781 30.074219 82.5 31.199219 79.875 31.199219 C 74.925781 31.125 71.476562 26.851562 71.476562 20.101562 Z M 76.273438 20.101562 C 76.273438 24.375 78.074219 26.851562 81.148438 26.851562 C 83.023438 26.851562 84.601562 25.949219 86.175781 24.074219 L 86.175781 16.351562 C 84.75 14.476562 83.175781 13.574219 81.148438 13.574219 C 78 13.574219 76.273438 15.898438 76.273438 20.101562 Z M 76.273438 20.101562 "/>
<path fill-rule="nonzero" fill="rgb(100%, 100%, 100%)" fill-opacity="1" d="M 110.175781 9.523438 L 109.425781 14.550781 C 108.675781 14.175781 107.773438 13.875 106.726562 13.875 C 103.351562 13.875 102.449219 16.574219 102.449219 19.800781 L 102.449219 30.601562 L 97.574219 30.601562 L 97.574219 9.601562 L 102.375 9.601562 L 102.375 12.300781 L 102.449219 12.300781 C 103.574219 10.351562 105.523438 9.148438 107.925781 9.148438 C 108.601562 9.074219 109.425781 9.226562 110.175781 9.523438 Z M 110.175781 9.523438 "/>
<path fill-rule="nonzero" fill="rgb(100%, 100%, 100%)" fill-opacity="1" d="M 119.925781 3.300781 C 119.925781 5.023438 118.5 6.300781 116.773438 6.300781 C 115.050781 6.300781 113.699219 5.101562 113.699219 3.300781 C 113.699219 1.574219 115.125 0.300781 116.773438 0.300781 C 118.5 0.300781 119.925781 1.574219 119.925781 3.300781 Z M 119.25 30.601562 L 114.375 30.601562 L 114.375 9.601562 L 119.25 9.601562 Z M 119.25 30.601562 "/>
<path fill-rule="nonzero" fill="rgb(100%, 100%, 100%)" fill-opacity="1" d="M 142.050781 27.75 C 139.949219 30.074219 137.550781 31.125 134.550781 31.125 C 128.550781 31.125 124.5 26.773438 124.5 20.175781 C 124.5 13.574219 128.550781 9.074219 134.625 9.074219 C 137.773438 9.074219 140.324219 10.273438 142.199219 12.675781 L 138.824219 15.898438 C 137.625 14.324219 136.273438 13.574219 134.625 13.574219 C 131.550781 13.574219 129.449219 16.125 129.449219 20.101562 C 129.449219 24 131.550781 26.625 134.625 26.625 C 136.273438 26.625 137.625 25.875 138.976562 24.300781 Z M 142.050781 27.75 "/>
<path fill-rule="nonzero" fill="rgb(100%, 100%, 100%)" fill-opacity="1" d="M 164.476562 30.601562 L 159.601562 30.601562 L 159.601562 18.601562 C 159.601562 15.523438 158.625 13.5 155.699219 13.5 C 152.324219 13.5 151.351562 16.199219 151.351562 18.601562 L 151.351562 30.675781 L 146.476562 30.675781 L 146.476562 1.199219 L 151.351562 0 L 151.351562 12.226562 L 151.425781 12.226562 C 152.625 10.351562 154.800781 9.148438 157.574219 9.148438 C 162.449219 9.148438 164.476562 12.75 164.476562 17.625 Z M 164.476562 30.601562 "/>
<path fill-rule="nonzero" fill="rgb(100%, 100%, 100%)" fill-opacity="1" d="M 170.101562 15.449219 L 180.375 15.449219 L 180.375 20.101562 L 170.101562 20.101562 Z M 170.101562 15.449219 "/>
<path fill-rule="nonzero" fill="rgb(100%, 100%, 100%)" fill-opacity="1" d="M 193.726562 1.574219 L 199.199219 1.574219 L 210 30.601562 L 204.375 30.601562 L 202.273438 24.449219 L 190.574219 24.449219 L 188.476562 30.601562 L 183 30.601562 Z M 192.148438 19.800781 L 200.625 19.800781 L 196.425781 7.5 L 196.351562 7.5 Z M 192.148438 19.800781 "/>
<path fill-rule="nonzero" fill="rgb(100%, 100%, 100%)" fill-opacity="1" d="M 219.226562 30.601562 L 214.351562 30.601562 L 214.351562 1.125 L 219.226562 0 Z M 219.226562 30.601562 "/>
<path fill-rule="nonzero" fill="rgb(100%, 100%, 100%)" fill-opacity="1" d="M 234.898438 31.125 C 228.675781 31.125 224.476562 26.699219 224.476562 20.101562 C 224.476562 13.574219 228.449219 9.148438 234.300781 9.148438 C 239.925781 9.148438 243.601562 13.351562 243.601562 19.800781 C 243.601562 20.476562 243.523438 21.226562 243.523438 21.824219 L 229.425781 21.824219 C 229.949219 25.050781 231.898438 26.925781 234.898438 26.925781 C 236.851562 26.925781 238.425781 26.175781 240.074219 24.449219 L 243.148438 27.675781 C 240.75 30 238.125 31.125 234.898438 31.125 Z M 229.425781 18.226562 L 238.949219 18.226562 C 238.726562 15 237.074219 13.125 234.300781 13.125 C 231.601562 13.125 229.875 15 229.425781 18.226562 Z M 229.425781 18.226562 "/>
<path fill-rule="nonzero" fill="rgb(100%, 100%, 100%)" fill-opacity="1" d="M 266.398438 30.601562 L 260.773438 30.601562 L 256.273438 23.324219 L 256.199219 23.324219 L 251.851562 30.601562 L 246.300781 30.601562 L 253.5 19.726562 L 246.824219 9.601562 L 252.375 9.601562 L 256.351562 16.050781 L 256.425781 16.050781 L 260.324219 9.601562 L 265.800781 9.601562 L 259.199219 19.648438 Z M 266.398438 30.601562 "/>
<path fill-rule="nonzero" fill="rgb(100%, 100%, 100%)" fill-opacity="1" d="M 278.023438 17.625 C 279.375 17.625 280.648438 17.699219 282 18.074219 L 282 17.324219 C 282 14.625 280.425781 13.273438 277.351562 13.273438 C 275.625 13.273438 273.75 13.648438 272.023438 14.476562 L 270.976562 10.351562 C 272.925781 9.601562 275.476562 9.148438 277.875 9.148438 C 283.800781 9.148438 286.800781 11.925781 286.800781 17.25 L 286.800781 30.675781 L 282.148438 30.675781 L 282.148438 28.425781 L 282.074219 28.425781 C 280.273438 30.300781 278.398438 31.125 275.925781 31.125 C 271.726562 31.125 269.023438 28.5 269.023438 24.449219 C 268.949219 20.023438 272.101562 17.625 278.023438 17.625 Z M 277.199219 27.449219 C 279 27.449219 280.648438 26.550781 282 24.898438 L 282 21.300781 C 280.875 21 279.675781 20.925781 278.550781 20.925781 C 275.476562 20.925781 273.675781 22.199219 273.675781 24.375 C 273.675781 26.25 275.023438 27.449219 277.199219 27.449219 Z M 277.199219 27.449219 "/>
<path fill-rule="nonzero" fill="rgb(100%, 100%, 100%)" fill-opacity="1" d="M 311.101562 30.601562 L 306.226562 30.601562 L 306.226562 18.601562 C 306.226562 15.523438 305.324219 13.5 302.324219 13.5 C 298.875 13.5 297.976562 16.273438 297.976562 18.601562 L 297.976562 30.675781 L 293.101562 30.675781 L 293.101562 9.675781 L 297.976562 9.675781 L 297.976562 12.226562 L 298.050781 12.226562 C 299.324219 10.351562 301.5 9.148438 304.199219 9.148438 C 309 9.148438 311.101562 12.675781 311.101562 17.625 Z M 311.101562 30.601562 "/>
<path fill-rule="nonzero" fill="rgb(100%, 100%, 100%)" fill-opacity="1" d="M 316.273438 20.101562 C 316.273438 13.351562 319.726562 9.148438 324.824219 9.148438 C 327.449219 9.148438 329.550781 10.273438 330.898438 12 L 330.976562 12 L 330.976562 1.199219 L 335.851562 0 L 335.851562 30.675781 L 331.050781 30.675781 L 331.050781 28.199219 L 330.976562 28.199219 C 329.476562 30.074219 327.300781 31.199219 324.675781 31.199219 C 319.726562 31.125 316.273438 26.851562 316.273438 20.101562 Z M 321.148438 20.101562 C 321.148438 24.375 322.949219 26.851562 326.023438 26.851562 C 327.898438 26.851562 329.476562 25.949219 331.050781 24.074219 L 331.050781 16.351562 C 329.625 14.476562 328.050781 13.574219 326.023438 13.574219 C 322.800781 13.574219 321.148438 15.898438 321.148438 20.101562 Z M 321.148438 20.101562 "/>
<path fill-rule="nonzero" fill="rgb(100%, 100%, 100%)" fill-opacity="1" d="M 351.601562 31.125 C 345.375 31.125 341.175781 26.699219 341.175781 20.101562 C 341.175781 13.574219 345.148438 9.148438 351 9.148438 C 356.625 9.148438 360.300781 13.351562 360.300781 19.800781 C 360.300781 20.476562 360.226562 21.226562 360.226562 21.824219 L 346.125 21.824219 C 346.648438 25.050781 348.601562 26.925781 351.601562 26.925781 C 353.550781 26.925781 355.125 26.175781 356.773438 24.449219 L 359.851562 27.675781 C 357.449219 30 354.75 31.125 351.601562 31.125 Z M 346.125 18.226562 L 355.648438 18.226562 C 355.425781 15 353.773438 13.125 351 13.125 C 348.300781 13.125 346.5 15 346.125 18.226562 Z M 346.125 18.226562 "/>
<path fill-rule="nonzero" fill="rgb(100%, 100%, 100%)" fill-opacity="1" d="M 378.449219 9.523438 L 377.699219 14.550781 C 376.949219 14.175781 376.050781 13.875 375 13.875 C 371.625 13.875 370.726562 16.574219 370.726562 19.800781 L 370.726562 30.601562 L 365.851562 30.601562 L 365.851562 9.601562 L 370.648438 9.601562 L 370.648438 12.300781 L 370.726562 12.300781 C 371.851562 10.351562 373.800781 9.148438 376.199219 9.148438 C 376.875 9.074219 377.699219 9.226562 378.449219 9.523438 Z M 378.449219 9.523438 "/>
<path fill-rule="nonzero" fill="rgb(100%, 100%, 100%)" fill-opacity="1" d="M 381.523438 15.449219 L 391.800781 15.449219 L 391.800781 20.101562 L 381.523438 20.101562 Z M 381.523438 15.449219 "/>
<path fill-rule="nonzero" fill="rgb(100%, 100%, 100%)" fill-opacity="1" d="M 420.75 19.125 C 420.75 26.101562 417.148438 31.125 409.351562 31.125 C 401.625 31.125 398.023438 26.175781 398.023438 19.125 L 398.023438 1.574219 L 403.273438 1.574219 L 403.273438 18.824219 C 403.273438 23.175781 405.148438 26.175781 409.425781 26.175781 C 413.699219 26.175781 415.425781 23.25 415.425781 18.824219 L 415.425781 1.574219 L 420.675781 1.574219 L 420.675781 19.125 Z M 420.75 19.125 "/>
<path fill-rule="nonzero" fill="rgb(100%, 100%, 100%)" fill-opacity="1" d="M 445.351562 30.601562 L 440.476562 30.601562 L 440.476562 18.601562 C 440.476562 15.523438 439.574219 13.5 436.574219 13.5 C 433.125 13.5 432.226562 16.273438 432.226562 18.601562 L 432.226562 30.675781 L 427.351562 30.675781 L 427.351562 9.675781 L 432.226562 9.675781 L 432.226562 12.226562 L 432.300781 12.226562 C 433.574219 10.351562 435.75 9.148438 438.449219 9.148438 C 443.25 9.148438 445.351562 12.675781 445.351562 17.625 Z M 445.351562 30.601562 "/>
<path fill-rule="nonzero" fill="rgb(100%, 100%, 100%)" fill-opacity="1" d="M 457.125 3.300781 C 457.125 5.023438 455.699219 6.300781 453.976562 6.300781 C 452.25 6.300781 450.898438 5.101562 450.898438 3.300781 C 450.898438 1.574219 452.324219 0.300781 453.976562 0.300781 C 455.699219 0.300781 457.125 1.574219 457.125 3.300781 Z M 456.449219 30.601562 L 451.574219 30.601562 L 451.574219 9.601562 L 456.449219 9.601562 Z M 456.449219 30.601562 "/>
<path fill-rule="nonzero" fill="rgb(100%, 100%, 100%)" fill-opacity="1" d="M 480.976562 9.675781 L 473.324219 30.675781 L 468.226562 30.675781 L 460.574219 9.675781 L 465.976562 9.675781 L 470.773438 24.898438 L 470.851562 24.898438 L 475.648438 9.675781 Z M 480.976562 9.675781 "/>
<path fill-rule="nonzero" fill="rgb(100%, 100%, 100%)" fill-opacity="1" d="M 493.648438 31.125 C 487.425781 31.125 483.226562 26.699219 483.226562 20.101562 C 483.226562 13.574219 487.199219 9.148438 493.050781 9.148438 C 498.675781 9.148438 502.351562 13.351562 502.351562 19.800781 C 502.351562 20.476562 502.273438 21.226562 502.273438 21.824219 L 488.175781 21.824219 C 488.699219 25.050781 490.648438 26.925781 493.648438 26.925781 C 495.601562 26.925781 497.175781 26.175781 498.824219 24.449219 L 501.898438 27.675781 C 499.5 30 496.875 31.125 493.648438 31.125 Z M 488.175781 18.226562 L 497.699219 18.226562 C 497.476562 15 495.824219 13.125 493.050781 13.125 C 490.351562 13.125 488.625 15 488.175781 18.226562 Z M 488.175781 18.226562 "/>
<path fill-rule="nonzero" fill="rgb(100%, 100%, 100%)" fill-opacity="1" d="M 520.5 9.523438 L 519.75 14.550781 C 519 14.175781 518.101562 13.875 517.050781 13.875 C 513.675781 13.875 512.773438 16.574219 512.773438 19.800781 L 512.773438 30.601562 L 507.898438 30.601562 L 507.898438 9.601562 L 512.699219 9.601562 L 512.699219 12.300781 L 512.773438 12.300781 C 513.898438 10.351562 515.851562 9.148438 518.25 9.148438 C 518.925781 9.074219 519.75 9.226562 520.5 9.523438 Z M 520.5 9.523438 "/>
<path fill-rule="nonzero" fill="rgb(100%, 100%, 100%)" fill-opacity="1" d="M 525.148438 24.675781 C 527.25 26.25 529.199219 27 531.074219 27 C 532.875 27 534.148438 26.175781 534.148438 24.898438 C 534.148438 21.300781 523.648438 22.574219 523.648438 15.601562 C 523.648438 11.699219 526.875 9.074219 531.601562 9.074219 C 534.148438 9.074219 536.625 9.824219 538.875 11.25 L 536.550781 15.074219 C 534.75 13.800781 533.101562 13.199219 531.523438 13.199219 C 529.726562 13.199219 528.523438 13.949219 528.523438 15.148438 C 528.523438 18.601562 539.023438 17.398438 539.023438 24.449219 C 539.023438 28.425781 535.800781 31.125 530.925781 31.125 C 528.148438 31.125 525.300781 30.226562 522.824219 28.574219 Z M 525.148438 24.675781 "/>
<path fill-rule="nonzero" fill="rgb(100%, 100%, 100%)" fill-opacity="1" d="M 549.824219 3.300781 C 549.824219 5.023438 548.398438 6.300781 546.675781 6.300781 C 544.949219 6.300781 543.601562 5.101562 543.601562 3.300781 C 543.601562 1.574219 545.023438 0.300781 546.675781 0.300781 C 548.398438 0.300781 549.824219 1.574219 549.824219 3.300781 Z M 549.148438 30.601562 L 544.273438 30.601562 L 544.273438 9.601562 L 549.148438 9.601562 Z M 549.148438 30.601562 "/>
<path fill-rule="nonzero" fill="rgb(100%, 100%, 100%)" fill-opacity="1" d="M 566.398438 26.175781 L 566.398438 30.375 C 565.351562 30.898438 563.699219 31.125 562.273438 31.125 C 558.601562 31.125 556.574219 29.023438 556.574219 25.199219 L 556.574219 13.726562 L 553.351562 13.726562 L 553.351562 9.675781 L 556.5 9.675781 L 556.5 3.976562 L 561.375 2.925781 L 561.375 9.75 L 566.398438 9.75 L 566.398438 13.800781 L 561.375 13.800781 L 561.375 24.148438 C 561.375 26.101562 562.050781 26.925781 563.625 26.925781 C 564.523438 26.851562 565.574219 26.550781 566.398438 26.175781 Z M 566.398438 26.175781 "/>
<path fill-rule="nonzero" fill="rgb(100%, 100%, 100%)" fill-opacity="1" d="M 579.226562 17.625 C 580.574219 17.625 581.851562 17.699219 583.199219 18.074219 L 583.199219 17.324219 C 583.199219 14.625 581.625 13.273438 578.550781 13.273438 C 576.824219 13.273438 574.949219 13.648438 573.226562 14.476562 L 572.175781 10.351562 C 574.125 9.601562 576.675781 9.148438 579.074219 9.148438 C 585 9.148438 588 11.925781 588 17.25 L 588 30.675781 L 583.351562 30.675781 L 583.351562 28.425781 L 583.273438 28.425781 C 581.476562 30.300781 579.601562 31.125 577.125 31.125 C 572.925781 31.125 570.226562 28.5 570.226562 24.449219 C 570.226562 20.023438 573.375 17.625 579.226562 17.625 Z M 575.25 6.375 C 573.675781 6.375 572.324219 5.023438 572.324219 3.523438 C 572.324219 2.023438 573.675781 0.675781 575.25 0.675781 C 576.824219 0.675781 578.175781 2.023438 578.175781 3.523438 C 578.175781 5.101562 576.824219 6.375 575.25 6.375 Z M 578.398438 27.449219 C 580.199219 27.449219 581.851562 26.550781 583.199219 24.898438 L 583.199219 21.300781 C 582.074219 21 580.875 20.925781 579.75 20.925781 C 576.675781 20.925781 574.875 22.199219 574.875 24.375 C 574.875 26.25 576.300781 27.449219 578.398438 27.449219 Z M 583.800781 6.375 C 582.226562 6.375 580.875 5.023438 580.875 3.523438 C 580.875 2.023438 582.226562 0.675781 583.800781 0.675781 C 585.375 0.675781 586.726562 2.023438 586.726562 3.523438 C 586.726562 5.101562 585.375 6.375 583.800781 6.375 Z M 583.800781 6.375 "/>
<path fill-rule="nonzero" fill="rgb(100%, 100%, 100%)" fill-opacity="1" d="M 604.875 26.175781 L 604.875 30.375 C 603.824219 30.898438 602.175781 31.125 600.75 31.125 C 597.074219 31.125 595.050781 29.023438 595.050781 25.199219 L 595.050781 13.726562 L 591.824219 13.726562 L 591.824219 9.675781 L 594.976562 9.675781 L 594.976562 3.976562 L 599.851562 2.925781 L 599.851562 9.75 L 604.875 9.75 L 604.875 13.800781 L 599.851562 13.800781 L 599.851562 24.148438 C 599.851562 26.101562 600.523438 26.925781 602.101562 26.925781 C 603.074219 26.851562 604.050781 26.550781 604.875 26.175781 Z M 604.875 26.175781 "/>
<g clip-path="url(#clip-0)">
<path fill-rule="nonzero" fill="rgb(100%, 100%, 100%)" fill-opacity="1" d="M 0.0742188 46.949219 L 5.324219 46.949219 L 18.226562 67.199219 L 18.300781 67.199219 L 18.148438 46.949219 L 23.101562 46.949219 L 23.101562 75.976562 L 18 75.976562 L 5.101562 55.648438 L 5.023438 55.648438 L 5.101562 76.050781 L 0.0742188 76.050781 Z M 0.0742188 46.949219 "/>
</g>
<g clip-path="url(#clip-1)">
<path fill-rule="nonzero" fill="rgb(100%, 100%, 100%)" fill-opacity="1" d="M 37.726562 63 C 39.074219 63 40.351562 63.074219 41.699219 63.449219 L 41.699219 62.699219 C 41.699219 60 40.125 58.648438 37.050781 58.648438 C 35.324219 58.648438 33.449219 59.023438 31.726562 59.851562 L 30.675781 55.726562 C 32.625 54.976562 35.175781 54.523438 37.574219 54.523438 C 43.5 54.523438 46.5 57.300781 46.5 62.625 L 46.5 76.050781 L 41.851562 76.050781 L 41.851562 73.800781 L 41.773438 73.800781 C 39.976562 75.675781 38.101562 76.5 35.625 76.5 C 31.425781 76.5 28.726562 73.875 28.726562 69.824219 C 28.726562 65.398438 31.875 63 37.726562 63 Z M 36.898438 72.824219 C 38.699219 72.824219 40.351562 71.925781 41.699219 70.273438 L 41.699219 66.601562 C 40.574219 66.300781 39.375 66.226562 38.25 66.226562 C 35.175781 66.226562 33.375 67.5 33.375 69.675781 C 33.375 71.625 34.726562 72.824219 36.898438 72.824219 Z M 36.898438 72.824219 "/>
</g>
<g clip-path="url(#clip-2)">
<path fill-rule="nonzero" fill="rgb(100%, 100%, 100%)" fill-opacity="1" d="M 63.375 71.550781 L 63.375 75.75 C 62.324219 76.273438 60.675781 76.5 59.25 76.5 C 55.574219 76.5 53.550781 74.398438 53.550781 70.574219 L 53.550781 59.101562 L 50.324219 59.101562 L 50.324219 55.050781 L 53.476562 55.050781 L 53.476562 49.351562 L 58.351562 48.300781 L 58.351562 55.125 L 63.375 55.125 L 63.375 59.175781 L 58.351562 59.175781 L 58.351562 69.523438 C 58.351562 71.476562 59.023438 72.300781 60.601562 72.300781 C 61.574219 72.226562 62.550781 71.925781 63.375 71.550781 Z M 63.375 71.550781 "/>
</g>
<g clip-path="url(#clip-3)">
<path fill-rule="nonzero" fill="rgb(100%, 100%, 100%)" fill-opacity="1" d="M 72.675781 67.648438 C 72.675781 70.5 74.101562 72.074219 76.875 72.074219 C 79.574219 72.074219 80.925781 70.574219 80.925781 67.648438 L 80.925781 55.050781 L 85.800781 55.050781 L 85.800781 67.800781 C 85.800781 73.351562 82.726562 76.574219 76.949219 76.574219 C 71.25 76.574219 67.726562 73.351562 67.726562 67.875 L 67.726562 55.125 L 72.601562 55.125 L 72.601562 67.648438 Z M 72.675781 67.648438 "/>
</g>
<path fill-rule="nonzero" fill="rgb(100%, 100%, 100%)" fill-opacity="1" d="M 104.773438 54.898438 L 104.023438 59.925781 C 103.273438 59.550781 102.375 59.25 101.324219 59.25 C 97.949219 59.25 97.050781 61.949219 97.050781 65.175781 L 97.050781 75.976562 L 92.175781 75.976562 L 92.175781 54.976562 L 96.976562 54.976562 L 96.976562 57.601562 L 97.050781 57.601562 C 98.175781 55.648438 100.125 54.449219 102.523438 54.449219 C 103.125 54.449219 104.023438 54.601562 104.773438 54.898438 Z M 104.773438 54.898438 "/>
<g clip-path="url(#clip-4)">
<path fill-rule="nonzero" fill="rgb(100%, 100%, 100%)" fill-opacity="1" d="M 137.476562 55.050781 L 131.25 76.050781 L 126.523438 76.050781 L 122.699219 61.5 L 122.625 61.5 L 118.800781 76.050781 L 114.074219 76.050781 L 107.851562 55.050781 L 113.023438 55.050781 L 116.625 69.226562 L 116.699219 69.226562 L 120.449219 55.050781 L 124.949219 55.050781 L 128.773438 69.226562 L 128.851562 69.226562 L 132.375 55.050781 Z M 137.476562 55.050781 "/>
</g>
<path fill-rule="nonzero" fill="rgb(100%, 100%, 100%)" fill-opacity="1" d="M 147.375 48.675781 C 147.375 50.398438 145.949219 51.675781 144.226562 51.675781 C 142.5 51.675781 141.148438 50.398438 141.148438 48.675781 C 141.148438 46.949219 142.574219 45.675781 144.226562 45.675781 C 145.949219 45.675781 147.375 46.949219 147.375 48.675781 Z M 146.699219 75.976562 L 141.824219 75.976562 L 141.824219 54.976562 L 146.699219 54.976562 Z M 146.699219 75.976562 "/>
<g clip-path="url(#clip-5)">
<path fill-rule="nonzero" fill="rgb(100%, 100%, 100%)" fill-opacity="1" d="M 153.601562 70.050781 C 155.625 71.625 157.648438 72.375 159.523438 72.375 C 161.324219 72.375 162.601562 71.550781 162.601562 70.273438 C 162.601562 66.675781 152.101562 67.949219 152.101562 60.976562 C 152.101562 57.074219 155.324219 54.449219 160.050781 54.449219 C 162.601562 54.449219 165.074219 55.199219 167.324219 56.625 L 165 60.449219 C 163.199219 59.175781 161.550781 58.574219 159.976562 58.574219 C 158.175781 58.574219 156.976562 59.324219 156.976562 60.523438 C 156.976562 63.976562 167.476562 62.773438 167.476562 69.824219 C 167.476562 73.800781 164.25 76.5 159.375 76.5 C 156.601562 76.5 153.75 75.601562 151.273438 73.949219 Z M 153.601562 70.050781 "/>
</g>
<g clip-path="url(#clip-6)">
<path fill-rule="nonzero" fill="rgb(100%, 100%, 100%)" fill-opacity="1" d="M 173.023438 70.050781 C 175.125 71.625 177.074219 72.375 178.949219 72.375 C 180.75 72.375 182.023438 71.550781 182.023438 70.273438 C 182.023438 66.675781 171.523438 67.949219 171.523438 60.976562 C 171.523438 57.074219 174.75 54.449219 179.476562 54.449219 C 182.023438 54.449219 184.5 55.199219 186.75 56.625 L 184.425781 60.449219 C 182.625 59.175781 180.976562 58.574219 179.398438 58.574219 C 177.601562 58.574219 176.398438 59.324219 176.398438 60.523438 C 176.398438 63.976562 186.898438 62.773438 186.898438 69.824219 C 186.898438 73.800781 183.675781 76.5 178.800781 76.5 C 176.023438 76.5 173.175781 75.601562 170.699219 73.949219 Z M 173.023438 70.050781 "/>
</g>
<g clip-path="url(#clip-7)">
<path fill-rule="nonzero" fill="rgb(100%, 100%, 100%)" fill-opacity="1" d="M 201.226562 76.5 C 195 76.5 190.800781 72.074219 190.800781 65.476562 C 190.800781 58.949219 194.773438 54.523438 200.625 54.523438 C 206.25 54.523438 209.925781 58.726562 209.925781 65.175781 C 209.925781 65.851562 209.851562 66.601562 209.851562 67.199219 L 195.75 67.199219 C 196.273438 70.425781 198.226562 72.300781 201.226562 72.300781 C 203.175781 72.300781 204.75 71.550781 206.398438 69.824219 L 209.476562 73.050781 C 207.074219 75.375 204.375 76.5 201.226562 76.5 Z M 195.75 63.601562 L 205.273438 63.601562 C 205.050781 60.375 203.398438 58.5 200.625 58.5 C 197.851562 58.5 196.125 60.375 195.75 63.601562 Z M 195.75 63.601562 "/>
</g>
<g clip-path="url(#clip-8)">
<path fill-rule="nonzero" fill="rgb(100%, 100%, 100%)" fill-opacity="1" d="M 233.398438 75.976562 L 228.523438 75.976562 L 228.523438 63.976562 C 228.523438 60.898438 227.625 58.875 224.625 58.875 C 221.175781 58.875 220.273438 61.648438 220.273438 63.976562 L 220.273438 76.050781 L 215.398438 76.050781 L 215.398438 55.050781 L 220.273438 55.050781 L 220.273438 57.601562 L 220.351562 57.601562 C 221.625 55.726562 223.800781 54.523438 226.5 54.523438 C 231.300781 54.523438 233.398438 58.050781 233.398438 63 Z M 233.398438 75.976562 "/>
</g>
<g clip-path="url(#clip-9)">
<path fill-rule="nonzero" fill="rgb(100%, 100%, 100%)" fill-opacity="1" d="M 240.148438 70.050781 C 242.25 71.625 244.199219 72.375 246.074219 72.375 C 247.875 72.375 249.148438 71.550781 249.148438 70.273438 C 249.148438 66.675781 238.648438 67.949219 238.648438 60.976562 C 238.648438 57.074219 241.875 54.449219 246.601562 54.449219 C 249.148438 54.449219 251.625 55.199219 253.875 56.625 L 251.550781 60.449219 C 249.75 59.175781 248.101562 58.574219 246.523438 58.574219 C 244.726562 58.574219 243.523438 59.324219 243.523438 60.523438 C 243.523438 63.976562 254.023438 62.773438 254.023438 69.824219 C 254.023438 73.800781 250.800781 76.5 245.925781 76.5 C 243.148438 76.5 240.300781 75.601562 237.824219 73.949219 Z M 240.148438 70.050781 "/>
</g>
<g clip-path="url(#clip-10)">
<path fill-rule="nonzero" fill="rgb(100%, 100%, 100%)" fill-opacity="1" d="M 275.550781 73.125 C 273.449219 75.449219 271.050781 76.5 268.050781 76.5 C 262.050781 76.5 258 72.148438 258 65.550781 C 258 58.949219 262.050781 54.449219 268.125 54.449219 C 271.273438 54.449219 273.824219 55.648438 275.699219 58.050781 L 272.324219 61.273438 C 271.125 59.699219 269.773438 58.949219 268.125 58.949219 C 265.050781 58.949219 262.949219 61.5 262.949219 65.476562 C 262.949219 69.375 265.050781 72 268.125 72 C 269.773438 72 271.125 71.25 272.476562 69.675781 Z M 275.550781 73.125 "/>
</g>
<g clip-path="url(#clip-11)">
<path fill-rule="nonzero" fill="rgb(100%, 100%, 100%)" fill-opacity="1" d="M 297.898438 75.976562 L 293.023438 75.976562 L 293.023438 63.976562 C 293.023438 60.898438 292.050781 58.875 289.125 58.875 C 285.75 58.875 284.773438 61.574219 284.773438 63.976562 L 284.773438 76.050781 L 279.898438 76.050781 L 279.898438 46.574219 L 284.773438 45.375 L 284.773438 57.601562 L 284.851562 57.601562 C 286.050781 55.726562 288.226562 54.523438 291 54.523438 C 295.875 54.523438 297.898438 58.125 297.898438 63 Z M 297.898438 75.976562 "/>
</g>
<g clip-path="url(#clip-12)">
<path fill-rule="nonzero" fill="rgb(100%, 100%, 100%)" fill-opacity="1" d="M 311.773438 63 C 313.125 63 314.398438 63.074219 315.75 63.449219 L 315.75 62.699219 C 315.75 60 314.175781 58.648438 311.101562 58.648438 C 309.375 58.648438 307.5 59.023438 305.773438 59.851562 L 304.726562 55.726562 C 306.675781 54.976562 309.226562 54.523438 311.625 54.523438 C 317.550781 54.523438 320.550781 57.300781 320.550781 62.625 L 320.550781 76.050781 L 315.898438 76.050781 L 315.898438 73.800781 L 315.824219 73.800781 C 314.023438 75.675781 312.148438 76.5 309.675781 76.5 C 305.476562 76.5 302.773438 73.875 302.773438 69.824219 C 302.773438 65.398438 305.925781 63 311.773438 63 Z M 310.949219 72.824219 C 312.75 72.824219 314.398438 71.925781 315.75 70.273438 L 315.75 66.601562 C 314.625 66.300781 313.425781 66.226562 312.300781 66.226562 C 309.226562 66.226562 307.425781 67.5 307.425781 69.675781 C 307.5 71.625 308.851562 72.824219 310.949219 72.824219 Z M 310.949219 72.824219 "/>
</g>
<path fill-rule="nonzero" fill="rgb(100%, 100%, 100%)" fill-opacity="1" d="M 337.351562 49.648438 C 336.675781 49.351562 335.925781 49.199219 335.175781 49.199219 C 333.300781 49.199219 332.550781 50.175781 332.550781 52.125 L 332.550781 54.976562 L 336.75 54.976562 L 336.75 59.023438 L 332.625 59.023438 L 332.625 75.898438 L 327.75 75.898438 L 327.75 59.023438 L 324.523438 59.023438 L 324.523438 55.050781 L 327.75 55.050781 L 327.75 52.050781 C 327.75 47.699219 329.699219 45.074219 334.425781 45.074219 C 335.476562 45.074219 336.523438 45.226562 337.351562 45.523438 Z M 337.351562 49.648438 "/>
<g clip-path="url(#clip-13)">
<path fill-rule="nonzero" fill="rgb(100%, 100%, 100%)" fill-opacity="1" d="M 353.101562 71.550781 L 353.101562 75.75 C 352.050781 76.273438 350.398438 76.5 348.976562 76.5 C 345.300781 76.5 343.273438 74.398438 343.273438 70.574219 L 343.273438 59.101562 L 340.050781 59.101562 L 340.050781 55.050781 L 343.199219 55.050781 L 343.199219 49.351562 L 348.074219 48.300781 L 348.074219 55.125 L 353.101562 55.125 L 353.101562 59.175781 L 348.074219 59.175781 L 348.074219 69.523438 C 348.074219 71.476562 348.75 72.300781 350.324219 72.300781 C 351.226562 72.226562 352.273438 71.925781 353.101562 71.550781 Z M 353.101562 71.550781 "/>
</g>
<path fill-rule="nonzero" fill="rgb(100%, 100%, 100%)" fill-opacity="1" d="M 362.925781 75.976562 L 358.050781 75.976562 L 358.050781 46.425781 L 362.925781 45.300781 Z M 362.925781 75.976562 "/>
<path fill-rule="nonzero" fill="rgb(100%, 100%, 100%)" fill-opacity="1" d="M 375 48.675781 C 375 50.398438 373.574219 51.675781 371.851562 51.675781 C 370.125 51.675781 368.773438 50.398438 368.773438 48.675781 C 368.773438 46.949219 370.199219 45.675781 371.851562 45.675781 C 373.574219 45.675781 375 46.949219 375 48.675781 Z M 374.324219 75.976562 L 369.449219 75.976562 L 369.449219 54.976562 L 374.324219 54.976562 Z M 374.324219 75.976562 "/>
<g clip-path="url(#clip-14)">
<path fill-rule="nonzero" fill="rgb(100%, 100%, 100%)" fill-opacity="1" d="M 397.125 73.125 C 395.023438 75.449219 392.625 76.5 389.625 76.5 C 383.625 76.5 379.574219 72.148438 379.574219 65.550781 C 379.574219 58.949219 383.625 54.449219 389.699219 54.449219 C 392.851562 54.449219 395.398438 55.648438 397.273438 58.050781 L 393.898438 61.273438 C 392.699219 59.699219 391.351562 58.949219 389.699219 58.949219 C 386.625 58.949219 384.523438 61.5 384.523438 65.476562 C 384.523438 69.375 386.625 72 389.699219 72 C 391.351562 72 392.699219 71.25 394.050781 69.675781 Z M 397.125 73.125 "/>
</g>
<g clip-path="url(#clip-15)">
<path fill-rule="nonzero" fill="rgb(100%, 100%, 100%)" fill-opacity="1" d="M 419.550781 75.976562 L 414.601562 75.976562 L 414.601562 63.976562 C 414.601562 60.898438 413.625 58.875 410.699219 58.875 C 407.324219 58.875 406.351562 61.574219 406.351562 63.976562 L 406.351562 76.050781 L 401.476562 76.050781 L 401.476562 46.574219 L 406.351562 45.375 L 406.351562 57.601562 L 406.425781 57.601562 C 407.625 55.726562 409.800781 54.523438 412.574219 54.523438 C 417.449219 54.523438 419.476562 58.125 419.476562 63 L 419.476562 75.976562 Z M 419.550781 75.976562 "/>
</g>
<g clip-path="url(#clip-16)">
<path fill-rule="nonzero" fill="rgb(100%, 100%, 100%)" fill-opacity="1" d="M 435.074219 76.5 C 428.851562 76.5 424.648438 72.074219 424.648438 65.476562 C 424.648438 58.949219 428.625 54.523438 434.476562 54.523438 C 440.101562 54.523438 443.773438 58.726562 443.773438 65.175781 C 443.773438 65.851562 443.699219 66.601562 443.699219 67.199219 L 429.601562 67.199219 C 430.125 70.425781 432.074219 72.300781 435.074219 72.300781 C 437.023438 72.300781 438.601562 71.550781 440.25 69.824219 L 443.324219 73.050781 C 440.925781 75.375 438.226562 76.5 435.074219 76.5 Z M 429.601562 63.601562 L 439.125 63.601562 C 438.898438 60.375 437.25 58.5 434.476562 58.5 C 431.699219 58.5 429.976562 60.375 429.601562 63.601562 Z M 429.601562 63.601562 "/>
</g>
<g clip-path="url(#clip-17)">
<path fill-rule="nonzero" fill="rgb(100%, 100%, 100%)" fill-opacity="1" d="M 479.925781 51.75 L 466.875 51.75 L 466.875 58.949219 L 476.625 58.949219 L 476.625 63.675781 L 466.875 63.675781 L 466.875 76.050781 L 461.699219 76.050781 L 461.699219 47.023438 L 479.925781 47.023438 Z M 479.925781 51.75 "/>
</g>
<g clip-path="url(#clip-18)">
<path fill-rule="nonzero" fill="rgb(100%, 100%, 100%)" fill-opacity="1" d="M 489.898438 63 C 491.25 63 492.523438 63.074219 493.875 63.449219 L 493.875 62.699219 C 493.875 60 492.300781 58.648438 489.226562 58.648438 C 487.5 58.648438 485.625 59.023438 483.898438 59.851562 L 482.851562 55.726562 C 484.800781 54.976562 487.351562 54.523438 489.75 54.523438 C 495.675781 54.523438 498.675781 57.300781 498.675781 62.625 L 498.675781 76.050781 L 494.023438 76.050781 L 494.023438 73.800781 L 493.949219 73.800781 C 492.148438 75.675781 490.273438 76.5 487.800781 76.5 C 483.601562 76.5 480.898438 73.875 480.898438 69.824219 C 480.824219 65.398438 483.976562 63 489.898438 63 Z M 489.074219 72.824219 C 490.875 72.824219 492.523438 71.925781 493.875 70.273438 L 493.875 66.601562 C 492.75 66.300781 491.550781 66.226562 490.425781 66.226562 C 487.351562 66.226562 485.550781 67.5 485.550781 69.675781 C 485.550781 71.625 486.898438 72.824219 489.074219 72.824219 Z M 489.074219 72.824219 "/>
</g>
<g clip-path="url(#clip-19)">
<path fill-rule="nonzero" fill="rgb(100%, 100%, 100%)" fill-opacity="1" d="M 504.898438 46.574219 L 509.773438 45.375 L 509.773438 63.824219 L 509.851562 63.824219 L 516.75 55.050781 L 522.601562 55.050781 L 515.699219 63.300781 L 523.351562 76.050781 L 517.5 76.050781 L 512.25 66.976562 L 509.851562 69.675781 L 509.851562 76.050781 L 504.976562 76.050781 L 504.976562 46.574219 Z M 504.898438 46.574219 "/>
</g>
<g clip-path="url(#clip-20)">
<path fill-rule="nonzero" fill="rgb(100%, 100%, 100%)" fill-opacity="1" d="M 531.898438 67.648438 C 531.898438 70.5 533.324219 72.074219 536.101562 72.074219 C 538.800781 72.074219 540.148438 70.574219 540.148438 67.648438 L 540.148438 55.050781 L 545.023438 55.050781 L 545.023438 67.800781 C 545.023438 73.351562 541.949219 76.574219 536.175781 76.574219 C 530.476562 76.574219 526.949219 73.351562 526.949219 67.875 L 526.949219 55.125 L 531.824219 55.125 L 531.824219 67.648438 Z M 531.898438 67.648438 "/>
</g>
<path fill-rule="nonzero" fill="rgb(100%, 100%, 100%)" fill-opacity="1" d="M 556.199219 75.976562 L 551.324219 75.976562 L 551.324219 46.425781 L 556.199219 45.300781 Z M 556.199219 75.976562 "/>
<g clip-path="url(#clip-21)">
<path fill-rule="nonzero" fill="rgb(100%, 100%, 100%)" fill-opacity="1" d="M 573.601562 71.550781 L 573.601562 75.75 C 572.550781 76.273438 570.898438 76.5 569.476562 76.5 C 565.800781 76.5 563.773438 74.398438 563.773438 70.574219 L 563.773438 59.101562 L 560.550781 59.101562 L 560.550781 55.050781 L 563.699219 55.050781 L 563.699219 49.351562 L 568.574219 48.300781 L 568.574219 55.125 L 573.601562 55.125 L 573.601562 59.175781 L 568.574219 59.175781 L 568.574219 69.523438 C 568.574219 71.476562 569.25 72.300781 570.824219 72.300781 C 571.726562 72.226562 572.773438 71.925781 573.601562 71.550781 Z M 573.601562 71.550781 "/>
</g>
<g clip-path="url(#clip-22)">
<path fill-rule="nonzero" fill="rgb(100%, 100%, 100%)" fill-opacity="1" d="M 586.425781 63 C 587.773438 63 589.050781 63.074219 590.398438 63.449219 L 590.398438 62.699219 C 590.398438 60 588.824219 58.648438 585.75 58.648438 C 584.023438 58.648438 582.148438 59.023438 580.425781 59.851562 L 579.375 55.726562 C 581.324219 54.976562 583.875 54.523438 586.273438 54.523438 C 592.199219 54.523438 595.199219 57.300781 595.199219 62.625 L 595.199219 76.050781 L 590.550781 76.050781 L 590.550781 73.800781 L 590.476562 73.800781 C 588.675781 75.675781 586.800781 76.5 584.324219 76.5 C 580.125 76.5 577.425781 73.875 577.425781 69.824219 C 577.425781 65.398438 580.574219 63 586.425781 63 Z M 582.449219 51.75 C 580.875 51.75 579.523438 50.398438 579.523438 48.898438 C 579.523438 47.398438 580.875 46.050781 582.449219 46.050781 C 584.023438 46.050781 585.375 47.398438 585.375 48.898438 C 585.375 50.476562 584.023438 51.75 582.449219 51.75 Z M 585.601562 72.824219 C 587.398438 72.824219 589.050781 71.925781 590.398438 70.273438 L 590.398438 66.601562 C 589.273438 66.300781 588.074219 66.226562 586.949219 66.226562 C 583.875 66.226562 582.074219 67.5 582.074219 69.675781 C 582.074219 71.625 583.425781 72.824219 585.601562 72.824219 Z M 591 51.75 C 589.425781 51.75 588.074219 50.398438 588.074219 48.898438 C 588.074219 47.398438 589.425781 46.050781 591 46.050781 C 592.574219 46.050781 593.925781 47.398438 593.925781 48.898438 C 593.925781 50.476562 592.574219 51.75 591 51.75 Z M 591 51.75 "/>
</g>
<g clip-path="url(#clip-23)">
<path fill-rule="nonzero" fill="rgb(100%, 100%, 100%)" fill-opacity="1" d="M 612.074219 71.550781 L 612.074219 75.75 C 611.023438 76.273438 609.375 76.5 607.949219 76.5 C 604.273438 76.5 602.25 74.398438 602.25 70.574219 L 602.25 59.101562 L 599.023438 59.101562 L 599.023438 55.050781 L 602.175781 55.050781 L 602.175781 49.351562 L 607.050781 48.300781 L 607.050781 55.125 L 612.074219 55.125 L 612.074219 59.175781 L 607.050781 59.175781 L 607.050781 69.523438 C 607.050781 71.476562 607.726562 72.300781 609.300781 72.300781 C 610.273438 72.226562 611.25 71.925781 612.074219 71.550781 Z M 612.074219 71.550781 "/>
</g>
</svg>
